  0
SECTION
  2
HEADER
  9
$ACADVER
  1
AC1032
  9
$ACADMAINTVER
 90
      197
  9
$DWGCODEPAGE
  3
ANSI_1252
  9
$REQUIREDVERSIONS
160
                 0
  9
$INSBASE
 10
0.0
 20
0.0
 30
0.0
  9
$EXTMIN
 10
1.000000000000000E+20
 20
1.000000000000000E+20
 30
1.000000000000000E+20
  9
$EXTMAX
 10
-1.000000000000000E+20
 20
-1.000000000000000E+20
 30
-1.000000000000000E+20
  9
$LIMMIN
 10
0.0
 20
0.0
  9
$LIMMAX
 10
12.0
 20
9.0
  9
$ORTHOMODE
 70
     0
  9
$REGENMODE
 70
     1
  9
$FILLMODE
 70
     1
  9
$QTEXTMODE
 70
     0
  9
$MIRRTEXT
 70
     0
  9
$LTSCALE
 40
1.0
  9
$ATTMODE
 70
     1
  9
$TEXTSIZE
 40
0.2
  9
$TRACEWID
 40
0.05
  9
$TEXTSTYLE
  7
Standard
  9
$CLAYER
  8
0
  9
$CELTYPE
  6
ByLayer
  9
$CECOLOR
 62
   256
  9
$CELTSCALE
 40
1.0
  9
$DISPSILH
 70
     0
  9
$DIMSCALE
 40
1.0
  9
$DIMASZ
 40
0.18
  9
$DIMEXO
 40
0.0625
  9
$DIMDLI
 40
0.38
  9
$DIMRND
 40
0.0
  9
$DIMDLE
 40
0.0
  9
$DIMEXE
 40
0.18
  9
$DIMTP
 40
0.0
  9
$DIMTM
 40
0.0
  9
$DIMTXT
 40
0.18
  9
$DIMCEN
 40
0.09
  9
$DIMTSZ
 40
0.0
  9
$DIMTOL
 70
     0
  9
$DIMLIM
 70
     0
  9
$DIMTIH
 70
     1
  9
$DIMTOH
 70
     1
  9
$DIMSE1
 70
     0
  9
$DIMSE2
 70
     0
  9
$DIMTAD
 70
     0
  9
$DIMZIN
 70
     0
  9
$DIMBLK
  1

  9
$DIMASO
 70
     1
  9
$DIMSHO
 70
     1
  9
$DIMPOST
  1

  9
$DIMAPOST
  1

  9
$DIMALT
 70
     0
  9
$DIMALTD
 70
     2
  9
$DIMALTF
 40
25.4
  9
$DIMLFAC
 40
1.0
  9
$DIMTOFL
 70
     0
  9
$DIMTVP
 40
0.0
  9
$DIMTIX
 70
     0
  9
$DIMSOXD
 70
     0
  9
$DIMSAH
 70
     0
  9
$DIMBLK1
  1

  9
$DIMBLK2
  1

  9
$DIMSTYLE
  2
Standard
  9
$DIMCLRD
 70
     0
  9
$DIMCLRE
 70
     0
  9
$DIMCLRT
 70
     0
  9
$DIMTFAC
 40
1.0
  9
$DIMGAP
 40
0.09
  9
$DIMJUST
 70
     0
  9
$DIMSD1
 70
     0
  9
$DIMSD2
 70
     0
  9
$DIMTOLJ
 70
     1
  9
$DIMTZIN
 70
     0
  9
$DIMALTZ
 70
     0
  9
$DIMALTTZ
 70
     0
  9
$DIMUPT
 70
     0
  9
$DIMDEC
 70
     4
  9
$DIMTDEC
 70
     4
  9
$DIMALTU
 70
     2
  9
$DIMALTTD
 70
     2
  9
$DIMTXSTY
  7
Standard
  9
$DIMAUNIT
 70
     0
  9
$DIMADEC
 70
     0
  9
$DIMALTRND
 40
0.0
  9
$DIMAZIN
 70
     0
  9
$DIMDSEP
 70
    46
  9
$DIMATFIT
 70
     3
  9
$DIMFRAC
 70
     0
  9
$DIMLDRBLK
  1

  9
$DIMLUNIT
 70
     2
  9
$DIMLWD
 70
    -2
  9
$DIMLWE
 70
    -2
  9
$DIMTMOVE
 70
     0
  9
$DIMFXL
 40
1.0
  9
$DIMFXLON
 70
     0
  9
$DIMJOGANG
 40
0.7853981633974483
  9
$DIMTFILL
 70
     0
  9
$DIMTFILLCLR
 70
     0
  9
$DIMARCSYM
 70
     0
  9
$DIMLTYPE
  6

  9
$DIMLTEX1
  6

  9
$DIMLTEX2
  6

  9
$DIMTXTDIRECTION
 70
     0
  9
$LUNITS
 70
     2
  9
$LUPREC
 70
     4
  9
$SKETCHINC
 40
0.1
  9
$FILLETRAD
 40
0.0
  9
$AUNITS
 70
     0
  9
$AUPREC
 70
     0
  9
$MENU
  1
.
  9
$ELEVATION
 40
0.0
  9
$PELEVATION
 40
0.0
  9
$THICKNESS
 40
0.0
  9
$LIMCHECK
 70
     0
  9
$CHAMFERA
 40
0.0
  9
$CHAMFERB
 40
0.0
  9
$CHAMFERC
 40
0.0
  9
$CHAMFERD
 40
0.0
  9
$SKPOLY
 70
     0
  9
$TDCREATE
 40
2459706.509988426
  9
$TDUCREATE
 40
2459706.426655093
  9
$TDUPDATE
 40
2459706.509988426
  9
$TDUUPDATE
 40
2459706.426655093
  9
$TDINDWG
 40
0.0000000000
  9
$TDUSRTIMER
 40
0.0000000000
  9
$USRTIMER
 70
     1
  9
$ANGBASE
 50
0.0
  9
$ANGDIR
 70
     0
  9
$PDMODE
 70
     0
  9
$PDSIZE
 40
0.0
  9
$PLINEWID
 40
0.0
  9
$SPLFRAME
 70
     0
  9
$SPLINETYPE
 70
     6
  9
$SPLINESEGS
 70
     8
  9
$HANDSEED
  5
B3
  9
$SURFTAB1
 70
     6
  9
$SURFTAB2
 70
     6
  9
$SURFTYPE
 70
     6
  9
$SURFU
 70
     6
  9
$SURFV
 70
     6
  9
$UCSBASE
  2

  9
$UCSNAME
  2

  9
$UCSORG
 10
0.0
 20
0.0
 30
0.0
  9
$UCSXDIR
 10
1.0
 20
0.0
 30
0.0
  9
$UCSYDIR
 10
0.0
 20
1.0
 30
0.0
  9
$UCSORTHOREF
  2

  9
$UCSORTHOVIEW
 70
     0
  9
$UCSORGTOP
 10
0.0
 20
0.0
 30
0.0
  9
$UCSORGBOTTOM
 10
0.0
 20
0.0
 30
0.0
  9
$UCSORGLEFT
 10
0.0
 20
0.0
 30
0.0
  9
$UCSORGRIGHT
 10
0.0
 20
0.0
 30
0.0
  9
$UCSORGFRONT
 10
0.0
 20
0.0
 30
0.0
  9
$UCSORGBACK
 10
0.0
 20
0.0
 30
0.0
  9
$PUCSBASE
  2

  9
$PUCSNAME
  2

  9
$PUCSORG
 10
0.0
 20
0.0
 30
0.0
  9
$PUCSXDIR
 10
1.0
 20
0.0
 30
0.0
  9
$PUCSYDIR
 10
0.0
 20
1.0
 30
0.0
  9
$PUCSORTHOREF
  2

  9
$PUCSORTHOVIEW
 70
     0
  9
$PUCSORGTOP
 10
0.0
 20
0.0
 30
0.0
  9
$PUCSORGBOTTOM
 10
0.0
 20
0.0
 30
0.0
  9
$PUCSORGLEFT
 10
0.0
 20
0.0
 30
0.0
  9
$PUCSORGRIGHT
 10
0.0
 20
0.0
 30
0.0
  9
$PUCSORGFRONT
 10
0.0
 20
0.0
 30
0.0
  9
$PUCSORGBACK
 10
0.0
 20
0.0
 30
0.0
  9
$USERI1
 70
     0
  9
$USERI2
 70
     0
  9
$USERI3
 70
     0
  9
$USERI4
 70
     0
  9
$USERI5
 70
     0
  9
$USERR1
 40
0.0
  9
$USERR2
 40
0.0
  9
$USERR3
 40
0.0
  9
$USERR4
 40
0.0
  9
$USERR5
 40
0.0
  9
$WORLDVIEW
 70
     1
  9
$SHADEDGE
 70
     3
  9
$SHADEDIF
 70
    70
  9
$TILEMODE
 70
     1
  9
$MAXACTVP
 70
    64
  9
$PINSBASE
 10
0.0
 20
0.0
 30
0.0
  9
$PLIMCHECK
 70
     0
  9
$PEXTMIN
 10
1.000000000000000E+20
 20
1.000000000000000E+20
 30
1.000000000000000E+20
  9
$PEXTMAX
 10
-1.000000000000000E+20
 20
-1.000000000000000E+20
 30
-1.000000000000000E+20
  9
$PLIMMIN
 10
0.0
 20
0.0
  9
$PLIMMAX
 10
12.0
 20
9.0
  9
$UNITMODE
 70
     0
  9
$VISRETAIN
 70
     1
  9
$PLINEGEN
 70
     0
  9
$PSLTSCALE
 70
     1
  9
$TREEDEPTH
 70
  3020
  9
$CMLSTYLE
  2
Standard
  9
$CMLJUST
 70
     0
  9
$CMLSCALE
 40
1.0
  9
$PROXYGRAPHICS
 70
     1
  9
$MEASUREMENT
 70
     0
  9
$CELWEIGHT
370
    -1
  9
$ENDCAPS
280
     0
  9
$JOINSTYLE
280
     0
  9
$LWDISPLAY
290
     1
  9
$INSUNITS
 70
     0
  9
$HYPERLINKBASE
  1

  9
$STYLESHEET
  1

  9
$XEDIT
290
     1
  9
$CEPSNTYPE
380
     0
  9
$PSTYLEMODE
290
     1
  9
$FINGERPRINTGUID
  2
{D41E5B7A-8E8D-0D4D-B178-55E7E349211F}
  9
$VERSIONGUID
  2
{9B5034EE-40E6-FD46-BF93-C116A9AF7840}
  9
$EXTNAMES
290
     1
  9
$PSVPSCALE
 40
0.0
  9
$OLESTARTUP
290
     0
  9
$SORTENTS
280
   127
  9
$INDEXCTL
280
     0
  9
$HIDETEXT
280
     1
  9
$XCLIPFRAME
280
     2
  9
$HALOGAP
280
     0
  9
$OBSCOLOR
 70
   257
  9
$OBSLTYPE
280
     0
  9
$INTERSECTIONDISPLAY
280
     0
  9
$INTERSECTIONCOLOR
 70
   257
  9
$DIMASSOC
280
     2
  9
$PROJECTNAME
  1

  9
$CAMERADISPLAY
290
     0
  9
$LENSLENGTH
 40
50.0
  9
$CAMERAHEIGHT
 40
0.0
  9
$STEPSPERSEC
 40
2.0
  9
$STEPSIZE
 40
6.0
  9
$3DDWFPREC
 40
2.0
  9
$PSOLWIDTH
 40
0.25
  9
$PSOLHEIGHT
 40
4.0
  9
$LOFTANG1
 40
1.570796326794896
  9
$LOFTANG2
 40
1.570796326794896
  9
$LOFTMAG1
 40
0.0
  9
$LOFTMAG2
 40
0.0
  9
$LOFTPARAM
 70
     7
  9
$LOFTNORMALS
280
     1
  9
$LATITUDE
 40
37.795
  9
$LONGITUDE
 40
-122.394
  9
$NORTHDIRECTION
 40
0.0
  9
$TIMEZONE
 70
 -8000
  9
$LIGHTGLYPHDISPLAY
280
     1
  9
$TILEMODELIGHTSYNCH
280
     1
  9
$CMATERIAL
347
11
  9
$SOLIDHIST
280
     0
  9
$SHOWHIST
280
     1
  9
$DWFFRAME
280
     2
  9
$DGNFRAME
280
     0
  9
$REALWORLDSCALE
290
     1
  9
$INTERFERECOLOR
 62
     1
  9
$INTERFEREOBJVS
345
33
  9
$INTERFEREVPVS
346
30
  9
$CSHADOW
280
     0
  9
$SHADOWPLANELOCATION
 40
0.0
  0
ENDSEC
  0
SECTION
  2
CLASSES
  0
CLASS
  1
ACDBDICTIONARYWDFLT
  2
AcDbDictionaryWithDefault
  3
ObjectDBX Classes
 90
        0
 91
        1
280
     0
281
     0
  0
CLASS
  1
MATERIAL
  2
AcDbMaterial
  3
ObjectDBX Classes
 90
     1153
 91
        3
280
     0
281
     0
  0
CLASS
  1
VISUALSTYLE
  2
AcDbVisualStyle
  3
ObjectDBX Classes
 90
     4095
 91
       24
280
     0
281
     0
  0
CLASS
  1
SCALE
  2
AcDbScale
  3
ObjectDBX Classes
 90
     1153
 91
       17
280
     0
281
     0
  0
CLASS
  1
TABLESTYLE
  2
AcDbTableStyle
  3
ObjectDBX Classes
 90
     4095
 91
        1
280
     0
281
     0
  0
CLASS
  1
MLEADERSTYLE
  2
AcDbMLeaderStyle
  3
ACDB_MLEADERSTYLE_CLASS
 90
     4095
 91
        1
280
     0
281
     0
  0
CLASS
  1
ACDBSECTIONVIEWSTYLE
  2
AcDbSectionViewStyle
  3
ObjectDBX Classes
 90
     1025
 91
        1
280
     0
281
     0
  0
CLASS
  1
ACDBDETAILVIEWSTYLE
  2
AcDbDetailViewStyle
  3
ObjectDBX Classes
 90
     1025
 91
        1
280
     0
281
     0
  0
CLASS
  1
DICTIONARYVAR
  2
AcDbDictionaryVar
  3
ObjectDBX Classes
 90
        0
 91
        5
280
     0
281
     0
  0
CLASS
  1
CELLSTYLEMAP
  2
AcDbCellStyleMap
  3
ObjectDBX Classes
 90
     1152
 91
        1
280
     0
281
     0
  0
ENDSEC
  0
SECTION
  2
TABLES
  0
TABLE
  2
VPORT
  5
8
330
0
100
AcDbSymbolTable
 70
     1
  0
VPORT
  5
57
330
8
100
AcDbSymbolTableRecord
100
AcDbViewportTableRecord
  2
*Active
 70
     0
 10
0.0
 20
0.0
 11
1.0
 21
1.0
 12
0.0
 22
0.0
 13
0.0
 23
0.0
 14
1.0
 24
1.0
 15
0.0
 25
0.0
 16
0.0
 26
0.0
 36
1.0
 17
552.2268064565451
 27
-539.7272727272725
 37
0.0
 40
1102.701382854678
 41
1.022427411041014
 42
50.0
 43
0.0
 44
0.0
 50
0.0
 51
0.0
 71
     0
 72
   100
 73
     1
 74
     1
 75
     0
 76
     0
 77
     0
 78
     0
281
     0
 65
     1
110
0.0
120
0.0
130
0.0
111
1.0
121
0.0
131
0.0
112
0.0
122
1.0
132
0.0
 79
     0
146
0.0
 60
     3
 61
     5
292
     1
282
     1
141
0.0
142
0.0
 63
   250
421
  3355443
  0
ENDTAB
  0
TABLE
  2
LTYPE
  5
5
330
0
100
AcDbSymbolTable
 70
     1
  0
LTYPE
  5
5B
330
5
100
AcDbSymbolTableRecord
100
AcDbLinetypeTableRecord
  2
ByBlock
 70
     0
  3

 72
    65
 73
     0
 40
0.0
  0
LTYPE
  5
5C
330
5
100
AcDbSymbolTableRecord
100
AcDbLinetypeTableRecord
  2
ByLayer
 70
     0
  3

 72
    65
 73
     0
 40
0.0
  0
LTYPE
  5
5D
330
5
100
AcDbSymbolTableRecord
100
AcDbLinetypeTableRecord
  2
Continuous
 70
     0
  3
Solid line
 72
    65
 73
     0
 40
0.0
  0
ENDTAB
  0
TABLE
  2
LAYER
  5
2
330
0
100
AcDbSymbolTable
 70
     2
  0
LAYER
  5
54
330
2
100
AcDbSymbolTableRecord
100
AcDbLayerTableRecord
  2
0
 70
     0
 62
     7
  6
Continuous
370
    -3
390
F
347
21
348
0
  0
LAYER
  5
78
330
2
100
AcDbSymbolTableRecord
100
AcDbLayerTableRecord
  2
Layer 1
 70
     0
 62
     7
  6
Continuous
370
     0
390
F
347
21
348
0
  0
ENDTAB
  0
TABLE
  2
STYLE
  5
3
330
0
100
AcDbSymbolTable
 70
     2
  0
STYLE
  5
55
330
3
100
AcDbSymbolTableRecord
100
AcDbTextStyleTableRecord
  2
Standard
 70
     0
 40
0.0
 41
1.0
 50
0.0
 71
     0
 42
0.2
  3
txt
  4

  0
STYLE
  5
5A
330
3
100
AcDbSymbolTableRecord
100
AcDbTextStyleTableRecord
  2
Annotative
 70
     0
 40
0.0
 41
1.0
 50
0.0
 71
     0
 42
0.2
  3
txt
  4

1001
AcadAnnotative
1000
AnnotativeData
1002
{
1070
     1
1070
     1
1002
}
  0
ENDTAB
  0
TABLE
  2
VIEW
  5
6
330
0
100
AcDbSymbolTable
 70
     0
  0
ENDTAB
  0
TABLE
  2
UCS
  5
7
330
0
100
AcDbSymbolTable
 70
     0
  0
ENDTAB
  0
TABLE
  2
APPID
  5
9
330
0
100
AcDbSymbolTable
 70
     2
  0
APPID
  5
56
330
9
100
AcDbSymbolTableRecord
100
AcDbRegAppTableRecord
  2
ACAD
 70
     0
  0
APPID
  5
5E
330
9
100
AcDbSymbolTableRecord
100
AcDbRegAppTableRecord
  2
AcadAnnotative
 70
     0
  0
ENDTAB
  0
TABLE
  2
DIMSTYLE
  5
A
330
0
100
AcDbSymbolTable
 70
     2
100
AcDbDimStyleTable
 71
     0
  0
DIMSTYLE
105
58
330
A
100
AcDbSymbolTableRecord
100
AcDbDimStyleTableRecord
  2
Standard
 70
     0
340
55
  0
DIMSTYLE
105
59
330
A
100
AcDbSymbolTableRecord
100
AcDbDimStyleTableRecord
  2
Annotative
 70
     0
340
55
1001
AcadAnnotative
1000
AnnotativeData
1002
{
1070
     1
1070
     1
1002
}
  0
ENDTAB
  0
TABLE
  2
BLOCK_RECORD
  5
1
330
0
100
AcDbSymbolTable
 70
     1
  0
BLOCK_RECORD
  5
70
330
1
100
AcDbSymbolTableRecord
100
AcDbBlockTableRecord
  2
*Model_Space
340
73
 70
     0
280
     1
281
     0
  0
BLOCK_RECORD
  5
6C
330
1
100
AcDbSymbolTableRecord
100
AcDbBlockTableRecord
  2
*Paper_Space
340
6F
 70
     0
280
     1
281
     0
  0
BLOCK_RECORD
  5
74
330
1
100
AcDbSymbolTableRecord
100
AcDbBlockTableRecord
  2
*Paper_Space0
340
77
 70
     0
280
     1
281
     0
  0
ENDTAB
  0
ENDSEC
  0
SECTION
  2
BLOCKS
  0
BLOCK
  5
71
330
70
100
AcDbEntity
  8
0
100
AcDbBlockBegin
  2
*Model_Space
 70
     0
 10
0.0
 20
0.0
 30
0.0
  3
*Model_Space
  1

  0
ENDBLK
  5
72
330
70
100
AcDbEntity
  8
0
100
AcDbBlockEnd
  0
BLOCK
  5
6D
330
6C
100
AcDbEntity
 67
     1
  8
0
100
AcDbBlockBegin
  2
*Paper_Space
 70
     0
 10
0.0
 20
0.0
 30
0.0
  3
*Paper_Space
  1

  0
ENDBLK
  5
6E
330
6C
100
AcDbEntity
 67
     1
  8
0
100
AcDbBlockEnd
  0
BLOCK
  5
75
330
74
100
AcDbEntity
 67
     1
  8
0
100
AcDbBlockBegin
  2
*Paper_Space0
 70
     0
 10
0.0
 20
0.0
 30
0.0
  3
*Paper_Space0
  1

  0
ENDBLK
  5
76
330
74
100
AcDbEntity
 67
     1
  8
0
100
AcDbBlockEnd
  0
ENDSEC
  0
SECTION
  2
ENTITIES
  0
SPLINE
  5
79
330
70
100
AcDbEntity
  8
Layer 1
 62
    18
420
        0
370
    30
100
AcDbSpline
210
0.0
220
0.0
230
1.0
 70
     9
 71
     3
 72
    29
 73
    25
 74
     0
 42
0.0000000001
 43
0.0000000001
 40
0.0
 40
0.0
 40
0.0
 40
0.0
 40
1.0
 40
1.0
 40
1.0
 40
2.0
 40
2.0
 40
2.0
 40
3.0
 40
3.0
 40
3.0
 40
4.0
 40
4.0
 40
4.0
 40
5.0
 40
5.0
 40
5.0
 40
6.0
 40
6.0
 40
6.0
 40
7.0
 40
7.0
 40
7.0
 40
8.0
 40
8.0
 40
8.0
 40
8.0
 10
109.8564774555889
 20
-1046.845094547054
 30
0.0
 10
109.8564774555889
 20
-1046.845094547054
 30
0.0
 10
17.31666206134287
 20
-1046.845094547054
 30
0.0
 10
17.31666206134287
 20
-1046.845094547054
 30
0.0
 10
12.24034265864247
 20
-1046.845094547054
 30
0.0
 10
8.125172699641552
 20
-1042.729924588053
 30
0.0
 10
8.125172699641552
 20
-1037.653605185354
 30
0.0
 10
8.125172699641552
 20
-1037.653605185354
 30
0.0
 10
8.125172699641552
 20
-1012.192411190131
 30
0.0
 10
8.125172699641552
 20
-1012.192411190131
 30
0.0
 10
8.125172699641552
 20
-1007.116091787431
 30
0.0
 10
12.24034265864247
 20
-1003.000921828428
 30
0.0
 10
17.31666206134287
 20
-1003.000921828428
 30
0.0
 10
17.31666206134287
 20
-1003.000921828428
 30
0.0
 10
109.8564774555889
 20
-1003.000921828428
 30
0.0
 10
109.8564774555889
 20
-1003.000921828428
 30
0.0
 10
114.9327968582893
 20
-1003.000921828428
 30
0.0
 10
119.0479668172902
 20
-1007.116091787431
 30
0.0
 10
119.0479668172902
 20
-1012.192411190131
 30
0.0
 10
119.0479668172902
 20
-1012.192411190131
 30
0.0
 10
119.0479668172902
 20
-1037.653605185354
 30
0.0
 10
119.0479668172902
 20
-1037.653605185354
 30
0.0
 10
119.0479668172902
 20
-1042.729924588053
 30
0.0
 10
114.9327968582875
 20
-1046.845094547054
 30
0.0
 10
109.8564774555889
 20
-1046.845094547054
 30
0.0
  0
SPLINE
  5
7A
330
70
100
AcDbEntity
  8
Layer 1
 62
    18
420
        0
370
    35
100
AcDbSpline
210
0.0
220
0.0
230
1.0
 70
     9
 71
     3
 72
    29
 73
    25
 74
     0
 42
0.0000000001
 43
0.0000000001
 40
0.0
 40
0.0
 40
0.0
 40
0.0
 40
1.0
 40
1.0
 40
1.0
 40
2.0
 40
2.0
 40
2.0
 40
3.0
 40
3.0
 40
3.0
 40
4.0
 40
4.0
 40
4.0
 40
5.0
 40
5.0
 40
5.0
 40
6.0
 40
6.0
 40
6.0
 40
7.0
 40
7.0
 40
7.0
 40
8.0
 40
8.0
 40
8.0
 40
8.0
 10
158.4465509850015
 20
-998.9692737623499
 30
0.0
 10
158.4465509850015
 20
-998.9692737623499
 30
0.0
 10
26.64202970840233
 20
-998.9692737623499
 30
0.0
 10
26.64202970840233
 20
-998.9692737623499
 30
0.0
 10
21.56571030570194
 20
-998.9692737623499
 30
0.0
 10
17.45054034670102
 20
-994.8541038033472
 30
0.0
 10
17.45054034670102
 20
-989.7777844006487
 30
0.0
 10
17.45054034670102
 20
-989.7777844006487
 30
0.0
 10
17.45054034670102
 20
-964.3165904054258
 30
0.0
 10
17.45054034670102
 20
-964.3165904054258
 30
0.0
 10
17.45054034670102
 20
-959.2402710027272
 30
0.0
 10
21.56571030570194
 20
-955.1251010437244
 30
0.0
 10
26.64202970840233
 20
-955.1251010437244
 30
0.0
 10
26.64202970840233
 20
-955.1251010437244
 30
0.0
 10
158.4465509850015
 20
-955.1251010437244
 30
0.0
 10
158.4465509850015
 20
-955.1251010437244
 30
0.0
 10
163.5228703877019
 20
-955.1251010437244
 30
0.0
 10
167.6380403467028
 20
-959.2402710027272
 30
0.0
 10
167.6380403467028
 20
-964.3165904054258
 30
0.0
 10
167.6380403467028
 20
-964.3165904054258
 30
0.0
 10
167.6380403467028
 20
-989.7777844006487
 30
0.0
 10
167.6380403467028
 20
-989.7777844006487
 30
0.0
 10
167.6380403467028
 20
-994.8541038033472
 30
0.0
 10
163.5228703877019
 20
-998.9692737623499
 30
0.0
 10
158.4465509850015
 20
-998.9692737623499
 30
0.0
  0
SPLINE
  5
7B
330
70
100
AcDbEntity
  8
Layer 1
 62
    18
420
        0
370
    35
100
AcDbSpline
210
0.0
220
0.0
230
1.0
 70
     9
 71
     3
 72
    29
 73
    25
 74
     0
 42
0.0000000001
 43
0.0000000001
 40
0.0
 40
0.0
 40
0.0
 40
0.0
 40
1.0
 40
1.0
 40
1.0
 40
2.0
 40
2.0
 40
2.0
 40
3.0
 40
3.0
 40
3.0
 40
4.0
 40
4.0
 40
4.0
 40
5.0
 40
5.0
 40
5.0
 40
6.0
 40
6.0
 40
6.0
 40
7.0
 40
7.0
 40
7.0
 40
8.0
 40
8.0
 40
8.0
 40
8.0
 10
268.3877274555889
 20
-1048.860918580092
 30
0.0
 10
268.3877274555889
 20
-1048.860918580092
 30
0.0
 10
136.5832061789915
 20
-1048.860918580092
 30
0.0
 10
136.5832061789915
 20
-1048.860918580092
 30
0.0
 10
131.5068867762911
 20
-1048.860918580092
 30
0.0
 10
127.3917168172902
 20
-1044.745748621091
 30
0.0
 10
127.3917168172902
 20
-1039.669429218393
 30
0.0
 10
127.3917168172902
 20
-1039.669429218393
 30
0.0
 10
127.3917168172902
 20
-1014.20823522317
 30
0.0
 10
127.3917168172902
 20
-1014.20823522317
 30
0.0
 10
127.3917168172902
 20
-1009.131915820469
 30
0.0
 10
131.5068867762911
 20
-1005.016745861467
 30
0.0
 10
136.5832061789915
 20
-1005.016745861467
 30
0.0
 10
136.5832061789915
 20
-1005.016745861467
 30
0.0
 10
268.3877274555889
 20
-1005.016745861467
 30
0.0
 10
268.3877274555889
 20
-1005.016745861467
 30
0.0
 10
273.4640468582893
 20
-1005.016745861467
 30
0.0
 10
277.5792168172902
 20
-1009.131915820469
 30
0.0
 10
277.5792168172902
 20
-1014.20823522317
 30
0.0
 10
277.5792168172902
 20
-1014.20823522317
 30
0.0
 10
277.5792168172902
 20
-1039.669429218393
 30
0.0
 10
277.5792168172902
 20
-1039.669429218393
 30
0.0
 10
277.5792168172902
 20
-1044.745748621091
 30
0.0
 10
273.4640468582893
 20
-1048.860918580092
 30
0.0
 10
268.3877274555889
 20
-1048.860918580092
 30
0.0
  0
SPLINE
  5
7C
330
70
100
AcDbEntity
  8
Layer 1
 62
    18
420
        0
370
    35
100
AcDbSpline
210
0.0
220
0.0
230
1.0
 70
     9
 71
     3
 72
    29
 73
    25
 74
     0
 42
0.0000000001
 43
0.0000000001
 40
0.0
 40
0.0
 40
0.0
 40
0.0
 40
1.0
 40
1.0
 40
1.0
 40
2.0
 40
2.0
 40
2.0
 40
3.0
 40
3.0
 40
3.0
 40
4.0
 40
4.0
 40
4.0
 40
5.0
 40
5.0
 40
5.0
 40
6.0
 40
6.0
 40
6.0
 40
7.0
 40
7.0
 40
7.0
 40
8.0
 40
8.0
 40
8.0
 40
8.0
 10
316.9778009850034
 20
-1000.985097795388
 30
0.0
 10
316.9778009850034
 20
-1000.985097795388
 30
0.0
 10
185.1732797084023
 20
-1000.985097795388
 30
0.0
 10
185.1732797084023
 20
-1000.985097795388
 30
0.0
 10
180.0969603057019
 20
-1000.985097795388
 30
0.0
 10
175.981790346701
 20
-996.8699278363855
 30
0.0
 10
175.981790346701
 20
-991.793608433687
 30
0.0
 10
175.981790346701
 20
-991.793608433687
 30
0.0
 10
175.981790346701
 20
-966.3324144384642
 30
0.0
 10
175.981790346701
 20
-966.3324144384642
 30
0.0
 10
175.981790346701
 20
-961.2560950357655
 30
0.0
 10
180.0969603057019
 20
-957.1409250767628
 30
0.0
 10
185.1732797084023
 20
-957.1409250767628
 30
0.0
 10
185.1732797084023
 20
-957.1409250767628
 30
0.0
 10
316.9778009850034
 20
-957.1409250767628
 30
0.0
 10
316.9778009850034
 20
-957.1409250767628
 30
0.0
 10
322.0541203877037
 20
-957.1409250767628
 30
0.0
 10
326.1692903467046
 20
-961.2560950357655
 30
0.0
 10
326.1692903467046
 20
-966.3324144384642
 30
0.0
 10
326.1692903467046
 20
-966.3324144384642
 30
0.0
 10
326.1692903467046
 20
-991.793608433687
 30
0.0
 10
326.1692903467046
 20
-991.793608433687
 30
0.0
 10
326.1692903467046
 20
-996.8699278363855
 30
0.0
 10
322.0541203877037
 20
-1000.985097795388
 30
0.0
 10
316.9778009850034
 20
-1000.985097795388
 30
0.0
  0
SPLINE
  5
7D
330
70
100
AcDbEntity
  8
Layer 1
 62
    18
420
        0
370
    35
100
AcDbSpline
210
0.0
220
0.0
230
1.0
 70
     9
 71
     3
 72
    29
 73
    25
 74
     0
 42
0.0000000001
 43
0.0000000001
 40
0.0
 40
0.0
 40
0.0
 40
0.0
 40
1.0
 40
1.0
 40
1.0
 40
2.0
 40
2.0
 40
2.0
 40
3.0
 40
3.0
 40
3.0
 40
4.0
 40
4.0
 40
4.0
 40
5.0
 40
5.0
 40
5.0
 40
6.0
 40
6.0
 40
6.0
 40
7.0
 40
7.0
 40
7.0
 40
8.0
 40
8.0
 40
8.0
 40
8.0
 10
902.512727455587
 20
-1056.924214712249
 30
0.0
 10
902.512727455587
 20
-1056.924214712249
 30
0.0
 10
770.708206178997
 20
-1056.924214712249
 30
0.0
 10
770.708206178997
 20
-1056.924214712249
 30
0.0
 10
765.6318867762966
 20
-1056.924214712249
 30
0.0
 10
761.5167168172884
 20
-1052.809044753248
 30
0.0
 10
761.5167168172884
 20
-1047.732725350548
 30
0.0
 10
761.5167168172884
 20
-1047.732725350548
 30
0.0
 10
761.5167168172884
 20
-1022.271531355323
 30
0.0
 10
761.5167168172884
 20
-1022.271531355323
 30
0.0
 10
761.5167168172884
 20
-1017.195211952625
 30
0.0
 10
765.6318867762966
 20
-1013.080041993624
 30
0.0
 10
770.708206178997
 20
-1013.080041993624
 30
0.0
 10
770.708206178997
 20
-1013.080041993624
 30
0.0
 10
902.512727455587
 20
-1013.080041993624
 30
0.0
 10
902.512727455587
 20
-1013.080041993624
 30
0.0
 10
907.5890468582874
 20
-1013.080041993624
 30
0.0
 10
911.7042168172885
 20
-1017.195211952625
 30
0.0
 10
911.7042168172885
 20
-1022.271531355323
 30
0.0
 10
911.7042168172885
 20
-1022.271531355323
 30
0.0
 10
911.7042168172885
 20
-1047.732725350548
 30
0.0
 10
911.7042168172885
 20
-1047.732725350548
 30
0.0
 10
911.7042168172885
 20
-1052.809044753248
 30
0.0
 10
907.5890468582874
 20
-1056.924214712249
 30
0.0
 10
902.512727455587
 20
-1056.924214712249
 30
0.0
  0
SPLINE
  5
7E
330
70
100
AcDbEntity
  8
Layer 1
 62
    18
420
        0
370
    35
100
AcDbSpline
210
0.0
220
0.0
230
1.0
 70
     9
 71
     3
 72
    29
 73
    25
 74
     0
 42
0.0000000001
 43
0.0000000001
 40
0.0
 40
0.0
 40
0.0
 40
0.0
 40
1.0
 40
1.0
 40
1.0
 40
2.0
 40
2.0
 40
2.0
 40
3.0
 40
3.0
 40
3.0
 40
4.0
 40
4.0
 40
4.0
 40
5.0
 40
5.0
 40
5.0
 40
6.0
 40
6.0
 40
6.0
 40
7.0
 40
7.0
 40
7.0
 40
8.0
 40
8.0
 40
8.0
 40
8.0
 10
951.102800985007
 20
-1009.048393927543
 30
0.0
 10
951.102800985007
 20
-1009.048393927543
 30
0.0
 10
819.2982797084077
 20
-1009.048393927543
 30
0.0
 10
819.2982797084077
 20
-1009.048393927543
 30
0.0
 10
814.2219603057073
 20
-1009.048393927543
 30
0.0
 10
810.1067903467082
 20
-1004.933223968542
 30
0.0
 10
810.1067903467082
 20
-999.8569045658424
 30
0.0
 10
810.1067903467082
 20
-999.8569045658424
 30
0.0
 10
810.1067903467082
 20
-974.3957105706195
 30
0.0
 10
810.1067903467082
 20
-974.3957105706195
 30
0.0
 10
810.1067903467082
 20
-969.3193911679191
 30
0.0
 10
814.2219603057073
 20
-965.2042212089181
 30
0.0
 10
819.2982797084077
 20
-965.2042212089181
 30
0.0
 10
819.2982797084077
 20
-965.2042212089181
 30
0.0
 10
951.102800985007
 20
-965.2042212089181
 30
0.0
 10
951.102800985007
 20
-965.2042212089181
 30
0.0
 10
956.1791203877074
 20
-965.2042212089181
 30
0.0
 10
960.2942903467083
 20
-969.3193911679191
 30
0.0
 10
960.2942903467083
 20
-974.3957105706195
 30
0.0
 10
960.2942903467083
 20
-974.3957105706195
 30
0.0
 10
960.2942903467083
 20
-999.8569045658424
 30
0.0
 10
960.2942903467083
 20
-999.8569045658424
 30
0.0
 10
960.2942903467083
 20
-1004.933223968542
 30
0.0
 10
956.1791203877074
 20
-1009.048393927543
 30
0.0
 10
951.102800985007
 20
-1009.048393927543
 30
0.0
  0
SPLINE
  5
7F
330
70
100
AcDbEntity
  8
Layer 1
 62
    18
420
        0
370
    35
100
AcDbSpline
210
0.0
220
0.0
230
1.0
 70
     9
 71
     3
 72
    29
 73
    25
 74
     0
 42
0.0000000001
 43
0.0000000001
 40
0.0
 40
0.0
 40
0.0
 40
0.0
 40
1.0
 40
1.0
 40
1.0
 40
2.0
 40
2.0
 40
2.0
 40
3.0
 40
3.0
 40
3.0
 40
4.0
 40
4.0
 40
4.0
 40
5.0
 40
5.0
 40
5.0
 40
6.0
 40
6.0
 40
6.0
 40
7.0
 40
7.0
 40
7.0
 40
8.0
 40
8.0
 40
8.0
 40
8.0
 10
1061.043977455598
 20
-1058.940038745288
 30
0.0
 10
1061.043977455598
 20
-1058.940038745288
 30
0.0
 10
929.239456178997
 20
-1058.940038745288
 30
0.0
 10
929.239456178997
 20
-1058.940038745288
 30
0.0
 10
924.1631367762966
 20
-1058.940038745288
 30
0.0
 10
920.0479668172883
 20
-1054.824868786287
 30
0.0
 10
920.0479668172883
 20
-1049.748549383586
 30
0.0
 10
920.0479668172883
 20
-1049.748549383586
 30
0.0
 10
920.0479668172883
 20
-1024.287355388364
 30
0.0
 10
920.0479668172883
 20
-1024.287355388364
 30
0.0
 10
920.0479668172883
 20
-1019.211035985663
 30
0.0
 10
924.1631367762966
 20
-1015.095866026662
 30
0.0
 10
929.239456178997
 20
-1015.095866026662
 30
0.0
 10
929.239456178997
 20
-1015.095866026662
 30
0.0
 10
1061.043977455598
 20
-1015.095866026662
 30
0.0
 10
1061.043977455598
 20
-1015.095866026662
 30
0.0
 10
1066.120296858287
 20
-1015.095866026662
 30
0.0
 10
1070.235466817297
 20
-1019.211035985663
 30
0.0
 10
1070.235466817297
 20
-1024.287355388364
 30
0.0
 10
1070.235466817297
 20
-1024.287355388364
 30
0.0
 10
1070.235466817297
 20
-1049.748549383586
 30
0.0
 10
1070.235466817297
 20
-1049.748549383586
 30
0.0
 10
1070.235466817297
 20
-1054.824868786287
 30
0.0
 10
1066.120296858287
 20
-1058.940038745288
 30
0.0
 10
1061.043977455598
 20
-1058.940038745288
 30
0.0
  0
SPLINE
  5
80
330
70
100
AcDbEntity
  8
Layer 1
 62
    18
420
        0
370
    30
100
AcDbSpline
210
0.0
220
0.0
230
1.0
 70
     9
 71
     3
 72
    29
 73
    25
 74
     0
 42
0.0000000001
 43
0.0000000001
 40
0.0
 40
0.0
 40
0.0
 40
0.0
 40
1.0
 40
1.0
 40
1.0
 40
2.0
 40
2.0
 40
2.0
 40
3.0
 40
3.0
 40
3.0
 40
4.0
 40
4.0
 40
4.0
 40
5.0
 40
5.0
 40
5.0
 40
6.0
 40
6.0
 40
6.0
 40
7.0
 40
7.0
 40
7.0
 40
8.0
 40
8.0
 40
8.0
 40
8.0
 10
1066.933683337938
 20
-1011.064217960582
 30
0.0
 10
1066.933683337938
 20
-1011.064217960582
 30
0.0
 10
977.8295297084078
 20
-1011.064217960582
 30
0.0
 10
977.8295297084078
 20
-1011.064217960582
 30
0.0
 10
972.7532103057074
 20
-1011.064217960582
 30
0.0
 10
968.6380403467083
 20
-1006.949048001581
 30
0.0
 10
968.6380403467083
 20
-1001.872728598882
 30
0.0
 10
968.6380403467083
 20
-1001.872728598882
 30
0.0
 10
968.6380403467083
 20
-976.4115346036597
 30
0.0
 10
968.6380403467083
 20
-976.4115346036597
 30
0.0
 10
968.6380403467083
 20
-971.3352152009592
 30
0.0
 10
972.7532103057074
 20
-967.2200452419565
 30
0.0
 10
977.8295297084078
 20
-967.2200452419565
 30
0.0
 10
977.8295297084078
 20
-967.2200452419565
 30
0.0
 10
1066.933683337938
 20
-967.2200452419565
 30
0.0
 10
1066.933683337938
 20
-967.2200452419565
 30
0.0
 10
1072.010002740637
 20
-967.2200452419565
 30
0.0
 10
1076.125172699647
 20
-971.3352152009592
 30
0.0
 10
1076.125172699647
 20
-976.4115346036597
 30
0.0
 10
1076.125172699647
 20
-976.4115346036597
 30
0.0
 10
1076.125172699647
 20
-1001.872728598882
 30
0.0
 10
1076.125172699647
 20
-1001.872728598882
 30
0.0
 10
1076.125172699647
 20
-1006.949048001581
 30
0.0
 10
1072.010002740637
 20
-1011.064217960582
 30
0.0
 10
1066.933683337938
 20
-1011.064217960582
 30
0.0
  0
SPLINE
  5
81
330
70
100
AcDbEntity
  8
Layer 1
 62
    18
420
        0
370
    30
100
AcDbSpline
210
0.0
220
0.0
230
1.0
 70
     9
 71
     3
 72
    29
 73
    25
 74
     0
 42
0.0000000001
 43
0.0000000001
 40
0.0
 40
0.0
 40
0.0
 40
0.0
 40
1.0
 40
1.0
 40
1.0
 40
2.0
 40
2.0
 40
2.0
 40
3.0
 40
3.0
 40
3.0
 40
4.0
 40
4.0
 40
4.0
 40
5.0
 40
5.0
 40
5.0
 40
6.0
 40
6.0
 40
6.0
 40
7.0
 40
7.0
 40
7.0
 40
8.0
 40
8.0
 40
8.0
 40
8.0
 10
109.8564774555889
 20
-943.0301568454924
 30
0.0
 10
109.8564774555889
 20
-943.0301568454924
 30
0.0
 10
17.31666206134287
 20
-943.0301568454924
 30
0.0
 10
17.31666206134287
 20
-943.0301568454924
 30
0.0
 10
12.24034265864247
 20
-943.0301568454924
 30
0.0
 10
8.125172699641552
 20
-938.9149868864897
 30
0.0
 10
8.125172699641552
 20
-933.8386674837893
 30
0.0
 10
8.125172699641552
 20
-933.8386674837893
 30
0.0
 10
8.125172699641552
 20
-908.3774734885665
 30
0.0
 10
8.125172699641552
 20
-908.3774734885665
 30
0.0
 10
8.125172699641552
 20
-903.3011540858678
 30
0.0
 10
12.24034265864247
 20
-899.185984126867
 30
0.0
 10
17.31666206134287
 20
-899.185984126867
 30
0.0
 10
17.31666206134287
 20
-899.185984126867
 30
0.0
 10
109.8564774555889
 20
-899.185984126867
 30
0.0
 10
109.8564774555889
 20
-899.185984126867
 30
0.0
 10
114.9327968582893
 20
-899.185984126867
 30
0.0
 10
119.0479668172902
 20
-903.3011540858678
 30
0.0
 10
119.0479668172902
 20
-908.3774734885665
 30
0.0
 10
119.0479668172902
 20
-908.3774734885665
 30
0.0
 10
119.0479668172902
 20
-933.8386674837893
 30
0.0
 10
119.0479668172902
 20
-933.8386674837893
 30
0.0
 10
119.0479668172902
 20
-938.9149868864897
 30
0.0
 10
114.9327968582875
 20
-943.0301568454924
 30
0.0
 10
109.8564774555889
 20
-943.0301568454924
 30
0.0
  0
SPLINE
  5
82
330
70
100
AcDbEntity
  8
Layer 1
 62
    18
420
        0
370
    35
100
AcDbSpline
210
0.0
220
0.0
230
1.0
 70
     9
 71
     3
 72
    29
 73
    25
 74
     0
 42
0.0000000001
 43
0.0000000001
 40
0.0
 40
0.0
 40
0.0
 40
0.0
 40
1.0
 40
1.0
 40
1.0
 40
2.0
 40
2.0
 40
2.0
 40
3.0
 40
3.0
 40
3.0
 40
4.0
 40
4.0
 40
4.0
 40
5.0
 40
5.0
 40
5.0
 40
6.0
 40
6.0
 40
6.0
 40
7.0
 40
7.0
 40
7.0
 40
8.0
 40
8.0
 40
8.0
 40
8.0
 10
158.4465509850015
 20
-895.1543360607866
 30
0.0
 10
158.4465509850015
 20
-895.1543360607866
 30
0.0
 10
26.64202970840233
 20
-895.1543360607866
 30
0.0
 10
26.64202970840233
 20
-895.1543360607866
 30
0.0
 10
21.56571030570194
 20
-895.1543360607866
 30
0.0
 10
17.45054034670102
 20
-891.0391661017838
 30
0.0
 10
17.45054034670102
 20
-885.9628466990834
 30
0.0
 10
17.45054034670102
 20
-885.9628466990834
 30
0.0
 10
17.45054034670102
 20
-860.5016527038605
 30
0.0
 10
17.45054034670102
 20
-860.5016527038605
 30
0.0
 10
17.45054034670102
 20
-855.4253333011621
 30
0.0
 10
21.56571030570194
 20
-851.310163342161
 30
0.0
 10
26.64202970840233
 20
-851.310163342161
 30
0.0
 10
26.64202970840233
 20
-851.310163342161
 30
0.0
 10
158.4465509850015
 20
-851.310163342161
 30
0.0
 10
158.4465509850015
 20
-851.310163342161
 30
0.0
 10
163.5228703877019
 20
-851.310163342161
 30
0.0
 10
167.6380403467028
 20
-855.4253333011621
 30
0.0
 10
167.6380403467028
 20
-860.5016527038605
 30
0.0
 10
167.6380403467028
 20
-860.5016527038605
 30
0.0
 10
167.6380403467028
 20
-885.9628466990834
 30
0.0
 10
167.6380403467028
 20
-885.9628466990834
 30
0.0
 10
167.6380403467028
 20
-891.0391661017838
 30
0.0
 10
163.5228703877019
 20
-895.1543360607866
 30
0.0
 10
158.4465509850015
 20
-895.1543360607866
 30
0.0
  0
SPLINE
  5
83
330
70
100
AcDbEntity
  8
Layer 1
 62
    18
420
        0
370
    35
100
AcDbSpline
210
0.0
220
0.0
230
1.0
 70
     9
 71
     3
 72
    29
 73
    25
 74
     0
 42
0.0000000001
 43
0.0000000001
 40
0.0
 40
0.0
 40
0.0
 40
0.0
 40
1.0
 40
1.0
 40
1.0
 40
2.0
 40
2.0
 40
2.0
 40
3.0
 40
3.0
 40
3.0
 40
4.0
 40
4.0
 40
4.0
 40
5.0
 40
5.0
 40
5.0
 40
6.0
 40
6.0
 40
6.0
 40
7.0
 40
7.0
 40
7.0
 40
8.0
 40
8.0
 40
8.0
 40
8.0
 10
268.3877274555889
 20
-945.0459808785309
 30
0.0
 10
268.3877274555889
 20
-945.0459808785309
 30
0.0
 10
136.5832061789915
 20
-945.0459808785309
 30
0.0
 10
136.5832061789915
 20
-945.0459808785309
 30
0.0
 10
131.5068867762911
 20
-945.0459808785309
 30
0.0
 10
127.3917168172902
 20
-940.9308109195299
 30
0.0
 10
127.3917168172902
 20
-935.8544915168277
 30
0.0
 10
127.3917168172902
 20
-935.8544915168277
 30
0.0
 10
127.3917168172902
 20
-910.3932975216048
 30
0.0
 10
127.3917168172902
 20
-910.3932975216048
 30
0.0
 10
127.3917168172902
 20
-905.3169781189062
 30
0.0
 10
131.5068867762911
 20
-901.2018081599054
 30
0.0
 10
136.5832061789915
 20
-901.2018081599054
 30
0.0
 10
136.5832061789915
 20
-901.2018081599054
 30
0.0
 10
268.3877274555889
 20
-901.2018081599054
 30
0.0
 10
268.3877274555889
 20
-901.2018081599054
 30
0.0
 10
273.4640468582893
 20
-901.2018081599054
 30
0.0
 10
277.5792168172902
 20
-905.3169781189062
 30
0.0
 10
277.5792168172902
 20
-910.3932975216048
 30
0.0
 10
277.5792168172902
 20
-910.3932975216048
 30
0.0
 10
277.5792168172902
 20
-935.8544915168277
 30
0.0
 10
277.5792168172902
 20
-935.8544915168277
 30
0.0
 10
277.5792168172902
 20
-940.9308109195299
 30
0.0
 10
273.4640468582893
 20
-945.0459808785309
 30
0.0
 10
268.3877274555889
 20
-945.0459808785309
 30
0.0
  0
SPLINE
  5
84
330
70
100
AcDbEntity
  8
Layer 1
 62
    18
420
        0
370
    35
100
AcDbSpline
210
0.0
220
0.0
230
1.0
 70
     9
 71
     3
 72
    29
 73
    25
 74
     0
 42
0.0000000001
 43
0.0000000001
 40
0.0
 40
0.0
 40
0.0
 40
0.0
 40
1.0
 40
1.0
 40
1.0
 40
2.0
 40
2.0
 40
2.0
 40
3.0
 40
3.0
 40
3.0
 40
4.0
 40
4.0
 40
4.0
 40
5.0
 40
5.0
 40
5.0
 40
6.0
 40
6.0
 40
6.0
 40
7.0
 40
7.0
 40
7.0
 40
8.0
 40
8.0
 40
8.0
 40
8.0
 10
902.512727455587
 20
-953.1092770106843
 30
0.0
 10
902.512727455587
 20
-953.1092770106843
 30
0.0
 10
770.708206178997
 20
-953.1092770106843
 30
0.0
 10
770.708206178997
 20
-953.1092770106843
 30
0.0
 10
765.6318867762966
 20
-953.1092770106843
 30
0.0
 10
761.5167168172884
 20
-948.9941070516833
 30
0.0
 10
761.5167168172884
 20
-943.9177876489848
 30
0.0
 10
761.5167168172884
 20
-943.9177876489848
 30
0.0
 10
761.5167168172884
 20
-918.4565936537619
 30
0.0
 10
761.5167168172884
 20
-918.4565936537619
 30
0.0
 10
761.5167168172884
 20
-913.3802742510615
 30
0.0
 10
765.6318867762966
 20
-909.2651042920588
 30
0.0
 10
770.708206178997
 20
-909.2651042920588
 30
0.0
 10
770.708206178997
 20
-909.2651042920588
 30
0.0
 10
902.512727455587
 20
-909.2651042920588
 30
0.0
 10
902.512727455587
 20
-909.2651042920588
 30
0.0
 10
907.5890468582874
 20
-909.2651042920588
 30
0.0
 10
911.7042168172885
 20
-913.3802742510615
 30
0.0
 10
911.7042168172885
 20
-918.4565936537619
 30
0.0
 10
911.7042168172885
 20
-918.4565936537619
 30
0.0
 10
911.7042168172885
 20
-943.9177876489848
 30
0.0
 10
911.7042168172885
 20
-943.9177876489848
 30
0.0
 10
911.7042168172885
 20
-948.9941070516833
 30
0.0
 10
907.5890468582874
 20
-953.1092770106843
 30
0.0
 10
902.512727455587
 20
-953.1092770106843
 30
0.0
  0
SPLINE
  5
85
330
70
100
AcDbEntity
  8
Layer 1
 62
    18
420
        0
370
    35
100
AcDbSpline
210
0.0
220
0.0
230
1.0
 70
     9
 71
     3
 72
    29
 73
    25
 74
     0
 42
0.0000000001
 43
0.0000000001
 40
0.0
 40
0.0
 40
0.0
 40
0.0
 40
1.0
 40
1.0
 40
1.0
 40
2.0
 40
2.0
 40
2.0
 40
3.0
 40
3.0
 40
3.0
 40
4.0
 40
4.0
 40
4.0
 40
5.0
 40
5.0
 40
5.0
 40
6.0
 40
6.0
 40
6.0
 40
7.0
 40
7.0
 40
7.0
 40
8.0
 40
8.0
 40
8.0
 40
8.0
 10
951.102800985007
 20
-905.2334562259803
 30
0.0
 10
951.102800985007
 20
-905.2334562259803
 30
0.0
 10
819.2982797084077
 20
-905.2334562259803
 30
0.0
 10
819.2982797084077
 20
-905.2334562259803
 30
0.0
 10
814.2219603057073
 20
-905.2334562259803
 30
0.0
 10
810.1067903467082
 20
-901.1182862669775
 30
0.0
 10
810.1067903467082
 20
-896.0419668642789
 30
0.0
 10
810.1067903467082
 20
-896.0419668642789
 30
0.0
 10
810.1067903467082
 20
-870.580772869056
 30
0.0
 10
810.1067903467082
 20
-870.580772869056
 30
0.0
 10
810.1067903467082
 20
-865.5044534663575
 30
0.0
 10
814.2219603057073
 20
-861.3892835073547
 30
0.0
 10
819.2982797084077
 20
-861.3892835073547
 30
0.0
 10
819.2982797084077
 20
-861.3892835073547
 30
0.0
 10
951.102800985007
 20
-861.3892835073547
 30
0.0
 10
951.102800985007
 20
-861.3892835073547
 30
0.0
 10
956.1791203877074
 20
-861.3892835073547
 30
0.0
 10
960.2942903467083
 20
-865.5044534663575
 30
0.0
 10
960.2942903467083
 20
-870.580772869056
 30
0.0
 10
960.2942903467083
 20
-870.580772869056
 30
0.0
 10
960.2942903467083
 20
-896.0419668642789
 30
0.0
 10
960.2942903467083
 20
-896.0419668642789
 30
0.0
 10
960.2942903467083
 20
-901.1182862669775
 30
0.0
 10
956.1791203877074
 20
-905.2334562259803
 30
0.0
 10
951.102800985007
 20
-905.2334562259803
 30
0.0
  0
SPLINE
  5
86
330
70
100
AcDbEntity
  8
Layer 1
 62
    18
420
        0
370
    35
100
AcDbSpline
210
0.0
220
0.0
230
1.0
 70
     9
 71
     3
 72
    29
 73
    25
 74
     0
 42
0.0000000001
 43
0.0000000001
 40
0.0
 40
0.0
 40
0.0
 40
0.0
 40
1.0
 40
1.0
 40
1.0
 40
2.0
 40
2.0
 40
2.0
 40
3.0
 40
3.0
 40
3.0
 40
4.0
 40
4.0
 40
4.0
 40
5.0
 40
5.0
 40
5.0
 40
6.0
 40
6.0
 40
6.0
 40
7.0
 40
7.0
 40
7.0
 40
8.0
 40
8.0
 40
8.0
 40
8.0
 10
1061.043977455598
 20
-955.1251010437244
 30
0.0
 10
1061.043977455598
 20
-955.1251010437244
 30
0.0
 10
929.239456178997
 20
-955.1251010437244
 30
0.0
 10
929.239456178997
 20
-955.1251010437244
 30
0.0
 10
924.1631367762966
 20
-955.1251010437244
 30
0.0
 10
920.0479668172883
 20
-951.0099310847218
 30
0.0
 10
920.0479668172883
 20
-945.9336116820232
 30
0.0
 10
920.0479668172883
 20
-945.9336116820232
 30
0.0
 10
920.0479668172883
 20
-920.4724176868003
 30
0.0
 10
920.0479668172883
 20
-920.4724176868003
 30
0.0
 10
920.0479668172883
 20
-915.3960982841017
 30
0.0
 10
924.1631367762966
 20
-911.2809283250991
 30
0.0
 10
929.239456178997
 20
-911.2809283250991
 30
0.0
 10
929.239456178997
 20
-911.2809283250991
 30
0.0
 10
1061.043977455598
 20
-911.2809283250991
 30
0.0
 10
1061.043977455598
 20
-911.2809283250991
 30
0.0
 10
1066.120296858287
 20
-911.2809283250991
 30
0.0
 10
1070.235466817297
 20
-915.3960982841017
 30
0.0
 10
1070.235466817297
 20
-920.4724176868003
 30
0.0
 10
1070.235466817297
 20
-920.4724176868003
 30
0.0
 10
1070.235466817297
 20
-945.9336116820232
 30
0.0
 10
1070.235466817297
 20
-945.9336116820232
 30
0.0
 10
1070.235466817297
 20
-951.0099310847218
 30
0.0
 10
1066.120296858287
 20
-955.1251010437244
 30
0.0
 10
1061.043977455598
 20
-955.1251010437244
 30
0.0
  0
SPLINE
  5
87
330
70
100
AcDbEntity
  8
Layer 1
 62
    18
420
        0
370
    30
100
AcDbSpline
210
0.0
220
0.0
230
1.0
 70
     9
 71
     3
 72
    29
 73
    25
 74
     0
 42
0.0000000001
 43
0.0000000001
 40
0.0
 40
0.0
 40
0.0
 40
0.0
 40
1.0
 40
1.0
 40
1.0
 40
2.0
 40
2.0
 40
2.0
 40
3.0
 40
3.0
 40
3.0
 40
4.0
 40
4.0
 40
4.0
 40
5.0
 40
5.0
 40
5.0
 40
6.0
 40
6.0
 40
6.0
 40
7.0
 40
7.0
 40
7.0
 40
8.0
 40
8.0
 40
8.0
 40
8.0
 10
1066.933683337938
 20
-907.2492802590204
 30
0.0
 10
1066.933683337938
 20
-907.2492802590204
 30
0.0
 10
977.8295297084078
 20
-907.2492802590204
 30
0.0
 10
977.8295297084078
 20
-907.2492802590204
 30
0.0
 10
972.7532103057074
 20
-907.2492802590204
 30
0.0
 10
968.6380403467083
 20
-903.1341103000176
 30
0.0
 10
968.6380403467083
 20
-898.0577908973172
 30
0.0
 10
968.6380403467083
 20
-898.0577908973172
 30
0.0
 10
968.6380403467083
 20
-872.5965969020945
 30
0.0
 10
968.6380403467083
 20
-872.5965969020945
 30
0.0
 10
968.6380403467083
 20
-867.5202774993959
 30
0.0
 10
972.7532103057074
 20
-863.4051075403949
 30
0.0
 10
977.8295297084078
 20
-863.4051075403949
 30
0.0
 10
977.8295297084078
 20
-863.4051075403949
 30
0.0
 10
1066.933683337938
 20
-863.4051075403949
 30
0.0
 10
1066.933683337938
 20
-863.4051075403949
 30
0.0
 10
1072.010002740637
 20
-863.4051075403949
 30
0.0
 10
1076.125172699647
 20
-867.5202774993959
 30
0.0
 10
1076.125172699647
 20
-872.5965969020945
 30
0.0
 10
1076.125172699647
 20
-872.5965969020945
 30
0.0
 10
1076.125172699647
 20
-898.0577908973172
 30
0.0
 10
1076.125172699647
 20
-898.0577908973172
 30
0.0
 10
1076.125172699647
 20
-903.1341103000176
 30
0.0
 10
1072.010002740637
 20
-907.2492802590204
 30
0.0
 10
1066.933683337938
 20
-907.2492802590204
 30
0.0
  0
SPLINE
  5
88
330
70
100
AcDbEntity
  8
Layer 1
 62
    18
420
        0
370
    30
100
AcDbSpline
210
0.0
220
0.0
230
1.0
 70
     9
 71
     3
 72
    29
 73
    25
 74
     0
 42
0.0000000001
 43
0.0000000001
 40
0.0
 40
0.0
 40
0.0
 40
0.0
 40
1.0
 40
1.0
 40
1.0
 40
2.0
 40
2.0
 40
2.0
 40
3.0
 40
3.0
 40
3.0
 40
4.0
 40
4.0
 40
4.0
 40
5.0
 40
5.0
 40
5.0
 40
6.0
 40
6.0
 40
6.0
 40
7.0
 40
7.0
 40
7.0
 40
8.0
 40
8.0
 40
8.0
 40
8.0
 10
109.8564774555889
 20
-839.2152191439272
 30
0.0
 10
109.8564774555889
 20
-839.2152191439272
 30
0.0
 10
17.31666206134287
 20
-839.2152191439272
 30
0.0
 10
17.31666206134287
 20
-839.2152191439272
 30
0.0
 10
12.24034265864247
 20
-839.2152191439272
 30
0.0
 10
8.125172699641552
 20
-835.1000491849262
 30
0.0
 10
8.125172699641552
 20
-830.023729782226
 30
0.0
 10
8.125172699641552
 20
-830.023729782226
 30
0.0
 10
8.125172699641552
 20
-804.5625357870012
 30
0.0
 10
8.125172699641552
 20
-804.5625357870012
 30
0.0
 10
8.125172699641552
 20
-799.4862163843026
 30
0.0
 10
12.24034265864247
 20
-795.3710464253017
 30
0.0
 10
17.31666206134287
 20
-795.3710464253017
 30
0.0
 10
17.31666206134287
 20
-795.3710464253017
 30
0.0
 10
109.8564774555889
 20
-795.3710464253017
 30
0.0
 10
109.8564774555889
 20
-795.3710464253017
 30
0.0
 10
114.9327968582893
 20
-795.3710464253017
 30
0.0
 10
119.0479668172902
 20
-799.4862163843026
 30
0.0
 10
119.0479668172902
 20
-804.5625357870012
 30
0.0
 10
119.0479668172902
 20
-804.5625357870012
 30
0.0
 10
119.0479668172902
 20
-830.023729782226
 30
0.0
 10
119.0479668172902
 20
-830.023729782226
 30
0.0
 10
119.0479668172902
 20
-835.1000491849262
 30
0.0
 10
114.9327968582875
 20
-839.2152191439272
 30
0.0
 10
109.8564774555889
 20
-839.2152191439272
 30
0.0
  0
SPLINE
  5
89
330
70
100
AcDbEntity
  8
Layer 1
 62
    18
420
        0
370
    35
100
AcDbSpline
210
0.0
220
0.0
230
1.0
 70
     9
 71
     3
 72
    29
 73
    25
 74
     0
 42
0.0000000001
 43
0.0000000001
 40
0.0
 40
0.0
 40
0.0
 40
0.0
 40
1.0
 40
1.0
 40
1.0
 40
2.0
 40
2.0
 40
2.0
 40
3.0
 40
3.0
 40
3.0
 40
4.0
 40
4.0
 40
4.0
 40
5.0
 40
5.0
 40
5.0
 40
6.0
 40
6.0
 40
6.0
 40
7.0
 40
7.0
 40
7.0
 40
8.0
 40
8.0
 40
8.0
 40
8.0
 10
158.4465509850015
 20
-791.3393983592214
 30
0.0
 10
158.4465509850015
 20
-791.3393983592214
 30
0.0
 10
26.64202970840233
 20
-791.3393983592214
 30
0.0
 10
26.64202970840233
 20
-791.3393983592214
 30
0.0
 10
21.56571030570194
 20
-791.3393983592214
 30
0.0
 10
17.45054034670102
 20
-787.2242284002204
 30
0.0
 10
17.45054034670102
 20
-782.1479089975219
 30
0.0
 10
17.45054034670102
 20
-782.1479089975219
 30
0.0
 10
17.45054034670102
 20
-756.686715002299
 30
0.0
 10
17.45054034670102
 20
-756.686715002299
 30
0.0
 10
17.45054034670102
 20
-751.6103955995986
 30
0.0
 10
21.56571030570194
 20
-747.4952256405958
 30
0.0
 10
26.64202970840233
 20
-747.4952256405958
 30
0.0
 10
26.64202970840233
 20
-747.4952256405958
 30
0.0
 10
158.4465509850015
 20
-747.4952256405958
 30
0.0
 10
158.4465509850015
 20
-747.4952256405958
 30
0.0
 10
163.5228703877019
 20
-747.4952256405958
 30
0.0
 10
167.6380403467028
 20
-751.6103955995986
 30
0.0
 10
167.6380403467028
 20
-756.686715002299
 30
0.0
 10
167.6380403467028
 20
-756.686715002299
 30
0.0
 10
167.6380403467028
 20
-782.1479089975219
 30
0.0
 10
167.6380403467028
 20
-782.1479089975219
 30
0.0
 10
167.6380403467028
 20
-787.2242284002204
 30
0.0
 10
163.5228703877019
 20
-791.3393983592214
 30
0.0
 10
158.4465509850015
 20
-791.3393983592214
 30
0.0
  0
SPLINE
  5
8A
330
70
100
AcDbEntity
  8
Layer 1
 62
    18
420
        0
370
    35
100
AcDbSpline
210
0.0
220
0.0
230
1.0
 70
     9
 71
     3
 72
    29
 73
    25
 74
     0
 42
0.0000000001
 43
0.0000000001
 40
0.0
 40
0.0
 40
0.0
 40
0.0
 40
1.0
 40
1.0
 40
1.0
 40
2.0
 40
2.0
 40
2.0
 40
3.0
 40
3.0
 40
3.0
 40
4.0
 40
4.0
 40
4.0
 40
5.0
 40
5.0
 40
5.0
 40
6.0
 40
6.0
 40
6.0
 40
7.0
 40
7.0
 40
7.0
 40
8.0
 40
8.0
 40
8.0
 40
8.0
 10
902.512727455587
 20
-849.2943393091227
 30
0.0
 10
902.512727455587
 20
-849.2943393091227
 30
0.0
 10
770.708206178997
 20
-849.2943393091227
 30
0.0
 10
770.708206178997
 20
-849.2943393091227
 30
0.0
 10
765.6318867762966
 20
-849.2943393091227
 30
0.0
 10
761.5167168172884
 20
-845.1791693501199
 30
0.0
 10
761.5167168172884
 20
-840.1028499474195
 30
0.0
 10
761.5167168172884
 20
-840.1028499474195
 30
0.0
 10
761.5167168172884
 20
-814.6416559521966
 30
0.0
 10
761.5167168172884
 20
-814.6416559521966
 30
0.0
 10
761.5167168172884
 20
-809.5653365494982
 30
0.0
 10
765.6318867762966
 20
-805.4501665904972
 30
0.0
 10
770.708206178997
 20
-805.4501665904972
 30
0.0
 10
770.708206178997
 20
-805.4501665904972
 30
0.0
 10
902.512727455587
 20
-805.4501665904972
 30
0.0
 10
902.512727455587
 20
-805.4501665904972
 30
0.0
 10
907.5890468582874
 20
-805.4501665904972
 30
0.0
 10
911.7042168172885
 20
-809.5653365494982
 30
0.0
 10
911.7042168172885
 20
-814.6416559521966
 30
0.0
 10
911.7042168172885
 20
-814.6416559521966
 30
0.0
 10
911.7042168172885
 20
-840.1028499474195
 30
0.0
 10
911.7042168172885
 20
-840.1028499474195
 30
0.0
 10
911.7042168172885
 20
-845.1791693501199
 30
0.0
 10
907.5890468582874
 20
-849.2943393091227
 30
0.0
 10
902.512727455587
 20
-849.2943393091227
 30
0.0
  0
SPLINE
  5
8B
330
70
100
AcDbEntity
  8
Layer 1
 62
    18
420
        0
370
    35
100
AcDbSpline
210
0.0
220
0.0
230
1.0
 70
     9
 71
     3
 72
    29
 73
    25
 74
     0
 42
0.0000000001
 43
0.0000000001
 40
0.0
 40
0.0
 40
0.0
 40
0.0
 40
1.0
 40
1.0
 40
1.0
 40
2.0
 40
2.0
 40
2.0
 40
3.0
 40
3.0
 40
3.0
 40
4.0
 40
4.0
 40
4.0
 40
5.0
 40
5.0
 40
5.0
 40
6.0
 40
6.0
 40
6.0
 40
7.0
 40
7.0
 40
7.0
 40
8.0
 40
8.0
 40
8.0
 40
8.0
 10
951.102800985007
 20
-801.4185185244169
 30
0.0
 10
951.102800985007
 20
-801.4185185244169
 30
0.0
 10
819.2982797084077
 20
-801.4185185244169
 30
0.0
 10
819.2982797084077
 20
-801.4185185244169
 30
0.0
 10
814.2219603057073
 20
-801.4185185244169
 30
0.0
 10
810.1067903467082
 20
-797.3033485654159
 30
0.0
 10
810.1067903467082
 20
-792.2270291627155
 30
0.0
 10
810.1067903467082
 20
-792.2270291627155
 30
0.0
 10
810.1067903467082
 20
-766.7658351674926
 30
0.0
 10
810.1067903467082
 20
-766.7658351674926
 30
0.0
 10
810.1067903467082
 20
-761.6895157647923
 30
0.0
 10
814.2219603057073
 20
-757.5743458057914
 30
0.0
 10
819.2982797084077
 20
-757.5743458057914
 30
0.0
 10
819.2982797084077
 20
-757.5743458057914
 30
0.0
 10
951.102800985007
 20
-757.5743458057914
 30
0.0
 10
951.102800985007
 20
-757.5743458057914
 30
0.0
 10
956.1791203877074
 20
-757.5743458057914
 30
0.0
 10
960.2942903467083
 20
-761.6895157647923
 30
0.0
 10
960.2942903467083
 20
-766.7658351674926
 30
0.0
 10
960.2942903467083
 20
-766.7658351674926
 30
0.0
 10
960.2942903467083
 20
-792.2270291627155
 30
0.0
 10
960.2942903467083
 20
-792.2270291627155
 30
0.0
 10
960.2942903467083
 20
-797.3033485654159
 30
0.0
 10
956.1791203877074
 20
-801.4185185244169
 30
0.0
 10
951.102800985007
 20
-801.4185185244169
 30
0.0
  0
SPLINE
  5
8C
330
70
100
AcDbEntity
  8
Layer 1
 62
    18
420
        0
370
    35
100
AcDbSpline
210
0.0
220
0.0
230
1.0
 70
     9
 71
     3
 72
    29
 73
    25
 74
     0
 42
0.0000000001
 43
0.0000000001
 40
0.0
 40
0.0
 40
0.0
 40
0.0
 40
1.0
 40
1.0
 40
1.0
 40
2.0
 40
2.0
 40
2.0
 40
3.0
 40
3.0
 40
3.0
 40
4.0
 40
4.0
 40
4.0
 40
5.0
 40
5.0
 40
5.0
 40
6.0
 40
6.0
 40
6.0
 40
7.0
 40
7.0
 40
7.0
 40
8.0
 40
8.0
 40
8.0
 40
8.0
 10
1061.043977455598
 20
-851.310163342161
 30
0.0
 10
1061.043977455598
 20
-851.310163342161
 30
0.0
 10
929.239456178997
 20
-851.310163342161
 30
0.0
 10
929.239456178997
 20
-851.310163342161
 30
0.0
 10
924.1631367762966
 20
-851.310163342161
 30
0.0
 10
920.0479668172883
 20
-847.1949933831583
 30
0.0
 10
920.0479668172883
 20
-842.1186739804578
 30
0.0
 10
920.0479668172883
 20
-842.1186739804578
 30
0.0
 10
920.0479668172883
 20
-816.6574799852352
 30
0.0
 10
920.0479668172883
 20
-816.6574799852352
 30
0.0
 10
920.0479668172883
 20
-811.5811605825365
 30
0.0
 10
924.1631367762966
 20
-807.4659906235355
 30
0.0
 10
929.239456178997
 20
-807.4659906235355
 30
0.0
 10
929.239456178997
 20
-807.4659906235355
 30
0.0
 10
1061.043977455598
 20
-807.4659906235355
 30
0.0
 10
1061.043977455598
 20
-807.4659906235355
 30
0.0
 10
1066.120296858287
 20
-807.4659906235355
 30
0.0
 10
1070.235466817297
 20
-811.5811605825365
 30
0.0
 10
1070.235466817297
 20
-816.6574799852352
 30
0.0
 10
1070.235466817297
 20
-816.6574799852352
 30
0.0
 10
1070.235466817297
 20
-842.1186739804578
 30
0.0
 10
1070.235466817297
 20
-842.1186739804578
 30
0.0
 10
1070.235466817297
 20
-847.1949933831583
 30
0.0
 10
1066.120296858287
 20
-851.310163342161
 30
0.0
 10
1061.043977455598
 20
-851.310163342161
 30
0.0
  0
SPLINE
  5
8D
330
70
100
AcDbEntity
  8
Layer 1
 62
    18
420
        0
370
    30
100
AcDbSpline
210
0.0
220
0.0
230
1.0
 70
     9
 71
     3
 72
    29
 73
    25
 74
     0
 42
0.0000000001
 43
0.0000000001
 40
0.0
 40
0.0
 40
0.0
 40
0.0
 40
1.0
 40
1.0
 40
1.0
 40
2.0
 40
2.0
 40
2.0
 40
3.0
 40
3.0
 40
3.0
 40
4.0
 40
4.0
 40
4.0
 40
5.0
 40
5.0
 40
5.0
 40
6.0
 40
6.0
 40
6.0
 40
7.0
 40
7.0
 40
7.0
 40
8.0
 40
8.0
 40
8.0
 40
8.0
 10
1066.933683337938
 20
-803.4343425574553
 30
0.0
 10
1066.933683337938
 20
-803.4343425574553
 30
0.0
 10
977.8295297084078
 20
-803.4343425574553
 30
0.0
 10
977.8295297084078
 20
-803.4343425574553
 30
0.0
 10
972.7532103057074
 20
-803.4343425574553
 30
0.0
 10
968.6380403467083
 20
-799.3191725984543
 30
0.0
 10
968.6380403467083
 20
-794.2428531957539
 30
0.0
 10
968.6380403467083
 20
-794.2428531957539
 30
0.0
 10
968.6380403467083
 20
-768.7816592005292
 30
0.0
 10
968.6380403467083
 20
-768.7816592005292
 30
0.0
 10
968.6380403467083
 20
-763.7053397978307
 30
0.0
 10
972.7532103057074
 20
-759.5901698388297
 30
0.0
 10
977.8295297084078
 20
-759.5901698388297
 30
0.0
 10
977.8295297084078
 20
-759.5901698388297
 30
0.0
 10
1066.933683337938
 20
-759.5901698388297
 30
0.0
 10
1066.933683337938
 20
-759.5901698388297
 30
0.0
 10
1072.010002740637
 20
-759.5901698388297
 30
0.0
 10
1076.125172699647
 20
-763.7053397978307
 30
0.0
 10
1076.125172699647
 20
-768.7816592005292
 30
0.0
 10
1076.125172699647
 20
-768.7816592005292
 30
0.0
 10
1076.125172699647
 20
-794.2428531957539
 30
0.0
 10
1076.125172699647
 20
-794.2428531957539
 30
0.0
 10
1076.125172699647
 20
-799.3191725984543
 30
0.0
 10
1072.010002740637
 20
-803.4343425574553
 30
0.0
 10
1066.933683337938
 20
-803.4343425574553
 30
0.0
  0
SPLINE
  5
8E
330
70
100
AcDbEntity
  8
Layer 1
 62
    18
420
        0
370
    30
100
AcDbSpline
210
0.0
220
0.0
230
1.0
 70
     9
 71
     3
 72
    29
 73
    25
 74
     0
 42
0.0000000001
 43
0.0000000001
 40
0.0
 40
0.0
 40
0.0
 40
0.0
 40
1.0
 40
1.0
 40
1.0
 40
2.0
 40
2.0
 40
2.0
 40
3.0
 40
3.0
 40
3.0
 40
4.0
 40
4.0
 40
4.0
 40
5.0
 40
5.0
 40
5.0
 40
6.0
 40
6.0
 40
6.0
 40
7.0
 40
7.0
 40
7.0
 40
8.0
 40
8.0
 40
8.0
 40
8.0
 10
109.8564774555889
 20
-735.4002814423638
 30
0.0
 10
109.8564774555889
 20
-735.4002814423638
 30
0.0
 10
17.31666206134287
 20
-735.4002814423638
 30
0.0
 10
17.31666206134287
 20
-735.4002814423638
 30
0.0
 10
12.24034265864247
 20
-735.4002814423638
 30
0.0
 10
8.125172699641552
 20
-731.2851114833611
 30
0.0
 10
8.125172699641552
 20
-726.2087920806625
 30
0.0
 10
8.125172699641552
 20
-726.2087920806625
 30
0.0
 10
8.125172699641552
 20
-700.7475980854397
 30
0.0
 10
8.125172699641552
 20
-700.7475980854397
 30
0.0
 10
8.125172699641552
 20
-695.671278682741
 30
0.0
 10
12.24034265864247
 20
-691.5561087237383
 30
0.0
 10
17.31666206134287
 20
-691.5561087237383
 30
0.0
 10
17.31666206134287
 20
-691.5561087237383
 30
0.0
 10
109.8564774555889
 20
-691.5561087237383
 30
0.0
 10
109.8564774555889
 20
-691.5561087237383
 30
0.0
 10
114.9327968582893
 20
-691.5561087237383
 30
0.0
 10
119.0479668172902
 20
-695.671278682741
 30
0.0
 10
119.0479668172902
 20
-700.7475980854397
 30
0.0
 10
119.0479668172902
 20
-700.7475980854397
 30
0.0
 10
119.0479668172902
 20
-726.2087920806625
 30
0.0
 10
119.0479668172902
 20
-726.2087920806625
 30
0.0
 10
119.0479668172902
 20
-731.2851114833611
 30
0.0
 10
114.9327968582875
 20
-735.4002814423638
 30
0.0
 10
109.8564774555889
 20
-735.4002814423638
 30
0.0
  0
SPLINE
  5
8F
330
70
100
AcDbEntity
  8
Layer 1
 62
    18
420
        0
370
    35
100
AcDbSpline
210
0.0
220
0.0
230
1.0
 70
     9
 71
     3
 72
    29
 73
    25
 74
     0
 42
0.0000000001
 43
0.0000000001
 40
0.0
 40
0.0
 40
0.0
 40
0.0
 40
1.0
 40
1.0
 40
1.0
 40
2.0
 40
2.0
 40
2.0
 40
3.0
 40
3.0
 40
3.0
 40
4.0
 40
4.0
 40
4.0
 40
5.0
 40
5.0
 40
5.0
 40
6.0
 40
6.0
 40
6.0
 40
7.0
 40
7.0
 40
7.0
 40
8.0
 40
8.0
 40
8.0
 40
8.0
 10
158.4465509850015
 20
-687.5244606576598
 30
0.0
 10
158.4465509850015
 20
-687.5244606576598
 30
0.0
 10
26.64202970840233
 20
-687.5244606576598
 30
0.0
 10
26.64202970840233
 20
-687.5244606576598
 30
0.0
 10
21.56571030570194
 20
-687.5244606576598
 30
0.0
 10
17.45054034670102
 20
-683.4092906986552
 30
0.0
 10
17.45054034670102
 20
-678.3329712959567
 30
0.0
 10
17.45054034670102
 20
-678.3329712959567
 30
0.0
 10
17.45054034670102
 20
-652.8717773007338
 30
0.0
 10
17.45054034670102
 20
-652.8717773007338
 30
0.0
 10
17.45054034670102
 20
-647.7954578980352
 30
0.0
 10
21.56571030570194
 20
-643.6802879390342
 30
0.0
 10
26.64202970840233
 20
-643.6802879390342
 30
0.0
 10
26.64202970840233
 20
-643.6802879390342
 30
0.0
 10
158.4465509850015
 20
-643.6802879390342
 30
0.0
 10
158.4465509850015
 20
-643.6802879390342
 30
0.0
 10
163.5228703877019
 20
-643.6802879390342
 30
0.0
 10
167.6380403467028
 20
-647.7954578980352
 30
0.0
 10
167.6380403467028
 20
-652.8717773007338
 30
0.0
 10
167.6380403467028
 20
-652.8717773007338
 30
0.0
 10
167.6380403467028
 20
-678.3329712959567
 30
0.0
 10
167.6380403467028
 20
-678.3329712959567
 30
0.0
 10
167.6380403467028
 20
-683.4092906986552
 30
0.0
 10
163.5228703877019
 20
-687.5244606576598
 30
0.0
 10
158.4465509850015
 20
-687.5244606576598
 30
0.0
  0
SPLINE
  5
90
330
70
100
AcDbEntity
  8
Layer 1
 62
    18
420
        0
370
    35
100
AcDbSpline
210
0.0
220
0.0
230
1.0
 70
     9
 71
     3
 72
    29
 73
    25
 74
     0
 42
0.0000000001
 43
0.0000000001
 40
0.0
 40
0.0
 40
0.0
 40
0.0
 40
1.0
 40
1.0
 40
1.0
 40
2.0
 40
2.0
 40
2.0
 40
3.0
 40
3.0
 40
3.0
 40
4.0
 40
4.0
 40
4.0
 40
5.0
 40
5.0
 40
5.0
 40
6.0
 40
6.0
 40
6.0
 40
7.0
 40
7.0
 40
7.0
 40
8.0
 40
8.0
 40
8.0
 40
8.0
 10
951.102800985007
 20
-697.6035808228535
 30
0.0
 10
951.102800985007
 20
-697.6035808228535
 30
0.0
 10
819.2982797084077
 20
-697.6035808228535
 30
0.0
 10
819.2982797084077
 20
-697.6035808228535
 30
0.0
 10
814.2219603057073
 20
-697.6035808228535
 30
0.0
 10
810.1067903467082
 20
-693.4884108638507
 30
0.0
 10
810.1067903467082
 20
-688.4120914611521
 30
0.0
 10
810.1067903467082
 20
-688.4120914611521
 30
0.0
 10
810.1067903467082
 20
-662.9508974659293
 30
0.0
 10
810.1067903467082
 20
-662.9508974659293
 30
0.0
 10
810.1067903467082
 20
-657.8745780632307
 30
0.0
 10
814.2219603057073
 20
-653.7594081042279
 30
0.0
 10
819.2982797084077
 20
-653.7594081042279
 30
0.0
 10
819.2982797084077
 20
-653.7594081042279
 30
0.0
 10
951.102800985007
 20
-653.7594081042279
 30
0.0
 10
951.102800985007
 20
-653.7594081042279
 30
0.0
 10
956.1791203877074
 20
-653.7594081042279
 30
0.0
 10
960.2942903467083
 20
-657.8745780632307
 30
0.0
 10
960.2942903467083
 20
-662.9508974659293
 30
0.0
 10
960.2942903467083
 20
-662.9508974659293
 30
0.0
 10
960.2942903467083
 20
-688.4120914611521
 30
0.0
 10
960.2942903467083
 20
-688.4120914611521
 30
0.0
 10
960.2942903467083
 20
-693.4884108638507
 30
0.0
 10
956.1791203877074
 20
-697.6035808228535
 30
0.0
 10
951.102800985007
 20
-697.6035808228535
 30
0.0
  0
SPLINE
  5
91
330
70
100
AcDbEntity
  8
Layer 1
 62
    18
420
        0
370
    35
100
AcDbSpline
210
0.0
220
0.0
230
1.0
 70
     9
 71
     3
 72
    29
 73
    25
 74
     0
 42
0.0000000001
 43
0.0000000001
 40
0.0
 40
0.0
 40
0.0
 40
0.0
 40
1.0
 40
1.0
 40
1.0
 40
2.0
 40
2.0
 40
2.0
 40
3.0
 40
3.0
 40
3.0
 40
4.0
 40
4.0
 40
4.0
 40
5.0
 40
5.0
 40
5.0
 40
6.0
 40
6.0
 40
6.0
 40
7.0
 40
7.0
 40
7.0
 40
8.0
 40
8.0
 40
8.0
 40
8.0
 10
1061.043977455598
 20
-747.4952256405958
 30
0.0
 10
1061.043977455598
 20
-747.4952256405958
 30
0.0
 10
929.239456178997
 20
-747.4952256405958
 30
0.0
 10
929.239456178997
 20
-747.4952256405958
 30
0.0
 10
924.1631367762966
 20
-747.4952256405958
 30
0.0
 10
920.0479668172883
 20
-743.3800556815949
 30
0.0
 10
920.0479668172883
 20
-738.3037362788964
 30
0.0
 10
920.0479668172883
 20
-738.3037362788964
 30
0.0
 10
920.0479668172883
 20
-712.8425422836735
 30
0.0
 10
920.0479668172883
 20
-712.8425422836735
 30
0.0
 10
920.0479668172883
 20
-707.7662228809749
 30
0.0
 10
924.1631367762966
 20
-703.6510529219704
 30
0.0
 10
929.239456178997
 20
-703.6510529219704
 30
0.0
 10
929.239456178997
 20
-703.6510529219704
 30
0.0
 10
1061.043977455598
 20
-703.6510529219704
 30
0.0
 10
1061.043977455598
 20
-703.6510529219704
 30
0.0
 10
1066.120296858287
 20
-703.6510529219704
 30
0.0
 10
1070.235466817297
 20
-707.7662228809749
 30
0.0
 10
1070.235466817297
 20
-712.8425422836735
 30
0.0
 10
1070.235466817297
 20
-712.8425422836735
 30
0.0
 10
1070.235466817297
 20
-738.3037362788964
 30
0.0
 10
1070.235466817297
 20
-738.3037362788964
 30
0.0
 10
1070.235466817297
 20
-743.3800556815949
 30
0.0
 10
1066.120296858287
 20
-747.4952256405958
 30
0.0
 10
1061.043977455598
 20
-747.4952256405958
 30
0.0
  0
SPLINE
  5
92
330
70
100
AcDbEntity
  8
Layer 1
 62
    18
420
        0
370
    30
100
AcDbSpline
210
0.0
220
0.0
230
1.0
 70
     9
 71
     3
 72
    29
 73
    25
 74
     0
 42
0.0000000001
 43
0.0000000001
 40
0.0
 40
0.0
 40
0.0
 40
0.0
 40
1.0
 40
1.0
 40
1.0
 40
2.0
 40
2.0
 40
2.0
 40
3.0
 40
3.0
 40
3.0
 40
4.0
 40
4.0
 40
4.0
 40
5.0
 40
5.0
 40
5.0
 40
6.0
 40
6.0
 40
6.0
 40
7.0
 40
7.0
 40
7.0
 40
8.0
 40
8.0
 40
8.0
 40
8.0
 10
1066.933683337938
 20
-699.6194048558918
 30
0.0
 10
1066.933683337938
 20
-699.6194048558918
 30
0.0
 10
977.8295297084078
 20
-699.6194048558918
 30
0.0
 10
977.8295297084078
 20
-699.6194048558918
 30
0.0
 10
972.7532103057074
 20
-699.6194048558918
 30
0.0
 10
968.6380403467083
 20
-695.504234896889
 30
0.0
 10
968.6380403467083
 20
-690.4279154941905
 30
0.0
 10
968.6380403467083
 20
-690.4279154941905
 30
0.0
 10
968.6380403467083
 20
-664.9667214989676
 30
0.0
 10
968.6380403467083
 20
-664.9667214989676
 30
0.0
 10
968.6380403467083
 20
-659.8904020962691
 30
0.0
 10
972.7532103057074
 20
-655.7752321372663
 30
0.0
 10
977.8295297084078
 20
-655.7752321372663
 30
0.0
 10
977.8295297084078
 20
-655.7752321372663
 30
0.0
 10
1066.933683337938
 20
-655.7752321372663
 30
0.0
 10
1066.933683337938
 20
-655.7752321372663
 30
0.0
 10
1072.010002740637
 20
-655.7752321372663
 30
0.0
 10
1076.125172699647
 20
-659.8904020962691
 30
0.0
 10
1076.125172699647
 20
-664.9667214989676
 30
0.0
 10
1076.125172699647
 20
-664.9667214989676
 30
0.0
 10
1076.125172699647
 20
-690.4279154941905
 30
0.0
 10
1076.125172699647
 20
-690.4279154941905
 30
0.0
 10
1076.125172699647
 20
-695.504234896889
 30
0.0
 10
1072.010002740637
 20
-699.6194048558918
 30
0.0
 10
1066.933683337938
 20
-699.6194048558918
 30
0.0
  0
SPLINE
  5
93
330
70
100
AcDbEntity
  8
Layer 1
 62
    18
420
        0
370
    30
100
AcDbSpline
210
0.0
220
0.0
230
1.0
 70
     9
 71
     3
 72
    29
 73
    25
 74
     0
 42
0.0000000001
 43
0.0000000001
 40
0.0
 40
0.0
 40
0.0
 40
0.0
 40
1.0
 40
1.0
 40
1.0
 40
2.0
 40
2.0
 40
2.0
 40
3.0
 40
3.0
 40
3.0
 40
4.0
 40
4.0
 40
4.0
 40
5.0
 40
5.0
 40
5.0
 40
6.0
 40
6.0
 40
6.0
 40
7.0
 40
7.0
 40
7.0
 40
8.0
 40
8.0
 40
8.0
 40
8.0
 10
109.8564774555889
 20
-631.5853437408004
 30
0.0
 10
109.8564774555889
 20
-631.5853437408004
 30
0.0
 10
17.31666206134287
 20
-631.5853437408004
 30
0.0
 10
17.31666206134287
 20
-631.5853437408004
 30
0.0
 10
12.24034265864247
 20
-631.5853437408004
 30
0.0
 10
8.125172699641552
 20
-627.4701737817995
 30
0.0
 10
8.125172699641552
 20
-622.3938543790991
 30
0.0
 10
8.125172699641552
 20
-622.3938543790991
 30
0.0
 10
8.125172699641552
 20
-596.9326603838762
 30
0.0
 10
8.125172699641552
 20
-596.9326603838762
 30
0.0
 10
8.125172699641552
 20
-591.8563409811759
 30
0.0
 10
12.24034265864247
 20
-587.7411710221749
 30
0.0
 10
17.31666206134287
 20
-587.7411710221749
 30
0.0
 10
17.31666206134287
 20
-587.7411710221749
 30
0.0
 10
109.8564774555889
 20
-587.7411710221749
 30
0.0
 10
109.8564774555889
 20
-587.7411710221749
 30
0.0
 10
114.9327968582893
 20
-587.7411710221749
 30
0.0
 10
119.0479668172902
 20
-591.8563409811759
 30
0.0
 10
119.0479668172902
 20
-596.9326603838762
 30
0.0
 10
119.0479668172902
 20
-596.9326603838762
 30
0.0
 10
119.0479668172902
 20
-622.3938543790991
 30
0.0
 10
119.0479668172902
 20
-622.3938543790991
 30
0.0
 10
119.0479668172902
 20
-627.4701737817995
 30
0.0
 10
114.9327968582875
 20
-631.5853437408004
 30
0.0
 10
109.8564774555889
 20
-631.5853437408004
 30
0.0
  0
SPLINE
  5
94
330
70
100
AcDbEntity
  8
Layer 1
 62
    18
420
        0
370
    35
100
AcDbSpline
210
0.0
220
0.0
230
1.0
 70
     9
 71
     3
 72
    29
 73
    25
 74
     0
 42
0.0000000001
 43
0.0000000001
 40
0.0
 40
0.0
 40
0.0
 40
0.0
 40
1.0
 40
1.0
 40
1.0
 40
2.0
 40
2.0
 40
2.0
 40
3.0
 40
3.0
 40
3.0
 40
4.0
 40
4.0
 40
4.0
 40
5.0
 40
5.0
 40
5.0
 40
6.0
 40
6.0
 40
6.0
 40
7.0
 40
7.0
 40
7.0
 40
8.0
 40
8.0
 40
8.0
 40
8.0
 10
158.4465509850015
 20
-583.7095229560945
 30
0.0
 10
158.4465509850015
 20
-583.7095229560945
 30
0.0
 10
26.64202970840233
 20
-583.7095229560945
 30
0.0
 10
26.64202970840233
 20
-583.7095229560945
 30
0.0
 10
21.56571030570194
 20
-583.7095229560945
 30
0.0
 10
17.45054034670102
 20
-579.5943529970936
 30
0.0
 10
17.45054034670102
 20
-574.5180335943951
 30
0.0
 10
17.45054034670102
 20
-574.5180335943951
 30
0.0
 10
17.45054034670102
 20
-549.0568395991722
 30
0.0
 10
17.45054034670102
 20
-549.0568395991722
 30
0.0
 10
17.45054034670102
 20
-543.9805201964718
 30
0.0
 10
21.56571030570194
 20
-539.86535023747
 30
0.0
 10
26.64202970840233
 20
-539.86535023747
 30
0.0
 10
26.64202970840233
 20
-539.86535023747
 30
0.0
 10
158.4465509850015
 20
-539.86535023747
 30
0.0
 10
158.4465509850015
 20
-539.86535023747
 30
0.0
 10
163.5228703877019
 20
-539.86535023747
 30
0.0
 10
167.6380403467028
 20
-543.9805201964718
 30
0.0
 10
167.6380403467028
 20
-549.0568395991722
 30
0.0
 10
167.6380403467028
 20
-549.0568395991722
 30
0.0
 10
167.6380403467028
 20
-574.5180335943951
 30
0.0
 10
167.6380403467028
 20
-574.5180335943951
 30
0.0
 10
167.6380403467028
 20
-579.5943529970936
 30
0.0
 10
163.5228703877019
 20
-583.7095229560945
 30
0.0
 10
158.4465509850015
 20
-583.7095229560945
 30
0.0
  0
SPLINE
  5
95
330
70
100
AcDbEntity
  8
Layer 1
 62
    18
420
        0
370
    35
100
AcDbSpline
210
0.0
220
0.0
230
1.0
 70
     9
 71
     3
 72
    29
 73
    25
 74
     0
 42
0.0000000001
 43
0.0000000001
 40
0.0
 40
0.0
 40
0.0
 40
0.0
 40
1.0
 40
1.0
 40
1.0
 40
2.0
 40
2.0
 40
2.0
 40
3.0
 40
3.0
 40
3.0
 40
4.0
 40
4.0
 40
4.0
 40
5.0
 40
5.0
 40
5.0
 40
6.0
 40
6.0
 40
6.0
 40
7.0
 40
7.0
 40
7.0
 40
8.0
 40
8.0
 40
8.0
 40
8.0
 10
268.3877274555889
 20
-633.6011677738388
 30
0.0
 10
268.3877274555889
 20
-633.6011677738388
 30
0.0
 10
136.5832061789915
 20
-633.6011677738388
 30
0.0
 10
136.5832061789915
 20
-633.6011677738388
 30
0.0
 10
131.5068867762911
 20
-633.6011677738388
 30
0.0
 10
127.3917168172902
 20
-629.4859978148378
 30
0.0
 10
127.3917168172902
 20
-624.4096784121374
 30
0.0
 10
127.3917168172902
 20
-624.4096784121374
 30
0.0
 10
127.3917168172902
 20
-598.9484844169147
 30
0.0
 10
127.3917168172902
 20
-598.9484844169147
 30
0.0
 10
127.3917168172902
 20
-593.8721650142142
 30
0.0
 10
131.5068867762911
 20
-589.7569950552133
 30
0.0
 10
136.5832061789915
 20
-589.7569950552133
 30
0.0
 10
136.5832061789915
 20
-589.7569950552133
 30
0.0
 10
268.3877274555889
 20
-589.7569950552133
 30
0.0
 10
268.3877274555889
 20
-589.7569950552133
 30
0.0
 10
273.4640468582893
 20
-589.7569950552133
 30
0.0
 10
277.5792168172902
 20
-593.8721650142142
 30
0.0
 10
277.5792168172902
 20
-598.9484844169147
 30
0.0
 10
277.5792168172902
 20
-598.9484844169147
 30
0.0
 10
277.5792168172902
 20
-624.4096784121374
 30
0.0
 10
277.5792168172902
 20
-624.4096784121374
 30
0.0
 10
277.5792168172902
 20
-629.4859978148378
 30
0.0
 10
273.4640468582893
 20
-633.6011677738388
 30
0.0
 10
268.3877274555889
 20
-633.6011677738388
 30
0.0
  0
SPLINE
  5
96
330
70
100
AcDbEntity
  8
Layer 1
 62
    18
420
        0
370
    35
100
AcDbSpline
210
0.0
220
0.0
230
1.0
 70
     9
 71
     3
 72
    29
 73
    25
 74
     0
 42
0.0000000001
 43
0.0000000001
 40
0.0
 40
0.0
 40
0.0
 40
0.0
 40
1.0
 40
1.0
 40
1.0
 40
2.0
 40
2.0
 40
2.0
 40
3.0
 40
3.0
 40
3.0
 40
4.0
 40
4.0
 40
4.0
 40
5.0
 40
5.0
 40
5.0
 40
6.0
 40
6.0
 40
6.0
 40
7.0
 40
7.0
 40
7.0
 40
8.0
 40
8.0
 40
8.0
 40
8.0
 10
1061.043977455598
 20
-643.6802879390342
 30
0.0
 10
1061.043977455598
 20
-643.6802879390342
 30
0.0
 10
929.239456178997
 20
-643.6802879390342
 30
0.0
 10
929.239456178997
 20
-643.6802879390342
 30
0.0
 10
924.1631367762966
 20
-643.6802879390342
 30
0.0
 10
920.0479668172883
 20
-639.5651179800315
 30
0.0
 10
920.0479668172883
 20
-634.4887985773311
 30
0.0
 10
920.0479668172883
 20
-634.4887985773311
 30
0.0
 10
920.0479668172883
 20
-609.0276045821083
 30
0.0
 10
920.0479668172883
 20
-609.0276045821083
 30
0.0
 10
920.0479668172883
 20
-603.9512851794097
 30
0.0
 10
924.1631367762966
 20
-599.8361152204088
 30
0.0
 10
929.239456178997
 20
-599.8361152204088
 30
0.0
 10
929.239456178997
 20
-599.8361152204088
 30
0.0
 10
1061.043977455598
 20
-599.8361152204088
 30
0.0
 10
1061.043977455598
 20
-599.8361152204088
 30
0.0
 10
1066.120296858287
 20
-599.8361152204088
 30
0.0
 10
1070.235466817297
 20
-603.9512851794097
 30
0.0
 10
1070.235466817297
 20
-609.0276045821083
 30
0.0
 10
1070.235466817297
 20
-609.0276045821083
 30
0.0
 10
1070.235466817297
 20
-634.4887985773311
 30
0.0
 10
1070.235466817297
 20
-634.4887985773311
 30
0.0
 10
1070.235466817297
 20
-639.5651179800315
 30
0.0
 10
1066.120296858287
 20
-643.6802879390342
 30
0.0
 10
1061.043977455598
 20
-643.6802879390342
 30
0.0
  0
SPLINE
  5
97
330
70
100
AcDbEntity
  8
Layer 1
 62
    18
420
        0
370
    30
100
AcDbSpline
210
0.0
220
0.0
230
1.0
 70
     9
 71
     3
 72
    29
 73
    25
 74
     0
 42
0.0000000001
 43
0.0000000001
 40
0.0
 40
0.0
 40
0.0
 40
0.0
 40
1.0
 40
1.0
 40
1.0
 40
2.0
 40
2.0
 40
2.0
 40
3.0
 40
3.0
 40
3.0
 40
4.0
 40
4.0
 40
4.0
 40
5.0
 40
5.0
 40
5.0
 40
6.0
 40
6.0
 40
6.0
 40
7.0
 40
7.0
 40
7.0
 40
8.0
 40
8.0
 40
8.0
 40
8.0
 10
1066.933683337938
 20
-595.8044671543284
 30
0.0
 10
1066.933683337938
 20
-595.8044671543284
 30
0.0
 10
977.8295297084078
 20
-595.8044671543284
 30
0.0
 10
977.8295297084078
 20
-595.8044671543284
 30
0.0
 10
972.7532103057074
 20
-595.8044671543284
 30
0.0
 10
968.6380403467083
 20
-591.6892971953275
 30
0.0
 10
968.6380403467083
 20
-586.6129777926271
 30
0.0
 10
968.6380403467083
 20
-586.6129777926271
 30
0.0
 10
968.6380403467083
 20
-561.1517837974043
 30
0.0
 10
968.6380403467083
 20
-561.1517837974043
 30
0.0
 10
968.6380403467083
 20
-556.0754643947038
 30
0.0
 10
972.7532103057074
 20
-551.9602944357029
 30
0.0
 10
977.8295297084078
 20
-551.9602944357029
 30
0.0
 10
977.8295297084078
 20
-551.9602944357029
 30
0.0
 10
1066.933683337938
 20
-551.9602944357029
 30
0.0
 10
1066.933683337938
 20
-551.9602944357029
 30
0.0
 10
1072.010002740637
 20
-551.9602944357029
 30
0.0
 10
1076.125172699647
 20
-556.0754643947038
 30
0.0
 10
1076.125172699647
 20
-561.1517837974043
 30
0.0
 10
1076.125172699647
 20
-561.1517837974043
 30
0.0
 10
1076.125172699647
 20
-586.6129777926271
 30
0.0
 10
1076.125172699647
 20
-586.6129777926271
 30
0.0
 10
1076.125172699647
 20
-591.6892971953275
 30
0.0
 10
1072.010002740637
 20
-595.8044671543284
 30
0.0
 10
1066.933683337938
 20
-595.8044671543284
 30
0.0
  0
SPLINE
  5
98
330
70
100
AcDbEntity
  8
Layer 1
 62
    18
420
        0
370
    30
100
AcDbSpline
210
0.0
220
0.0
230
1.0
 70
     9
 71
     3
 72
    29
 73
    25
 74
     0
 42
0.0000000001
 43
0.0000000001
 40
0.0
 40
0.0
 40
0.0
 40
0.0
 40
1.0
 40
1.0
 40
1.0
 40
2.0
 40
2.0
 40
2.0
 40
3.0
 40
3.0
 40
3.0
 40
4.0
 40
4.0
 40
4.0
 40
5.0
 40
5.0
 40
5.0
 40
6.0
 40
6.0
 40
6.0
 40
7.0
 40
7.0
 40
7.0
 40
8.0
 40
8.0
 40
8.0
 40
8.0
 10
109.8564774555889
 20
-527.7704060392361
 30
0.0
 10
109.8564774555889
 20
-527.7704060392361
 30
0.0
 10
17.31666206134287
 20
-527.7704060392361
 30
0.0
 10
17.31666206134287
 20
-527.7704060392361
 30
0.0
 10
12.24034265864247
 20
-527.7704060392361
 30
0.0
 10
8.125172699641552
 20
-523.6552360802343
 30
0.0
 10
8.125172699641552
 20
-518.5789166775348
 30
0.0
 10
8.125172699641552
 20
-518.5789166775348
 30
0.0
 10
8.125172699641552
 20
-493.117722682312
 30
0.0
 10
8.125172699641552
 20
-493.117722682312
 30
0.0
 10
8.125172699641552
 20
-488.0414032796124
 30
0.0
 10
12.24034265864247
 20
-483.9262333206106
 30
0.0
 10
17.31666206134287
 20
-483.9262333206106
 30
0.0
 10
17.31666206134287
 20
-483.9262333206106
 30
0.0
 10
109.8564774555889
 20
-483.9262333206106
 30
0.0
 10
109.8564774555889
 20
-483.9262333206106
 30
0.0
 10
114.9327968582893
 20
-483.9262333206106
 30
0.0
 10
119.0479668172902
 20
-488.0414032796124
 30
0.0
 10
119.0479668172902
 20
-493.117722682312
 30
0.0
 10
119.0479668172902
 20
-493.117722682312
 30
0.0
 10
119.0479668172902
 20
-518.5789166775348
 30
0.0
 10
119.0479668172902
 20
-518.5789166775348
 30
0.0
 10
119.0479668172902
 20
-523.6552360802343
 30
0.0
 10
114.9327968582875
 20
-527.7704060392361
 30
0.0
 10
109.8564774555889
 20
-527.7704060392361
 30
0.0
  0
SPLINE
  5
99
330
70
100
AcDbEntity
  8
Layer 1
 62
    18
420
        0
370
    35
100
AcDbSpline
210
0.0
220
0.0
230
1.0
 70
     9
 71
     3
 72
    29
 73
    25
 74
     0
 42
0.0000000001
 43
0.0000000001
 40
0.0
 40
0.0
 40
0.0
 40
0.0
 40
1.0
 40
1.0
 40
1.0
 40
2.0
 40
2.0
 40
2.0
 40
3.0
 40
3.0
 40
3.0
 40
4.0
 40
4.0
 40
4.0
 40
5.0
 40
5.0
 40
5.0
 40
6.0
 40
6.0
 40
6.0
 40
7.0
 40
7.0
 40
7.0
 40
8.0
 40
8.0
 40
8.0
 40
8.0
 10
158.4465509850015
 20
-479.8945852545312
 30
0.0
 10
158.4465509850015
 20
-479.8945852545312
 30
0.0
 10
26.64202970840233
 20
-479.8945852545312
 30
0.0
 10
26.64202970840233
 20
-479.8945852545312
 30
0.0
 10
21.56571030570194
 20
-479.8945852545312
 30
0.0
 10
17.45054034670102
 20
-475.7794152955293
 30
0.0
 10
17.45054034670102
 20
-470.7030958928299
 30
0.0
 10
17.45054034670102
 20
-470.7030958928299
 30
0.0
 10
17.45054034670102
 20
-445.241901897607
 30
0.0
 10
17.45054034670102
 20
-445.241901897607
 30
0.0
 10
17.45054034670102
 20
-440.1655824949075
 30
0.0
 10
21.56571030570194
 20
-436.0504125359057
 30
0.0
 10
26.64202970840233
 20
-436.0504125359057
 30
0.0
 10
26.64202970840233
 20
-436.0504125359057
 30
0.0
 10
158.4465509850015
 20
-436.0504125359057
 30
0.0
 10
158.4465509850015
 20
-436.0504125359057
 30
0.0
 10
163.5228703877019
 20
-436.0504125359057
 30
0.0
 10
167.6380403467028
 20
-440.1655824949075
 30
0.0
 10
167.6380403467028
 20
-445.241901897607
 30
0.0
 10
167.6380403467028
 20
-445.241901897607
 30
0.0
 10
167.6380403467028
 20
-470.7030958928299
 30
0.0
 10
167.6380403467028
 20
-470.7030958928299
 30
0.0
 10
167.6380403467028
 20
-475.7794152955293
 30
0.0
 10
163.5228703877019
 20
-479.8945852545312
 30
0.0
 10
158.4465509850015
 20
-479.8945852545312
 30
0.0
  0
SPLINE
  5
9A
330
70
100
AcDbEntity
  8
Layer 1
 62
    18
420
        0
370
    35
100
AcDbSpline
210
0.0
220
0.0
230
1.0
 70
     9
 71
     3
 72
    29
 73
    25
 74
     0
 42
0.0000000001
 43
0.0000000001
 40
0.0
 40
0.0
 40
0.0
 40
0.0
 40
1.0
 40
1.0
 40
1.0
 40
2.0
 40
2.0
 40
2.0
 40
3.0
 40
3.0
 40
3.0
 40
4.0
 40
4.0
 40
4.0
 40
5.0
 40
5.0
 40
5.0
 40
6.0
 40
6.0
 40
6.0
 40
7.0
 40
7.0
 40
7.0
 40
8.0
 40
8.0
 40
8.0
 40
8.0
 10
1061.043977455598
 20
-539.86535023747
 30
0.0
 10
1061.043977455598
 20
-539.86535023747
 30
0.0
 10
929.239456178997
 20
-539.86535023747
 30
0.0
 10
929.239456178997
 20
-539.86535023747
 30
0.0
 10
924.1631367762966
 20
-539.86535023747
 30
0.0
 10
920.0479668172883
 20
-535.7501802784681
 30
0.0
 10
920.0479668172883
 20
-530.6738608757687
 30
0.0
 10
920.0479668172883
 20
-530.6738608757687
 30
0.0
 10
920.0479668172883
 20
-505.2126668805458
 30
0.0
 10
920.0479668172883
 20
-505.2126668805458
 30
0.0
 10
920.0479668172883
 20
-500.1363474778464
 30
0.0
 10
924.1631367762966
 20
-496.0211775188445
 30
0.0
 10
929.239456178997
 20
-496.0211775188445
 30
0.0
 10
929.239456178997
 20
-496.0211775188445
 30
0.0
 10
1061.043977455598
 20
-496.0211775188445
 30
0.0
 10
1061.043977455598
 20
-496.0211775188445
 30
0.0
 10
1066.120296858287
 20
-496.0211775188445
 30
0.0
 10
1070.235466817297
 20
-500.1363474778464
 30
0.0
 10
1070.235466817297
 20
-505.2126668805458
 30
0.0
 10
1070.235466817297
 20
-505.2126668805458
 30
0.0
 10
1070.235466817297
 20
-530.6738608757687
 30
0.0
 10
1070.235466817297
 20
-530.6738608757687
 30
0.0
 10
1070.235466817297
 20
-535.7501802784681
 30
0.0
 10
1066.120296858287
 20
-539.86535023747
 30
0.0
 10
1061.043977455598
 20
-539.86535023747
 30
0.0
  0
SPLINE
  5
9B
330
70
100
AcDbEntity
  8
Layer 1
 62
    18
420
        0
370
    35
100
AcDbSpline
210
0.0
220
0.0
230
1.0
 70
     9
 71
     3
 72
    29
 73
    25
 74
     0
 42
0.0000000001
 43
0.0000000001
 40
0.0
 40
0.0
 40
0.0
 40
0.0
 40
1.0
 40
1.0
 40
1.0
 40
2.0
 40
2.0
 40
2.0
 40
3.0
 40
3.0
 40
3.0
 40
4.0
 40
4.0
 40
4.0
 40
5.0
 40
5.0
 40
5.0
 40
6.0
 40
6.0
 40
6.0
 40
7.0
 40
7.0
 40
7.0
 40
8.0
 40
8.0
 40
8.0
 40
8.0
 10
951.102800985007
 20
-489.9737054197258
 30
0.0
 10
951.102800985007
 20
-489.9737054197258
 30
0.0
 10
819.2982797084077
 20
-489.9737054197258
 30
0.0
 10
819.2982797084077
 20
-489.9737054197258
 30
0.0
 10
814.2219603057073
 20
-489.9737054197258
 30
0.0
 10
810.1067903467082
 20
-485.8585354607239
 30
0.0
 10
810.1067903467082
 20
-480.7822160580244
 30
0.0
 10
810.1067903467082
 20
-480.7822160580244
 30
0.0
 10
810.1067903467082
 20
-455.3210220628016
 30
0.0
 10
810.1067903467082
 20
-455.3210220628016
 30
0.0
 10
810.1067903467082
 20
-450.2447026601021
 30
0.0
 10
814.2219603057073
 20
-446.1295327011002
 30
0.0
 10
819.2982797084077
 20
-446.1295327011002
 30
0.0
 10
819.2982797084077
 20
-446.1295327011002
 30
0.0
 10
951.102800985007
 20
-446.1295327011002
 30
0.0
 10
951.102800985007
 20
-446.1295327011002
 30
0.0
 10
956.1791203877074
 20
-446.1295327011002
 30
0.0
 10
960.2942903467083
 20
-450.2447026601021
 30
0.0
 10
960.2942903467083
 20
-455.3210220628016
 30
0.0
 10
960.2942903467083
 20
-455.3210220628016
 30
0.0
 10
960.2942903467083
 20
-480.7822160580244
 30
0.0
 10
960.2942903467083
 20
-480.7822160580244
 30
0.0
 10
960.2942903467083
 20
-485.8585354607239
 30
0.0
 10
956.1791203877074
 20
-489.9737054197258
 30
0.0
 10
951.102800985007
 20
-489.9737054197258
 30
0.0
  0
SPLINE
  5
9C
330
70
100
AcDbEntity
  8
Layer 1
 62
    18
420
        0
370
    30
100
AcDbSpline
210
0.0
220
0.0
230
1.0
 70
     9
 71
     3
 72
    29
 73
    25
 74
     0
 42
0.0000000001
 43
0.0000000001
 40
0.0
 40
0.0
 40
0.0
 40
0.0
 40
1.0
 40
1.0
 40
1.0
 40
2.0
 40
2.0
 40
2.0
 40
3.0
 40
3.0
 40
3.0
 40
4.0
 40
4.0
 40
4.0
 40
5.0
 40
5.0
 40
5.0
 40
6.0
 40
6.0
 40
6.0
 40
7.0
 40
7.0
 40
7.0
 40
8.0
 40
8.0
 40
8.0
 40
8.0
 10
1066.933683337938
 20
-491.9895294527641
 30
0.0
 10
1066.933683337938
 20
-491.9895294527641
 30
0.0
 10
977.8295297084078
 20
-491.9895294527641
 30
0.0
 10
977.8295297084078
 20
-491.9895294527641
 30
0.0
 10
972.7532103057074
 20
-491.9895294527641
 30
0.0
 10
968.6380403467083
 20
-487.8743594937623
 30
0.0
 10
968.6380403467083
 20
-482.7980400910628
 30
0.0
 10
968.6380403467083
 20
-482.7980400910628
 30
0.0
 10
968.6380403467083
 20
-457.3368460958399
 30
0.0
 10
968.6380403467083
 20
-457.3368460958399
 30
0.0
 10
968.6380403467083
 20
-452.2605266931405
 30
0.0
 10
972.7532103057074
 20
-448.1453567341386
 30
0.0
 10
977.8295297084078
 20
-448.1453567341386
 30
0.0
 10
977.8295297084078
 20
-448.1453567341386
 30
0.0
 10
1066.933683337938
 20
-448.1453567341386
 30
0.0
 10
1066.933683337938
 20
-448.1453567341386
 30
0.0
 10
1072.010002740637
 20
-448.1453567341386
 30
0.0
 10
1076.125172699647
 20
-452.2605266931405
 30
0.0
 10
1076.125172699647
 20
-457.3368460958399
 30
0.0
 10
1076.125172699647
 20
-457.3368460958399
 30
0.0
 10
1076.125172699647
 20
-482.7980400910628
 30
0.0
 10
1076.125172699647
 20
-482.7980400910628
 30
0.0
 10
1076.125172699647
 20
-487.8743594937623
 30
0.0
 10
1072.010002740637
 20
-491.9895294527641
 30
0.0
 10
1066.933683337938
 20
-491.9895294527641
 30
0.0
  0
SPLINE
  5
9D
330
70
100
AcDbEntity
  8
Layer 1
 62
    18
420
        0
370
    30
100
AcDbSpline
210
0.0
220
0.0
230
1.0
 70
     9
 71
     3
 72
    29
 73
    25
 74
     0
 42
0.0000000001
 43
0.0000000001
 40
0.0
 40
0.0
 40
0.0
 40
0.0
 40
1.0
 40
1.0
 40
1.0
 40
2.0
 40
2.0
 40
2.0
 40
3.0
 40
3.0
 40
3.0
 40
4.0
 40
4.0
 40
4.0
 40
5.0
 40
5.0
 40
5.0
 40
6.0
 40
6.0
 40
6.0
 40
7.0
 40
7.0
 40
7.0
 40
8.0
 40
8.0
 40
8.0
 40
8.0
 10
109.8564774555889
 20
-423.9554683376727
 30
0.0
 10
109.8564774555889
 20
-423.9554683376727
 30
0.0
 10
17.31666206134287
 20
-423.9554683376727
 30
0.0
 10
17.31666206134287
 20
-423.9554683376727
 30
0.0
 10
12.24034265864247
 20
-423.9554683376727
 30
0.0
 10
8.125172699641552
 20
-419.8402983786709
 30
0.0
 10
8.125172699641552
 20
-414.7639789759714
 30
0.0
 10
8.125172699641552
 20
-414.7639789759714
 30
0.0
 10
8.125172699641552
 20
-389.3027849807486
 30
0.0
 10
8.125172699641552
 20
-389.3027849807486
 30
0.0
 10
8.125172699641552
 20
-384.2264655780482
 30
0.0
 10
12.24034265864247
 20
-380.1112956190473
 30
0.0
 10
17.31666206134287
 20
-380.1112956190473
 30
0.0
 10
17.31666206134287
 20
-380.1112956190473
 30
0.0
 10
109.8564774555889
 20
-380.1112956190473
 30
0.0
 10
109.8564774555889
 20
-380.1112956190473
 30
0.0
 10
114.9327968582893
 20
-380.1112956190473
 30
0.0
 10
119.0479668172902
 20
-384.2264655780482
 30
0.0
 10
119.0479668172902
 20
-389.3027849807486
 30
0.0
 10
119.0479668172902
 20
-389.3027849807486
 30
0.0
 10
119.0479668172902
 20
-414.7639789759714
 30
0.0
 10
119.0479668172902
 20
-414.7639789759714
 30
0.0
 10
119.0479668172902
 20
-419.8402983786709
 30
0.0
 10
114.9327968582875
 20
-423.9554683376727
 30
0.0
 10
109.8564774555889
 20
-423.9554683376727
 30
0.0
  0
SPLINE
  5
9E
330
70
100
AcDbEntity
  8
Layer 1
 62
    18
420
        0
370
    35
100
AcDbSpline
210
0.0
220
0.0
230
1.0
 70
     9
 71
     3
 72
    29
 73
    25
 74
     0
 42
0.0000000001
 43
0.0000000001
 40
0.0
 40
0.0
 40
0.0
 40
0.0
 40
1.0
 40
1.0
 40
1.0
 40
2.0
 40
2.0
 40
2.0
 40
3.0
 40
3.0
 40
3.0
 40
4.0
 40
4.0
 40
4.0
 40
5.0
 40
5.0
 40
5.0
 40
6.0
 40
6.0
 40
6.0
 40
7.0
 40
7.0
 40
7.0
 40
8.0
 40
8.0
 40
8.0
 40
8.0
 10
951.102800985007
 20
-386.1587677181624
 30
0.0
 10
951.102800985007
 20
-386.1587677181624
 30
0.0
 10
819.2982797084077
 20
-386.1587677181624
 30
0.0
 10
819.2982797084077
 20
-386.1587677181624
 30
0.0
 10
814.2219603057073
 20
-386.1587677181624
 30
0.0
 10
810.1067903467082
 20
-382.0435977591606
 30
0.0
 10
810.1067903467082
 20
-376.9672783564611
 30
0.0
 10
810.1067903467082
 20
-376.9672783564611
 30
0.0
 10
810.1067903467082
 20
-351.5060843612382
 30
0.0
 10
810.1067903467082
 20
-351.5060843612382
 30
0.0
 10
810.1067903467082
 20
-346.4297649585387
 30
0.0
 10
814.2219603057073
 20
-342.3145949995369
 30
0.0
 10
819.2982797084077
 20
-342.3145949995369
 30
0.0
 10
819.2982797084077
 20
-342.3145949995369
 30
0.0
 10
951.102800985007
 20
-342.3145949995369
 30
0.0
 10
951.102800985007
 20
-342.3145949995369
 30
0.0
 10
956.1791203877074
 20
-342.3145949995369
 30
0.0
 10
960.2942903467083
 20
-346.4297649585387
 30
0.0
 10
960.2942903467083
 20
-351.5060843612382
 30
0.0
 10
960.2942903467083
 20
-351.5060843612382
 30
0.0
 10
960.2942903467083
 20
-376.9672783564611
 30
0.0
 10
960.2942903467083
 20
-376.9672783564611
 30
0.0
 10
960.2942903467083
 20
-382.0435977591606
 30
0.0
 10
956.1791203877074
 20
-386.1587677181624
 30
0.0
 10
951.102800985007
 20
-386.1587677181624
 30
0.0
  0
SPLINE
  5
9F
330
70
100
AcDbEntity
  8
Layer 1
 62
    18
420
        0
370
    35
100
AcDbSpline
210
0.0
220
0.0
230
1.0
 70
     9
 71
     3
 72
    29
 73
    25
 74
     0
 42
0.0000000001
 43
0.0000000001
 40
0.0
 40
0.0
 40
0.0
 40
0.0
 40
1.0
 40
1.0
 40
1.0
 40
2.0
 40
2.0
 40
2.0
 40
3.0
 40
3.0
 40
3.0
 40
4.0
 40
4.0
 40
4.0
 40
5.0
 40
5.0
 40
5.0
 40
6.0
 40
6.0
 40
6.0
 40
7.0
 40
7.0
 40
7.0
 40
8.0
 40
8.0
 40
8.0
 40
8.0
 10
1061.043977455598
 20
-436.0504125359057
 30
0.0
 10
1061.043977455598
 20
-436.0504125359057
 30
0.0
 10
929.239456178997
 20
-436.0504125359057
 30
0.0
 10
929.239456178997
 20
-436.0504125359057
 30
0.0
 10
924.1631367762966
 20
-436.0504125359057
 30
0.0
 10
920.0479668172883
 20
-431.9352425769038
 30
0.0
 10
920.0479668172883
 20
-426.8589231742043
 30
0.0
 10
920.0479668172883
 20
-426.8589231742043
 30
0.0
 10
920.0479668172883
 20
-401.3977291789815
 30
0.0
 10
920.0479668172883
 20
-401.3977291789815
 30
0.0
 10
920.0479668172883
 20
-396.3214097762821
 30
0.0
 10
924.1631367762966
 20
-392.2062398172802
 30
0.0
 10
929.239456178997
 20
-392.2062398172802
 30
0.0
 10
929.239456178997
 20
-392.2062398172802
 30
0.0
 10
1061.043977455598
 20
-392.2062398172802
 30
0.0
 10
1061.043977455598
 20
-392.2062398172802
 30
0.0
 10
1066.120296858287
 20
-392.2062398172802
 30
0.0
 10
1070.235466817297
 20
-396.3214097762821
 30
0.0
 10
1070.235466817297
 20
-401.3977291789815
 30
0.0
 10
1070.235466817297
 20
-401.3977291789815
 30
0.0
 10
1070.235466817297
 20
-426.8589231742043
 30
0.0
 10
1070.235466817297
 20
-426.8589231742043
 30
0.0
 10
1070.235466817297
 20
-431.9352425769038
 30
0.0
 10
1066.120296858287
 20
-436.0504125359057
 30
0.0
 10
1061.043977455598
 20
-436.0504125359057
 30
0.0
  0
SPLINE
  5
A0
330
70
100
AcDbEntity
  8
Layer 1
 62
    18
420
        0
370
    35
100
AcDbSpline
210
0.0
220
0.0
230
1.0
 70
     9
 71
     3
 72
    29
 73
    25
 74
     0
 42
0.0000000001
 43
0.0000000001
 40
0.0
 40
0.0
 40
0.0
 40
0.0
 40
1.0
 40
1.0
 40
1.0
 40
2.0
 40
2.0
 40
2.0
 40
3.0
 40
3.0
 40
3.0
 40
4.0
 40
4.0
 40
4.0
 40
5.0
 40
5.0
 40
5.0
 40
6.0
 40
6.0
 40
6.0
 40
7.0
 40
7.0
 40
7.0
 40
8.0
 40
8.0
 40
8.0
 40
8.0
 10
894.6597862791168
 20
-436.0504125359057
 30
0.0
 10
894.6597862791168
 20
-436.0504125359057
 30
0.0
 10
762.8552650025176
 20
-436.0504125359057
 30
0.0
 10
762.8552650025176
 20
-436.0504125359057
 30
0.0
 10
757.7789455998172
 20
-436.0504125359057
 30
0.0
 10
753.6637756408181
 20
-431.9352425769038
 30
0.0
 10
753.6637756408181
 20
-426.8589231742043
 30
0.0
 10
753.6637756408181
 20
-426.8589231742043
 30
0.0
 10
753.6637756408181
 20
-401.3977291789815
 30
0.0
 10
753.6637756408181
 20
-401.3977291789815
 30
0.0
 10
753.6637756408181
 20
-396.3214097762821
 30
0.0
 10
757.7789455998172
 20
-392.2062398172802
 30
0.0
 10
762.8552650025176
 20
-392.2062398172802
 30
0.0
 10
762.8552650025176
 20
-392.2062398172802
 30
0.0
 10
894.6597862791168
 20
-392.2062398172802
 30
0.0
 10
894.6597862791168
 20
-392.2062398172802
 30
0.0
 10
899.7361056818172
 20
-392.2062398172802
 30
0.0
 10
903.8512756408181
 20
-396.3214097762821
 30
0.0
 10
903.8512756408181
 20
-401.3977291789815
 30
0.0
 10
903.8512756408181
 20
-401.3977291789815
 30
0.0
 10
903.8512756408181
 20
-426.8589231742043
 30
0.0
 10
903.8512756408181
 20
-426.8589231742043
 30
0.0
 10
903.8512756408181
 20
-431.9352425769038
 30
0.0
 10
899.7361056818172
 20
-436.0504125359057
 30
0.0
 10
894.6597862791168
 20
-436.0504125359057
 30
0.0
  0
SPLINE
  5
A1
330
70
100
AcDbEntity
  8
Layer 1
 62
    18
420
        0
370
    30
100
AcDbSpline
210
0.0
220
0.0
230
1.0
 70
     9
 71
     3
 72
    29
 73
    25
 74
     0
 42
0.0000000001
 43
0.0000000001
 40
0.0
 40
0.0
 40
0.0
 40
0.0
 40
1.0
 40
1.0
 40
1.0
 40
2.0
 40
2.0
 40
2.0
 40
3.0
 40
3.0
 40
3.0
 40
4.0
 40
4.0
 40
4.0
 40
5.0
 40
5.0
 40
5.0
 40
6.0
 40
6.0
 40
6.0
 40
7.0
 40
7.0
 40
7.0
 40
8.0
 40
8.0
 40
8.0
 40
8.0
 10
1066.933683337938
 20
-388.1745917512008
 30
0.0
 10
1066.933683337938
 20
-388.1745917512008
 30
0.0
 10
977.8295297084078
 20
-388.1745917512008
 30
0.0
 10
977.8295297084078
 20
-388.1745917512008
 30
0.0
 10
972.7532103057074
 20
-388.1745917512008
 30
0.0
 10
968.6380403467083
 20
-384.0594217921989
 30
0.0
 10
968.6380403467083
 20
-378.9831023894994
 30
0.0
 10
968.6380403467083
 20
-378.9831023894994
 30
0.0
 10
968.6380403467083
 20
-353.5219083942766
 30
0.0
 10
968.6380403467083
 20
-353.5219083942766
 30
0.0
 10
968.6380403467083
 20
-348.4455889915762
 30
0.0
 10
972.7532103057074
 20
-344.3304190325753
 30
0.0
 10
977.8295297084078
 20
-344.3304190325753
 30
0.0
 10
977.8295297084078
 20
-344.3304190325753
 30
0.0
 10
1066.933683337938
 20
-344.3304190325753
 30
0.0
 10
1066.933683337938
 20
-344.3304190325753
 30
0.0
 10
1072.010002740637
 20
-344.3304190325753
 30
0.0
 10
1076.125172699647
 20
-348.4455889915762
 30
0.0
 10
1076.125172699647
 20
-353.5219083942766
 30
0.0
 10
1076.125172699647
 20
-353.5219083942766
 30
0.0
 10
1076.125172699647
 20
-378.9831023894994
 30
0.0
 10
1076.125172699647
 20
-378.9831023894994
 30
0.0
 10
1076.125172699647
 20
-384.0594217921989
 30
0.0
 10
1072.010002740637
 20
-388.1745917512008
 30
0.0
 10
1066.933683337938
 20
-388.1745917512008
 30
0.0
  0
SPLINE
  5
A2
330
70
100
AcDbEntity
  8
Layer 1
 62
    18
420
        0
370
    35
100
AcDbSpline
210
0.0
220
0.0
230
1.0
 70
     9
 71
     3
 72
    29
 73
    25
 74
     0
 42
0.0000000001
 43
0.0000000001
 40
0.0
 40
0.0
 40
0.0
 40
0.0
 40
1.0
 40
1.0
 40
1.0
 40
2.0
 40
2.0
 40
2.0
 40
3.0
 40
3.0
 40
3.0
 40
4.0
 40
4.0
 40
4.0
 40
5.0
 40
5.0
 40
5.0
 40
6.0
 40
6.0
 40
6.0
 40
7.0
 40
7.0
 40
7.0
 40
8.0
 40
8.0
 40
8.0
 40
8.0
 10
902.512727455587
 20
-330.219650801303
 30
0.0
 10
902.512727455587
 20
-330.219650801303
 30
0.0
 10
770.708206178997
 20
-330.219650801303
 30
0.0
 10
770.708206178997
 20
-330.219650801303
 30
0.0
 10
765.6318867762966
 20
-330.219650801303
 30
0.0
 10
761.5167168172884
 20
-326.1044808423012
 30
0.0
 10
761.5167168172884
 20
-321.0281614396017
 30
0.0
 10
761.5167168172884
 20
-321.0281614396017
 30
0.0
 10
761.5167168172884
 20
-295.5669674443789
 30
0.0
 10
761.5167168172884
 20
-295.5669674443789
 30
0.0
 10
761.5167168172884
 20
-290.4906480416794
 30
0.0
 10
765.6318867762966
 20
-286.3754780826775
 30
0.0
 10
770.708206178997
 20
-286.3754780826775
 30
0.0
 10
770.708206178997
 20
-286.3754780826775
 30
0.0
 10
902.512727455587
 20
-286.3754780826775
 30
0.0
 10
902.512727455587
 20
-286.3754780826775
 30
0.0
 10
907.5890468582874
 20
-286.3754780826775
 30
0.0
 10
911.7042168172885
 20
-290.4906480416794
 30
0.0
 10
911.7042168172885
 20
-295.5669674443789
 30
0.0
 10
911.7042168172885
 20
-295.5669674443789
 30
0.0
 10
911.7042168172885
 20
-321.0281614396017
 30
0.0
 10
911.7042168172885
 20
-321.0281614396017
 30
0.0
 10
911.7042168172885
 20
-326.1044808423012
 30
0.0
 10
907.5890468582874
 20
-330.219650801303
 30
0.0
 10
902.512727455587
 20
-330.219650801303
 30
0.0
  0
SPLINE
  5
A3
330
70
100
AcDbEntity
  8
Layer 1
 62
    18
420
        0
370
    35
100
AcDbSpline
210
0.0
220
0.0
230
1.0
 70
     9
 71
     3
 72
    29
 73
    25
 74
     0
 42
0.0000000001
 43
0.0000000001
 40
0.0
 40
0.0
 40
0.0
 40
0.0
 40
1.0
 40
1.0
 40
1.0
 40
2.0
 40
2.0
 40
2.0
 40
3.0
 40
3.0
 40
3.0
 40
4.0
 40
4.0
 40
4.0
 40
5.0
 40
5.0
 40
5.0
 40
6.0
 40
6.0
 40
6.0
 40
7.0
 40
7.0
 40
7.0
 40
8.0
 40
8.0
 40
8.0
 40
8.0
 10
951.102800985007
 20
-282.3438300165971
 30
0.0
 10
951.102800985007
 20
-282.3438300165971
 30
0.0
 10
819.2982797084077
 20
-282.3438300165971
 30
0.0
 10
819.2982797084077
 20
-282.3438300165971
 30
0.0
 10
814.2219603057073
 20
-282.3438300165971
 30
0.0
 10
810.1067903467082
 20
-278.2286600575962
 30
0.0
 10
810.1067903467082
 20
-273.1523406548967
 30
0.0
 10
810.1067903467082
 20
-273.1523406548967
 30
0.0
 10
810.1067903467082
 20
-247.6911466596739
 30
0.0
 10
810.1067903467082
 20
-247.6911466596739
 30
0.0
 10
810.1067903467082
 20
-242.6148272569744
 30
0.0
 10
814.2219603057073
 20
-238.4996572979726
 30
0.0
 10
819.2982797084077
 20
-238.4996572979726
 30
0.0
 10
819.2982797084077
 20
-238.4996572979726
 30
0.0
 10
951.102800985007
 20
-238.4996572979726
 30
0.0
 10
951.102800985007
 20
-238.4996572979726
 30
0.0
 10
956.1791203877074
 20
-238.4996572979726
 30
0.0
 10
960.2942903467083
 20
-242.6148272569744
 30
0.0
 10
960.2942903467083
 20
-247.6911466596739
 30
0.0
 10
960.2942903467083
 20
-247.6911466596739
 30
0.0
 10
960.2942903467083
 20
-273.1523406548967
 30
0.0
 10
960.2942903467083
 20
-273.1523406548967
 30
0.0
 10
960.2942903467083
 20
-278.2286600575962
 30
0.0
 10
956.1791203877074
 20
-282.3438300165971
 30
0.0
 10
951.102800985007
 20
-282.3438300165971
 30
0.0
  0
SPLINE
  5
A4
330
70
100
AcDbEntity
  8
Layer 1
 62
    18
420
        0
370
    35
100
AcDbSpline
210
0.0
220
0.0
230
1.0
 70
     9
 71
     3
 72
    29
 73
    25
 74
     0
 42
0.0000000001
 43
0.0000000001
 40
0.0
 40
0.0
 40
0.0
 40
0.0
 40
1.0
 40
1.0
 40
1.0
 40
2.0
 40
2.0
 40
2.0
 40
3.0
 40
3.0
 40
3.0
 40
4.0
 40
4.0
 40
4.0
 40
5.0
 40
5.0
 40
5.0
 40
6.0
 40
6.0
 40
6.0
 40
7.0
 40
7.0
 40
7.0
 40
8.0
 40
8.0
 40
8.0
 40
8.0
 10
902.512727455587
 20
-226.4047130997397
 30
0.0
 10
902.512727455587
 20
-226.4047130997397
 30
0.0
 10
770.708206178997
 20
-226.4047130997397
 30
0.0
 10
770.708206178997
 20
-226.4047130997397
 30
0.0
 10
765.6318867762966
 20
-226.4047130997397
 30
0.0
 10
761.5167168172884
 20
-222.2895431407378
 30
0.0
 10
761.5167168172884
 20
-217.2132237380383
 30
0.0
 10
761.5167168172884
 20
-217.2132237380383
 30
0.0
 10
761.5167168172884
 20
-191.7520297428154
 30
0.0
 10
761.5167168172884
 20
-191.7520297428154
 30
0.0
 10
761.5167168172884
 20
-186.675710340116
 30
0.0
 10
765.6318867762966
 20
-182.5605403811141
 30
0.0
 10
770.708206178997
 20
-182.5605403811141
 30
0.0
 10
770.708206178997
 20
-182.5605403811141
 30
0.0
 10
902.512727455587
 20
-182.5605403811141
 30
0.0
 10
902.512727455587
 20
-182.5605403811141
 30
0.0
 10
907.5890468582874
 20
-182.5605403811141
 30
0.0
 10
911.7042168172885
 20
-186.675710340116
 30
0.0
 10
911.7042168172885
 20
-191.7520297428154
 30
0.0
 10
911.7042168172885
 20
-191.7520297428154
 30
0.0
 10
911.7042168172885
 20
-217.2132237380383
 30
0.0
 10
911.7042168172885
 20
-217.2132237380383
 30
0.0
 10
911.7042168172885
 20
-222.2895431407378
 30
0.0
 10
907.5890468582874
 20
-226.4047130997397
 30
0.0
 10
902.512727455587
 20
-226.4047130997397
 30
0.0
  0
SPLINE
  5
A5
330
70
100
AcDbEntity
  8
Layer 1
 62
    18
420
        0
370
    35
100
AcDbSpline
210
0.0
220
0.0
230
1.0
 70
     9
 71
     3
 72
    29
 73
    25
 74
     0
 42
0.0000000001
 43
0.0000000001
 40
0.0
 40
0.0
 40
0.0
 40
0.0
 40
1.0
 40
1.0
 40
1.0
 40
2.0
 40
2.0
 40
2.0
 40
3.0
 40
3.0
 40
3.0
 40
4.0
 40
4.0
 40
4.0
 40
5.0
 40
5.0
 40
5.0
 40
6.0
 40
6.0
 40
6.0
 40
7.0
 40
7.0
 40
7.0
 40
8.0
 40
8.0
 40
8.0
 40
8.0
 10
951.102800985007
 20
-178.5288923150346
 30
0.0
 10
951.102800985007
 20
-178.5288923150346
 30
0.0
 10
819.2982797084077
 20
-178.5288923150346
 30
0.0
 10
819.2982797084077
 20
-178.5288923150346
 30
0.0
 10
814.2219603057073
 20
-178.5288923150346
 30
0.0
 10
810.1067903467082
 20
-174.4137223560328
 30
0.0
 10
810.1067903467082
 20
-169.3374029533333
 30
0.0
 10
810.1067903467082
 20
-169.3374029533333
 30
0.0
 10
810.1067903467082
 20
-143.8762089581105
 30
0.0
 10
810.1067903467082
 20
-143.8762089581105
 30
0.0
 10
810.1067903467082
 20
-138.799889555411
 30
0.0
 10
814.2219603057073
 20
-134.6847195964092
 30
0.0
 10
819.2982797084077
 20
-134.6847195964092
 30
0.0
 10
819.2982797084077
 20
-134.6847195964092
 30
0.0
 10
951.102800985007
 20
-134.6847195964092
 30
0.0
 10
951.102800985007
 20
-134.6847195964092
 30
0.0
 10
956.1791203877074
 20
-134.6847195964092
 30
0.0
 10
960.2942903467083
 20
-138.799889555411
 30
0.0
 10
960.2942903467083
 20
-143.8762089581105
 30
0.0
 10
960.2942903467083
 20
-143.8762089581105
 30
0.0
 10
960.2942903467083
 20
-169.3374029533333
 30
0.0
 10
960.2942903467083
 20
-169.3374029533333
 30
0.0
 10
960.2942903467083
 20
-174.4137223560328
 30
0.0
 10
956.1791203877074
 20
-178.5288923150346
 30
0.0
 10
951.102800985007
 20
-178.5288923150346
 30
0.0
  0
SPLINE
  5
A6
330
70
100
AcDbEntity
  8
Layer 1
 62
    18
420
        0
370
    35
100
AcDbSpline
210
0.0
220
0.0
230
1.0
 70
     9
 71
     3
 72
    29
 73
    25
 74
     0
 42
0.0000000001
 43
0.0000000001
 40
0.0
 40
0.0
 40
0.0
 40
0.0
 40
1.0
 40
1.0
 40
1.0
 40
2.0
 40
2.0
 40
2.0
 40
3.0
 40
3.0
 40
3.0
 40
4.0
 40
4.0
 40
4.0
 40
5.0
 40
5.0
 40
5.0
 40
6.0
 40
6.0
 40
6.0
 40
7.0
 40
7.0
 40
7.0
 40
8.0
 40
8.0
 40
8.0
 40
8.0
 10
1061.043977455598
 20
-228.4205371327789
 30
0.0
 10
1061.043977455598
 20
-228.4205371327789
 30
0.0
 10
929.239456178997
 20
-228.4205371327789
 30
0.0
 10
929.239456178997
 20
-228.4205371327789
 30
0.0
 10
924.1631367762966
 20
-228.4205371327789
 30
0.0
 10
920.0479668172883
 20
-224.3053671737771
 30
0.0
 10
920.0479668172883
 20
-219.2290477710776
 30
0.0
 10
920.0479668172883
 20
-219.2290477710776
 30
0.0
 10
920.0479668172883
 20
-193.7678537758547
 30
0.0
 10
920.0479668172883
 20
-193.7678537758547
 30
0.0
 10
920.0479668172883
 20
-188.6915343731552
 30
0.0
 10
924.1631367762966
 20
-184.5763644141534
 30
0.0
 10
929.239456178997
 20
-184.5763644141534
 30
0.0
 10
929.239456178997
 20
-184.5763644141534
 30
0.0
 10
1061.043977455598
 20
-184.5763644141534
 30
0.0
 10
1061.043977455598
 20
-184.5763644141534
 30
0.0
 10
1066.120296858287
 20
-184.5763644141534
 30
0.0
 10
1070.235466817297
 20
-188.6915343731552
 30
0.0
 10
1070.235466817297
 20
-193.7678537758547
 30
0.0
 10
1070.235466817297
 20
-193.7678537758547
 30
0.0
 10
1070.235466817297
 20
-219.2290477710776
 30
0.0
 10
1070.235466817297
 20
-219.2290477710776
 30
0.0
 10
1070.235466817297
 20
-224.3053671737771
 30
0.0
 10
1066.120296858287
 20
-228.4205371327789
 30
0.0
 10
1061.043977455598
 20
-228.4205371327789
 30
0.0
  0
SPLINE
  5
A7
330
70
100
AcDbEntity
  8
Layer 1
 62
    18
420
        0
370
   106
100
AcDbSpline
210
0.0
220
0.0
230
1.0
 70
     9
 71
     3
 72
    29
 73
    25
 74
     0
 42
0.0000000001
 43
0.0000000001
 40
0.0
 40
0.0
 40
0.0
 40
0.0
 40
1.0
 40
1.0
 40
1.0
 40
2.0
 40
2.0
 40
2.0
 40
3.0
 40
3.0
 40
3.0
 40
4.0
 40
4.0
 40
4.0
 40
5.0
 40
5.0
 40
5.0
 40
6.0
 40
6.0
 40
6.0
 40
7.0
 40
7.0
 40
7.0
 40
8.0
 40
8.0
 40
8.0
 40
8.0
 10
1073.018789684667
 20
-1078.769825858191
 30
0.0
 10
1073.018789684667
 20
-1078.769825858191
 30
0.0
 10
7.189002523395174
 20
-1078.769825858191
 30
0.0
 10
7.189002523395174
 20
-1078.769825858191
 30
0.0
 10
3.804789588331914
 20
-1078.769825858191
 30
0.0
 10
1.061342948774836
 20
-1076.026379218912
 30
0.0
 10
1.061342948774836
 20
-1072.642166283847
 30
0.0
 10
1.061342948774836
 20
-1072.642166283847
 30
0.0
 10
1.061342948774836
 20
-6.81237917042381
 30
0.0
 10
1.061342948774836
 20
-6.81237917042381
 30
0.0
 10
1.061342948774836
 20
-3.42816623535873
 30
0.0
 10
3.804789588055427
 20
-0.6847195963537161
 30
0.0
 10
7.189002523122326
 20
-0.6847195963537161
 30
0.0
 10
7.189002523122326
 20
-0.6847195963537161
 30
0.0
 10
1073.018789684398
 20
-0.6847195963537161
 30
0.0
 10
1073.018789684398
 20
-0.6847195963537161
 30
0.0
 10
1076.403002619467
 20
-0.6847195963537161
 30
0.0
 10
1079.146449259017
 20
-3.428166235633398
 30
0.0
 10
1079.146449259017
 20
-6.812379170699387
 30
0.0
 10
1079.146449259017
 20
-6.812379170699387
 30
0.0
 10
1079.146449259017
 20
-1072.642166284124
 30
0.0
 10
1079.146449259017
 20
-1072.642166284124
 30
0.0
 10
1079.146449259017
 20
-1076.026379219187
 30
0.0
 10
1076.403002619738
 20
-1078.769825858191
 30
0.0
 10
1073.018789684667
 20
-1078.769825858191
 30
0.0
  0
LWPOLYLINE
  5
A8
330
70
100
AcDbEntity
  8
Layer 1
 62
    18
420
        0
370
    35
100
AcDbPolyline
 90
       66
 70
     1
 43
0.0
 10
295.2987012987014
 20
-1024.923008187741
 10
296.5974025974028
 20
-1013.080041993624
 10
335.5584415584417
 20
-1013.080041993624
 10
335.5584415584417
 20
-945.0459808785309
 10
296.5974025974028
 20
-945.0459808785309
 10
296.5974025974028
 20
-895.1543360607866
 10
175.981790346701
 20
-895.1543360607866
 10
175.981790346701
 20
-839.2152191439272
 10
127.3917168172902
 20
-839.2152191439272
 10
127.3917168172902
 20
-801.4185185244169
 10
175.981790346701
 20
-801.4185185244169
 10
175.981790346701
 20
-735.4002814423638
 10
127.3917168172902
 20
-735.4002814423638
 10
127.3917168172902
 20
-697.6035808228535
 10
175.981790346701
 20
-697.6035808228535
 10
175.981790346701
 20
-643.6802879390342
 10
292.7012987012986
 20
-643.6802879390342
 10
292.7012987012986
 20
-573.8823807950157
 10
175.981790346701
 20
-573.8823807950157
 10
175.981790346701
 20
-522.8441558441554
 10
127.3917168172902
 20
-522.8441558441554
 10
127.3917168172902
 20
-489.9737054197258
 10
175.981790346701
 20
-489.9737054197258
 10
175.981790346701
 20
-423.9554683376727
 10
127.3917168172902
 20
-423.9554683376727
 10
127.3917168172902
 20
-366.252505391888
 10
1.061342948774836
 20
-366.252505391888
 10
1.061342948774836
 20
0.0
 10
1079.146449259017
 20
0.0
 10
1079.146449259017
 20
-125.4415584415574
 10
804.3896103896113
 20
-125.4415584415574
 10
804.3896103896113
 20
-166.9999999999982
 10
747.2467532467526
 20
-166.9999999999982
 10
747.2467532467526
 20
-238.4996572979726
 10
799.1948051948057
 20
-238.4996572979726
 10
799.1948051948057
 20
-274.7922077922067
 10
745.9480519480512
 20
-274.7922077922067
 10
745.9480519480512
 20
-344.3304190325753
 10
796.5974025974028
 20
-344.3304190325753
 10
796.5974025974028
 20
-374.7922077922067
 10
742.0519480519487
 20
-374.7922077922067
 10
742.0519480519487
 20
-446.1295327011002
 10
804.3896103896113
 20
-446.1295327011002
 10
804.3896103896113
 20
-496.0211775188445
 10
911.7042168172885
 20
-496.0211775188445
 10
911.7042168172885
 20
-551.9602944357029
 10
960.2942903467083
 20
-551.9602944357029
 10
960.2942903467083
 20
-587.7411710221749
 10
911.7042168172885
 20
-587.7411710221749
 10
911.7042168172885
 20
-631.5853437408004
 10
801.7922077922085
 20
-631.5853437408004
 10
801.7922077922085
 20
-703.6510529219704
 10
911.7042168172885
 20
-703.6510529219704
 10
911.7042168172885
 20
-747.4952256405958
 10
799.1948051948057
 20
-747.4952256405958
 10
799.1948051948057
 20
-791.3393983592214
 10
747.2467532467526
 20
-791.3393983592214
 10
747.2467532467526
 20
-861.3892835073547
 10
803.09090909091
 20
-861.3892835073547
 10
803.09090909091
 20
-899.185984126867
 10
753.6637756408181
 20
-899.185984126867
 10
753.6637756408181
 20
-957.1409250767628
 10
804.3896103896113
 20
-957.1409250767628
 10
804.3896103896113
 20
-1009.048393927543
 10
753.6637756408181
 20
-1009.048393927543
 10
752.3650743421167
 20
-1024.923008187741
  0
LWPOLYLINE
  5
A9
330
70
100
AcDbEntity
  8
Layer 1
 62
    18
420
        0
370
    35
100
AcDbPolyline
 90
        6
 70
     1
 43
0.0
 10
1104.389610389611
 20
-238.4996572979726
 10
968.6380403467083
 20
-238.4996572979726
 10
968.6380403467083
 20
-286.3754780826775
 10
920.0479668172883
 20
-286.3754780826775
 10
920.0479668172883
 20
-330.219650801303
 10
1104.389610389611
 20
-330.219650801303
  0
ENDSEC
  0
SECTION
  2
OBJECTS
  0
DICTIONARY
  5
C
330
0
100
AcDbDictionary
281
     1
  3
ACAD_COLOR
350
63
  3
ACAD_DETAILVIEWSTYLE
350
6A
  3
ACAD_GROUP
350
D
  3
ACAD_LAYOUT
350
62
  3
ACAD_MATERIAL
350
10
  3
ACAD_MLEADERSTYLE
350
66
  3
ACAD_MLINESTYLE
350
5F
  3
ACAD_PLOTSETTINGS
350
61
  3
ACAD_PLOTSTYLENAME
350
E
  3
ACAD_SCALELIST
350
42
  3
ACAD_SECTIONVIEWSTYLE
350
68
  3
ACAD_TABLESTYLE
350
64
  3
ACAD_VISUALSTYLE
350
29
  3
ACDB_RECOMPOSE_DATA
350
B2
  3
AcDbVariableDictionary
350
AA
  0
DICTIONARY
  5
63
102
{ACAD_REACTORS
330
C
102
}
330
C
100
AcDbDictionary
281
     1
  0
DICTIONARY
  5
6A
102
{ACAD_REACTORS
330
C
102
}
330
C
100
AcDbDictionary
281
     1
  3
Imperial24
350
6B
  0
DICTIONARY
  5
D
102
{ACAD_REACTORS
330
C
102
}
330
C
100
AcDbDictionary
281
     1
  0
DICTIONARY
  5
62
102
{ACAD_REACTORS
330
C
102
}
330
C
100
AcDbDictionary
281
     1
  3
Layout1
350
6F
  3
Layout2
350
77
  3
Model
350
73
  0
DICTIONARY
  5
10
102
{ACAD_REACTORS
330
C
102
}
330
C
100
AcDbDictionary
281
     1
  3
ByBlock
350
19
  3
ByLayer
350
11
  3
Global
350
21
  0
DICTIONARY
  5
66
102
{ACAD_REACTORS
330
C
102
}
330
C
100
AcDbDictionary
281
     1
  3
Standard
350
67
  0
DICTIONARY
  5
5F
102
{ACAD_REACTORS
330
C
102
}
330
C
100
AcDbDictionary
281
     1
  3
Standard
350
60
  0
DICTIONARY
  5
61
102
{ACAD_REACTORS
330
C
102
}
330
C
100
AcDbDictionary
281
     1
  0
ACDBDICTIONARYWDFLT
  5
E
102
{ACAD_REACTORS
330
C
102
}
330
C
100
AcDbDictionary
281
     1
  3
Normal
350
F
100
AcDbDictionaryWithDefault
340
F
  0
DICTIONARY
  5
42
102
{ACAD_REACTORS
330
C
102
}
330
C
100
AcDbDictionary
281
     1
  3
A0
350
43
  3
A1
350
44
  3
A2
350
45
  3
A3
350
46
  3
A4
350
47
  3
A5
350
48
  3
A6
350
49
  3
A7
350
4A
  3
A8
350
4B
  3
A9
350
4C
  3
B0
350
4D
  3
B1
350
4E
  3
B2
350
4F
  3
B3
350
50
  3
B4
350
51
  3
B5
350
52
  3
B6
350
53
  0
DICTIONARY
  5
68
102
{ACAD_REACTORS
330
C
102
}
330
C
100
AcDbDictionary
281
     1
  3
Imperial24
350
69
  0
DICTIONARY
  5
64
102
{ACAD_REACTORS
330
C
102
}
330
C
100
AcDbDictionary
281
     1
  3
Standard
350
65
  0
DICTIONARY
  5
29
102
{ACAD_REACTORS
330
C
102
}
330
C
100
AcDbDictionary
281
     1
  3
2dWireframe
350
2F
  3
Basic
350
2E
  3
Brighten
350
35
  3
ColorChange
350
39
  3
Conceptual
350
32
  3
Dim
350
34
  3
EdgeColorOff
350
41
  3
Facepattern
350
38
  3
Flat
350
2A
  3
FlatWithEdges
350
2B
  3
Gouraud
350
2C
  3
GouraudWithEdges
350
2D
  3
Hidden
350
31
  3
JitterOff
350
3F
  3
Linepattern
350
37
  3
OverhangOff
350
40
  3
Realistic
350
33
  3
Shaded
350
3E
  3
Shaded with edges
350
3D
  3
Shades of Gray
350
3A
  3
Sketchy
350
3B
  3
Thicken
350
36
  3
Wireframe
350
30
  3
X-Ray
350
3C
  0
XRECORD
  5
B2
102
{ACAD_REACTORS
330
C
102
}
330
C
100
AcDbXrecord
280
     1
 90
        1
330
65
  0
DICTIONARY
  5
AA
102
{ACAD_REACTORS
330
C
102
}
330
C
100
AcDbDictionary
281
     1
  3
CANNOSCALE
350
AF
  3
CMLEADERSTYLE
350
AC
  3
CTABLESTYLE
350
AB
  3
CVIEWDETAILSTYLE
350
AD
  3
CVIEWSECTIONSTYLE
350
AE
  0
ACDBDETAILVIEWSTYLE
  5
6B
102
{ACAD_REACTORS
330
6A
102
}
330
6A
100
AcDbModelDocViewStyle
 70
     0
  3
Imperial24
290
     1
300
Imperial24
 90
        0
100
AcDbDetailViewStyle
 70
     0
 71
     0
 90
        3
 71
     1
340
55
 62
   256
 40
0.24
340
0
 62
   256
 40
0.24
300

 40
0.36
280
     3
 71
     2
340
5D
 90
       25
 62
   256
 71
     3
340
55
 62
   256
 40
0.24
 90
        1
 40
0.75
 90
        1
300
%<\AcVar ViewType \f "%tc1">% %<\AcVar ViewDetailId>%\PSCALE %<\AcVar ViewScale \f "%sn">%
 71
     4
340
5D
 90
       25
 62
   256
340
5D
 90
       25
 62
   256
280
     0
  0
LAYOUT
  5
6F
102
{ACAD_REACTORS
330
62
102
}
330
62
100
AcDbPlotSettings
  1

  2

  4

  6

 40
0.0
 41
0.0
 42
0.0
 43
0.0
 44
0.0
 45
0.0
 46
0.0
 47
0.0
 48
0.0
 49
0.0
140
0.0
141
0.0
142
1.0
143
1.0
 70
   688
 72
     0
 73
     0
 74
     5
  7

 75
    16
147
1.0
 76
     0
 77
     2
 78
   300
148
0.0
149
0.0
100
AcDbLayout
  1
Layout1
 70
     1
 71
     1
 10
0.0
 20
0.0
 11
12.0
 21
9.0
 12
0.0
 22
0.0
 32
0.0
 14
0.0
 24
0.0
 34
0.0
 15
0.0
 25
0.0
 35
0.0
146
0.0
 13
0.0
 23
0.0
 33
0.0
 16
1.0
 26
0.0
 36
0.0
 17
0.0
 27
1.0
 37
0.0
 76
     0
330
6C
  0
LAYOUT
  5
77
102
{ACAD_REACTORS
330
62
102
}
330
62
100
AcDbPlotSettings
  1

  2

  4

  6

 40
0.0
 41
0.0
 42
0.0
 43
0.0
 44
0.0
 45
0.0
 46
0.0
 47
0.0
 48
0.0
 49
0.0
140
0.0
141
0.0
142
1.0
143
1.0
 70
   688
 72
     0
 73
     0
 74
     5
  7

 75
    16
147
1.0
 76
     0
 77
     2
 78
   300
148
0.0
149
0.0
100
AcDbLayout
  1
Layout2
 70
     1
 71
     2
 10
0.0
 20
0.0
 11
12.0
 21
9.0
 12
0.0
 22
0.0
 32
0.0
 14
0.0
 24
0.0
 34
0.0
 15
0.0
 25
0.0
 35
0.0
146
0.0
 13
0.0
 23
0.0
 33
0.0
 16
1.0
 26
0.0
 36
0.0
 17
0.0
 27
1.0
 37
0.0
 76
     0
330
74
  0
LAYOUT
  5
73
102
{ACAD_REACTORS
330
62
102
}
330
62
100
AcDbPlotSettings
  1

  2

  4

  6

 40
0.0
 41
0.0
 42
0.0
 43
0.0
 44
0.0
 45
0.0
 46
0.0
 47
0.0
 48
0.0
 49
0.0
140
0.0
141
0.0
142
1.0
143
1.0
 70
  1712
 72
     0
 73
     0
 74
     0
  7

 75
     0
147
1.0
 76
     0
 77
     2
 78
   300
148
0.0
149
0.0
100
AcDbLayout
  1
Model
 70
     1
 71
     0
 10
0.0
 20
0.0
 11
12.0
 21
9.0
 12
0.0
 22
0.0
 32
0.0
 14
0.0
 24
0.0
 34
0.0
 15
0.0
 25
0.0
 35
0.0
146
0.0
 13
0.0
 23
0.0
 33
0.0
 16
1.0
 26
0.0
 36
0.0
 17
0.0
 27
1.0
 37
0.0
 76
     0
330
70
  0
MATERIAL
  5
19
102
{ACAD_XDICTIONARY
360
1A
102
}
102
{ACAD_REACTORS
330
10
102
}
330
10
100
AcDbMaterial
  1
ByBlock
 72
     0
 43
0.0208333333333333
 43
0.0
 43
0.0
 43
0.0
 43
0.0
 43
0.0208333333333333
 43
0.0
 43
0.0
 43
0.0
 43
0.0
 43
1.0
 43
0.0
 43
0.0
 43
0.0
 43
0.0
 43
1.0
 77
     0
 47
0.0208333333333333
 47
0.0
 47
0.0
 47
0.0
 47
0.0
 47
0.0208333333333333
 47
0.0
 47
0.0
 47
0.0
 47
0.0
 47
1.0
 47
0.0
 47
0.0
 47
0.0
 47
0.0
 47
1.0
171
     0
 49
0.0208333333333333
 49
0.0
 49
0.0
 49
0.0
 49
0.0
 49
0.0208333333333333
 49
0.0
 49
0.0
 49
0.0
 49
0.0
 49
1.0
 49
0.0
 49
0.0
 49
0.0
 49
0.0
 49
1.0
175
     0
142
0.0208333333333333
142
0.0
142
0.0
142
0.0
142
0.0
142
0.0208333333333333
142
0.0
142
0.0
142
0.0
142
0.0
142
1.0
142
0.0
142
0.0
142
0.0
142
0.0
142
1.0
179
     0
144
0.0208333333333333
144
0.0
144
0.0
144
0.0
144
0.0
144
0.0208333333333333
144
0.0
144
0.0
144
0.0
144
0.0
144
1.0
144
0.0
144
0.0
144
0.0
144
0.0
144
1.0
147
0.0208333333333333
147
0.0
147
0.0
147
0.0
147
0.0
147
0.0208333333333333
147
0.0
147
0.0
147
0.0
147
0.0
147
1.0
147
0.0
147
0.0
147
0.0
147
0.0
147
1.0
  0
MATERIAL
  5
11
102
{ACAD_XDICTIONARY
360
12
102
}
102
{ACAD_REACTORS
330
10
102
}
330
10
100
AcDbMaterial
  1
ByLayer
 72
     0
 43
0.0208333333333333
 43
0.0
 43
0.0
 43
0.0
 43
0.0
 43
0.0208333333333333
 43
0.0
 43
0.0
 43
0.0
 43
0.0
 43
1.0
 43
0.0
 43
0.0
 43
0.0
 43
0.0
 43
1.0
 77
     0
 47
0.0208333333333333
 47
0.0
 47
0.0
 47
0.0
 47
0.0
 47
0.0208333333333333
 47
0.0
 47
0.0
 47
0.0
 47
0.0
 47
1.0
 47
0.0
 47
0.0
 47
0.0
 47
0.0
 47
1.0
171
     0
 49
0.0208333333333333
 49
0.0
 49
0.0
 49
0.0
 49
0.0
 49
0.0208333333333333
 49
0.0
 49
0.0
 49
0.0
 49
0.0
 49
1.0
 49
0.0
 49
0.0
 49
0.0
 49
0.0
 49
1.0
175
     0
142
0.0208333333333333
142
0.0
142
0.0
142
0.0
142
0.0
142
0.0208333333333333
142
0.0
142
0.0
142
0.0
142
0.0
142
1.0
142
0.0
142
0.0
142
0.0
142
0.0
142
1.0
179
     0
144
0.0208333333333333
144
0.0
144
0.0
144
0.0
144
0.0
144
0.0208333333333333
144
0.0
144
0.0
144
0.0
144
0.0
144
1.0
144
0.0
144
0.0
144
0.0
144
0.0
144
1.0
147
0.0208333333333333
147
0.0
147
0.0
147
0.0
147
0.0
147
0.0208333333333333
147
0.0
147
0.0
147
0.0
147
0.0
147
1.0
147
0.0
147
0.0
147
0.0
147
0.0
147
1.0
  0
MATERIAL
  5
21
102
{ACAD_XDICTIONARY
360
22
102
}
102
{ACAD_REACTORS
330
10
102
}
330
10
100
AcDbMaterial
  1
Global
 72
     0
 43
0.0208333333333333
 43
0.0
 43
0.0
 43
0.0
 43
0.0
 43
0.0208333333333333
 43
0.0
 43
0.0
 43
0.0
 43
0.0
 43
1.0
 43
0.0
 43
0.0
 43
0.0
 43
0.0
 43
1.0
 77
     0
 47
0.0208333333333333
 47
0.0
 47
0.0
 47
0.0
 47
0.0
 47
0.0208333333333333
 47
0.0
 47
0.0
 47
0.0
 47
0.0
 47
1.0
 47
0.0
 47
0.0
 47
0.0
 47
0.0
 47
1.0
171
     0
 49
0.0208333333333333
 49
0.0
 49
0.0
 49
0.0
 49
0.0
 49
0.0208333333333333
 49
0.0
 49
0.0
 49
0.0
 49
0.0
 49
1.0
 49
0.0
 49
0.0
 49
0.0
 49
0.0
 49
1.0
175
     0
142
0.0208333333333333
142
0.0
142
0.0
142
0.0
142
0.0
142
0.0208333333333333
142
0.0
142
0.0
142
0.0
142
0.0
142
1.0
142
0.0
142
0.0
142
0.0
142
0.0
142
1.0
179
     0
144
0.0208333333333333
144
0.0
144
0.0
144
0.0
144
0.0
144
0.0208333333333333
144
0.0
144
0.0
144
0.0
144
0.0
144
1.0
144
0.0
144
0.0
144
0.0
144
0.0
144
1.0
147
0.0208333333333333
147
0.0
147
0.0
147
0.0
147
0.0
147
0.0208333333333333
147
0.0
147
0.0
147
0.0
147
0.0
147
1.0
147
0.0
147
0.0
147
0.0
147
0.0
147
1.0
  0
MLEADERSTYLE
  5
67
102
{ACAD_REACTORS
330
66
102
}
330
66
100
AcDbMLeaderStyle
179
     2
170
     2
171
     1
172
     0
 90
        2
 40
0.0
 41
0.0
173
     1
 91
-1056964608
340
5B
 92
       -2
290
     1
 42
0.09
291
     1
 43
0.36
  3
Standard
 44
0.18
300

342
55
174
     1
178
     6
175
     1
176
     0
 93
-1056964608
 45
0.18
292
     0
297
     0
 46
0.18
 94
-1056964608
 47
1.0
 49
1.0
140
1.0
293
     1
141
0.0
294
     1
177
     0
142
1.0
295
     1
296
     0
143
0.125
271
     0
272
     9
273
     9
298
     1
  0
MLINESTYLE
  5
60
102
{ACAD_REACTORS
330
5F
102
}
330
5F
100
AcDbMlineStyle
  2
STANDARD
 70
     0
  3

 62
   256
 51
90.0
 52
90.0
 71
     2
 49
0.5
 62
   256
  6
BYLAYER
 49
-0.5
 62
   256
  6
BYLAYER
  0
ACDBPLACEHOLDER
  5
F
102
{ACAD_REACTORS
330
E
102
}
330
E
  0
SCALE
  5
43
102
{ACAD_REACTORS
330
42
102
}
330
42
100
AcDbScale
 70
     0
300
1:1
140
1.0
141
1.0
290
     1
  0
SCALE
  5
44
102
{ACAD_REACTORS
330
42
102
}
330
42
100
AcDbScale
 70
     0
300
1/128" = 1'-0"
140
0.0078125
141
12.0
290
     0
  0
SCALE
  5
45
102
{ACAD_REACTORS
330
42
102
}
330
42
100
AcDbScale
 70
     0
300
1/64" = 1'-0"
140
0.015625
141
12.0
290
     0
  0
SCALE
  5
46
102
{ACAD_REACTORS
330
42
102
}
330
42
100
AcDbScale
 70
     0
300
1/32" = 1'-0"
140
0.03125
141
12.0
290
     0
  0
SCALE
  5
47
102
{ACAD_REACTORS
330
42
102
}
330
42
100
AcDbScale
 70
     0
300
1/16" = 1'-0"
140
0.0625
141
12.0
290
     0
  0
SCALE
  5
48
102
{ACAD_REACTORS
330
42
102
}
330
42
100
AcDbScale
 70
     0
300
3/32" = 1'-0"
140
0.09375
141
12.0
290
     0
  0
SCALE
  5
49
102
{ACAD_REACTORS
330
42
102
}
330
42
100
AcDbScale
 70
     0
300
1/8" = 1'-0"
140
0.125
141
12.0
290
     0
  0
SCALE
  5
4A
102
{ACAD_REACTORS
330
42
102
}
330
42
100
AcDbScale
 70
     0
300
3/16" = 1'-0"
140
0.1875
141
12.0
290
     0
  0
SCALE
  5
4B
102
{ACAD_REACTORS
330
42
102
}
330
42
100
AcDbScale
 70
     0
300
1/4" = 1'-0"
140
0.25
141
12.0
290
     0
  0
SCALE
  5
4C
102
{ACAD_REACTORS
330
42
102
}
330
42
100
AcDbScale
 70
     0
300
3/8" = 1'-0"
140
0.375
141
12.0
290
     0
  0
SCALE
  5
4D
102
{ACAD_REACTORS
330
42
102
}
330
42
100
AcDbScale
 70
     0
300
1/2" = 1'-0"
140
0.5
141
12.0
290
     0
  0
SCALE
  5
4E
102
{ACAD_REACTORS
330
42
102
}
330
42
100
AcDbScale
 70
     0
300
3/4" = 1'-0"
140
0.75
141
12.0
290
     0
  0
SCALE
  5
4F
102
{ACAD_REACTORS
330
42
102
}
330
42
100
AcDbScale
 70
     0
300
1" = 1'-0"
140
1.0
141
12.0
290
     0
  0
SCALE
  5
50
102
{ACAD_REACTORS
330
42
102
}
330
42
100
AcDbScale
 70
     0
300
1-1/2" = 1'-0"
140
1.5
141
12.0
290
     0
  0
SCALE
  5
51
102
{ACAD_REACTORS
330
42
102
}
330
42
100
AcDbScale
 70
     0
300
3" = 1'-0"
140
3.0
141
12.0
290
     0
  0
SCALE
  5
52
102
{ACAD_REACTORS
330
42
102
}
330
42
100
AcDbScale
 70
     0
300
6" = 1'-0"
140
6.0
141
12.0
290
     0
  0
SCALE
  5
53
102
{ACAD_REACTORS
330
42
102
}
330
42
100
AcDbScale
 70
     0
300
1'-0" = 1'-0"
140
12.0
141
12.0
290
     0
  0
ACDBSECTIONVIEWSTYLE
  5
69
102
{ACAD_REACTORS
330
68
102
}
330
68
100
AcDbModelDocViewStyle
 70
     0
  3
Imperial24
290
     1
300
Imperial24
 90
        0
100
AcDbSectionViewStyle
 70
     0
 71
     0
 90
       78
 71
     1
340
55
 62
   256
 40
0.24
340
0
340
0
 62
   256
 40
0.24
300
I, O, Q, S, X, Z
 40
0.48
 90
        3
 40
0.18
 90
        1
 71
     2
340
5D
 90
       25
 62
   256
340
5D
 90
       50
 62
   256
 40
0.24
 40
0.0
 40
0.24
 71
     3
340
55
 62
   256
 40
0.24
 90
        1
 40
0.75
 90
        1
300
%<\AcVar ViewType \f "%tc1">% %<\AcVar ViewSectionStartId>%-%<\AcVar ViewSectionEndId>%\PSCALE %<\AcVar ViewScale \f "%sn">%
 71
     4
 62
   256
 62
   257
300
ANSI31
 40
1.0
 90
        0
290
     0
290
     0
 90
        6
 40
0.0
 40
1.570796326794896
 40
0.2617993877991494
 40
1.308996938995747
 40
-0.2617993877991494
 40
1.832595714594046
  0
TABLESTYLE
  5
65
102
{ACAD_XDICTIONARY
360
B0
102
}
102
{ACAD_REACTORS
330
64
102
}
330
64
100
AcDbTableStyle
280
     0
  3
Standard
 70
     0
 71
     0
 40
0.06
 41
0.06
280
     0
281
     0
  7
Standard
140
0.18
170
     2
 62
     0
 63
     7
283
     0
 90
      512
 91
        0
  1

274
    -2
284
     1
 64
     0
275
    -2
285
     1
 65
     0
276
    -2
286
     1
 66
     0
277
    -2
287
     1
 67
     0
278
    -2
288
     1
 68
     0
279
    -2
289
     1
 69
     0
  7
Standard
140
0.25
170
     5
 62
     0
 63
     7
283
     0
 90
      512
 91
        0
  1

274
    -2
284
     1
 64
     0
275
    -2
285
     1
 65
     0
276
    -2
286
     1
 66
     0
277
    -2
287
     1
 67
     0
278
    -2
288
     1
 68
     0
279
    -2
289
     1
 69
     0
  7
Standard
140
0.18
170
     5
 62
     0
 63
     7
283
     0
 90
      512
 91
        0
  1

274
    -2
284
     1
 64
     0
275
    -2
285
     1
 65
     0
276
    -2
286
     1
 66
     0
277
    -2
287
     1
 67
     0
278
    -2
288
     1
 68
     0
279
    -2
289
     1
 69
     0
  0
VISUALSTYLE
  5
2F
102
{ACAD_REACTORS
330
29
102
}
330
29
100
AcDbVisualStyle
  2
2dWireframe
 70
     4
177
     3
291
     0
 70
    58
 90
        0
176
     1
 90
        2
176
     1
 90
        0
176
     1
 90
        0
176
     1
 40
0.6
176
     1
 40
30.0
176
     1
 62
     7
420
 16777215
176
     1
 90
        1
176
     1
 90
        4
176
     1
 62
     7
176
     1
 62
   257
176
     1
 90
        1
176
     1
 90
        1
176
     1
 40
1.0
176
     1
 90
        0
176
     1
 62
   257
176
     1
 40
1.0
176
     1
 90
        1
176
     1
 90
        6
176
     1
 90
        2
176
     1
 62
     7
176
     1
 90
        5
176
     1
 90
        0
176
     1
 90
        0
176
     1
290
     0
176
     1
 90
        1
176
     1
 40
0.0
176
     1
 90
        0
176
     1
290
     1
176
     1
290
     1
176
     1
290
     0
176
     1
290
     0
176
     1
290
     0
176
     1
290
     0
176
     1
290
     0
176
     1
290
     0
176
     1
290
     0
176
     1
 90
       50
176
     1
 40
0.0
176
     1
 40
1.0
176
     1
 90
        0
176
     1
 62
    18
420
        0
176
     1
 90
       50
176
     1
 90
        3
176
     1
 62
     5
420
      255
176
     1
290
     0
176
     1
 90
       50
176
     1
 90
       50
176
     1
 90
       50
176
     1
290
     0
176
     1
 90
       50
176
     1
 62
   256
176
     0
 40
1.0
176
     0
 90
        2
176
     1
  1
strokes_ogs.tif
176
     1
290
     0
176
     1
 40
1.0
176
     1
 40
1.0
176
     1
  0
VISUALSTYLE
  5
2E
102
{ACAD_REACTORS
330
29
102
}
330
29
100
AcDbVisualStyle
  2
Basic
 70
     7
177
     3
291
     1
 70
    58
 90
        1
176
     1
 90
        0
176
     1
 90
        1
176
     1
 90
        0
176
     1
 40
0.6
176
     1
 40
30.0
176
     1
 62
     7
420
 16777215
176
     1
 90
        0
176
     1
 90
        4
176
     1
 62
     7
176
     1
 62
   257
176
     1
 90
        1
176
     1
 90
        1
176
     1
 40
1.0
176
     1
 90
        8
176
     1
 62
     7
176
     1
 40
1.0
176
     1
 90
        1
176
     1
 90
        6
176
     1
 90
        2
176
     1
 62
     7
176
     1
 90
        5
176
     1
 90
        0
176
     1
 90
        0
176
     1
290
     0
176
     1
 90
        1
176
     1
 40
0.0
176
     1
 90
        0
176
     1
290
     0
176
     1
290
     1
176
     1
290
     1
176
     1
290
     0
176
     1
290
     0
176
     1
290
     0
176
     1
290
     0
176
     1
290
     0
176
     1
290
     0
176
     1
 90
       50
176
     1
 40
0.0
176
     1
 40
1.0
176
     1
 90
        0
176
     1
 62
    18
420
        0
176
     1
 90
       50
176
     1
 90
        3
176
     1
 62
     5
420
      255
176
     1
290
     0
176
     1
 90
       50
176
     1
 90
       50
176
     1
 90
       50
176
     1
290
     0
176
     1
 90
       50
176
     1
 62
   256
176
     0
 40
1.0
176
     0
 90
        2
176
     1
  1
strokes_ogs.tif
176
     1
290
     0
176
     1
 40
1.0
176
     1
 40
1.0
176
     1
  0
VISUALSTYLE
  5
35
102
{ACAD_REACTORS
330
29
102
}
330
29
100
AcDbVisualStyle
  2
Brighten
 70
    12
177
     3
291
     1
 70
    58
 90
        2
176
     1
 90
        2
176
     1
 90
        0
176
     1
 90
        0
176
     1
 40
0.6
176
     1
 40
30.0
176
     1
 62
     7
420
 16777215
176
     1
 90
        1
176
     1
 90
        4
176
     1
 62
     7
176
     1
 62
   257
176
     1
 90
        1
176
     1
 90
        1
176
     1
 40
1.0
176
     1
 90
        8
176
     1
 62
     7
176
     1
 40
1.0
176
     1
 90
        1
176
     1
 90
        6
176
     1
 90
        2
176
     1
 62
     7
176
     1
 90
        5
176
     1
 90
        0
176
     1
 90
        0
176
     1
290
     0
176
     1
 90
        1
176
     1
 40
50.0
176
     1
 90
        0
176
     1
290
     0
176
     1
290
     1
176
     1
290
     1
176
     1
290
     0
176
     1
290
     0
176
     1
290
     0
176
     1
290
     0
176
     1
290
     0
176
     1
290
     0
176
     1
 90
       50
176
     1
 40
0.0
176
     1
 40
1.0
176
     1
 90
        0
176
     1
 62
    18
420
        0
176
     1
 90
       50
176
     1
 90
        3
176
     1
 62
     5
420
      255
176
     1
290
     0
176
     1
 90
       50
176
     1
 90
       50
176
     1
 90
       50
176
     1
290
     0
176
     1
 90
       50
176
     1
 62
   256
176
     0
 40
1.0
176
     0
 90
        2
176
     1
  1
strokes_ogs.tif
176
     1
290
     0
176
     1
 40
1.0
176
     1
 40
1.0
176
     1
  0
VISUALSTYLE
  5
39
102
{ACAD_REACTORS
330
29
102
}
330
29
100
AcDbVisualStyle
  2
ColorChange
 70
    16
177
     3
291
     1
 70
    58
 90
        2
176
     1
 90
        2
176
     1
 90
        3
176
     1
 90
        0
176
     1
 40
0.6
176
     1
 40
30.0
176
     1
 62
     8
420
  8421504
176
     1
 90
        1
176
     1
 90
        4
176
     1
 62
     7
176
     1
 62
   257
176
     1
 90
        1
176
     1
 90
        1
176
     1
 40
1.0
176
     1
 90
        8
176
     1
 62
     8
420
  8421504
176
     1
 40
1.0
176
     1
 90
        1
176
     1
 90
        6
176
     1
 90
        2
176
     1
 62
     7
176
     1
 90
        5
176
     1
 90
        0
176
     1
 90
        0
176
     1
290
     0
176
     1
 90
        1
176
     1
 40
0.0
176
     1
 90
        0
176
     1
290
     0
176
     1
290
     1
176
     1
290
     1
176
     1
290
     0
176
     1
290
     0
176
     1
290
     0
176
     1
290
     0
176
     1
290
     0
176
     1
290
     0
176
     1
 90
       50
176
     1
 40
0.0
176
     1
 40
1.0
176
     1
 90
        0
176
     1
 62
    18
420
        0
176
     1
 90
       50
176
     1
 90
        3
176
     1
 62
     5
420
      255
176
     1
290
     0
176
     1
 90
       50
176
     1
 90
       50
176
     1
 90
       50
176
     1
290
     0
176
     1
 90
       50
176
     1
 62
   256
176
     0
 40
1.0
176
     0
 90
        2
176
     1
  1
strokes_ogs.tif
176
     1
290
     0
176
     1
 40
1.0
176
     1
 40
1.0
176
     1
  0
VISUALSTYLE
  5
32
102
{ACAD_REACTORS
330
29
102
}
330
29
100
AcDbVisualStyle
  2
Conceptual
 70
     9
177
     3
291
     0
 70
    58
 90
        3
176
     1
 90
        2
176
     1
 90
        0
176
     1
 90
        0
176
     1
 40
0.6
176
     1
 40
30.0
176
     1
 62
     7
420
 16777215
176
     1
 90
        2
176
     1
 90
        2
176
     1
 62
     7
176
     1
 62
   257
176
     1
 90
        1
176
     1
 90
        1
176
     1
 40
179.0
176
     1
 90
        8
176
     1
 62
     7
176
     1
 40
1.0
176
     1
 90
        1
176
     1
 90
        6
176
     1
 90
        2
176
     1
 62
     7
176
     1
 90
        3
176
     1
 90
        0
176
     1
 90
        0
176
     1
290
     0
176
     1
 90
        1
176
     1
 40
0.0
176
     1
 90
        0
176
     1
290
     0
176
     1
290
     1
176
     1
290
     1
176
     1
290
     0
176
     1
290
     0
176
     1
290
     0
176
     1
290
     0
176
     1
290
     0
176
     1
290
     0
176
     1
 90
       50
176
     1
 40
0.0
176
     1
 40
1.0
176
     1
 90
        0
176
     1
 62
    18
420
        0
176
     1
 90
       50
176
     1
 90
        3
176
     1
 62
     5
420
      255
176
     1
290
     0
176
     1
 90
       50
176
     1
 90
       50
176
     1
 90
       50
176
     1
290
     0
176
     1
 90
       50
176
     1
 62
   256
176
     0
 40
1.0
176
     0
 90
        2
176
     1
  1
strokes_ogs.tif
176
     1
290
     0
176
     1
 40
1.0
176
     1
 40
1.0
176
     1
  0
VISUALSTYLE
  5
34
102
{ACAD_REACTORS
330
29
102
}
330
29
100
AcDbVisualStyle
  2
Dim
 70
    11
177
     3
291
     1
 70
    58
 90
        2
176
     1
 90
        2
176
     1
 90
        0
176
     1
 90
        0
176
     1
 40
0.6
176
     1
 40
30.0
176
     1
 62
     7
420
 16777215
176
     1
 90
        1
176
     1
 90
        4
176
     1
 62
     7
176
     1
 62
   257
176
     1
 90
        1
176
     1
 90
        1
176
     1
 40
1.0
176
     1
 90
        8
176
     1
 62
     7
176
     1
 40
1.0
176
     1
 90
        1
176
     1
 90
        6
176
     1
 90
        2
176
     1
 62
     7
176
     1
 90
        5
176
     1
 90
        0
176
     1
 90
        0
176
     1
290
     0
176
     1
 90
        1
176
     1
 40
-50.0
176
     1
 90
        0
176
     1
290
     0
176
     1
290
     1
176
     1
290
     1
176
     1
290
     0
176
     1
290
     0
176
     1
290
     0
176
     1
290
     0
176
     1
290
     0
176
     1
290
     0
176
     1
 90
       50
176
     1
 40
0.0
176
     1
 40
1.0
176
     1
 90
        0
176
     1
 62
    18
420
        0
176
     1
 90
       50
176
     1
 90
        3
176
     1
 62
     5
420
      255
176
     1
290
     0
176
     1
 90
       50
176
     1
 90
       50
176
     1
 90
       50
176
     1
290
     0
176
     1
 90
       50
176
     1
 62
   256
176
     0
 40
1.0
176
     0
 90
        2
176
     1
  1
strokes_ogs.tif
176
     1
290
     0
176
     1
 40
1.0
176
     1
 40
1.0
176
     1
  0
VISUALSTYLE
  5
41
102
{ACAD_REACTORS
330
29
102
}
330
29
100
AcDbVisualStyle
  2
EdgeColorOff
 70
    22
177
     3
291
     1
 70
    58
 90
        2
176
     0
 90
        2
176
     0
 90
        0
176
     0
 90
        0
176
     0
 40
0.6
176
     0
 40
30.0
176
     0
 62
     7
420
 16777215
176
     0
 90
        1
176
     0
 90
        4
176
     0
 62
     7
176
     0
 62
   257
176
     0
 90
        1
176
     0
 90
        1
176
     0
 40
1.0
176
     0
 90
        8
176
     2
 62
     7
176
     0
 40
1.0
176
     0
 90
        1
176
     0
 90
        6
176
     0
 90
        2
176
     0
 62
     7
176
     0
 90
        5
176
     0
 90
        0
176
     0
 90
        0
176
     0
290
     0
176
     0
 90
        1
176
     0
 40
0.0
176
     0
 90
        0
176
     0
290
     0
176
     0
290
     1
176
     0
290
     1
176
     0
290
     0
176
     0
290
     0
176
     0
290
     0
176
     0
290
     0
176
     0
290
     0
176
     0
290
     0
176
     0
 90
       50
176
     0
 40
0.0
176
     0
 40
1.0
176
     0
 90
        0
176
     0
 62
    18
420
        0
176
     0
 90
       50
176
     0
 90
        3
176
     0
 62
     5
420
      255
176
     0
290
     0
176
     0
 90
       50
176
     0
 90
       50
176
     0
 90
       50
176
     0
290
     0
176
     0
 90
       50
176
     0
 62
   256
176
     0
 40
1.0
176
     0
 90
        2
176
     0
  1
strokes_ogs.tif
176
     0
290
     0
176
     0
 40
1.0
176
     0
 40
1.0
176
     0
  0
VISUALSTYLE
  5
38
102
{ACAD_REACTORS
330
29
102
}
330
29
100
AcDbVisualStyle
  2
Facepattern
 70
    15
177
     3
291
     1
 70
    58
 90
        2
176
     1
 90
        2
176
     1
 90
        0
176
     1
 90
        0
176
     1
 40
0.6
176
     1
 40
30.0
176
     1
 62
     7
420
 16777215
176
     1
 90
        1
176
     1
 90
        4
176
     1
 62
     7
176
     1
 62
   257
176
     1
 90
        1
176
     1
 90
        1
176
     1
 40
1.0
176
     1
 90
        8
176
     1
 62
     7
176
     1
 40
1.0
176
     1
 90
        1
176
     1
 90
        6
176
     1
 90
        2
176
     1
 62
     7
176
     1
 90
        5
176
     1
 90
        0
176
     1
 90
        0
176
     1
290
     0
176
     1
 90
        1
176
     1
 40
0.0
176
     1
 90
        0
176
     1
290
     0
176
     1
290
     1
176
     1
290
     1
176
     1
290
     0
176
     1
290
     0
176
     1
290
     0
176
     1
290
     0
176
     1
290
     0
176
     1
290
     0
176
     1
 90
       50
176
     1
 40
0.0
176
     1
 40
1.0
176
     1
 90
        0
176
     1
 62
    18
420
        0
176
     1
 90
       50
176
     1
 90
        3
176
     1
 62
     5
420
      255
176
     1
290
     0
176
     1
 90
       50
176
     1
 90
       50
176
     1
 90
       50
176
     1
290
     0
176
     1
 90
       50
176
     1
 62
   256
176
     0
 40
1.0
176
     0
 90
        2
176
     1
  1
strokes_ogs.tif
176
     1
290
     0
176
     1
 40
1.0
176
     1
 40
1.0
176
     1
  0
VISUALSTYLE
  5
2A
102
{ACAD_REACTORS
330
29
102
}
330
29
100
AcDbVisualStyle
  2
Flat
 70
     0
177
     3
291
     1
 70
    58
 90
        2
176
     1
 90
        1
176
     1
 90
        1
176
     1
 90
        2
176
     1
 40
0.6
176
     1
 40
30.0
176
     1
 62
     7
420
 16777215
176
     1
 90
        0
176
     1
 90
        0
176
     1
 62
     7
176
     1
 62
   257
176
     1
 90
        1
176
     1
 90
        1
176
     1
 40
1.0
176
     1
 90
        8
176
     1
 62
     7
176
     1
 40
1.0
176
     1
 90
        1
176
     1
 90
        6
176
     1
 90
        2
176
     1
 62
     7
176
     1
 90
        5
176
     1
 90
        0
176
     1
 90
        0
176
     1
290
     0
176
     1
 90
       13
176
     1
 40
0.0
176
     1
 90
        0
176
     1
290
     0
176
     1
290
     1
176
     1
290
     1
176
     1
290
     0
176
     1
290
     0
176
     1
290
     0
176
     1
290
     0
176
     1
290
     0
176
     1
290
     0
176
     1
 90
       50
176
     1
 40
0.0
176
     1
 40
1.0
176
     1
 90
        0
176
     1
 62
    18
420
        0
176
     1
 90
       50
176
     1
 90
        3
176
     1
 62
     5
420
      255
176
     1
290
     0
176
     1
 90
       50
176
     1
 90
       50
176
     1
 90
       50
176
     1
290
     0
176
     1
 90
       50
176
     1
 62
   256
176
     0
 40
1.0
176
     0
 90
        2
176
     1
  1
strokes_ogs.tif
176
     1
290
     0
176
     1
 40
1.0
176
     1
 40
1.0
176
     1
  0
VISUALSTYLE
  5
2B
102
{ACAD_REACTORS
330
29
102
}
330
29
100
AcDbVisualStyle
  2
FlatWithEdges
 70
     1
177
     3
291
     1
 70
    58
 90
        2
176
     1
 90
        1
176
     1
 90
        1
176
     1
 90
        2
176
     1
 40
0.6
176
     1
 40
30.0
176
     1
 62
     7
420
 16777215
176
     1
 90
        1
176
     1
 90
        0
176
     1
 62
     7
176
     1
 62
   257
176
     1
 90
        1
176
     1
 90
        1
176
     1
 40
1.0
176
     1
 90
        0
176
     1
 62
   257
176
     1
 40
1.0
176
     1
 90
        1
176
     1
 90
        6
176
     1
 90
        2
176
     1
 62
     7
176
     1
 90
        5
176
     1
 90
        0
176
     1
 90
        0
176
     1
290
     0
176
     1
 90
       13
176
     1
 40
0.0
176
     1
 90
        0
176
     1
290
     0
176
     1
290
     1
176
     1
290
     1
176
     1
290
     0
176
     1
290
     0
176
     1
290
     0
176
     1
290
     0
176
     1
290
     0
176
     1
290
     0
176
     1
 90
       50
176
     1
 40
0.0
176
     1
 40
1.0
176
     1
 90
        0
176
     1
 62
    18
420
        0
176
     1
 90
       50
176
     1
 90
        3
176
     1
 62
     5
420
      255
176
     1
290
     0
176
     1
 90
       50
176
     1
 90
       50
176
     1
 90
       50
176
     1
290
     0
176
     1
 90
       50
176
     1
 62
   256
176
     0
 40
1.0
176
     0
 90
        2
176
     1
  1
strokes_ogs.tif
176
     1
290
     0
176
     1
 40
1.0
176
     1
 40
1.0
176
     1
  0
VISUALSTYLE
  5
2C
102
{ACAD_REACTORS
330
29
102
}
330
29
100
AcDbVisualStyle
  2
Gouraud
 70
     2
177
     3
291
     1
 70
    58
 90
        2
176
     1
 90
        2
176
     1
 90
        1
176
     1
 90
        2
176
     1
 40
0.6
176
     1
 40
30.0
176
     1
 62
     7
420
 16777215
176
     1
 90
        0
176
     1
 90
        0
176
     1
 62
     7
176
     1
 62
   257
176
     1
 90
        1
176
     1
 90
        1
176
     1
 40
1.0
176
     1
 90
        0
176
     1
 62
     7
176
     1
 40
1.0
176
     1
 90
        1
176
     1
 90
        6
176
     1
 90
        2
176
     1
 62
     7
176
     1
 90
        5
176
     1
 90
        0
176
     1
 90
        0
176
     1
290
     0
176
     1
 90
       13
176
     1
 40
0.0
176
     1
 90
        0
176
     1
290
     0
176
     1
290
     1
176
     1
290
     1
176
     1
290
     0
176
     1
290
     0
176
     1
290
     0
176
     1
290
     0
176
     1
290
     0
176
     1
290
     0
176
     1
 90
       50
176
     1
 40
0.0
176
     1
 40
1.0
176
     1
 90
        0
176
     1
 62
    18
420
        0
176
     1
 90
       50
176
     1
 90
        3
176
     1
 62
     5
420
      255
176
     1
290
     0
176
     1
 90
       50
176
     1
 90
       50
176
     1
 90
       50
176
     1
290
     0
176
     1
 90
       50
176
     1
 62
   256
176
     0
 40
1.0
176
     0
 90
        2
176
     1
  1
strokes_ogs.tif
176
     1
290
     0
176
     1
 40
1.0
176
     1
 40
1.0
176
     1
  0
VISUALSTYLE
  5
2D
102
{ACAD_REACTORS
330
29
102
}
330
29
100
AcDbVisualStyle
  2
GouraudWithEdges
 70
     3
177
     3
291
     1
 70
    58
 90
        2
176
     1
 90
        2
176
     1
 90
        1
176
     1
 90
        2
176
     1
 40
0.6
176
     1
 40
30.0
176
     1
 62
     7
420
 16777215
176
     1
 90
        1
176
     1
 90
        0
176
     1
 62
     7
176
     1
 62
   257
176
     1
 90
        1
176
     1
 90
        1
176
     1
 40
1.0
176
     1
 90
        0
176
     1
 62
   257
176
     1
 40
1.0
176
     1
 90
        1
176
     1
 90
        6
176
     1
 90
        2
176
     1
 62
     7
176
     1
 90
        5
176
     1
 90
        0
176
     1
 90
        0
176
     1
290
     0
176
     1
 90
       13
176
     1
 40
0.0
176
     1
 90
        0
176
     1
290
     0
176
     1
290
     1
176
     1
290
     1
176
     1
290
     0
176
     1
290
     0
176
     1
290
     0
176
     1
290
     0
176
     1
290
     0
176
     1
290
     0
176
     1
 90
       50
176
     1
 40
0.0
176
     1
 40
1.0
176
     1
 90
        0
176
     1
 62
    18
420
        0
176
     1
 90
       50
176
     1
 90
        3
176
     1
 62
     5
420
      255
176
     1
290
     0
176
     1
 90
       50
176
     1
 90
       50
176
     1
 90
       50
176
     1
290
     0
176
     1
 90
       50
176
     1
 62
   256
176
     0
 40
1.0
176
     0
 90
        2
176
     1
  1
strokes_ogs.tif
176
     1
290
     0
176
     1
 40
1.0
176
     1
 40
1.0
176
     1
  0
VISUALSTYLE
  5
31
102
{ACAD_REACTORS
330
29
102
}
330
29
100
AcDbVisualStyle
  2
Hidden
 70
     6
177
     3
291
     0
 70
    58
 90
        1
176
     1
 90
        2
176
     1
 90
        2
176
     1
 90
        0
176
     1
 40
0.6
176
     1
 40
30.0
176
     1
 62
     7
420
 16777215
176
     1
 90
        2
176
     1
 90
        2
176
     1
 62
     7
176
     1
 62
   257
176
     1
 90
        2
176
     1
 90
        1
176
     1
 40
40.0
176
     1
 90
        0
176
     1
 62
   257
176
     1
 40
1.0
176
     1
 90
        1
176
     1
 90
        6
176
     1
 90
        2
176
     1
 62
     7
176
     1
 90
        3
176
     1
 90
        0
176
     1
 90
        0
176
     1
290
     0
176
     1
 90
        1
176
     1
 40
0.0
176
     1
 90
        0
176
     1
290
     0
176
     1
290
     1
176
     1
290
     1
176
     1
290
     0
176
     1
290
     0
176
     1
290
     0
176
     1
290
     0
176
     1
290
     0
176
     1
290
     0
176
     1
 90
       50
176
     1
 40
0.0
176
     1
 40
1.0
176
     1
 90
        0
176
     1
 62
    18
420
        0
176
     1
 90
       50
176
     1
 90
        3
176
     1
 62
     5
420
      255
176
     1
290
     0
176
     1
 90
       50
176
     1
 90
       50
176
     1
 90
       50
176
     1
290
     0
176
     1
 90
       50
176
     1
 62
   256
176
     0
 40
1.0
176
     0
 90
        2
176
     1
  1
strokes_ogs.tif
176
     1
290
     0
176
     1
 40
1.0
176
     1
 40
1.0
176
     1
  0
VISUALSTYLE
  5
3F
102
{ACAD_REACTORS
330
29
102
}
330
29
100
AcDbVisualStyle
  2
JitterOff
 70
    20
177
     3
291
     1
 70
    58
 90
        2
176
     0
 90
        2
176
     0
 90
        0
176
     0
 90
        0
176
     0
 40
0.6
176
     0
 40
30.0
176
     0
 62
     7
420
 16777215
176
     0
 90
        1
176
     0
 90
        4
176
     0
 62
     7
176
     0
 62
   257
176
     0
 90
        1
176
     0
 90
        1
176
     0
 40
1.0
176
     0
 90
       10
176
     2
 62
     7
176
     0
 40
1.0
176
     0
 90
        1
176
     0
 90
        6
176
     0
 90
        2
176
     0
 62
     7
176
     0
 90
        5
176
     0
 90
        0
176
     0
 90
        0
176
     0
290
     0
176
     0
 90
        1
176
     0
 40
0.0
176
     0
 90
        0
176
     0
290
     0
176
     0
290
     1
176
     0
290
     1
176
     0
290
     0
176
     0
290
     0
176
     0
290
     0
176
     0
290
     0
176
     0
290
     0
176
     0
290
     0
176
     0
 90
       50
176
     0
 40
0.0
176
     0
 40
1.0
176
     0
 90
        0
176
     0
 62
    18
420
        0
176
     0
 90
       50
176
     0
 90
        3
176
     0
 62
     5
420
      255
176
     0
290
     0
176
     0
 90
       50
176
     0
 90
       50
176
     0
 90
       50
176
     0
290
     0
176
     0
 90
       50
176
     0
 62
   256
176
     0
 40
1.0
176
     0
 90
        2
176
     0
  1
strokes_ogs.tif
176
     0
290
     0
176
     0
 40
1.0
176
     0
 40
1.0
176
     0
  0
VISUALSTYLE
  5
37
102
{ACAD_REACTORS
330
29
102
}
330
29
100
AcDbVisualStyle
  2
Linepattern
 70
    14
177
     3
291
     1
 70
    58
 90
        2
176
     1
 90
        2
176
     1
 90
        0
176
     1
 90
        0
176
     1
 40
0.6
176
     1
 40
30.0
176
     1
 62
     7
420
 16777215
176
     1
 90
        1
176
     1
 90
        4
176
     1
 62
     7
176
     1
 62
   257
176
     1
 90
        7
176
     1
 90
        7
176
     1
 40
1.0
176
     1
 90
        8
176
     1
 62
     7
176
     1
 40
1.0
176
     1
 90
        1
176
     1
 90
        6
176
     1
 90
        2
176
     1
 62
     7
176
     1
 90
        5
176
     1
 90
        0
176
     1
 90
        0
176
     1
290
     0
176
     1
 90
        1
176
     1
 40
0.0
176
     1
 90
        0
176
     1
290
     0
176
     1
290
     1
176
     1
290
     1
176
     1
290
     0
176
     1
290
     0
176
     1
290
     0
176
     1
290
     0
176
     1
290
     0
176
     1
290
     0
176
     1
 90
       50
176
     1
 40
0.0
176
     1
 40
1.0
176
     1
 90
        0
176
     1
 62
    18
420
        0
176
     1
 90
       50
176
     1
 90
        3
176
     1
 62
     5
420
      255
176
     1
290
     0
176
     1
 90
       50
176
     1
 90
       50
176
     1
 90
       50
176
     1
290
     0
176
     1
 90
       50
176
     1
 62
   256
176
     0
 40
1.0
176
     0
 90
        2
176
     1
  1
strokes_ogs.tif
176
     1
290
     0
176
     1
 40
1.0
176
     1
 40
1.0
176
     1
  0
VISUALSTYLE
  5
40
102
{ACAD_REACTORS
330
29
102
}
330
29
100
AcDbVisualStyle
  2
OverhangOff
 70
    21
177
     3
291
     1
 70
    58
 90
        2
176
     0
 90
        2
176
     0
 90
        0
176
     0
 90
        0
176
     0
 40
0.6
176
     0
 40
30.0
176
     0
 62
     7
420
 16777215
176
     0
 90
        1
176
     0
 90
        4
176
     0
 62
     7
176
     0
 62
   257
176
     0
 90
        1
176
     0
 90
        1
176
     0
 40
1.0
176
     0
 90
        9
176
     2
 62
     7
176
     0
 40
1.0
176
     0
 90
        1
176
     0
 90
        6
176
     0
 90
        2
176
     0
 62
     7
176
     0
 90
        5
176
     0
 90
        0
176
     0
 90
        0
176
     0
290
     0
176
     0
 90
        1
176
     0
 40
0.0
176
     0
 90
        0
176
     0
290
     0
176
     0
290
     1
176
     0
290
     1
176
     0
290
     0
176
     0
290
     0
176
     0
290
     0
176
     0
290
     0
176
     0
290
     0
176
     0
290
     0
176
     0
 90
       50
176
     0
 40
0.0
176
     0
 40
1.0
176
     0
 90
        0
176
     0
 62
    18
420
        0
176
     0
 90
       50
176
     0
 90
        3
176
     0
 62
     5
420
      255
176
     0
290
     0
176
     0
 90
       50
176
     0
 90
       50
176
     0
 90
       50
176
     0
290
     0
176
     0
 90
       50
176
     0
 62
   256
176
     0
 40
1.0
176
     0
 90
        2
176
     0
  1
strokes_ogs.tif
176
     0
290
     0
176
     0
 40
1.0
176
     0
 40
1.0
176
     0
  0
VISUALSTYLE
  5
33
102
{ACAD_REACTORS
330
29
102
}
330
29
100
AcDbVisualStyle
  2
Realistic
 70
     8
177
     3
291
     0
 70
    58
 90
        2
176
     1
 90
        3
176
     1
 90
        0
176
     1
 90
        2
176
     1
 40
0.6
176
     1
 40
30.0
176
     1
 62
     7
420
 16777215
176
     1
 90
        0
176
     1
 90
        0
176
     1
 62
     7
176
     1
 62
   257
176
     1
 90
        1
176
     1
 90
        1
176
     1
 40
1.0
176
     1
 90
        8
176
     1
 62
   257
176
     1
 40
1.0
176
     1
 90
        1
176
     1
 90
        6
176
     1
 90
        2
176
     1
 62
     7
176
     1
 90
        3
176
     1
 90
        0
176
     1
 90
        0
176
     1
290
     0
176
     1
 90
       13
176
     1
 40
0.0
176
     1
 90
        0
176
     1
290
     0
176
     1
290
     1
176
     1
290
     1
176
     1
290
     0
176
     1
290
     0
176
     1
290
     0
176
     1
290
     0
176
     1
290
     0
176
     1
290
     0
176
     1
 90
       50
176
     1
 40
0.0
176
     1
 40
1.0
176
     1
 90
        0
176
     1
 62
    18
420
        0
176
     1
 90
       50
176
     1
 90
        3
176
     1
 62
     5
420
      255
176
     1
290
     0
176
     1
 90
       50
176
     1
 90
       50
176
     1
 90
       50
176
     1
290
     0
176
     1
 90
       50
176
     1
 62
   256
176
     0
 40
1.0
176
     0
 90
        2
176
     1
  1
strokes_ogs.tif
176
     1
290
     0
176
     1
 40
1.0
176
     1
 40
1.0
176
     1
  0
VISUALSTYLE
  5
3E
102
{ACAD_REACTORS
330
29
102
}
330
29
100
AcDbVisualStyle
  2
Shaded
 70
    27
177
     3
291
     0
 70
    58
 90
        2
176
     1
 90
        2
176
     1
 90
        1
176
     1
 90
        2
176
     1
 40
0.6
176
     1
 40
30.0
176
     1
 62
     7
420
 16777215
176
     1
 90
        0
176
     1
 90
        4
176
     1
 62
     7
176
     1
 62
   257
176
     1
 90
        1
176
     1
 90
        1
176
     1
 40
1.0
176
     1
 90
        8
176
     1
 62
   257
176
     1
 40
1.0
176
     1
 90
        1
176
     1
 90
        6
176
     1
 90
        2
176
     1
 62
     8
420
  7895160
176
     1
 90
        3
176
     1
 90
        0
176
     1
 90
        0
176
     1
290
     0
176
     1
 90
        5
176
     1
 40
0.0
176
     1
 90
        0
176
     1
290
     0
176
     1
290
     1
176
     1
290
     1
176
     1
290
     0
176
     1
290
     0
176
     1
290
     0
176
     1
290
     0
176
     1
290
     0
176
     1
290
     0
176
     1
 90
       50
176
     1
 40
0.0
176
     1
 40
1.0
176
     1
 90
        0
176
     1
 62
    18
420
        0
176
     1
 90
       50
176
     1
 90
        3
176
     1
 62
     5
420
      255
176
     1
290
     0
176
     1
 90
       50
176
     1
 90
       50
176
     1
 90
       50
176
     1
290
     0
176
     1
 90
       50
176
     1
 62
   256
176
     0
 40
1.0
176
     0
 90
        2
176
     1
  1
strokes_ogs.tif
176
     1
290
     0
176
     1
 40
1.0
176
     1
 40
1.0
176
     1
  0
VISUALSTYLE
  5
3D
102
{ACAD_REACTORS
330
29
102
}
330
29
100
AcDbVisualStyle
  2
Shaded with edges
 70
    26
177
     3
291
     0
 70
    58
 90
        2
176
     1
 90
        2
176
     1
 90
        1
176
     1
 90
        2
176
     1
 40
0.6
176
     1
 40
30.0
176
     1
 62
     7
420
 16777215
176
     1
 90
        1
176
     1
 90
        2
176
     1
 62
     7
176
     1
 62
   257
176
     1
 90
        2
176
     1
 90
        1
176
     1
 40
1.0
176
     1
 90
        8
176
     1
 62
   257
176
     1
 40
1.0
176
     1
 90
        1
176
     1
 90
        6
176
     1
 90
        2
176
     1
 62
     7
176
     1
 90
        3
176
     1
 90
        0
176
     1
 90
        0
176
     1
290
     0
176
     1
 90
        5
176
     1
 40
0.0
176
     1
 90
        0
176
     1
290
     0
176
     1
290
     1
176
     1
290
     1
176
     1
290
     0
176
     1
290
     0
176
     1
290
     0
176
     1
290
     0
176
     1
290
     0
176
     1
290
     0
176
     1
 90
       50
176
     1
 40
0.0
176
     1
 40
1.0
176
     1
 90
        0
176
     1
 62
    18
420
        0
176
     1
 90
       50
176
     1
 90
        3
176
     1
 62
     5
420
      255
176
     1
290
     0
176
     1
 90
       50
176
     1
 90
       50
176
     1
 90
       50
176
     1
290
     0
176
     1
 90
       50
176
     1
 62
   256
176
     0
 40
1.0
176
     0
 90
        2
176
     1
  1
strokes_ogs.tif
176
     1
290
     0
176
     1
 40
1.0
176
     1
 40
1.0
176
     1
  0
VISUALSTYLE
  5
3A
102
{ACAD_REACTORS
330
29
102
}
330
29
100
AcDbVisualStyle
  2
Shades of Gray
 70
    23
177
     3
291
     0
 70
    58
 90
        2
176
     1
 90
        2
176
     1
 90
        3
176
     1
 90
        0
176
     1
 40
0.6
176
     1
 40
30.0
176
     1
 62
     7
420
 16777215
176
     1
 90
        2
176
     1
 90
        2
176
     1
 62
     7
176
     1
 62
     7
176
     1
 90
        1
176
     1
 90
        1
176
     1
 40
40.0
176
     1
 90
        8
176
     1
 62
     7
176
     1
 40
1.0
176
     1
 90
        1
176
     1
 90
        6
176
     1
 90
        2
176
     1
 62
     7
176
     1
 90
        3
176
     1
 90
        0
176
     1
 90
        0
176
     1
290
     0
176
     1
 90
        1
176
     1
 40
0.0
176
     1
 90
        0
176
     1
290
     0
176
     1
290
     1
176
     1
290
     1
176
     1
290
     0
176
     1
290
     0
176
     1
290
     0
176
     1
290
     0
176
     1
290
     0
176
     1
290
     0
176
     1
 90
       50
176
     1
 40
0.0
176
     1
 40
1.0
176
     1
 90
        0
176
     1
 62
    18
420
        0
176
     1
 90
       50
176
     1
 90
        3
176
     1
 62
     5
420
      255
176
     1
290
     0
176
     1
 90
       50
176
     1
 90
       50
176
     1
 90
       50
176
     1
290
     0
176
     1
 90
       50
176
     1
 62
   256
176
     0
 40
1.0
176
     0
 90
        2
176
     1
  1
strokes_ogs.tif
176
     1
290
     0
176
     1
 40
1.0
176
     1
 40
1.0
176
     1
  0
VISUALSTYLE
  5
3B
102
{ACAD_REACTORS
330
29
102
}
330
29
100
AcDbVisualStyle
  2
Sketchy
 70
    24
177
     3
291
     0
 70
    58
 90
        1
176
     1
 90
        2
176
     1
 90
        2
176
     1
 90
        0
176
     1
 40
0.6
176
     1
 40
30.0
176
     1
 62
     7
420
 16777215
176
     1
 90
        2
176
     1
 90
        2
176
     1
 62
     7
176
     1
 62
     7
176
     1
 90
        1
176
     1
 90
        1
176
     1
 40
40.0
176
     1
 90
       11
176
     1
 62
     7
176
     1
 40
1.0
176
     1
 90
        1
176
     1
 90
        6
176
     1
 90
        2
176
     1
 62
     7
176
     1
 90
        6
176
     1
 90
        0
176
     1
 90
        0
176
     1
290
     0
176
     1
 90
        1
176
     1
 40
0.0
176
     1
 90
        0
176
     1
290
     0
176
     1
290
     1
176
     1
290
     1
176
     1
290
     0
176
     1
290
     0
176
     1
290
     0
176
     1
290
     0
176
     1
290
     0
176
     1
290
     0
176
     1
 90
       50
176
     1
 40
0.0
176
     1
 40
1.0
176
     1
 90
        0
176
     1
 62
    18
420
        0
176
     1
 90
       50
176
     1
 90
        3
176
     1
 62
     5
420
      255
176
     1
290
     0
176
     1
 90
       50
176
     1
 90
       50
176
     1
 90
       50
176
     1
290
     0
176
     1
 90
       50
176
     1
 62
   256
176
     0
 40
1.0
176
     0
 90
        2
176
     1
  1
strokes_ogs.tif
176
     1
290
     0
176
     1
 40
1.0
176
     1
 40
1.0
176
     1
  0
VISUALSTYLE
  5
36
102
{ACAD_REACTORS
330
29
102
}
330
29
100
AcDbVisualStyle
  2
Thicken
 70
    13
177
     3
291
     1
 70
    58
 90
        2
176
     1
 90
        2
176
     1
 90
        0
176
     1
 90
        0
176
     1
 40
0.6
176
     1
 40
30.0
176
     1
 62
     7
420
 16777215
176
     1
 90
        1
176
     1
 90
        4
176
     1
 62
     7
176
     1
 62
   257
176
     1
 90
        1
176
     1
 90
        1
176
     1
 40
1.0
176
     1
 90
       12
176
     1
 62
     7
176
     1
 40
1.0
176
     1
 90
        1
176
     1
 90
        6
176
     1
 90
        2
176
     1
 62
     7
176
     1
 90
        5
176
     1
 90
        0
176
     1
 90
        0
176
     1
290
     0
176
     1
 90
        1
176
     1
 40
0.0
176
     1
 90
        0
176
     1
290
     0
176
     1
290
     1
176
     1
290
     1
176
     1
290
     0
176
     1
290
     0
176
     1
290
     0
176
     1
290
     0
176
     1
290
     0
176
     1
290
     0
176
     1
 90
       50
176
     1
 40
0.0
176
     1
 40
1.0
176
     1
 90
        0
176
     1
 62
    18
420
        0
176
     1
 90
       50
176
     1
 90
        3
176
     1
 62
     5
420
      255
176
     1
290
     0
176
     1
 90
       50
176
     1
 90
       50
176
     1
 90
       50
176
     1
290
     0
176
     1
 90
       50
176
     1
 62
   256
176
     0
 40
1.0
176
     0
 90
        2
176
     1
  1
strokes_ogs.tif
176
     1
290
     0
176
     1
 40
1.0
176
     1
 40
1.0
176
     1
  0
VISUALSTYLE
  5
30
102
{ACAD_REACTORS
330
29
102
}
330
29
100
AcDbVisualStyle
  2
Wireframe
 70
     5
177
     3
291
     0
 70
    58
 90
        0
176
     1
 90
        2
176
     1
 90
        0
176
     1
 90
        0
176
     1
 40
0.6
176
     1
 40
30.0
176
     1
 62
     7
420
 16777215
176
     1
 90
        1
176
     1
 90
        4
176
     1
 62
     7
176
     1
 62
   257
176
     1
 90
        1
176
     1
 90
        1
176
     1
 40
1.0
176
     1
 90
        0
176
     1
 62
   257
176
     1
 40
1.0
176
     1
 90
        1
176
     1
 90
        6
176
     1
 90
        2
176
     1
 62
     7
176
     1
 90
        3
176
     1
 90
        0
176
     1
 90
        0
176
     1
290
     0
176
     1
 90
        1
176
     1
 40
0.0
176
     1
 90
        0
176
     1
290
     0
176
     1
290
     1
176
     1
290
     1
176
     1
290
     0
176
     1
290
     0
176
     1
290
     0
176
     1
290
     0
176
     1
290
     0
176
     1
290
     0
176
     1
 90
       50
176
     1
 40
0.0
176
     1
 40
1.0
176
     1
 90
        0
176
     1
 62
    18
420
        0
176
     1
 90
       50
176
     1
 90
        3
176
     1
 62
     5
420
      255
176
     1
290
     0
176
     1
 90
       50
176
     1
 90
       50
176
     1
 90
       50
176
     1
290
     0
176
     1
 90
       50
176
     1
 62
   256
176
     0
 40
1.0
176
     0
 90
        2
176
     1
  1
strokes_ogs.tif
176
     1
290
     0
176
     1
 40
1.0
176
     1
 40
1.0
176
     1
  0
VISUALSTYLE
  5
3C
102
{ACAD_REACTORS
330
29
102
}
330
29
100
AcDbVisualStyle
  2
X-Ray
 70
    25
177
     3
291
     0
 70
    58
 90
        2
176
     1
 90
        2
176
     1
 90
        1
176
     1
 90
        1
176
     1
 40
0.5
176
     1
 40
30.0
176
     1
 62
     7
420
 16777215
176
     1
 90
        1
176
     1
 90
        0
176
     1
 62
     7
176
     1
 62
   257
176
     1
 90
        1
176
     1
 90
        1
176
     1
 40
1.0
176
     1
 90
        8
176
     1
 62
     7
176
     1
 40
1.0
176
     1
 90
        1
176
     1
 90
        6
176
     1
 90
        2
176
     1
 62
     7
176
     1
 90
        3
176
     1
 90
        0
176
     1
 90
        0
176
     1
290
     0
176
     1
 90
       13
176
     1
 40
0.0
176
     1
 90
        0
176
     1
290
     0
176
     1
290
     1
176
     1
290
     1
176
     1
290
     0
176
     1
290
     0
176
     1
290
     0
176
     1
290
     0
176
     1
290
     0
176
     1
290
     0
176
     1
 90
       50
176
     1
 40
0.0
176
     1
 40
1.0
176
     1
 90
        0
176
     1
 62
    18
420
        0
176
     1
 90
       50
176
     1
 90
        3
176
     1
 62
     5
420
      255
176
     1
290
     0
176
     1
 90
       50
176
     1
 90
       50
176
     1
 90
       50
176
     1
290
     0
176
     1
 90
       50
176
     1
 62
   256
176
     0
 40
1.0
176
     0
 90
        2
176
     1
  1
strokes_ogs.tif
176
     1
290
     0
176
     1
 40
1.0
176
     1
 40
1.0
176
     1
  0
DICTIONARYVAR
  5
AF
102
{ACAD_REACTORS
330
AA
102
}
330
AA
100
DictionaryVariables
280
     0
  1
1:1
  0
DICTIONARYVAR
  5
AC
102
{ACAD_REACTORS
330
AA
102
}
330
AA
100
DictionaryVariables
280
     0
  1
STANDARD
  0
DICTIONARYVAR
  5
AB
102
{ACAD_REACTORS
330
AA
102
}
330
AA
100
DictionaryVariables
280
     0
  1
STANDARD
  0
DICTIONARYVAR
  5
AD
102
{ACAD_REACTORS
330
AA
102
}
330
AA
100
DictionaryVariables
280
     0
  1
Imperial24
  0
DICTIONARYVAR
  5
AE
102
{ACAD_REACTORS
330
AA
102
}
330
AA
100
DictionaryVariables
280
     0
  1
Imperial24
  0
DICTIONARY
  5
1A
330
19
100
AcDbDictionary
280
     1
281
     1
  3
BUMPTILE
360
1C
  3
DIFFUSETILE
360
1B
  3
OPACITYTILE
360
1F
  3
REFLECTIONTILE
360
1E
  3
REFRACTIONTILE
360
20
  3
SPECULARTILE
360
1D
  0
DICTIONARY
  5
12
330
11
100
AcDbDictionary
280
     1
281
     1
  3
BUMPTILE
360
14
  3
DIFFUSETILE
360
13
  3
OPACITYTILE
360
17
  3
REFLECTIONTILE
360
16
  3
REFRACTIONTILE
360
18
  3
SPECULARTILE
360
15
  0
DICTIONARY
  5
22
330
21
100
AcDbDictionary
280
     1
281
     1
  3
BUMPTILE
360
24
  3
DIFFUSETILE
360
23
  3
OPACITYTILE
360
27
  3
REFLECTIONTILE
360
26
  3
REFRACTIONTILE
360
28
  3
SPECULARTILE
360
25
  0
DICTIONARY
  5
B0
330
65
100
AcDbDictionary
280
     1
281
     1
  3
ACAD_ROUNDTRIP_2008_TABLESTYLE_CELLSTYLEMAP
360
B1
  0
XRECORD
  5
1C
102
{ACAD_REACTORS
330
1A
102
}
330
1A
100
AcDbXrecord
280
     1
270
     1
271
     1
  0
XRECORD
  5
1B
102
{ACAD_REACTORS
330
1A
102
}
330
1A
100
AcDbXrecord
280
     1
270
     1
271
     1
  0
XRECORD
  5
1F
102
{ACAD_REACTORS
330
1A
102
}
330
1A
100
AcDbXrecord
280
     1
270
     1
271
     1
  0
XRECORD
  5
1E
102
{ACAD_REACTORS
330
1A
102
}
330
1A
100
AcDbXrecord
280
     1
270
     1
271
     1
  0
XRECORD
  5
20
102
{ACAD_REACTORS
330
1A
102
}
330
1A
100
AcDbXrecord
280
     1
270
     1
271
     1
  0
XRECORD
  5
1D
102
{ACAD_REACTORS
330
1A
102
}
330
1A
100
AcDbXrecord
280
     1
270
     1
271
     1
  0
XRECORD
  5
14
102
{ACAD_REACTORS
330
12
102
}
330
12
100
AcDbXrecord
280
     1
270
     1
271
     1
  0
XRECORD
  5
13
102
{ACAD_REACTORS
330
12
102
}
330
12
100
AcDbXrecord
280
     1
270
     1
271
     1
  0
XRECORD
  5
17
102
{ACAD_REACTORS
330
12
102
}
330
12
100
AcDbXrecord
280
     1
270
     1
271
     1
  0
XRECORD
  5
16
102
{ACAD_REACTORS
330
12
102
}
330
12
100
AcDbXrecord
280
     1
270
     1
271
     1
  0
XRECORD
  5
18
102
{ACAD_REACTORS
330
12
102
}
330
12
100
AcDbXrecord
280
     1
270
     1
271
     1
  0
XRECORD
  5
15
102
{ACAD_REACTORS
330
12
102
}
330
12
100
AcDbXrecord
280
     1
270
     1
271
     1
  0
XRECORD
  5
24
102
{ACAD_REACTORS
330
22
102
}
330
22
100
AcDbXrecord
280
     1
270
     1
271
     1
  0
XRECORD
  5
23
102
{ACAD_REACTORS
330
22
102
}
330
22
100
AcDbXrecord
280
     1
270
     1
271
     1
  0
XRECORD
  5
27
102
{ACAD_REACTORS
330
22
102
}
330
22
100
AcDbXrecord
280
     1
270
     1
271
     1
  0
XRECORD
  5
26
102
{ACAD_REACTORS
330
22
102
}
330
22
100
AcDbXrecord
280
     1
270
     1
271
     1
  0
XRECORD
  5
28
102
{ACAD_REACTORS
330
22
102
}
330
22
100
AcDbXrecord
280
     1
270
     1
271
     1
  0
XRECORD
  5
25
102
{ACAD_REACTORS
330
22
102
}
330
22
100
AcDbXrecord
280
     1
270
     1
271
     1
  0
CELLSTYLEMAP
  5
B1
102
{ACAD_REACTORS
330
B0
102
}
330
B0
100
AcDbCellStyleMap
 90
        3
300
CELLSTYLE
  1
TABLEFORMAT_BEGIN
 90
        5
170
     1
 91
        0
 92
    32768
 62
   257
 93
        1
300
CONTENTFORMAT
  1
CONTENTFORMAT_BEGIN
 90
        0
 91
        0
 92
      512
 93
        0
300

 40
0.0
140
1.0
 94
        5
 62
     0
340
55
144
0.25
309
CONTENTFORMAT_END
171
     0
 94
        0
309
TABLEFORMAT_END
  1
CELLSTYLE_BEGIN
 90
        1
 91
        1
300
_TITLE
309
CELLSTYLE_END
300
CELLSTYLE
  1
TABLEFORMAT_BEGIN
 90
        5
170
     1
 91
        0
 92
        0
 62
   257
 93
        1
300
CONTENTFORMAT
  1
CONTENTFORMAT_BEGIN
 90
        0
 91
        0
 92
      512
 93
        0
300

 40
0.0
140
1.0
 94
        5
 62
     0
340
55
144
0.18
309
CONTENTFORMAT_END
171
     0
 94
        0
309
TABLEFORMAT_END
  1
CELLSTYLE_BEGIN
 90
        2
 91
        1
300
_HEADER
309
CELLSTYLE_END
300
CELLSTYLE
  1
TABLEFORMAT_BEGIN
 90
        5
170
     1
 91
        0
 92
        0
 62
   257
 93
        1
300
CONTENTFORMAT
  1
CONTENTFORMAT_BEGIN
 90
        0
 91
        0
 92
      512
 93
        0
300

 40
0.0
140
1.0
 94
        2
 62
     0
340
55
144
0.18
309
CONTENTFORMAT_END
171
     0
 94
        0
309
TABLEFORMAT_END
  1
CELLSTYLE_BEGIN
 90
        3
 91
        2
300
_DATA
309
CELLSTYLE_END
  0
ENDSEC
  0
EOF
