  0
SECTION
  2
HEADER
  9
$ACADVER
  1
AC1032
  9
$ACADMAINTVER
 90
      197
  9
$DWGCODEPAGE
  3
ANSI_1252
  9
$REQUIREDVERSIONS
160
                 0
  9
$INSBASE
 10
0.0
 20
0.0
 30
0.0
  9
$EXTMIN
 10
1.000000000000000E+20
 20
1.000000000000000E+20
 30
1.000000000000000E+20
  9
$EXTMAX
 10
-1.000000000000000E+20
 20
-1.000000000000000E+20
 30
-1.000000000000000E+20
  9
$LIMMIN
 10
0.0
 20
0.0
  9
$LIMMAX
 10
12.0
 20
9.0
  9
$ORTHOMODE
 70
     0
  9
$REGENMODE
 70
     1
  9
$FILLMODE
 70
     1
  9
$QTEXTMODE
 70
     0
  9
$MIRRTEXT
 70
     0
  9
$LTSCALE
 40
1.0
  9
$ATTMODE
 70
     1
  9
$TEXTSIZE
 40
0.2
  9
$TRACEWID
 40
0.05
  9
$TEXTSTYLE
  7
Standard
  9
$CLAYER
  8
0
  9
$CELTYPE
  6
ByLayer
  9
$CECOLOR
 62
   256
  9
$CELTSCALE
 40
1.0
  9
$DISPSILH
 70
     0
  9
$DIMSCALE
 40
1.0
  9
$DIMASZ
 40
0.18
  9
$DIMEXO
 40
0.0625
  9
$DIMDLI
 40
0.38
  9
$DIMRND
 40
0.0
  9
$DIMDLE
 40
0.0
  9
$DIMEXE
 40
0.18
  9
$DIMTP
 40
0.0
  9
$DIMTM
 40
0.0
  9
$DIMTXT
 40
0.18
  9
$DIMCEN
 40
0.09
  9
$DIMTSZ
 40
0.0
  9
$DIMTOL
 70
     0
  9
$DIMLIM
 70
     0
  9
$DIMTIH
 70
     1
  9
$DIMTOH
 70
     1
  9
$DIMSE1
 70
     0
  9
$DIMSE2
 70
     0
  9
$DIMTAD
 70
     0
  9
$DIMZIN
 70
     0
  9
$DIMBLK
  1

  9
$DIMASO
 70
     1
  9
$DIMSHO
 70
     1
  9
$DIMPOST
  1

  9
$DIMAPOST
  1

  9
$DIMALT
 70
     0
  9
$DIMALTD
 70
     2
  9
$DIMALTF
 40
25.4
  9
$DIMLFAC
 40
1.0
  9
$DIMTOFL
 70
     0
  9
$DIMTVP
 40
0.0
  9
$DIMTIX
 70
     0
  9
$DIMSOXD
 70
     0
  9
$DIMSAH
 70
     0
  9
$DIMBLK1
  1

  9
$DIMBLK2
  1

  9
$DIMSTYLE
  2
Standard
  9
$DIMCLRD
 70
     0
  9
$DIMCLRE
 70
     0
  9
$DIMCLRT
 70
     0
  9
$DIMTFAC
 40
1.0
  9
$DIMGAP
 40
0.09
  9
$DIMJUST
 70
     0
  9
$DIMSD1
 70
     0
  9
$DIMSD2
 70
     0
  9
$DIMTOLJ
 70
     1
  9
$DIMTZIN
 70
     0
  9
$DIMALTZ
 70
     0
  9
$DIMALTTZ
 70
     0
  9
$DIMUPT
 70
     0
  9
$DIMDEC
 70
     4
  9
$DIMTDEC
 70
     4
  9
$DIMALTU
 70
     2
  9
$DIMALTTD
 70
     2
  9
$DIMTXSTY
  7
Standard
  9
$DIMAUNIT
 70
     0
  9
$DIMADEC
 70
     0
  9
$DIMALTRND
 40
0.0
  9
$DIMAZIN
 70
     0
  9
$DIMDSEP
 70
    46
  9
$DIMATFIT
 70
     3
  9
$DIMFRAC
 70
     0
  9
$DIMLDRBLK
  1

  9
$DIMLUNIT
 70
     2
  9
$DIMLWD
 70
    -2
  9
$DIMLWE
 70
    -2
  9
$DIMTMOVE
 70
     0
  9
$DIMFXL
 40
1.0
  9
$DIMFXLON
 70
     0
  9
$DIMJOGANG
 40
0.7853981633974483
  9
$DIMTFILL
 70
     0
  9
$DIMTFILLCLR
 70
     0
  9
$DIMARCSYM
 70
     0
  9
$DIMLTYPE
  6

  9
$DIMLTEX1
  6

  9
$DIMLTEX2
  6

  9
$DIMTXTDIRECTION
 70
     0
  9
$LUNITS
 70
     2
  9
$LUPREC
 70
     4
  9
$SKETCHINC
 40
0.1
  9
$FILLETRAD
 40
0.0
  9
$AUNITS
 70
     0
  9
$AUPREC
 70
     0
  9
$MENU
  1
.
  9
$ELEVATION
 40
0.0
  9
$PELEVATION
 40
0.0
  9
$THICKNESS
 40
0.0
  9
$LIMCHECK
 70
     0
  9
$CHAMFERA
 40
0.0
  9
$CHAMFERB
 40
0.0
  9
$CHAMFERC
 40
0.0
  9
$CHAMFERD
 40
0.0
  9
$SKPOLY
 70
     0
  9
$TDCREATE
 40
2459710.485798611
  9
$TDUCREATE
 40
2459710.402465278
  9
$TDUPDATE
 40
2459710.485798611
  9
$TDUUPDATE
 40
2459710.402465278
  9
$TDINDWG
 40
0.0000000000
  9
$TDUSRTIMER
 40
0.0000000000
  9
$USRTIMER
 70
     1
  9
$ANGBASE
 50
0.0
  9
$ANGDIR
 70
     0
  9
$PDMODE
 70
     0
  9
$PDSIZE
 40
0.0
  9
$PLINEWID
 40
0.0
  9
$SPLFRAME
 70
     0
  9
$SPLINETYPE
 70
     6
  9
$SPLINESEGS
 70
     8
  9
$HANDSEED
  5
F8
  9
$SURFTAB1
 70
     6
  9
$SURFTAB2
 70
     6
  9
$SURFTYPE
 70
     6
  9
$SURFU
 70
     6
  9
$SURFV
 70
     6
  9
$UCSBASE
  2

  9
$UCSNAME
  2

  9
$UCSORG
 10
0.0
 20
0.0
 30
0.0
  9
$UCSXDIR
 10
1.0
 20
0.0
 30
0.0
  9
$UCSYDIR
 10
0.0
 20
1.0
 30
0.0
  9
$UCSORTHOREF
  2

  9
$UCSORTHOVIEW
 70
     0
  9
$UCSORGTOP
 10
0.0
 20
0.0
 30
0.0
  9
$UCSORGBOTTOM
 10
0.0
 20
0.0
 30
0.0
  9
$UCSORGLEFT
 10
0.0
 20
0.0
 30
0.0
  9
$UCSORGRIGHT
 10
0.0
 20
0.0
 30
0.0
  9
$UCSORGFRONT
 10
0.0
 20
0.0
 30
0.0
  9
$UCSORGBACK
 10
0.0
 20
0.0
 30
0.0
  9
$PUCSBASE
  2

  9
$PUCSNAME
  2

  9
$PUCSORG
 10
0.0
 20
0.0
 30
0.0
  9
$PUCSXDIR
 10
1.0
 20
0.0
 30
0.0
  9
$PUCSYDIR
 10
0.0
 20
1.0
 30
0.0
  9
$PUCSORTHOREF
  2

  9
$PUCSORTHOVIEW
 70
     0
  9
$PUCSORGTOP
 10
0.0
 20
0.0
 30
0.0
  9
$PUCSORGBOTTOM
 10
0.0
 20
0.0
 30
0.0
  9
$PUCSORGLEFT
 10
0.0
 20
0.0
 30
0.0
  9
$PUCSORGRIGHT
 10
0.0
 20
0.0
 30
0.0
  9
$PUCSORGFRONT
 10
0.0
 20
0.0
 30
0.0
  9
$PUCSORGBACK
 10
0.0
 20
0.0
 30
0.0
  9
$USERI1
 70
     0
  9
$USERI2
 70
     0
  9
$USERI3
 70
     0
  9
$USERI4
 70
     0
  9
$USERI5
 70
     0
  9
$USERR1
 40
0.0
  9
$USERR2
 40
0.0
  9
$USERR3
 40
0.0
  9
$USERR4
 40
0.0
  9
$USERR5
 40
0.0
  9
$WORLDVIEW
 70
     1
  9
$SHADEDGE
 70
     3
  9
$SHADEDIF
 70
    70
  9
$TILEMODE
 70
     1
  9
$MAXACTVP
 70
    64
  9
$PINSBASE
 10
0.0
 20
0.0
 30
0.0
  9
$PLIMCHECK
 70
     0
  9
$PEXTMIN
 10
1.000000000000000E+20
 20
1.000000000000000E+20
 30
1.000000000000000E+20
  9
$PEXTMAX
 10
-1.000000000000000E+20
 20
-1.000000000000000E+20
 30
-1.000000000000000E+20
  9
$PLIMMIN
 10
0.0
 20
0.0
  9
$PLIMMAX
 10
12.0
 20
9.0
  9
$UNITMODE
 70
     0
  9
$VISRETAIN
 70
     1
  9
$PLINEGEN
 70
     0
  9
$PSLTSCALE
 70
     1
  9
$TREEDEPTH
 70
  3020
  9
$CMLSTYLE
  2
Standard
  9
$CMLJUST
 70
     0
  9
$CMLSCALE
 40
1.0
  9
$PROXYGRAPHICS
 70
     1
  9
$MEASUREMENT
 70
     0
  9
$CELWEIGHT
370
    -1
  9
$ENDCAPS
280
     0
  9
$JOINSTYLE
280
     0
  9
$LWDISPLAY
290
     1
  9
$INSUNITS
 70
     0
  9
$HYPERLINKBASE
  1

  9
$STYLESHEET
  1

  9
$XEDIT
290
     1
  9
$CEPSNTYPE
380
     0
  9
$PSTYLEMODE
290
     1
  9
$FINGERPRINTGUID
  2
{4F1AF062-059F-3146-9FDE-5C9C68A51480}
  9
$VERSIONGUID
  2
{5D218344-D6F0-874D-BE08-0BBB5B13D99D}
  9
$EXTNAMES
290
     1
  9
$PSVPSCALE
 40
0.0
  9
$OLESTARTUP
290
     0
  9
$SORTENTS
280
   127
  9
$INDEXCTL
280
     0
  9
$HIDETEXT
280
     1
  9
$XCLIPFRAME
280
     2
  9
$HALOGAP
280
     0
  9
$OBSCOLOR
 70
   257
  9
$OBSLTYPE
280
     0
  9
$INTERSECTIONDISPLAY
280
     0
  9
$INTERSECTIONCOLOR
 70
   257
  9
$DIMASSOC
280
     2
  9
$PROJECTNAME
  1

  9
$CAMERADISPLAY
290
     0
  9
$LENSLENGTH
 40
50.0
  9
$CAMERAHEIGHT
 40
0.0
  9
$STEPSPERSEC
 40
2.0
  9
$STEPSIZE
 40
6.0
  9
$3DDWFPREC
 40
2.0
  9
$PSOLWIDTH
 40
0.25
  9
$PSOLHEIGHT
 40
4.0
  9
$LOFTANG1
 40
1.570796326794896
  9
$LOFTANG2
 40
1.570796326794896
  9
$LOFTMAG1
 40
0.0
  9
$LOFTMAG2
 40
0.0
  9
$LOFTPARAM
 70
     7
  9
$LOFTNORMALS
280
     1
  9
$LATITUDE
 40
37.795
  9
$LONGITUDE
 40
-122.394
  9
$NORTHDIRECTION
 40
0.0
  9
$TIMEZONE
 70
 -8000
  9
$LIGHTGLYPHDISPLAY
280
     1
  9
$TILEMODELIGHTSYNCH
280
     1
  9
$CMATERIAL
347
11
  9
$SOLIDHIST
280
     0
  9
$SHOWHIST
280
     1
  9
$DWFFRAME
280
     2
  9
$DGNFRAME
280
     0
  9
$REALWORLDSCALE
290
     1
  9
$INTERFERECOLOR
 62
     1
  9
$INTERFEREOBJVS
345
33
  9
$INTERFEREVPVS
346
30
  9
$CSHADOW
280
     0
  9
$SHADOWPLANELOCATION
 40
0.0
  0
ENDSEC
  0
SECTION
  2
CLASSES
  0
CLASS
  1
ACDBDICTIONARYWDFLT
  2
AcDbDictionaryWithDefault
  3
ObjectDBX Classes
 90
        0
 91
        1
280
     0
281
     0
  0
CLASS
  1
MATERIAL
  2
AcDbMaterial
  3
ObjectDBX Classes
 90
     1153
 91
        3
280
     0
281
     0
  0
CLASS
  1
VISUALSTYLE
  2
AcDbVisualStyle
  3
ObjectDBX Classes
 90
     4095
 91
       24
280
     0
281
     0
  0
CLASS
  1
SCALE
  2
AcDbScale
  3
ObjectDBX Classes
 90
     1153
 91
       17
280
     0
281
     0
  0
CLASS
  1
TABLESTYLE
  2
AcDbTableStyle
  3
ObjectDBX Classes
 90
     4095
 91
        1
280
     0
281
     0
  0
CLASS
  1
MLEADERSTYLE
  2
AcDbMLeaderStyle
  3
ACDB_MLEADERSTYLE_CLASS
 90
     4095
 91
        1
280
     0
281
     0
  0
CLASS
  1
ACDBSECTIONVIEWSTYLE
  2
AcDbSectionViewStyle
  3
ObjectDBX Classes
 90
     1025
 91
        1
280
     0
281
     0
  0
CLASS
  1
ACDBDETAILVIEWSTYLE
  2
AcDbDetailViewStyle
  3
ObjectDBX Classes
 90
     1025
 91
        1
280
     0
281
     0
  0
CLASS
  1
DICTIONARYVAR
  2
AcDbDictionaryVar
  3
ObjectDBX Classes
 90
        0
 91
        5
280
     0
281
     0
  0
CLASS
  1
CELLSTYLEMAP
  2
AcDbCellStyleMap
  3
ObjectDBX Classes
 90
     1152
 91
        1
280
     0
281
     0
  0
ENDSEC
  0
SECTION
  2
TABLES
  0
TABLE
  2
VPORT
  5
8
330
0
100
AcDbSymbolTable
 70
     1
  0
VPORT
  5
57
330
8
100
AcDbSymbolTableRecord
100
AcDbViewportTableRecord
  2
*Active
 70
     0
 10
0.0
 20
0.0
 11
1.0
 21
1.0
 12
0.0
 22
0.0
 13
0.0
 23
0.0
 14
1.0
 24
1.0
 15
0.0
 25
0.0
 16
0.0
 26
0.0
 36
1.0
 17
540.1038961038957
 27
-539.727272727273
 37
0.0
 40
1102.701382854677
 41
1.000000000044774
 42
50.0
 43
0.0
 44
0.0
 50
0.0
 51
0.0
 71
     0
 72
   100
 73
     1
 74
     1
 75
     0
 76
     0
 77
     0
 78
     0
281
     0
 65
     1
110
0.0
120
0.0
130
0.0
111
1.0
121
0.0
131
0.0
112
0.0
122
1.0
132
0.0
 79
     0
146
0.0
 60
     3
 61
     5
292
     1
282
     1
141
0.0
142
0.0
 63
   250
421
  3355443
  0
ENDTAB
  0
TABLE
  2
LTYPE
  5
5
330
0
100
AcDbSymbolTable
 70
     1
  0
LTYPE
  5
5B
330
5
100
AcDbSymbolTableRecord
100
AcDbLinetypeTableRecord
  2
ByBlock
 70
     0
  3

 72
    65
 73
     0
 40
0.0
  0
LTYPE
  5
5C
330
5
100
AcDbSymbolTableRecord
100
AcDbLinetypeTableRecord
  2
ByLayer
 70
     0
  3

 72
    65
 73
     0
 40
0.0
  0
LTYPE
  5
5D
330
5
100
AcDbSymbolTableRecord
100
AcDbLinetypeTableRecord
  2
Continuous
 70
     0
  3
Solid line
 72
    65
 73
     0
 40
0.0
  0
ENDTAB
  0
TABLE
  2
LAYER
  5
2
330
0
100
AcDbSymbolTable
 70
     2
  0
LAYER
  5
54
330
2
100
AcDbSymbolTableRecord
100
AcDbLayerTableRecord
  2
0
 70
     0
 62
     7
  6
Continuous
370
    -3
390
F
347
21
348
0
  0
LAYER
  5
78
330
2
100
AcDbSymbolTableRecord
100
AcDbLayerTableRecord
  2
Layer 1
 70
     0
 62
     7
  6
Continuous
370
     0
390
F
347
21
348
0
  0
ENDTAB
  0
TABLE
  2
STYLE
  5
3
330
0
100
AcDbSymbolTable
 70
     2
  0
STYLE
  5
55
330
3
100
AcDbSymbolTableRecord
100
AcDbTextStyleTableRecord
  2
Standard
 70
     0
 40
0.0
 41
1.0
 50
0.0
 71
     0
 42
0.2
  3
txt
  4

  0
STYLE
  5
5A
330
3
100
AcDbSymbolTableRecord
100
AcDbTextStyleTableRecord
  2
Annotative
 70
     0
 40
0.0
 41
1.0
 50
0.0
 71
     0
 42
0.2
  3
txt
  4

1001
AcadAnnotative
1000
AnnotativeData
1002
{
1070
     1
1070
     1
1002
}
  0
ENDTAB
  0
TABLE
  2
VIEW
  5
6
330
0
100
AcDbSymbolTable
 70
     0
  0
ENDTAB
  0
TABLE
  2
UCS
  5
7
330
0
100
AcDbSymbolTable
 70
     0
  0
ENDTAB
  0
TABLE
  2
APPID
  5
9
330
0
100
AcDbSymbolTable
 70
     2
  0
APPID
  5
56
330
9
100
AcDbSymbolTableRecord
100
AcDbRegAppTableRecord
  2
ACAD
 70
     0
  0
APPID
  5
5E
330
9
100
AcDbSymbolTableRecord
100
AcDbRegAppTableRecord
  2
AcadAnnotative
 70
     0
  0
ENDTAB
  0
TABLE
  2
DIMSTYLE
  5
A
330
0
100
AcDbSymbolTable
 70
     2
100
AcDbDimStyleTable
 71
     0
  0
DIMSTYLE
105
58
330
A
100
AcDbSymbolTableRecord
100
AcDbDimStyleTableRecord
  2
Standard
 70
     0
340
55
  0
DIMSTYLE
105
59
330
A
100
AcDbSymbolTableRecord
100
AcDbDimStyleTableRecord
  2
Annotative
 70
     0
340
55
1001
AcadAnnotative
1000
AnnotativeData
1002
{
1070
     1
1070
     1
1002
}
  0
ENDTAB
  0
TABLE
  2
BLOCK_RECORD
  5
1
330
0
100
AcDbSymbolTable
 70
     7
  0
BLOCK_RECORD
  5
70
330
1
100
AcDbSymbolTableRecord
100
AcDbBlockTableRecord
  2
*Model_Space
340
73
 70
     0
280
     1
281
     0
  0
BLOCK_RECORD
  5
6C
330
1
100
AcDbSymbolTableRecord
100
AcDbBlockTableRecord
  2
*Paper_Space
340
6F
 70
     0
280
     1
281
     0
  0
BLOCK_RECORD
  5
74
330
1
100
AcDbSymbolTableRecord
100
AcDbBlockTableRecord
  2
*Paper_Space0
340
77
 70
     0
280
     1
281
     0
  0
BLOCK_RECORD
  5
8C
330
1
100
AcDbSymbolTableRecord
100
AcDbBlockTableRecord
  2
Block_0
340
0
102
{BLKREFS
331
8D
102
}
 70
     0
280
     1
281
     0
  0
BLOCK_RECORD
  5
92
330
1
100
AcDbSymbolTableRecord
100
AcDbBlockTableRecord
  2
Block_1
340
0
102
{BLKREFS
331
93
102
}
 70
     0
280
     1
281
     0
  0
BLOCK_RECORD
  5
98
330
1
100
AcDbSymbolTableRecord
100
AcDbBlockTableRecord
  2
Block_2
340
0
102
{BLKREFS
331
99
102
}
 70
     0
280
     1
281
     0
  0
BLOCK_RECORD
  5
9E
330
1
100
AcDbSymbolTableRecord
100
AcDbBlockTableRecord
  2
Block_3
340
0
102
{BLKREFS
331
9F
102
}
 70
     0
280
     1
281
     0
  0
BLOCK_RECORD
  5
BE
330
1
100
AcDbSymbolTableRecord
100
AcDbBlockTableRecord
  2
Block_4
340
0
102
{BLKREFS
331
BF
102
}
 70
     0
280
     1
281
     0
  0
BLOCK_RECORD
  5
CB
330
1
100
AcDbSymbolTableRecord
100
AcDbBlockTableRecord
  2
Block_5
340
0
102
{BLKREFS
331
CC
102
}
 70
     0
280
     1
281
     0
  0
ENDTAB
  0
ENDSEC
  0
SECTION
  2
BLOCKS
  0
BLOCK
  5
71
330
70
100
AcDbEntity
  8
0
100
AcDbBlockBegin
  2
*Model_Space
 70
     0
 10
0.0
 20
0.0
 30
0.0
  3
*Model_Space
  1

  0
ENDBLK
  5
72
330
70
100
AcDbEntity
  8
0
100
AcDbBlockEnd
  0
BLOCK
  5
6D
330
6C
100
AcDbEntity
 67
     1
  8
0
100
AcDbBlockBegin
  2
*Paper_Space
 70
     0
 10
0.0
 20
0.0
 30
0.0
  3
*Paper_Space
  1

  0
ENDBLK
  5
6E
330
6C
100
AcDbEntity
 67
     1
  8
0
100
AcDbBlockEnd
  0
BLOCK
  5
75
330
74
100
AcDbEntity
 67
     1
  8
0
100
AcDbBlockBegin
  2
*Paper_Space0
 70
     0
 10
0.0
 20
0.0
 30
0.0
  3
*Paper_Space0
  1

  0
ENDBLK
  5
76
330
74
100
AcDbEntity
 67
     1
  8
0
100
AcDbBlockEnd
  0
BLOCK
  5
8E
330
8C
100
AcDbEntity
  8
0
100
AcDbBlockBegin
  2
Block_0
 70
     0
 10
0.0
 20
0.0
 30
0.0
  3
Block_0
  1

  0
ELLIPSE
  5
90
330
8C
100
AcDbEntity
  8
Layer 1
100
AcDbEllipse
 10
574.6093692907615
 20
-109.1052696741121
 30
0.0
 11
0.0000000000000001
 21
1.712765957449871
 31
0.0
210
0.0
220
0.0
230
1.0
 40
0.8963517381743118
 41
0.0
 42
6.283185307179586
  0
HATCH
  5
91
330
8C
100
AcDbEntity
  8
Layer 1
 62
    18
420
        0
440
 33554687
100
AcDbHatch
 10
0.0
 20
0.0
 30
0.0
210
0.0
220
0.0
230
1.0
  2
SOLID
 70
     1
 71
     1
 91
        1
 92
        1
 93
        1
 72
     3
 10
574.6093692907615
 20
-109.1052696741121
 11
0.0000000000000001
 21
1.712765957449871
 40
0.8963517381743118
 50
0.0
 51
360.0
 73
     1
 97
        1
330
90
 75
     2
 76
     1
 98
        1
 10
0.0
 20
0.0
450
        0
451
        0
460
0.0
461
0.0
452
        0
462
0.0
453
        0
470

  0
INSERT
  5
93
330
8C
100
AcDbEntity
  8
Layer 1
100
AcDbBlockReference
  2
Block_1
 10
0.0
 20
0.0
 30
0.0
  0
ENDBLK
  5
8F
330
8C
100
AcDbEntity
  8
0
100
AcDbBlockEnd
  0
BLOCK
  5
94
330
92
100
AcDbEntity
  8
0
100
AcDbBlockBegin
  2
Block_1
 70
     0
 10
0.0
 20
0.0
 30
0.0
  3
Block_1
  1

  0
LWPOLYLINE
  5
96
330
92
100
AcDbEntity
  8
Layer 1
 62
    18
420
        0
370
    35
100
AcDbPolyline
 90
        3
 70
     0
 43
0.0
 10
569.6560530208789
 20
-104.3050738497177
 10
574.6093692907615
 20
-109.2297852979418
 10
566.736532916695
 20
-113.3374128713503
  0
LINE
  5
97
330
92
100
AcDbEntity
  8
Layer 1
 62
    18
420
        0
370
    35
100
AcDbLine
 10
566.529991991958
 20
-108.3574751811166
 30
0.0
 11
574.6093692907615
 21
-109.2297852979418
 31
0.0
  0
ENDBLK
  5
95
330
92
100
AcDbEntity
  8
0
100
AcDbBlockEnd
  0
BLOCK
  5
9A
330
98
100
AcDbEntity
  8
0
100
AcDbBlockBegin
  2
Block_2
 70
     0
 10
0.0
 20
0.0
 30
0.0
  3
Block_2
  1

  0
ELLIPSE
  5
9C
330
98
100
AcDbEntity
  8
Layer 1
100
AcDbEllipse
 10
418.046744459446
 20
-159.3063125529488
 30
0.0
 11
0.0000000000000001
 21
1.712765957449903
 31
0.0
210
0.0
220
0.0
230
1.0
 40
0.896351738175236
 41
0.0
 42
6.283185307179586
  0
HATCH
  5
9D
330
98
100
AcDbEntity
  8
Layer 1
 62
    18
420
        0
440
 33554687
100
AcDbHatch
 10
0.0
 20
0.0
 30
0.0
210
0.0
220
0.0
230
1.0
  2
SOLID
 70
     1
 71
     1
 91
        1
 92
        1
 93
        1
 72
     3
 10
418.046744459446
 20
-159.3063125529488
 11
0.0000000000000001
 21
1.712765957449903
 40
0.896351738175236
 50
0.0
 51
360.0
 73
     1
 97
        1
330
9C
 75
     2
 76
     1
 98
        1
 10
0.0
 20
0.0
450
        0
451
        0
460
0.0
461
0.0
452
        0
462
0.0
453
        0
470

  0
INSERT
  5
9F
330
98
100
AcDbEntity
  8
Layer 1
100
AcDbBlockReference
  2
Block_3
 10
0.0
 20
0.0
 30
0.0
  0
ENDBLK
  5
9B
330
98
100
AcDbEntity
  8
0
100
AcDbBlockEnd
  0
BLOCK
  5
A0
330
9E
100
AcDbEntity
  8
0
100
AcDbBlockBegin
  2
Block_3
 70
     0
 10
0.0
 20
0.0
 30
0.0
  3
Block_3
  1

  0
LWPOLYLINE
  5
A2
330
9E
100
AcDbEntity
  8
Layer 1
 62
    18
420
        0
370
    35
100
AcDbPolyline
 90
        3
 70
     0
 43
0.0
 10
420.2042139576096
 20
-152.3935623846564
 10
417.9431029105708
 20
-159.3525161582156
 10
411.6027394783505
 20
-152.7205862940873
  0
LINE
  5
A3
330
9E
100
AcDbEntity
  8
Layer 1
 62
    18
420
        0
370
    35
100
AcDbLine
 10
415.6711889193521
 20
-150.6587239770442
 30
0.0
 11
417.9431029105708
 21
-159.3525161582156
 31
0.0
  0
ENDBLK
  5
A1
330
9E
100
AcDbEntity
  8
0
100
AcDbBlockEnd
  0
BLOCK
  5
C0
330
BE
100
AcDbEntity
  8
0
100
AcDbBlockBegin
  2
Block_4
 70
     0
 10
0.0
 20
0.0
 30
0.0
  3
Block_4
  1

  0
SPLINE
  5
C2
330
BE
100
AcDbEntity
  8
Layer 1
100
AcDbSpline
210
0.0
220
0.0
230
1.0
 70
     9
 71
     3
 72
    17
 73
    13
 74
     0
 42
0.0000000001
 43
0.0000000001
 40
0.0
 40
0.0
 40
0.0
 40
0.0
 40
1.0
 40
1.0
 40
1.0
 40
2.0
 40
2.0
 40
2.0
 40
3.0
 40
3.0
 40
3.0
 40
4.0
 40
4.0
 40
4.0
 40
4.0
 10
569.0348449801949
 20
-76.22859035919282
 30
0.0
 10
568.3160949801949
 20
-74.78913723419282
 30
0.0
 10
568.796563730195
 20
-73.25056301544282
 30
0.0
 10
570.155938730195
 20
-72.57087551544282
 30
0.0
 10
571.5953918551949
 20
-71.85114895294282
 30
0.0
 10
573.0348449801949
 20
-72.43122707794282
 30
0.0
 10
573.7545715426949
 20
-73.87068020294282
 30
0.0
 10
574.4547668551949
 20
-75.27107082794282
 30
0.0
 10
574.073907480195
 20
-76.81013332794282
 30
0.0
 10
572.634454355195
 20
-77.52985989044282
 30
0.0
 10
571.234063730195
 20
-78.22907864044282
 30
0.0
 10
569.7350402926949
 20
-77.62898098419282
 30
0.0
 10
569.0348449801949
 20
-76.22859035919282
 30
0.0
  0
SPLINE
  5
C3
330
BE
100
AcDbEntity
  8
Layer 1
100
AcDbSpline
210
0.0
220
0.0
230
1.0
 70
    11
 71
     3
 72
    17
 73
    13
 74
     0
 42
0.0000000001
 43
0.0000000001
 40
0.0
 40
0.0
 40
0.0
 40
0.0
 40
1.0
 40
1.0
 40
1.0
 40
2.0
 40
2.0
 40
2.0
 40
3.0
 40
3.0
 40
3.0
 40
4.0
 40
4.0
 40
4.0
 40
4.0
 10
567.177423105195
 20
-70.01032864044282
 30
0.0
 10
567.177423105195
 20
-70.01032864044282
 30
0.0
 10
557.025079355195
 20
-51.09235989044282
 30
0.0
 10
557.025079355195
 20
-51.09235989044282
 30
0.0
 10
557.025079355195
 20
-51.09235989044282
 30
0.0
 10
560.8639465426949
 20
-49.17439114044282
 30
0.0
 10
560.8639465426949
 20
-49.17439114044282
 30
0.0
 10
560.8639465426949
 20
-49.17439114044282
 30
0.0
 10
569.896173105195
 20
-68.65095364044282
 30
0.0
 10
569.896173105195
 20
-68.65095364044282
 30
0.0
 10
569.896173105195
 20
-68.65095364044282
 30
0.0
 10
567.177423105195
 20
-70.01032864044282
 30
0.0
 10
567.177423105195
 20
-70.01032864044282
 30
0.0
  0
HATCH
  5
C4
330
BE
100
AcDbEntity
  8
Layer 1
 62
    18
420
        0
440
 33554687
100
AcDbHatch
 10
0.0
 20
0.0
 30
0.0
210
0.0
220
0.0
230
1.0
  2
SOLID
 70
     1
 71
     1
 91
        2
 92
        1
 93
        1
 72
     4
 94
        3
 73
     0
 74
     0
 95
       17
 96
       13
 40
0.0
 40
0.0
 40
0.0
 40
0.0
 40
1.0
 40
1.0
 40
1.0
 40
2.0
 40
2.0
 40
2.0
 40
3.0
 40
3.0
 40
3.0
 40
4.0
 40
4.0
 40
4.0
 40
4.0
 10
569.0348449801949
 20
-76.22859035919282
 10
568.3160949801949
 20
-74.78913723419282
 10
568.796563730195
 20
-73.25056301544282
 10
570.155938730195
 20
-72.57087551544282
 10
571.5953918551949
 20
-71.85114895294282
 10
573.0348449801949
 20
-72.43122707794282
 10
573.7545715426949
 20
-73.87068020294282
 10
574.4547668551949
 20
-75.27107082794282
 10
574.073907480195
 20
-76.81013332794282
 10
572.634454355195
 20
-77.52985989044282
 10
571.234063730195
 20
-78.22907864044282
 10
569.7350402926949
 20
-77.62898098419282
 10
569.0348449801949
 20
-76.22859035919282
 97
        0
 97
        1
330
C2
 92
        1
 93
        1
 72
     4
 94
        3
 73
     0
 74
     0
 95
       17
 96
       13
 40
0.0
 40
0.0
 40
0.0
 40
0.0
 40
1.0
 40
1.0
 40
1.0
 40
2.0
 40
2.0
 40
2.0
 40
3.0
 40
3.0
 40
3.0
 40
4.0
 40
4.0
 40
4.0
 40
4.0
 10
567.177423105195
 20
-70.01032864044282
 10
567.177423105195
 20
-70.01032864044282
 10
557.025079355195
 20
-51.09235989044282
 10
557.025079355195
 20
-51.09235989044282
 10
557.025079355195
 20
-51.09235989044282
 10
560.8639465426949
 20
-49.17439114044282
 10
560.8639465426949
 20
-49.17439114044282
 10
560.8639465426949
 20
-49.17439114044282
 10
569.896173105195
 20
-68.65095364044282
 10
569.896173105195
 20
-68.65095364044282
 10
569.896173105195
 20
-68.65095364044282
 10
567.177423105195
 20
-70.01032864044282
 10
567.177423105195
 20
-70.01032864044282
 97
        0
 97
        1
330
C3
 75
     2
 76
     1
 98
        1
 10
0.0
 20
0.0
450
        0
451
        0
460
0.0
461
0.0
452
        0
462
0.0
453
        0
470

  0
SPLINE
  5
C5
330
BE
100
AcDbEntity
  8
Layer 1
100
AcDbSpline
210
0.0
220
0.0
230
1.0
 70
     9
 71
     3
 72
    17
 73
    13
 74
     0
 42
0.0000000001
 43
0.0000000001
 40
0.0
 40
0.0
 40
0.0
 40
0.0
 40
1.0
 40
1.0
 40
1.0
 40
2.0
 40
2.0
 40
2.0
 40
3.0
 40
3.0
 40
3.0
 40
4.0
 40
4.0
 40
4.0
 40
4.0
 10
578.2340637301949
 20
-71.63239895294282
 30
0.0
 10
577.5143371676949
 20
-70.19294582794282
 30
0.0
 10
577.9948059176949
 20
-68.65388332794282
 30
0.0
 10
579.3551574801949
 20
-67.97419582794282
 30
0.0
 10
580.7946106051949
 20
-67.25495754669282
 30
0.0
 10
582.2340637301949
 20
-67.83454739044282
 30
0.0
 10
582.952813730195
 20
-69.27400051544282
 30
0.0
 10
583.653009042695
 20
-70.67439114044282
 30
0.0
 10
583.2731262301949
 20
-72.21394192169282
 30
0.0
 10
581.833673105195
 20
-72.93318020294282
 30
0.0
 10
580.4332824801949
 20
-73.63239895294282
 30
0.0
 10
578.933282480195
 20
-73.03278957794282
 30
0.0
 10
578.2340637301949
 20
-71.63239895294282
 30
0.0
  0
SPLINE
  5
C6
330
BE
100
AcDbEntity
  8
Layer 1
100
AcDbSpline
210
0.0
220
0.0
230
1.0
 70
    11
 71
     3
 72
    17
 73
    13
 74
     0
 42
0.0000000001
 43
0.0000000001
 40
0.0
 40
0.0
 40
0.0
 40
0.0
 40
1.0
 40
1.0
 40
1.0
 40
2.0
 40
2.0
 40
2.0
 40
3.0
 40
3.0
 40
3.0
 40
4.0
 40
4.0
 40
4.0
 40
4.0
 10
576.3756652926949
 20
-65.41364895294282
 30
0.0
 10
576.3756652926949
 20
-65.41364895294282
 30
0.0
 10
566.2233215426949
 20
-46.49616848419282
 30
0.0
 10
566.2233215426949
 20
-46.49616848419282
 30
0.0
 10
566.2233215426949
 20
-46.49616848419282
 30
0.0
 10
570.063165292695
 20
-44.57771145294282
 30
0.0
 10
570.063165292695
 20
-44.57771145294282
 30
0.0
 10
570.063165292695
 20
-44.57771145294282
 30
0.0
 10
579.095391855195
 20
-64.05476223419282
 30
0.0
 10
579.095391855195
 20
-64.05476223419282
 30
0.0
 10
579.095391855195
 20
-64.05476223419282
 30
0.0
 10
576.3756652926949
 20
-65.41364895294282
 30
0.0
 10
576.3756652926949
 20
-65.41364895294282
 30
0.0
  0
HATCH
  5
C7
330
BE
100
AcDbEntity
  8
Layer 1
 62
    18
420
        0
440
 33554687
100
AcDbHatch
 10
0.0
 20
0.0
 30
0.0
210
0.0
220
0.0
230
1.0
  2
SOLID
 70
     1
 71
     1
 91
        2
 92
        1
 93
        1
 72
     4
 94
        3
 73
     0
 74
     0
 95
       17
 96
       13
 40
0.0
 40
0.0
 40
0.0
 40
0.0
 40
1.0
 40
1.0
 40
1.0
 40
2.0
 40
2.0
 40
2.0
 40
3.0
 40
3.0
 40
3.0
 40
4.0
 40
4.0
 40
4.0
 40
4.0
 10
578.2340637301949
 20
-71.63239895294282
 10
577.5143371676949
 20
-70.19294582794282
 10
577.9948059176949
 20
-68.65388332794282
 10
579.3551574801949
 20
-67.97419582794282
 10
580.7946106051949
 20
-67.25495754669282
 10
582.2340637301949
 20
-67.83454739044282
 10
582.952813730195
 20
-69.27400051544282
 10
583.653009042695
 20
-70.67439114044282
 10
583.2731262301949
 20
-72.21394192169282
 10
581.833673105195
 20
-72.93318020294282
 10
580.4332824801949
 20
-73.63239895294282
 10
578.933282480195
 20
-73.03278957794282
 10
578.2340637301949
 20
-71.63239895294282
 97
        0
 97
        1
330
C5
 92
        1
 93
        1
 72
     4
 94
        3
 73
     0
 74
     0
 95
       17
 96
       13
 40
0.0
 40
0.0
 40
0.0
 40
0.0
 40
1.0
 40
1.0
 40
1.0
 40
2.0
 40
2.0
 40
2.0
 40
3.0
 40
3.0
 40
3.0
 40
4.0
 40
4.0
 40
4.0
 40
4.0
 10
576.3756652926949
 20
-65.41364895294282
 10
576.3756652926949
 20
-65.41364895294282
 10
566.2233215426949
 20
-46.49616848419282
 10
566.2233215426949
 20
-46.49616848419282
 10
566.2233215426949
 20
-46.49616848419282
 10
570.063165292695
 20
-44.57771145294282
 10
570.063165292695
 20
-44.57771145294282
 10
570.063165292695
 20
-44.57771145294282
 10
579.095391855195
 20
-64.05476223419282
 10
579.095391855195
 20
-64.05476223419282
 10
579.095391855195
 20
-64.05476223419282
 10
576.3756652926949
 20
-65.41364895294282
 10
576.3756652926949
 20
-65.41364895294282
 97
        0
 97
        1
330
C6
 75
     2
 76
     1
 98
        1
 10
0.0
 20
0.0
450
        0
451
        0
460
0.0
461
0.0
452
        0
462
0.0
453
        0
470

  0
SPLINE
  5
C8
330
BE
100
AcDbEntity
  8
Layer 1
100
AcDbSpline
210
0.0
220
0.0
230
1.0
 70
     9
 71
     3
 72
    17
 73
    13
 74
     0
 42
0.0000000001
 43
0.0000000001
 40
0.0
 40
0.0
 40
0.0
 40
0.0
 40
1.0
 40
1.0
 40
1.0
 40
2.0
 40
2.0
 40
2.0
 40
3.0
 40
3.0
 40
3.0
 40
4.0
 40
4.0
 40
4.0
 40
4.0
 10
589.9528137301949
 20
-65.77693020294282
 30
0.0
 10
589.2125793551949
 20
-64.29694973419282
 30
0.0
 10
589.6940246676949
 20
-62.75739895294282
 30
0.0
 10
591.0934387301949
 20
-62.05818020294282
 30
0.0
 10
592.4928527926949
 20
-61.35896145294282
 30
0.0
 10
593.972344980195
 20
-61.91902004669282
 30
0.0
 10
594.7116027926949
 20
-63.39900051544282
 30
0.0
 10
595.411798105195
 20
-64.79939114044282
 30
0.0
 10
595.0309387301949
 20
-66.33845364044282
 30
0.0
 10
593.5514465426949
 20
-67.07771145294282
 30
0.0
 10
592.1520324801949
 20
-67.77693020294282
 30
0.0
 10
590.652032480195
 20
-67.17732082794282
 30
0.0
 10
589.9528137301949
 20
-65.77693020294282
 30
0.0
  0
SPLINE
  5
C9
330
BE
100
AcDbEntity
  8
Layer 1
100
AcDbSpline
210
0.0
220
0.0
230
1.0
 70
    11
 71
     3
 72
    41
 73
    37
 74
     0
 42
0.0000000001
 43
0.0000000001
 40
0.0
 40
0.0
 40
0.0
 40
0.0
 40
1.0
 40
1.0
 40
1.0
 40
2.0
 40
2.0
 40
2.0
 40
3.0
 40
3.0
 40
3.0
 40
4.0
 40
4.0
 40
4.0
 40
5.0
 40
5.0
 40
5.0
 40
6.0
 40
6.0
 40
6.0
 40
7.0
 40
7.0
 40
7.0
 40
8.0
 40
8.0
 40
8.0
 40
9.0
 40
9.0
 40
9.0
 40
10.0
 40
10.0
 40
10.0
 40
11.0
 40
11.0
 40
11.0
 40
12.0
 40
12.0
 40
12.0
 40
12.0
 10
588.034844980195
 20
-59.73884426544282
 30
0.0
 10
588.034844980195
 20
-59.73884426544282
 30
0.0
 10
587.4352356051949
 20
-58.73786770294282
 30
0.0
 10
587.4352356051949
 20
-58.73786770294282
 30
0.0
 10
586.1158996676949
 20
-56.69831692169282
 30
0.0
 10
585.6569152926949
 20
-53.97907864044282
 30
0.0
 10
586.4576965426949
 20
-50.58015285919282
 30
0.0
 10
587.1979309176949
 20
-47.56208645294282
 30
0.0
 10
587.4186340426949
 20
-45.50202785919282
 30
0.0
 10
586.5192199801949
 20
-43.70222317169282
 30
0.0
 10
585.500665292695
 20
-41.66218410919282
 30
0.0
 10
583.5407043551949
 20
-40.94294582794282
 30
0.0
 10
581.000665292695
 20
-42.16169582794282
 30
0.0
 10
579.5612121676949
 20
-42.88093410919282
 30
0.0
 10
578.200860605195
 20
-44.16023098419282
 30
0.0
 10
577.581719980195
 20
-45.41950832794282
 30
0.0
 10
577.581719980195
 20
-45.41950832794282
 30
0.0
 10
575.3629699801949
 20
-43.37946926544282
 30
0.0
 10
575.3629699801949
 20
-43.37946926544282
 30
0.0
 10
576.202813730195
 20
-41.75984035919282
 30
0.0
 10
578.1627746676949
 20
-39.98152004669282
 30
0.0
 10
580.2828918551949
 20
-38.92194973419282
 30
0.0
 10
584.881524667695
 20
-36.62458645294282
 30
0.0
 10
588.380548105195
 20
-38.42439114044282
 30
0.0
 10
589.899102792695
 20
-41.46443020294282
 30
0.0
 10
591.257501230195
 20
-44.18415676544282
 30
0.0
 10
590.716485605195
 20
-46.90290676544282
 30
0.0
 10
589.9371887301949
 20
-50.14216457794282
 30
0.0
 10
589.215509042695
 20
-53.10017239044282
 30
0.0
 10
589.454766855195
 20
-55.18025051544282
 30
0.0
 10
590.594415292695
 20
-57.15974270294282
 30
0.0
 10
590.594415292695
 20
-57.15974270294282
 30
0.0
 10
591.1539856051949
 20
-58.18025051544282
 30
0.0
 10
591.1539856051949
 20
-58.18025051544282
 30
0.0
 10
591.1539856051949
 20
-58.18025051544282
 30
0.0
 10
588.034844980195
 20
-59.73884426544282
 30
0.0
 10
588.034844980195
 20
-59.73884426544282
 30
0.0
  0
HATCH
  5
CA
330
BE
100
AcDbEntity
  8
Layer 1
 62
    18
420
        0
440
 33554687
100
AcDbHatch
 10
0.0
 20
0.0
 30
0.0
210
0.0
220
0.0
230
1.0
  2
SOLID
 70
     1
 71
     1
 91
        2
 92
        1
 93
        1
 72
     4
 94
        3
 73
     0
 74
     0
 95
       17
 96
       13
 40
0.0
 40
0.0
 40
0.0
 40
0.0
 40
1.0
 40
1.0
 40
1.0
 40
2.0
 40
2.0
 40
2.0
 40
3.0
 40
3.0
 40
3.0
 40
4.0
 40
4.0
 40
4.0
 40
4.0
 10
589.9528137301949
 20
-65.77693020294282
 10
589.2125793551949
 20
-64.29694973419282
 10
589.6940246676949
 20
-62.75739895294282
 10
591.0934387301949
 20
-62.05818020294282
 10
592.4928527926949
 20
-61.35896145294282
 10
593.972344980195
 20
-61.91902004669282
 10
594.7116027926949
 20
-63.39900051544282
 10
595.411798105195
 20
-64.79939114044282
 10
595.0309387301949
 20
-66.33845364044282
 10
593.5514465426949
 20
-67.07771145294282
 10
592.1520324801949
 20
-67.77693020294282
 10
590.652032480195
 20
-67.17732082794282
 10
589.9528137301949
 20
-65.77693020294282
 97
        0
 97
        1
330
C8
 92
        1
 93
        1
 72
     4
 94
        3
 73
     0
 74
     0
 95
       41
 96
       37
 40
0.0
 40
0.0
 40
0.0
 40
0.0
 40
1.0
 40
1.0
 40
1.0
 40
2.0
 40
2.0
 40
2.0
 40
3.0
 40
3.0
 40
3.0
 40
4.0
 40
4.0
 40
4.0
 40
5.0
 40
5.0
 40
5.0
 40
6.0
 40
6.0
 40
6.0
 40
7.0
 40
7.0
 40
7.0
 40
8.0
 40
8.0
 40
8.0
 40
9.0
 40
9.0
 40
9.0
 40
10.0
 40
10.0
 40
10.0
 40
11.0
 40
11.0
 40
11.0
 40
12.0
 40
12.0
 40
12.0
 40
12.0
 10
588.034844980195
 20
-59.73884426544282
 10
588.034844980195
 20
-59.73884426544282
 10
587.4352356051949
 20
-58.73786770294282
 10
587.4352356051949
 20
-58.73786770294282
 10
586.1158996676949
 20
-56.69831692169282
 10
585.6569152926949
 20
-53.97907864044282
 10
586.4576965426949
 20
-50.58015285919282
 10
587.1979309176949
 20
-47.56208645294282
 10
587.4186340426949
 20
-45.50202785919282
 10
586.5192199801949
 20
-43.70222317169282
 10
585.500665292695
 20
-41.66218410919282
 10
583.5407043551949
 20
-40.94294582794282
 10
581.000665292695
 20
-42.16169582794282
 10
579.5612121676949
 20
-42.88093410919282
 10
578.200860605195
 20
-44.16023098419282
 10
577.581719980195
 20
-45.41950832794282
 10
577.581719980195
 20
-45.41950832794282
 10
575.3629699801949
 20
-43.37946926544282
 10
575.3629699801949
 20
-43.37946926544282
 10
576.202813730195
 20
-41.75984035919282
 10
578.1627746676949
 20
-39.98152004669282
 10
580.2828918551949
 20
-38.92194973419282
 10
584.881524667695
 20
-36.62458645294282
 10
588.380548105195
 20
-38.42439114044282
 10
589.899102792695
 20
-41.46443020294282
 10
591.257501230195
 20
-44.18415676544282
 10
590.716485605195
 20
-46.90290676544282
 10
589.9371887301949
 20
-50.14216457794282
 10
589.215509042695
 20
-53.10017239044282
 10
589.454766855195
 20
-55.18025051544282
 10
590.594415292695
 20
-57.15974270294282
 10
590.594415292695
 20
-57.15974270294282
 10
591.1539856051949
 20
-58.18025051544282
 10
591.1539856051949
 20
-58.18025051544282
 10
591.1539856051949
 20
-58.18025051544282
 10
588.034844980195
 20
-59.73884426544282
 10
588.034844980195
 20
-59.73884426544282
 97
        0
 97
        1
330
C9
 75
     2
 76
     1
 98
        1
 10
0.0
 20
0.0
450
        0
451
        0
460
0.0
461
0.0
452
        0
462
0.0
453
        0
470

  0
ENDBLK
  5
C1
330
BE
100
AcDbEntity
  8
0
100
AcDbBlockEnd
  0
BLOCK
  5
CD
330
CB
100
AcDbEntity
  8
0
100
AcDbBlockBegin
  2
Block_5
 70
     0
 10
0.0
 20
0.0
 30
0.0
  3
Block_5
  1

  0
SPLINE
  5
CF
330
CB
100
AcDbEntity
  8
Layer 1
100
AcDbSpline
210
0.0
220
0.0
230
1.0
 70
     9
 71
     3
 72
    17
 73
    13
 74
     0
 42
0.0000000001
 43
0.0000000001
 40
0.0
 40
0.0
 40
0.0
 40
0.0
 40
1.0
 40
1.0
 40
1.0
 40
2.0
 40
2.0
 40
2.0
 40
3.0
 40
3.0
 40
3.0
 40
4.0
 40
4.0
 40
4.0
 40
4.0
 10
939.3523482538276
 20
-501.0717281041161
 30
0.0
 10
938.6130904413276
 20
-499.5912593541161
 30
0.0
 10
939.0935591913276
 20
-498.0521968541161
 30
0.0
 10
940.4939498163276
 20
-497.3529781041161
 30
0.0
 10
941.8933638788276
 20
-496.653759354116
 30
0.0
 10
943.3728560663276
 20
-497.2133296666161
 30
0.0
 10
944.1121138788275
 20
-498.6933101353661
 30
0.0
 10
944.8113326288275
 20
-500.0937007603661
 30
0.0
 10
944.4314498163276
 20
-501.6332515416161
 30
0.0
 10
942.9519576288276
 20
-502.3725093541161
 30
0.0
 10
941.5515670038276
 20
-503.0717281041161
 30
0.0
 10
940.0525435663276
 20
-502.4721187291161
 30
0.0
 10
939.3523482538276
 20
-501.0717281041161
 30
0.0
  0
SPLINE
  5
D0
330
CB
100
AcDbEntity
  8
Layer 1
100
AcDbSpline
210
0.0
220
0.0
230
1.0
 70
    11
 71
     3
 72
    41
 73
    37
 74
     0
 42
0.0000000001
 43
0.0000000001
 40
0.0
 40
0.0
 40
0.0
 40
0.0
 40
1.0
 40
1.0
 40
1.0
 40
2.0
 40
2.0
 40
2.0
 40
3.0
 40
3.0
 40
3.0
 40
4.0
 40
4.0
 40
4.0
 40
5.0
 40
5.0
 40
5.0
 40
6.0
 40
6.0
 40
6.0
 40
7.0
 40
7.0
 40
7.0
 40
8.0
 40
8.0
 40
8.0
 40
9.0
 40
9.0
 40
9.0
 40
10.0
 40
10.0
 40
10.0
 40
11.0
 40
11.0
 40
11.0
 40
12.0
 40
12.0
 40
12.0
 40
12.0
 10
937.4343795038276
 20
-495.0331538853661
 30
0.0
 10
937.4343795038276
 20
-495.0331538853661
 30
0.0
 10
936.8357466913275
 20
-494.0326656041161
 30
0.0
 10
936.8357466913275
 20
-494.0326656041161
 30
0.0
 10
935.5164107538275
 20
-491.9926265416161
 30
0.0
 10
935.0574263788276
 20
-489.2738765416161
 30
0.0
 10
935.8572310663275
 20
-485.8744624791161
 30
0.0
 10
936.5984420038275
 20
-482.8563960728661
 30
0.0
 10
936.8191451288275
 20
-480.7963374791161
 30
0.0
 10
935.9197310663276
 20
-478.9965327916161
 30
0.0
 10
934.9001998163275
 20
-476.9564937291161
 30
0.0
 10
932.9412154413276
 20
-476.2372554478661
 30
0.0
 10
930.4011763788276
 20
-477.4560054478661
 30
0.0
 10
928.9617232538276
 20
-478.1752437291161
 30
0.0
 10
927.6013716913276
 20
-479.454540604116
 30
0.0
 10
926.9822310663275
 20
-480.7138179478661
 30
0.0
 10
926.9822310663275
 20
-480.7138179478661
 30
0.0
 10
924.7625045038276
 20
-478.6742671666161
 30
0.0
 10
924.7625045038276
 20
-478.6742671666161
 30
0.0
 10
925.6033248163275
 20
-477.0541499791161
 30
0.0
 10
927.5623091913276
 20
-475.2758296666161
 30
0.0
 10
929.6834029413275
 20
-474.2162593541161
 30
0.0
 10
934.2810591913275
 20
-471.918407791616
 30
0.0
 10
937.7800826288275
 20
-473.7187007603661
 30
0.0
 10
939.2996138788275
 20
-476.7587398228661
 30
0.0
 10
940.6580123163276
 20
-479.478466385366
 30
0.0
 10
940.1169966913275
 20
-482.1977046666161
 30
0.0
 10
939.3376998163276
 20
-485.435985916616
 30
0.0
 10
938.6160201288275
 20
-488.3949702916161
 30
0.0
 10
938.8562545038276
 20
-490.4750484166161
 30
0.0
 10
939.9939498163275
 20
-492.4540523228661
 30
0.0
 10
939.9939498163275
 20
-492.4540523228661
 30
0.0
 10
940.5544966913275
 20
-493.4745601353661
 30
0.0
 10
940.5544966913275
 20
-493.4745601353661
 30
0.0
 10
940.5544966913275
 20
-493.4745601353661
 30
0.0
 10
937.4343795038276
 20
-495.0331538853661
 30
0.0
 10
937.4343795038276
 20
-495.0331538853661
 30
0.0
  0
HATCH
  5
D1
330
CB
100
AcDbEntity
  8
Layer 1
 62
    18
420
        0
440
 33554687
100
AcDbHatch
 10
0.0
 20
0.0
 30
0.0
210
0.0
220
0.0
230
1.0
  2
SOLID
 70
     1
 71
     1
 91
        2
 92
        1
 93
        1
 72
     4
 94
        3
 73
     0
 74
     0
 95
       17
 96
       13
 40
0.0
 40
0.0
 40
0.0
 40
0.0
 40
1.0
 40
1.0
 40
1.0
 40
2.0
 40
2.0
 40
2.0
 40
3.0
 40
3.0
 40
3.0
 40
4.0
 40
4.0
 40
4.0
 40
4.0
 10
939.3523482538276
 20
-501.0717281041161
 10
938.6130904413276
 20
-499.5912593541161
 10
939.0935591913276
 20
-498.0521968541161
 10
940.4939498163276
 20
-497.3529781041161
 10
941.8933638788276
 20
-496.653759354116
 10
943.3728560663276
 20
-497.2133296666161
 10
944.1121138788275
 20
-498.6933101353661
 10
944.8113326288275
 20
-500.0937007603661
 10
944.4314498163276
 20
-501.6332515416161
 10
942.9519576288276
 20
-502.3725093541161
 10
941.5515670038276
 20
-503.0717281041161
 10
940.0525435663276
 20
-502.4721187291161
 10
939.3523482538276
 20
-501.0717281041161
 97
        0
 97
        1
330
CF
 92
        1
 93
        1
 72
     4
 94
        3
 73
     0
 74
     0
 95
       41
 96
       37
 40
0.0
 40
0.0
 40
0.0
 40
0.0
 40
1.0
 40
1.0
 40
1.0
 40
2.0
 40
2.0
 40
2.0
 40
3.0
 40
3.0
 40
3.0
 40
4.0
 40
4.0
 40
4.0
 40
5.0
 40
5.0
 40
5.0
 40
6.0
 40
6.0
 40
6.0
 40
7.0
 40
7.0
 40
7.0
 40
8.0
 40
8.0
 40
8.0
 40
9.0
 40
9.0
 40
9.0
 40
10.0
 40
10.0
 40
10.0
 40
11.0
 40
11.0
 40
11.0
 40
12.0
 40
12.0
 40
12.0
 40
12.0
 10
937.4343795038276
 20
-495.0331538853661
 10
937.4343795038276
 20
-495.0331538853661
 10
936.8357466913275
 20
-494.0326656041161
 10
936.8357466913275
 20
-494.0326656041161
 10
935.5164107538275
 20
-491.9926265416161
 10
935.0574263788276
 20
-489.2738765416161
 10
935.8572310663275
 20
-485.8744624791161
 10
936.5984420038275
 20
-482.8563960728661
 10
936.8191451288275
 20
-480.7963374791161
 10
935.9197310663276
 20
-478.9965327916161
 10
934.9001998163275
 20
-476.9564937291161
 10
932.9412154413276
 20
-476.2372554478661
 10
930.4011763788276
 20
-477.4560054478661
 10
928.9617232538276
 20
-478.1752437291161
 10
927.6013716913276
 20
-479.454540604116
 10
926.9822310663275
 20
-480.7138179478661
 10
926.9822310663275
 20
-480.7138179478661
 10
924.7625045038276
 20
-478.6742671666161
 10
924.7625045038276
 20
-478.6742671666161
 10
925.6033248163275
 20
-477.0541499791161
 10
927.5623091913276
 20
-475.2758296666161
 10
929.6834029413275
 20
-474.2162593541161
 10
934.2810591913275
 20
-471.918407791616
 10
937.7800826288275
 20
-473.7187007603661
 10
939.2996138788275
 20
-476.7587398228661
 10
940.6580123163276
 20
-479.478466385366
 10
940.1169966913275
 20
-482.1977046666161
 10
939.3376998163276
 20
-485.435985916616
 10
938.6160201288275
 20
-488.3949702916161
 10
938.8562545038276
 20
-490.4750484166161
 10
939.9939498163275
 20
-492.4540523228661
 10
939.9939498163275
 20
-492.4540523228661
 10
940.5544966913275
 20
-493.4745601353661
 10
940.5544966913275
 20
-493.4745601353661
 10
940.5544966913275
 20
-493.4745601353661
 10
937.4343795038276
 20
-495.0331538853661
 10
937.4343795038276
 20
-495.0331538853661
 97
        0
 97
        1
330
D0
 75
     2
 76
     1
 98
        1
 10
0.0
 20
0.0
450
        0
451
        0
460
0.0
461
0.0
452
        0
462
0.0
453
        0
470

  0
SPLINE
  5
D2
330
CB
100
AcDbEntity
  8
Layer 1
100
AcDbSpline
210
0.0
220
0.0
230
1.0
 70
     9
 71
     3
 72
    17
 73
    13
 74
     0
 42
0.0000000001
 43
0.0000000001
 40
0.0
 40
0.0
 40
0.0
 40
0.0
 40
1.0
 40
1.0
 40
1.0
 40
2.0
 40
2.0
 40
2.0
 40
3.0
 40
3.0
 40
3.0
 40
4.0
 40
4.0
 40
4.0
 40
4.0
 10
955.5906295038276
 20
-492.9584468541161
 30
0.0
 10
954.8503951288276
 20
-491.477978104116
 30
0.0
 10
955.3308638788276
 20
-489.9389156041161
 30
0.0
 10
956.7312545038275
 20
-489.2396968541161
 30
0.0
 10
958.1306685663276
 20
-488.540478104116
 30
0.0
 10
959.6101607538276
 20
-489.1000484166161
 30
0.0
 10
960.3494185663276
 20
-490.5800288853661
 30
0.0
 10
961.0496138788276
 20
-491.9804195103661
 30
0.0
 10
960.6687545038276
 20
-493.5199702916161
 30
0.0
 10
959.1882857538276
 20
-494.2592281041161
 30
0.0
 10
957.7898482538275
 20
-494.9584468541161
 30
0.0
 10
956.2898482538276
 20
-494.358837479116
 30
0.0
 10
955.5906295038276
 20
-492.9584468541161
 30
0.0
  0
SPLINE
  5
D3
330
CB
100
AcDbEntity
  8
Layer 1
100
AcDbSpline
210
0.0
220
0.0
230
1.0
 70
    11
 71
     3
 72
    41
 73
    37
 74
     0
 42
0.0000000001
 43
0.0000000001
 40
0.0
 40
0.0
 40
0.0
 40
0.0
 40
1.0
 40
1.0
 40
1.0
 40
2.0
 40
2.0
 40
2.0
 40
3.0
 40
3.0
 40
3.0
 40
4.0
 40
4.0
 40
4.0
 40
5.0
 40
5.0
 40
5.0
 40
6.0
 40
6.0
 40
6.0
 40
7.0
 40
7.0
 40
7.0
 40
8.0
 40
8.0
 40
8.0
 40
9.0
 40
9.0
 40
9.0
 40
10.0
 40
10.0
 40
10.0
 40
11.0
 40
11.0
 40
11.0
 40
12.0
 40
12.0
 40
12.0
 40
12.0
 10
953.6716841913275
 20
-486.9198726353661
 30
0.0
 10
953.6716841913275
 20
-486.9198726353661
 30
0.0
 10
953.0730513788276
 20
-485.9193843541161
 30
0.0
 10
953.0730513788276
 20
-485.9193843541161
 30
0.0
 10
951.7537154413275
 20
-483.8793452916161
 30
0.0
 10
951.2947310663276
 20
-481.1605952916161
 30
0.0
 10
952.0945357538275
 20
-477.7611812291161
 30
0.0
 10
952.8357466913275
 20
-474.7431148228661
 30
0.0
 10
953.0554732538275
 20
-472.6830562291161
 30
0.0
 10
952.1570357538276
 20
-470.8832515416161
 30
0.0
 10
951.1375045038276
 20
-468.8432124791161
 30
0.0
 10
949.1785201288276
 20
-468.1239741978661
 30
0.0
 10
946.6394576288276
 20
-469.3422359166161
 30
0.0
 10
945.1980513788276
 20
-470.0619624791161
 30
0.0
 10
943.8386763788276
 20
-471.3412593541161
 30
0.0
 10
943.2195357538276
 20
-472.6005366978661
 30
0.0
 10
943.2195357538276
 20
-472.6005366978661
 30
0.0
 10
940.9998091913276
 20
-470.5604976353661
 30
0.0
 10
940.9998091913276
 20
-470.5604976353661
 30
0.0
 10
941.8406295038275
 20
-468.9408687291161
 30
0.0
 10
943.7996138788276
 20
-467.1625484166161
 30
0.0
 10
945.9207076288276
 20
-466.1029781041161
 30
0.0
 10
950.5183638788276
 20
-463.805126541616
 30
0.0
 10
954.0173873163276
 20
-465.6054195103661
 30
0.0
 10
955.5359420038275
 20
-468.6454585728661
 30
0.0
 10
956.8953170038275
 20
-471.365185135366
 30
0.0
 10
956.3543013788276
 20
-474.0844234166161
 30
0.0
 10
955.5750045038276
 20
-477.3227046666161
 30
0.0
 10
954.8533248163275
 20
-480.2816890416161
 30
0.0
 10
955.0925826288276
 20
-482.3617671666161
 30
0.0
 10
956.2312545038276
 20
-484.3407710728661
 30
0.0
 10
956.2312545038276
 20
-484.3407710728661
 30
0.0
 10
956.7918013788275
 20
-485.3612788853661
 30
0.0
 10
956.7918013788275
 20
-485.3612788853661
 30
0.0
 10
956.7918013788275
 20
-485.3612788853661
 30
0.0
 10
953.6716841913275
 20
-486.9198726353661
 30
0.0
 10
953.6716841913275
 20
-486.9198726353661
 30
0.0
  0
HATCH
  5
D4
330
CB
100
AcDbEntity
  8
Layer 1
 62
    18
420
        0
440
 33554687
100
AcDbHatch
 10
0.0
 20
0.0
 30
0.0
210
0.0
220
0.0
230
1.0
  2
SOLID
 70
     1
 71
     1
 91
        2
 92
        1
 93
        1
 72
     4
 94
        3
 73
     0
 74
     0
 95
       17
 96
       13
 40
0.0
 40
0.0
 40
0.0
 40
0.0
 40
1.0
 40
1.0
 40
1.0
 40
2.0
 40
2.0
 40
2.0
 40
3.0
 40
3.0
 40
3.0
 40
4.0
 40
4.0
 40
4.0
 40
4.0
 10
955.5906295038276
 20
-492.9584468541161
 10
954.8503951288276
 20
-491.477978104116
 10
955.3308638788276
 20
-489.9389156041161
 10
956.7312545038275
 20
-489.2396968541161
 10
958.1306685663276
 20
-488.540478104116
 10
959.6101607538276
 20
-489.1000484166161
 10
960.3494185663276
 20
-490.5800288853661
 10
961.0496138788276
 20
-491.9804195103661
 10
960.6687545038276
 20
-493.5199702916161
 10
959.1882857538276
 20
-494.2592281041161
 10
957.7898482538275
 20
-494.9584468541161
 10
956.2898482538276
 20
-494.358837479116
 10
955.5906295038276
 20
-492.9584468541161
 97
        0
 97
        1
330
D2
 92
        1
 93
        1
 72
     4
 94
        3
 73
     0
 74
     0
 95
       41
 96
       37
 40
0.0
 40
0.0
 40
0.0
 40
0.0
 40
1.0
 40
1.0
 40
1.0
 40
2.0
 40
2.0
 40
2.0
 40
3.0
 40
3.0
 40
3.0
 40
4.0
 40
4.0
 40
4.0
 40
5.0
 40
5.0
 40
5.0
 40
6.0
 40
6.0
 40
6.0
 40
7.0
 40
7.0
 40
7.0
 40
8.0
 40
8.0
 40
8.0
 40
9.0
 40
9.0
 40
9.0
 40
10.0
 40
10.0
 40
10.0
 40
11.0
 40
11.0
 40
11.0
 40
12.0
 40
12.0
 40
12.0
 40
12.0
 10
953.6716841913275
 20
-486.9198726353661
 10
953.6716841913275
 20
-486.9198726353661
 10
953.0730513788276
 20
-485.9193843541161
 10
953.0730513788276
 20
-485.9193843541161
 10
951.7537154413275
 20
-483.8793452916161
 10
951.2947310663276
 20
-481.1605952916161
 10
952.0945357538275
 20
-477.7611812291161
 10
952.8357466913275
 20
-474.7431148228661
 10
953.0554732538275
 20
-472.6830562291161
 10
952.1570357538276
 20
-470.8832515416161
 10
951.1375045038276
 20
-468.8432124791161
 10
949.1785201288276
 20
-468.1239741978661
 10
946.6394576288276
 20
-469.3422359166161
 10
945.1980513788276
 20
-470.0619624791161
 10
943.8386763788276
 20
-471.3412593541161
 10
943.2195357538276
 20
-472.6005366978661
 10
943.2195357538276
 20
-472.6005366978661
 10
940.9998091913276
 20
-470.5604976353661
 10
940.9998091913276
 20
-470.5604976353661
 10
941.8406295038275
 20
-468.9408687291161
 10
943.7996138788276
 20
-467.1625484166161
 10
945.9207076288276
 20
-466.1029781041161
 10
950.5183638788276
 20
-463.805126541616
 10
954.0173873163276
 20
-465.6054195103661
 10
955.5359420038275
 20
-468.6454585728661
 10
956.8953170038275
 20
-471.365185135366
 10
956.3543013788276
 20
-474.0844234166161
 10
955.5750045038276
 20
-477.3227046666161
 10
954.8533248163275
 20
-480.2816890416161
 10
955.0925826288276
 20
-482.3617671666161
 10
956.2312545038276
 20
-484.3407710728661
 10
956.2312545038276
 20
-484.3407710728661
 10
956.7918013788275
 20
-485.3612788853661
 10
956.7918013788275
 20
-485.3612788853661
 10
956.7918013788275
 20
-485.3612788853661
 10
953.6716841913275
 20
-486.9198726353661
 10
953.6716841913275
 20
-486.9198726353661
 97
        0
 97
        1
330
D3
 75
     2
 76
     1
 98
        1
 10
0.0
 20
0.0
450
        0
451
        0
460
0.0
461
0.0
452
        0
462
0.0
453
        0
470

  0
ENDBLK
  5
CE
330
CB
100
AcDbEntity
  8
0
100
AcDbBlockEnd
  0
ENDSEC
  0
SECTION
  2
ENTITIES
  0
SPLINE
  5
79
330
70
100
AcDbEntity
  8
Layer 1
 62
    18
420
        0
370
    35
100
AcDbSpline
210
0.0
220
0.0
230
1.0
 70
     8
 71
     3
 72
    11
 73
     7
 74
     0
 42
0.0000000001
 43
0.0000000001
 40
0.0
 40
0.0
 40
0.0
 40
0.0
 40
1.0
 40
1.0
 40
1.0
 40
2.0
 40
2.0
 40
2.0
 40
2.0
 10
510.6850306303477
 20
-326.8211841674565
 30
0.0
 10
510.5121612510028
 20
-342.2740694894928
 30
0.0
 10
508.7172453931652
 20
-364.6856621352563
 30
0.0
 10
501.0767436261757
 20
-390.163061463445
 30
0.0
 10
493.5891136999107
 20
-415.130637750095
 30
0.0
 10
483.2169774886515
 20
-433.9411814684135
 30
0.0
 10
475.1611033575772
 20
-446.3197405885257
 30
0.0
  0
SPLINE
  5
7A
330
70
100
AcDbEntity
  8
Layer 1
 62
    18
420
        0
370
    35
100
AcDbSpline
210
0.0
220
0.0
230
1.0
 70
     8
 71
     3
 72
    11
 73
     7
 74
     0
 42
0.0000000001
 43
0.0000000001
 40
0.0
 40
0.0
 40
0.0
 40
0.0
 40
1.0
 40
1.0
 40
1.0
 40
2.0
 40
2.0
 40
2.0
 40
2.0
 10
543.9686354482528
 20
-318.4006500988143
 30
0.0
 10
538.4930336375273
 20
-339.2863922863144
 30
0.0
 10
533.4993084204161
 20
-365.9662934093649
 30
0.0
 10
532.3930930794794
 20
-397.1616669445138
 30
0.0
 10
531.7853858585567
 20
-414.2984467296737
 30
0.0
 10
532.4517410936005
 20
-429.9518280773336
 30
0.0
 10
533.7474683010532
 20
-443.7822724132638
 30
0.0
  0
SPLINE
  5
7B
330
70
100
AcDbEntity
  8
Layer 1
 62
    18
420
        0
370
    35
100
AcDbSpline
210
0.0
220
0.0
230
1.0
 70
     8
 71
     3
 72
    11
 73
     7
 74
     0
 42
0.0000000001
 43
0.0000000001
 40
0.0
 40
0.0
 40
0.0
 40
0.0
 40
1.0
 40
1.0
 40
1.0
 40
2.0
 40
2.0
 40
2.0
 40
2.0
 10
518.509048131591
 20
-161.0190785103978
 30
0.0
 10
505.6005764568562
 20
-190.720311420554
 30
0.0
 10
502.9878949622088
 20
-215.7264454537572
 30
0.0
 10
504.0911560188524
 20
-235.3169605904759
 30
0.0
 10
506.8458072864832
 20
-284.2299244576643
 30
0.0
 10
518.4909502992177
 20
-287.5332432118193
 30
0.0
 10
524.5501326758076
 20
-339.4871616688506
 30
0.0
  0
ELLIPSE
  5
7C
330
70
100
AcDbEntity
  8
Layer 1
 62
    18
420
        0
370
    35
100
AcDbEllipse
 10
524.5501326758066
 20
-117.017949050512
 30
0.0
 11
7.651874363974617
 21
47.33228565233019
 31
0.0
210
0.0
220
0.0
230
1.0
 40
0.8963517381747593
 41
0.0
 42
6.283185307179586
  0
ELLIPSE
  5
7D
330
70
100
AcDbEntity
  8
Layer 1
 62
    18
420
        0
370
    15
100
AcDbEllipse
 10
542.8197552059227
 20
-116.5775210074307
 30
0.0
 11
-12.26571244978549
 21
1.982910593833396
 31
0.0
210
0.0
220
0.0
230
1.0
 40
0.6292601644219702
 41
0.0
 42
6.283185307179586
  0
ELLIPSE
  5
7E
330
70
100
AcDbEntity
  8
Layer 1
 62
    18
420
        0
370
    35
100
AcDbEllipse
 10
527.8305400784566
 20
-317.2147670405993
 30
0.0
 11
0.0000000000000021
 21
34.07747962255939
 31
0.0
210
0.0
220
0.0
230
1.0
 40
0.8963517381747664
 41
0.0
 42
6.283185307179586
  0
ELLIPSE
  5
7F
330
70
100
AcDbEntity
  8
Layer 1
 62
    18
420
        0
370
    35
100
AcDbEllipse
 10
469.5929021010597
 20
-447.6130680788346
 30
0.0
 11
8.284500631423666
 21
3.207231403836484
 31
0.0
210
0.0
220
0.0
230
1.0
 40
0.3973440610291611
 41
0.0
 42
6.283185307179585
  0
ELLIPSE
  5
80
330
70
100
AcDbEntity
  8
Layer 1
 62
    18
420
        0
370
    35
100
AcDbEllipse
 10
527.8305400784557
 20
-446.5834664209751
 30
0.0
 11
8.284500631423304
 21
3.207231403835827
 31
0.0
210
0.0
220
0.0
230
1.0
 40
0.3973440610301481
 41
0.0
 42
6.283185307179585
  0
ELLIPSE
  5
81
330
70
100
AcDbEntity
  8
Layer 1
100
AcDbEllipse
 10
501.4499135713458
 20
-389.8957133935737
 30
0.0
 11
0.0000000000000001
 21
1.712765957454714
 31
0.0
210
0.0
220
0.0
230
1.0
 40
0.8963517381715419
 41
0.0
 42
6.283185307179586
  0
HATCH
  5
82
330
70
100
AcDbEntity
  8
Layer 1
 62
    18
420
        0
440
 33554687
100
AcDbHatch
 10
0.0
 20
0.0
 30
0.0
210
0.0
220
0.0
230
1.0
  2
SOLID
 70
     1
 71
     1
 91
        1
 92
        1
 93
        1
 72
     3
 10
501.4499135713458
 20
-389.8957133935737
 11
0.0000000000000001
 21
1.712765957454714
 40
0.8963517381715419
 50
0.0
 51
360.0
 73
     1
 97
        1
330
81
 75
     2
 76
     1
 98
        1
 10
0.0
 20
0.0
450
        0
451
        0
460
0.0
461
0.0
452
        0
462
0.0
453
        0
470

  0
ELLIPSE
  5
83
330
70
100
AcDbEntity
  8
Layer 1
100
AcDbEllipse
 10
448.5614984374833
 20
-197.412212720109
 30
0.0
 11
0.0000000000000001
 21
1.712765957451911
 31
0.0
210
0.0
220
0.0
230
1.0
 40
0.8963517381724589
 41
0.0
 42
6.283185307179586
  0
HATCH
  5
84
330
70
100
AcDbEntity
  8
Layer 1
 62
    18
420
        0
440
 33554687
100
AcDbHatch
 10
0.0
 20
0.0
 30
0.0
210
0.0
220
0.0
230
1.0
  2
SOLID
 70
     1
 71
     1
 91
        1
 92
        1
 93
        1
 72
     3
 10
448.5614984374833
 20
-197.412212720109
 11
0.0000000000000001
 21
1.712765957451911
 40
0.8963517381724589
 50
0.0
 51
360.0
 73
     1
 97
        1
330
83
 75
     2
 76
     1
 98
        1
 10
0.0
 20
0.0
450
        0
451
        0
460
0.0
461
0.0
452
        0
462
0.0
453
        0
470

  0
ELLIPSE
  5
85
330
70
100
AcDbEntity
  8
Layer 1
100
AcDbEllipse
 10
592.5549599343431
 20
-170.3655681528971
 30
0.0
 11
0.0000000000000001
 21
1.712765957451962
 31
0.0
210
0.0
220
0.0
230
1.0
 40
0.89635173817408
 41
0.0
 42
6.283185307179586
  0
HATCH
  5
86
330
70
100
AcDbEntity
  8
Layer 1
 62
    18
420
        0
440
 33554687
100
AcDbHatch
 10
0.0
 20
0.0
 30
0.0
210
0.0
220
0.0
230
1.0
  2
SOLID
 70
     1
 71
     1
 91
        1
 92
        1
 93
        1
 72
     3
 10
592.5549599343431
 20
-170.3655681528971
 11
0.0000000000000001
 21
1.712765957451962
 40
0.89635173817408
 50
0.0
 51
360.0
 73
     1
 97
        1
330
85
 75
     2
 76
     1
 98
        1
 10
0.0
 20
0.0
450
        0
451
        0
460
0.0
461
0.0
452
        0
462
0.0
453
        0
470

  0
ELLIPSE
  5
87
330
70
100
AcDbEntity
  8
Layer 1
100
AcDbEllipse
 10
532.9787580631427
 20
-394.3108721648459
 30
0.0
 11
0.0000000000000001
 21
1.712765957448786
 31
0.0
210
0.0
220
0.0
230
1.0
 40
0.8963517381758748
 41
0.0
 42
6.283185307179586
  0
HATCH
  5
88
330
70
100
AcDbEntity
  8
Layer 1
 62
    18
420
        0
440
 33554687
100
AcDbHatch
 10
0.0
 20
0.0
 30
0.0
210
0.0
220
0.0
230
1.0
  2
SOLID
 70
     1
 71
     1
 91
        1
 92
        1
 93
        1
 72
     3
 10
532.9787580631427
 20
-394.3108721648459
 11
0.0000000000000001
 21
1.712765957448786
 40
0.8963517381758748
 50
0.0
 51
360.0
 73
     1
 97
        1
330
87
 75
     2
 76
     1
 98
        1
 10
0.0
 20
0.0
450
        0
451
        0
460
0.0
461
0.0
452
        0
462
0.0
453
        0
470

  0
LWPOLYLINE
  5
89
330
70
100
AcDbEntity
  8
Layer 1
 62
    18
420
        0
370
    35
100
AcDbPolyline
 90
        3
 70
     0
 43
0.0
 10
483.4179865831738
 20
-207.9020528503397
 10
448.4089279288618
 20
-198.0200332159429
 10
416.7762836056663
 20
-159.2168294787816
  0
SPLINE
  5
8A
330
70
100
AcDbEntity
  8
Layer 1
 62
    18
420
        0
370
    35
100
AcDbSpline
210
0.0
220
0.0
230
1.0
 70
     9
 71
     3
 72
    26
 73
    22
 74
     0
 42
0.0000000001
 43
0.0000000001
 40
0.0
 40
0.0
 40
0.0
 40
0.0
 40
1.0
 40
1.0
 40
1.0
 40
2.0
 40
2.0
 40
2.0
 40
3.0
 40
3.0
 40
3.0
 40
4.0
 40
4.0
 40
4.0
 40
5.0
 40
5.0
 40
5.0
 40
6.0
 40
6.0
 40
6.0
 40
7.0
 40
7.0
 40
7.0
 40
7.0
 10
555.8951364773511
 20
-199.0738019886657
 30
0.0
 10
559.5647750112057
 20
-207.4609232159319
 30
0.0
 10
535.3333278612572
 20
-243.0849780153685
 30
0.0
 10
506.2003375689037
 20
-240.9578887656599
 30
0.0
 10
481.7785728982325
 20
-239.1747723327708
 30
0.0
 10
468.0288430975833
 20
-211.8937404052767
 30
0.0
 10
466.1623922691269
 20
-199.9344347515934
 30
0.0
 10
465.7328356417511
 20
-197.1819789600331
 30
0.0
 10
464.5739295826406
 20
-189.7563089416353
 30
0.0
 10
468.0052456192115
 20
-186.6440745106965
 30
0.0
 10
470.0061072292647
 20
-184.829278431801
 30
0.0
 10
472.7802356332485
 20
-185.1843007004945
 30
0.0
 10
473.9048432010295
 20
-185.3641432286722
 30
0.0
 10
484.690447532359
 20
-187.0889579706609
 30
0.0
 10
509.1298504251553
 20
-191.0693049166775
 30
0.0
 10
510.8740524233417
 20
-191.3497733190606
 30
0.0
 10
519.6194182464551
 20
-192.7559920184312
 30
0.0
 10
527.7665006910155
 20
-192.7215120260907
 30
0.0
 10
549.3404255319164
 20
-196.1631199858029
 30
0.0
 10
553.0465199538357
 20
-196.7543267709088
 30
0.0
 10
555.0988041647269
 20
-197.253745331237
 30
0.0
 10
555.8951364773511
 20
-199.0738019886657
 30
0.0
  0
LWPOLYLINE
  5
8B
330
70
100
AcDbEntity
  8
Layer 1
 62
    18
420
        0
370
    35
100
AcDbPolyline
 90
        3
 70
     0
 43
0.0
 10
542.8398724272646
 20
-210.1467148123893
 10
592.6519224822532
 20
-170.6428454032766
 10
574.041266687016
 20
-109.1052696741126
  0
INSERT
  5
8D
330
70
100
AcDbEntity
  8
Layer 1
100
AcDbBlockReference
  2
Block_0
 10
0.0
 20
0.0
 30
0.0
  0
INSERT
  5
99
330
70
100
AcDbEntity
  8
Layer 1
100
AcDbBlockReference
  2
Block_2
 10
0.0
 20
0.0
 30
0.0
  0
SPLINE
  5
A4
330
70
100
AcDbEntity
  8
Layer 1
 62
    18
420
        0
370
    35
100
AcDbSpline
210
0.0
220
0.0
230
1.0
 70
     8
 71
     3
 72
    11
 73
     7
 74
     0
 42
0.0000000001
 43
0.0000000001
 40
0.0
 40
0.0
 40
0.0
 40
0.0
 40
1.0
 40
1.0
 40
1.0
 40
2.0
 40
2.0
 40
2.0
 40
2.0
 10
532.1965493821426
 20
-107.7806030582023
 30
0.0
 10
533.8505682891391
 20
-106.9261350012993
 30
0.0
 10
539.1252487687361
 20
-104.476520112913
 30
0.0
 10
545.6988898715553
 20
-105.9977164316324
 30
0.0
 10
552.2582667485312
 20
-107.5156175129241
 30
0.0
 10
556.0086714371228
 20
-112.0378307653709
 30
0.0
 10
557.1529114111672
 20
-113.5393376098973
 30
0.0
  0
ELLIPSE
  5
A5
330
70
100
AcDbEntity
  8
Layer 1
 62
    18
420
        0
370
    15
100
AcDbEllipse
 10
507.6880379598524
 20
-110.8980258625743
 30
0.0
 11
-12.26571244978295
 21
1.982910593831309
 31
0.0
210
0.0
220
0.0
230
1.0
 40
0.6292601644221746
 41
0.0
 42
6.283185307179586
  0
SPLINE
  5
A6
330
70
100
AcDbEntity
  8
Layer 1
 62
    18
420
        0
370
    35
100
AcDbSpline
210
0.0
220
0.0
230
1.0
 70
     8
 71
     3
 72
    11
 73
     7
 74
     0
 42
0.0000000001
 43
0.0000000001
 40
0.0
 40
0.0
 40
0.0
 40
0.0
 40
1.0
 40
1.0
 40
1.0
 40
2.0
 40
2.0
 40
2.0
 40
2.0
 10
497.0648321360731
 20
-102.1011079133468
 30
0.0
 10
498.7188510430696
 20
-101.2466398564438
 30
0.0
 10
503.9935315226666
 20
-98.79702496805748
 30
0.0
 10
510.5671726254858
 20
-100.3182212867768
 30
0.0
 10
517.1265495024617
 20
-101.8361223680686
 30
0.0
 10
520.8769541910533
 20
-106.3583356205154
 30
0.0
 10
522.0211941650977
 20
-107.8598424650417
 30
0.0
  0
SPLINE
  5
A7
330
70
100
AcDbEntity
  8
Layer 1
 62
    18
420
        0
370
    25
100
AcDbSpline
210
0.0
220
0.0
230
1.0
 70
     8
 71
     3
 72
    17
 73
    13
 74
     0
 42
0.0000000001
 43
0.0000000001
 40
0.0
 40
0.0
 40
0.0
 40
0.0
 40
1.0
 40
1.0
 40
1.0
 40
2.0
 40
2.0
 40
2.0
 40
3.0
 40
3.0
 40
3.0
 40
4.0
 40
4.0
 40
4.0
 40
4.0
 10
526.9741622175588
 20
-121.3551480950509
 30
0.0
 10
526.4279331707675
 20
-127.1240176324527
 30
0.0
 10
524.7027893171234
 20
-129.6384962048241
 30
0.0
 10
523.0128048691203
 20
-130.801481414087
 30
0.0
 10
520.3275550019043
 20
-132.6493395926218
 30
0.0
 10
516.9637758970911
 20
-131.9609575124259
 30
0.0
 10
516.7017113036909
 20
-133.2728010016899
 30
0.0
 10
516.5143181402763
 20
-134.2108501279972
 30
0.0
 10
518.1046572401628
 20
-135.3344007386777
 30
0.0
 10
519.2465966943837
 20
-136.1412118867183
 30
0.0
 10
520.7388975227932
 20
-137.1955252262532
 30
0.0
 10
522.173862054753
 20
-137.6909221768956
 30
0.0
 10
523.1862954001171
 20
-137.9419883757573
 30
0.0
  0
SPLINE
  5
A8
330
70
100
AcDbEntity
  8
Layer 1
 62
    18
420
        0
370
    18
100
AcDbSpline
210
0.0
220
0.0
230
1.0
 70
     8
 71
     3
 72
    29
 73
    25
 74
     0
 42
0.0000000001
 43
0.0000000001
 40
0.0
 40
0.0
 40
0.0
 40
0.0
 40
1.0
 40
1.0
 40
1.0
 40
2.0
 40
2.0
 40
2.0
 40
3.0
 40
3.0
 40
3.0
 40
4.0
 40
4.0
 40
4.0
 40
5.0
 40
5.0
 40
5.0
 40
6.0
 40
6.0
 40
6.0
 40
7.0
 40
7.0
 40
7.0
 40
8.0
 40
8.0
 40
8.0
 40
8.0
 10
924.6253226408061
 20
-507.9709101751104
 30
0.0
 10
924.6253226408061
 20
-507.9709101751104
 30
0.0
 10
912.8806417897413
 20
-530.098569749578
 30
0.0
 10
913.5614928535742
 20
-529.9283569836225
 30
0.0
 10
914.2423439174036
 20
-529.7581442176634
 30
0.0
 10
897.2692609657734
 20
-507.9709101751104
 30
0.0
 10
897.2692609657734
 20
-507.9709101751104
 30
0.0
 10
897.2692609657734
 20
-507.9709101751104
 30
0.0
 10
908.1617131233851
 20
-524.3113357070251
 30
0.0
 10
908.1617131233851
 20
-524.3113357070251
 30
0.0
 10
908.1617131233851
 20
-524.3113357070251
 30
0.0
 10
895.9372646055253
 20
-524.3113357070251
 30
0.0
 10
895.9372646055253
 20
-524.3113357070251
 30
0.0
 10
895.9372646055253
 20
-524.3113357070251
 30
0.0
 10
885.6465992365539
 20
-510.3538888985167
 30
0.0
 10
885.6465992365539
 20
-510.3538888985167
 30
0.0
 10
885.6465992365539
 20
-510.3538888985167
 30
0.0
 10
894.6678758322978
 20
-519.8858037921309
 30
0.0
 10
894.6678758322978
 20
-519.8858037921309
 30
0.0
 10
894.6678758322978
 20
-519.8858037921309
 30
0.0
 10
873.9019183854889
 20
-529.9293339685682
 30
0.0
 10
873.9019183854889
 20
-529.9293339685682
 30
0.0
 10
873.9019183854889
 20
-529.9293339685682
 30
0.0
 10
877.9870247684684
 20
-511.8858037921309
 30
0.0
 10
877.9870247684684
 20
-511.8858037921309
 30
0.0
  0
LWPOLYLINE
  5
A9
330
70
100
AcDbEntity
  8
Layer 1
 62
    18
420
        0
370
    30
100
AcDbPolyline
 90
        3
 70
     0
 43
0.0
 10
926.7261404043184
 20
-785.5028683269392
 10
925.4928195463307
 20
-847.890424638348
 10
945.5961171638209
 20
-890.9073888003495
  0
LWPOLYLINE
  5
AA
330
70
100
AcDbEntity
  8
Layer 1
 62
    18
420
        0
370
    30
100
AcDbPolyline
 90
        3
 70
     0
 43
0.0
 10
909.459648392456
 20
-785.5028683269392
 10
895.1760252031254
 20
-847.890424638348
 10
895.2334132936249
 20
-891.9570081181063
  0
LWPOLYLINE
  5
AB
330
70
100
AcDbEntity
  8
Layer 1
 62
    18
420
        0
370
    35
100
AcDbPolyline
 90
        3
 70
     0
 43
0.0
 10
895.6047049412463
 20
-600.8238818898571
 10
902.894193111204
 20
-700.1239556663076
 10
917.52743035606
 20
-747.4449759507897
  0
CIRCLE
  5
AC
330
70
100
AcDbEntity
  8
Layer 1
 62
    18
420
        0
370
    35
100
AcDbCircle
 10
897.4573476693313
 20
-565.8752912151776
 30
0.0
 40
47.94680851063912
  0
CIRCLE
  5
AD
330
70
100
AcDbEntity
  8
Layer 1
 62
    18
420
        0
370
    30
100
AcDbCircle
 10
917.5274303560609
 20
-762.6435880286353
 30
0.0
 40
28.67810776927905
  0
ELLIPSE
  5
AE
330
70
100
AcDbEntity
  8
Layer 1
 62
    18
420
        0
370
    30
100
AcDbEllipse
 10
887.7604237288133
 20
-895.0602182925203
 30
0.0
 11
7.392022516589767
 21
3.330166492125536
 31
0.0
210
0.0
220
0.0
230
1.0
 40
0.4284853233039108
 41
0.0
 42
6.283185307179585
  0
ELLIPSE
  5
AF
330
70
100
AcDbEntity
  8
Layer 1
 62
    18
420
        0
370
    30
100
AcDbEllipse
 10
940.0682563387855
 20
-894.0306166346609
 30
0.0
 11
7.392022516590066
 21
3.330166492125854
 31
0.0
210
0.0
220
0.0
230
1.0
 40
0.4284853233042253
 41
0.0
 42
6.283185307179585
  0
CIRCLE
  5
B0
330
70
100
AcDbEntity
  8
Layer 1
100
AcDbCircle
 10
1049.262390740934
 20
-559.9740521750145
 30
0.0
 40
1.712765957448613
  0
HATCH
  5
B1
330
70
100
AcDbEntity
  8
Layer 1
 62
    18
420
        0
440
 33554687
100
AcDbHatch
 10
0.0
 20
0.0
 30
0.0
210
0.0
220
0.0
230
1.0
  2
SOLID
 70
     1
 71
     1
 91
        1
 92
        1
 93
        1
 72
     2
 10
1049.262390740934
 20
-559.9740521750145
 40
1.712765957448613
 50
0.0
 51
360.0
 73
     1
 97
        1
330
B0
 75
     2
 76
     1
 98
        1
 10
0.0
 20
0.0
450
        0
451
        0
460
0.0
461
0.0
452
        0
462
0.0
453
        0
470

  0
CIRCLE
  5
B2
330
70
100
AcDbEntity
  8
Layer 1
100
AcDbCircle
 10
821.5684685442257
 20
-656.8552420603063
 30
0.0
 40
1.712765957450162
  0
HATCH
  5
B3
330
70
100
AcDbEntity
  8
Layer 1
 62
    18
420
        0
440
 33554687
100
AcDbHatch
 10
0.0
 20
0.0
 30
0.0
210
0.0
220
0.0
230
1.0
  2
SOLID
 70
     1
 71
     1
 91
        1
 92
        1
 93
        1
 72
     2
 10
821.5684685442257
 20
-656.8552420603063
 40
1.712765957450162
 50
0.0
 51
360.0
 73
     1
 97
        1
330
B2
 75
     2
 76
     1
 98
        1
 10
0.0
 20
0.0
450
        0
451
        0
460
0.0
461
0.0
452
        0
462
0.0
453
        0
470

  0
LWPOLYLINE
  5
B4
330
70
100
AcDbEntity
  8
Layer 1
 62
    18
420
        0
370
    35
100
AcDbPolyline
 90
        3
 70
     0
 43
0.0
 10
928.9012454098974
 20
-658.5684497125384
 10
984.6212183387997
 20
-632.9532081445868
 10
965.7523092396896
 20
-574.9903671694083
  0
SPLINE
  5
B5
330
70
100
AcDbEntity
  8
Layer 1
 62
    18
420
        0
370
    35
100
AcDbSpline
210
0.0
220
0.0
230
1.0
 70
     9
 71
     3
 72
    29
 73
    25
 74
     0
 42
0.0000000001
 43
0.0000000001
 40
0.0
 40
0.0
 40
0.0
 40
0.0
 40
1.0
 40
1.0
 40
1.0
 40
2.0
 40
2.0
 40
2.0
 40
3.0
 40
3.0
 40
3.0
 40
4.0
 40
4.0
 40
4.0
 40
5.0
 40
5.0
 40
5.0
 40
6.0
 40
6.0
 40
6.0
 40
7.0
 40
7.0
 40
7.0
 40
8.0
 40
8.0
 40
8.0
 40
8.0
 10
935.091616228814
 20
-674.1344289203279
 30
0.0
 10
935.091616228814
 20
-674.1344289203279
 30
0.0
 10
869.1441449182148
 20
-674.1344289203279
 30
0.0
 10
869.1441449182148
 20
-674.1344289203279
 30
0.0
 10
865.5344426072351
 20
-674.1344289203279
 30
0.0
 10
862.6082007117384
 20
-671.2081870248275
 30
0.0
 10
862.6082007117384
 20
-667.5984847138479
 30
0.0
 10
862.6082007117384
 20
-667.5984847138479
 30
0.0
 10
862.6082007117384
 20
-637.9814634372487
 30
0.0
 10
862.6082007117384
 20
-637.9814634372487
 30
0.0
 10
862.6082007117384
 20
-634.371761126269
 30
0.0
 10
865.5344426072351
 20
-631.4455192307796
 30
0.0
 10
869.1441449182148
 20
-631.4455192307796
 30
0.0
 10
869.1441449182148
 20
-631.4455192307796
 30
0.0
 10
935.091616228814
 20
-631.4455192307796
 30
0.0
 10
935.091616228814
 20
-631.4455192307796
 30
0.0
 10
938.7013185397973
 20
-631.4455192307796
 30
0.0
 10
941.6275604352904
 20
-634.371761126269
 30
0.0
 10
941.6275604352904
 20
-637.9814634372596
 30
0.0
 10
941.6275604352904
 20
-637.9814634372596
 30
0.0
 10
941.6275604352904
 20
-667.5984847138479
 30
0.0
 10
941.6275604352904
 20
-667.5984847138479
 30
0.0
 10
941.6275604352904
 20
-671.2081870248275
 30
0.0
 10
938.7013185397973
 20
-674.1344289203279
 30
0.0
 10
935.091616228814
 20
-674.1344289203279
 30
0.0
  0
LWPOLYLINE
  5
B6
330
70
100
AcDbEntity
  8
Layer 1
 62
    18
420
        0
370
    35
100
AcDbPolyline
 90
        3
 70
     0
 43
0.0
 10
867.9325974185758
 20
-660.6914925970068
 10
821.4602938804437
 20
-657.1325193106767
 10
820.7063247217757
 20
-583.5531278848175
  0
ELLIPSE
  5
B7
330
70
100
AcDbEntity
  8
Layer 1
 62
    18
420
        0
370
    18
100
AcDbEllipse
 10
877.6058560058581
 20
-558.518195249545
 30
0.0
 11
13.86170147834946
 21
0.0
 31
0.0
210
0.0
220
0.0
230
1.0
 40
0.5640384421439516
 41
0.0
 42
6.283185307179586
  0
ELLIPSE
  5
B8
330
70
100
AcDbEntity
  8
Layer 1
 62
    18
420
        0
370
    18
100
AcDbEllipse
 10
917.3088393328017
 20
-558.518195249545
 30
0.0
 11
13.86170147835219
 21
0.0
 31
0.0
210
0.0
220
0.0
230
1.0
 40
0.5640384421438406
 41
0.0
 42
6.283185307179586
  0
SPLINE
  5
B9
330
70
100
AcDbEntity
  8
Layer 1
 62
    18
420
        0
370
    25
100
AcDbSpline
210
0.0
220
0.0
230
1.0
 70
     8
 71
     3
 72
    17
 73
    13
 74
     0
 42
0.0000000001
 43
0.0000000001
 40
0.0
 40
0.0
 40
0.0
 40
0.0
 40
1.0
 40
1.0
 40
1.0
 40
2.0
 40
2.0
 40
2.0
 40
3.0
 40
3.0
 40
3.0
 40
4.0
 40
4.0
 40
4.0
 40
4.0
 10
899.1920073863129
 20
-565.0354211837184
 30
0.0
 10
899.5984987842694
 20
-570.8175256759095
 30
0.0
 10
898.2112273667462
 20
-573.5750635176991
 30
0.0
 10
896.63108825782
 20
-574.9928796798085
 30
0.0
 10
894.2028676981372
 20
-577.1716211348866
 30
0.0
 10
890.862665146653
 20
-576.5964563399684
 30
0.0
 10
890.4118631545406
 20
-578.4396875411366
 30
0.0
 10
889.9956350865522
 20
-580.1415002852772
 30
0.0
 10
892.4635019673205
 20
-582.1836450606679
 30
0.0
 10
893.3385778984648
 20
-582.9077661544179
 30
0.0
 10
895.4312040108398
 20
-584.6393945723867
 30
0.0
 10
897.6380465099882
 20
-585.1531274825502
 30
0.0
 10
898.8261534674693
 20
-585.3333032638001
 30
0.0
  0
ELLIPSE
  5
BA
330
70
100
AcDbEntity
  8
Layer 1
 62
    18
420
        0
370
    35
100
AcDbEllipse
 10
960.8111429212021
 20
-570.6206998746783
 30
0.0
 11
-6.920619560549313
 21
6.920619560549313
 31
0.0
210
0.0
220
0.0
230
1.0
 40
0.3652173913038379
 41
0.0
 42
6.283185307179585
  0
ELLIPSE
  5
BB
330
70
100
AcDbEntity
  8
Layer 1
 62
    18
420
        0
370
    35
100
AcDbEllipse
 10
827.0232902127245
 20
-578.5459862338539
 30
0.0
 11
7.850689774719063
 21
5.844366540936189
 31
0.0
210
0.0
220
0.0
230
1.0
 40
0.3652173913043577
 41
0.0
 42
6.283185307179585
  0
ELLIPSE
  5
BC
330
70
100
AcDbEntity
  8
Layer 1
 62
    18
420
        0
370
    18
100
AcDbEllipse
 10
899.2636205131475
 20
-601.2173713753882
 30
0.0
 11
14.03072136167975
 21
0.0
 31
0.0
210
0.0
220
0.0
230
1.0
 40
0.3730415862640704
 41
0.0
 42
6.283185307179585
  0
ELLIPSE
  5
BD
330
70
100
AcDbEntity
  8
Layer 1
 62
    18
420
        0
370
    15
100
AcDbEllipse
 10
520.4920688031425
 20
-154.0688442419832
 30
0.0
 11
-15.8524290027881
 21
2.562749578249058
 31
0.0
210
0.0
220
0.0
230
1.0
 40
0.3946295052843531
 41
0.0
 42
6.283185307179585
  0
INSERT
  5
BF
330
70
100
AcDbEntity
  8
Layer 1
100
AcDbBlockReference
  2
Block_4
 10
0.0
 20
0.0
 30
0.0
  0
INSERT
  5
CC
330
70
100
AcDbEntity
  8
Layer 1
100
AcDbBlockReference
  2
Block_5
 10
0.0
 20
0.0
 30
0.0
  0
SPLINE
  5
D5
330
70
100
AcDbEntity
  8
Layer 1
 62
    18
420
        0
370
   106
100
AcDbSpline
210
0.0
220
0.0
230
1.0
 70
     9
 71
     3
 72
    29
 73
    25
 74
     0
 42
0.0000000001
 43
0.0000000001
 40
0.0
 40
0.0
 40
0.0
 40
0.0
 40
1.0
 40
1.0
 40
1.0
 40
2.0
 40
2.0
 40
2.0
 40
3.0
 40
3.0
 40
3.0
 40
4.0
 40
4.0
 40
4.0
 40
5.0
 40
5.0
 40
5.0
 40
6.0
 40
6.0
 40
6.0
 40
7.0
 40
7.0
 40
7.0
 40
8.0
 40
8.0
 40
8.0
 40
8.0
 10
1073.018789684667
 20
-1078.769825858191
 30
0.0
 10
1073.018789684667
 20
-1078.769825858191
 30
0.0
 10
7.189002523395174
 20
-1078.769825858191
 30
0.0
 10
7.189002523395174
 20
-1078.769825858191
 30
0.0
 10
3.804789588331914
 20
-1078.769825858191
 30
0.0
 10
1.061342948774836
 20
-1076.026379218914
 30
0.0
 10
1.061342948774836
 20
-1072.642166283847
 30
0.0
 10
1.061342948774836
 20
-1072.642166283847
 30
0.0
 10
1.061342948774836
 20
-6.812379170424719
 30
0.0
 10
1.061342948774836
 20
-6.812379170424719
 30
0.0
 10
1.061342948774836
 20
-3.42816623535964
 30
0.0
 10
3.804789588055427
 20
-0.6847195963546256
 30
0.0
 10
7.189002523122326
 20
-0.6847195963546256
 30
0.0
 10
7.189002523122326
 20
-0.6847195963546256
 30
0.0
 10
1073.018789684398
 20
-0.6847195963546256
 30
0.0
 10
1073.018789684398
 20
-0.6847195963546256
 30
0.0
 10
1076.403002619467
 20
-0.6847195963546256
 30
0.0
 10
1079.146449259017
 20
-3.428166235634307
 30
0.0
 10
1079.146449259017
 20
-6.812379170700296
 30
0.0
 10
1079.146449259017
 20
-6.812379170700296
 30
0.0
 10
1079.146449259017
 20
-1072.642166284124
 30
0.0
 10
1079.146449259017
 20
-1072.642166284124
 30
0.0
 10
1079.146449259017
 20
-1076.026379219187
 30
0.0
 10
1076.403002619738
 20
-1078.769825858191
 30
0.0
 10
1073.018789684667
 20
-1078.769825858191
 30
0.0
  0
ELLIPSE
  5
D6
330
70
100
AcDbEntity
  8
Layer 1
 62
   250
420
  2301728
370
    35
100
AcDbEllipse
 10
118.3261942927829
 20
-678.1961043796045
 30
0.0
 11
-51.05876887903839
 21
11.08021160092778
 31
0.0
210
0.0
220
0.0
230
1.0
 40
0.8279569892473331
 41
0.0
 42
6.283185307179586
  0
LWPOLYLINE
  5
D7
330
70
100
AcDbEntity
  8
Layer 1
 62
    18
420
        0
370
    35
100
AcDbPolyline
 90
        4
 70
     1
 43
0.0
 10
319.9339704085824
 20
-718.1233493207273
 10
319.1415633099159
 20
-721.774843747562
 10
170.0089371393433
 20
-689.4117239377829
 10
170.8013442380097
 20
-685.7602295109481
  0
HATCH
  5
D8
330
70
100
AcDbEntity
  8
Layer 1
 62
   250
420
  2301728
440
 33554687
100
AcDbHatch
 10
0.0
 20
0.0
 30
0.0
210
0.0
220
0.0
230
1.0
  2
SOLID
 70
     1
 71
     1
 91
        1
 92
        1
 93
        4
 72
     1
 10
319.9339704085824
 20
-718.1233493207273
 11
319.1415633099159
 21
-721.774843747562
 72
     1
 10
319.1415633099159
 20
-721.774843747562
 11
170.0089371393433
 21
-689.4117239377829
 72
     1
 10
170.0089371393433
 20
-689.4117239377829
 11
170.8013442380097
 21
-685.7602295109481
 72
     1
 10
170.8013442380097
 20
-685.7602295109481
 11
319.9339704085824
 21
-718.1233493207273
 97
        1
330
D7
 75
     2
 76
     1
 98
        1
 10
0.0
 20
0.0
450
        0
451
        0
460
0.0
461
0.0
452
        0
462
0.0
453
        0
470

  0
LWPOLYLINE
  5
D9
330
70
100
AcDbEntity
  8
Layer 1
 62
    18
420
   131586
370
    13
100
AcDbPolyline
 90
        4
 70
     1
 43
0.0
 10
363.0313326062587
 20
-752.710061097936
 10
362.2137138450144
 20
-753.8511779995261
 10
315.0974411362749
 20
-720.0920175902465
 10
315.9150598975193
 20
-718.9509006886565
  0
HATCH
  5
DA
330
70
100
AcDbEntity
  8
Layer 1
 62
   250
420
  2301728
440
 33554687
100
AcDbHatch
 10
0.0
 20
0.0
 30
0.0
210
0.0
220
0.0
230
1.0
  2
SOLID
 70
     1
 71
     1
 91
        1
 92
        1
 93
        4
 72
     1
 10
363.0313326062587
 20
-752.710061097936
 11
362.2137138450144
 21
-753.8511779995261
 72
     1
 10
362.2137138450144
 20
-753.8511779995261
 11
315.0974411362749
 21
-720.0920175902465
 72
     1
 10
315.0974411362749
 20
-720.0920175902465
 11
315.9150598975193
 21
-718.9509006886565
 72
     1
 10
315.9150598975193
 20
-718.9509006886565
 11
363.0313326062587
 21
-752.710061097936
 97
        1
330
D9
 75
     2
 76
     1
 98
        1
 10
0.0
 20
0.0
450
        0
451
        0
460
0.0
461
0.0
452
        0
462
0.0
453
        0
470

  0
LWPOLYLINE
  5
DB
330
70
100
AcDbEntity
  8
Layer 1
 62
    18
420
   131586
370
    13
100
AcDbPolyline
 90
        4
 70
     1
 43
0.0
 10
372.9816177823759
 20
-704.3233160788076
 10
373.3136695118119
 20
-705.6872771745929
 10
316.9962467626419
 20
-719.397563838107
 10
316.6641950332096
 20
-718.0336027423236
  0
HATCH
  5
DC
330
70
100
AcDbEntity
  8
Layer 1
 62
   250
420
  2301728
440
 33554687
100
AcDbHatch
 10
0.0
 20
0.0
 30
0.0
210
0.0
220
0.0
230
1.0
  2
SOLID
 70
     1
 71
     1
 91
        1
 92
        1
 93
        4
 72
     1
 10
372.9816177823759
 20
-704.3233160788076
 11
373.3136695118119
 21
-705.6872771745929
 72
     1
 10
373.3136695118119
 20
-705.6872771745929
 11
316.9962467626419
 21
-719.397563838107
 72
     1
 10
316.9962467626419
 20
-719.397563838107
 11
316.6641950332096
 21
-718.0336027423236
 72
     1
 10
316.6641950332096
 20
-718.0336027423236
 11
372.9816177823759
 21
-704.3233160788076
 97
        1
330
DB
 75
     2
 76
     1
 98
        1
 10
0.0
 20
0.0
450
        0
451
        0
460
0.0
461
0.0
452
        0
462
0.0
453
        0
470

  0
LWPOLYLINE
  5
DD
330
70
100
AcDbEntity
  8
Layer 1
 62
    18
420
   131586
370
    13
100
AcDbPolyline
 90
        4
 70
     1
 43
0.0
 10
265.1854983609828
 20
-716.7520000285403
 10
264.6951382487841
 20
-718.0673688673833
 10
209.0889853856697
 20
-697.3377920735893
 10
209.5793454978693
 20
-696.0224232347464
  0
HATCH
  5
DE
330
70
100
AcDbEntity
  8
Layer 1
 62
   250
420
  2301728
440
 33554687
100
AcDbHatch
 10
0.0
 20
0.0
 30
0.0
210
0.0
220
0.0
230
1.0
  2
SOLID
 70
     1
 71
     1
 91
        1
 92
        1
 93
        4
 72
     1
 10
265.1854983609828
 20
-716.7520000285403
 11
264.6951382487841
 21
-718.0673688673833
 72
     1
 10
264.6951382487841
 20
-718.0673688673833
 11
209.0889853856697
 21
-697.3377920735893
 72
     1
 10
209.0889853856697
 20
-697.3377920735893
 11
209.5793454978693
 21
-696.0224232347464
 72
     1
 10
209.5793454978693
 20
-696.0224232347464
 11
265.1854983609828
 21
-716.7520000285403
 97
        1
330
DD
 75
     2
 76
     1
 98
        1
 10
0.0
 20
0.0
450
        0
451
        0
460
0.0
461
0.0
452
        0
462
0.0
453
        0
470

  0
LWPOLYLINE
  5
DF
330
70
100
AcDbEntity
  8
Layer 1
 62
    18
420
   131586
370
    13
100
AcDbPolyline
 90
        4
 70
     1
 43
0.0
 10
260.6580340319442
 20
-684.0937282315499
 10
260.8940599054358
 20
-685.4775418060143
 10
204.9740115719387
 20
-695.0153715376873
 10
204.737985698448
 20
-693.631557963221
  0
HATCH
  5
E0
330
70
100
AcDbEntity
  8
Layer 1
 62
   250
420
  2301728
440
 33554687
100
AcDbHatch
 10
0.0
 20
0.0
 30
0.0
210
0.0
220
0.0
230
1.0
  2
SOLID
 70
     1
 71
     1
 91
        1
 92
        1
 93
        4
 72
     1
 10
260.6580340319442
 20
-684.0937282315499
 11
260.8940599054358
 21
-685.4775418060143
 72
     1
 10
260.8940599054358
 20
-685.4775418060143
 11
204.9740115719387
 21
-695.0153715376873
 72
     1
 10
204.9740115719387
 20
-695.0153715376873
 11
204.737985698448
 21
-693.631557963221
 72
     1
 10
204.737985698448
 20
-693.631557963221
 11
260.6580340319442
 21
-684.0937282315499
 97
        1
330
DF
 75
     2
 76
     1
 98
        1
 10
0.0
 20
0.0
450
        0
451
        0
460
0.0
461
0.0
452
        0
462
0.0
453
        0
470

  0
ELLIPSE
  5
E1
330
70
100
AcDbEntity
  8
Layer 1
 62
   250
420
  2301728
370
    30
100
AcDbEllipse
 10
266.3817650369544
 20
-682.359112087121
 30
0.0
 11
5.752488830994726
 21
3.537109420071971
 31
0.0
210
0.0
220
0.0
230
1.0
 40
0.8279569892477276
 41
0.0
 42
6.283185307179586
  0
ELLIPSE
  5
E2
330
70
100
AcDbEntity
  8
Layer 1
 62
   250
420
  2301728
370
    25
100
AcDbEllipse
 10
269.9596012382135
 20
-719.2808372945414
 30
0.0
 11
-6.20972802060546
 21
0.9527000305652446
 31
0.0
210
0.0
220
0.0
230
1.0
 40
0.8279569892470343
 41
0.0
 42
6.283185307179586
  0
LWPOLYLINE
  5
E3
330
70
100
AcDbEntity
  8
Layer 1
 62
   250
420
  2301728
370
    35
100
AcDbPolyline
 90
        3
 70
     0
 43
0.0
 10
124.1417075066783
 20
-651.3976138998441
 10
132.1481284261081
 20
-646.5320556630977
 10
135.0306102455997
 20
-655.1356690588217
  0
LWPOLYLINE
  5
E4
330
70
100
AcDbEntity
  8
Layer 1
 62
     7
420
 16777215
370
     5
100
AcDbPolyline
 90
       10
 70
     0
 43
0.0
 10
92.48718239059053
 20
-646.7293053767625
 10
102.3597564984257
 20
-641.8053490779039
 10
106.260120619052
 20
-640.9141253697071
 10
105.0629532845614
 20
-642.1602820327189
 10
100.7930566935902
 20
-645.2881642299508
 10
97.41555616697041
 20
-646.9728643590242
 10
94.69561467885979
 20
-648.8303502743965
 10
92.4891280511656
 20
-652.058483419747
 10
90.8306132015141
 20
-654.3629487044836
 10
90.86500301450906
 20
-656.3397344048826
  0
HATCH
  5
E5
330
70
100
AcDbEntity
  8
Layer 1
 62
   250
420
  2301728
440
 33554687
100
AcDbHatch
 10
0.0
 20
0.0
 30
0.0
210
0.0
220
0.0
230
1.0
  2
SOLID
 70
     1
 71
     1
 91
        1
 92
        3
 72
     0
 73
     1
 93
       10
 10
92.48718239059053
 20
-646.7293053767625
 10
102.3597564984257
 20
-641.8053490779039
 10
106.260120619052
 20
-640.9141253697071
 10
105.0629532845614
 20
-642.1602820327189
 10
100.7930566935902
 20
-645.2881642299508
 10
97.41555616697041
 20
-646.9728643590242
 10
94.69561467885979
 20
-648.8303502743965
 10
92.4891280511656
 20
-652.058483419747
 10
90.8306132015141
 20
-654.3629487044836
 10
90.86500301450906
 20
-656.3397344048826
 97
        0
 75
     2
 76
     1
 98
        1
 10
0.0
 20
0.0
450
        0
451
        0
460
0.0
461
0.0
452
        0
462
0.0
453
        0
470

  0
SPLINE
  5
E6
330
70
100
AcDbEntity
  8
Layer 1
 62
   250
420
  2301728
370
    35
100
AcDbSpline
210
0.0
220
0.0
230
1.0
 70
     8
 71
     3
 72
    17
 73
    13
 74
     0
 42
0.0000000001
 43
0.0000000001
 40
0.0
 40
0.0
 40
0.0
 40
0.0
 40
1.0
 40
1.0
 40
1.0
 40
2.0
 40
2.0
 40
2.0
 40
3.0
 40
3.0
 40
3.0
 40
4.0
 40
4.0
 40
4.0
 40
4.0
 10
157.5526564367046
 20
-652.2767637058405
 30
0.0
 10
154.5453859946356
 20
-655.6346820685539
 30
0.0
 10
151.5381222587457
 20
-658.9926629864294
 30
0.0
 10
148.5308518166766
 20
-662.3505813491428
 30
0.0
 10
147.6298614226125
 20
-666.1942593351596
 30
0.0
 10
146.728892059109
 20
-670.0379946186967
 30
0.0
 10
145.8279016650458
 20
-673.8816726047152
 30
0.0
 10
148.1593582370242
 20
-670.6008122122711
 30
0.0
 10
150.4908215151818
 20
-667.3200143749872
 30
0.0
 10
152.8222780871601
 20
-664.0391539825432
 30
0.0
 10
156.5803900867722
 20
-662.93193094653
 30
0.0
 10
160.3384877620046
 20
-661.8247131681583
 30
0.0
 10
164.0965997616176
 20
-660.7174901321468
 30
0.0
  0
LWPOLYLINE
  5
E7
330
70
100
AcDbEntity
  8
Layer 1
 62
   250
420
  2301728
370
    35
100
AcDbPolyline
 90
        5
 70
     0
 43
0.0
 10
148.4992306816821
 20
-663.2344018348394
 10
152.2788733277712
 20
-664.8655158728233
 10
151.6768089181014
 20
-658.9598059399377
 10
158.7757993432706
 20
-661.9564407659363
 10
155.926503859705
 20
-654.2986457201496
  0
SPLINE
  5
E8
330
70
100
AcDbEntity
  8
Layer 1
100
AcDbSpline
210
0.0
220
0.0
230
1.0
 70
    11
 71
     3
 72
    59
 73
    55
 74
     0
 42
0.0000000001
 43
0.0000000001
 40
0.0
 40
0.0
 40
0.0
 40
0.0
 40
1.0
 40
1.0
 40
1.0
 40
2.0
 40
2.0
 40
2.0
 40
3.0
 40
3.0
 40
3.0
 40
4.0
 40
4.0
 40
4.0
 40
5.0
 40
5.0
 40
5.0
 40
6.0
 40
6.0
 40
6.0
 40
7.0
 40
7.0
 40
7.0
 40
8.0
 40
8.0
 40
8.0
 40
9.0
 40
9.0
 40
9.0
 40
10.0
 40
10.0
 40
10.0
 40
11.0
 40
11.0
 40
11.0
 40
12.0
 40
12.0
 40
12.0
 40
13.0
 40
13.0
 40
13.0
 40
14.0
 40
14.0
 40
14.0
 40
15.0
 40
15.0
 40
15.0
 40
16.0
 40
16.0
 40
16.0
 40
17.0
 40
17.0
 40
17.0
 40
18.0
 40
18.0
 40
18.0
 40
18.0
 10
117.2900390625
 20
-652.197265625
 30
0.0
 10
117.2900390625
 20
-652.197265625
 30
0.0
 10
113.5
 20
-654.322265625
 30
0.0
 10
113.5
 20
-654.322265625
 30
0.0
 10
112.03515625
 20
-655.2041015624999
 30
0.0
 10
111.08984375
 20
-655.751953125
 30
0.0
 10
110.1083984375
 20
-656.259765625
 30
0.0
 10
110.1083984375
 20
-656.259765625
 30
0.0
 10
110.0947265625
 20
-656.3251953125
 30
0.0
 10
110.0947265625
 20
-656.3251953125
 30
0.0
 10
110.7919921875
 20
-657.126953125
 30
0.0
 10
111.4248046875
 20
-657.916015625
 30
0.0
 10
112.435546875
 20
-659.3339843749999
 30
0.0
 10
112.435546875
 20
-659.3339843749999
 30
0.0
 10
115.017578125
 20
-662.671875
 30
0.0
 10
115.017578125
 20
-662.671875
 30
0.0
 10
115.017578125
 20
-662.671875
 30
0.0
 10
114.3076171875
 20
-665.9443359375
 30
0.0
 10
114.3076171875
 20
-665.9443359375
 30
0.0
 10
114.3076171875
 20
-665.9443359375
 30
0.0
 10
108.494140625
 20
-657.623046875
 30
0.0
 10
108.494140625
 20
-657.623046875
 30
0.0
 10
108.494140625
 20
-657.623046875
 30
0.0
 10
99.982421875
 20
-662.5615234375
 30
0.0
 10
99.982421875
 20
-662.5615234375
 30
0.0
 10
99.982421875
 20
-662.5615234375
 30
0.0
 10
100.69921875
 20
-659.2558593749999
 30
0.0
 10
100.69921875
 20
-659.2558593749999
 30
0.0
 10
100.69921875
 20
-659.2558593749999
 30
0.0
 10
104.7041015625
 20
-657.07421875
 30
0.0
 10
104.7041015625
 20
-657.07421875
 30
0.0
 10
105.818359375
 20
-656.458984375
 30
0.0
 10
106.6806640625
 20
-655.9951171875
 30
0.0
 10
107.5771484375
 20
-655.5732421874999
 30
0.0
 10
107.5771484375
 20
-655.5732421874999
 30
0.0
 10
107.59765625
 20
-655.474609375
 30
0.0
 10
107.59765625
 20
-655.474609375
 30
0.0
 10
106.87890625
 20
-654.66796875
 30
0.0
 10
106.337890625
 20
-653.9677734375
 30
0.0
 10
105.5986328125
 20
-652.9501953125
 30
0.0
 10
105.5986328125
 20
-652.9501953125
 30
0.0
 10
102.8798828125
 20
-649.20703125
 30
0.0
 10
102.8798828125
 20
-649.20703125
 30
0.0
 10
102.8798828125
 20
-649.20703125
 30
0.0
 10
103.5908203125
 20
-645.93359375
 30
0.0
 10
103.5908203125
 20
-645.93359375
 30
0.0
 10
103.5908203125
 20
-645.93359375
 30
0.0
 10
109.1337890625
 20
-654.1630859375
 30
0.0
 10
109.1337890625
 20
-654.1630859375
 30
0.0
 10
109.1337890625
 20
-654.1630859375
 30
0.0
 10
118.0078125
 20
-648.8916015625
 30
0.0
 10
118.0078125
 20
-648.8916015625
 30
0.0
 10
118.0078125
 20
-648.8916015625
 30
0.0
 10
117.2900390625
 20
-652.197265625
 30
0.0
 10
117.2900390625
 20
-652.197265625
 30
0.0
  0
HATCH
  5
E9
330
70
100
AcDbEntity
  8
Layer 1
 62
    18
420
        0
440
 33554687
100
AcDbHatch
 10
0.0
 20
0.0
 30
0.0
210
0.0
220
0.0
230
1.0
  2
SOLID
 70
     1
 71
     1
 91
        1
 92
        1
 93
        1
 72
     4
 94
        3
 73
     0
 74
     0
 95
       59
 96
       55
 40
0.0
 40
0.0
 40
0.0
 40
0.0
 40
1.0
 40
1.0
 40
1.0
 40
2.0
 40
2.0
 40
2.0
 40
3.0
 40
3.0
 40
3.0
 40
4.0
 40
4.0
 40
4.0
 40
5.0
 40
5.0
 40
5.0
 40
6.0
 40
6.0
 40
6.0
 40
7.0
 40
7.0
 40
7.0
 40
8.0
 40
8.0
 40
8.0
 40
9.0
 40
9.0
 40
9.0
 40
10.0
 40
10.0
 40
10.0
 40
11.0
 40
11.0
 40
11.0
 40
12.0
 40
12.0
 40
12.0
 40
13.0
 40
13.0
 40
13.0
 40
14.0
 40
14.0
 40
14.0
 40
15.0
 40
15.0
 40
15.0
 40
16.0
 40
16.0
 40
16.0
 40
17.0
 40
17.0
 40
17.0
 40
18.0
 40
18.0
 40
18.0
 40
18.0
 10
117.2900390625
 20
-652.197265625
 10
117.2900390625
 20
-652.197265625
 10
113.5
 20
-654.322265625
 10
113.5
 20
-654.322265625
 10
112.03515625
 20
-655.2041015624999
 10
111.08984375
 20
-655.751953125
 10
110.1083984375
 20
-656.259765625
 10
110.1083984375
 20
-656.259765625
 10
110.0947265625
 20
-656.3251953125
 10
110.0947265625
 20
-656.3251953125
 10
110.7919921875
 20
-657.126953125
 10
111.4248046875
 20
-657.916015625
 10
112.435546875
 20
-659.3339843749999
 10
112.435546875
 20
-659.3339843749999
 10
115.017578125
 20
-662.671875
 10
115.017578125
 20
-662.671875
 10
115.017578125
 20
-662.671875
 10
114.3076171875
 20
-665.9443359375
 10
114.3076171875
 20
-665.9443359375
 10
114.3076171875
 20
-665.9443359375
 10
108.494140625
 20
-657.623046875
 10
108.494140625
 20
-657.623046875
 10
108.494140625
 20
-657.623046875
 10
99.982421875
 20
-662.5615234375
 10
99.982421875
 20
-662.5615234375
 10
99.982421875
 20
-662.5615234375
 10
100.69921875
 20
-659.2558593749999
 10
100.69921875
 20
-659.2558593749999
 10
100.69921875
 20
-659.2558593749999
 10
104.7041015625
 20
-657.07421875
 10
104.7041015625
 20
-657.07421875
 10
105.818359375
 20
-656.458984375
 10
106.6806640625
 20
-655.9951171875
 10
107.5771484375
 20
-655.5732421874999
 10
107.5771484375
 20
-655.5732421874999
 10
107.59765625
 20
-655.474609375
 10
107.59765625
 20
-655.474609375
 10
106.87890625
 20
-654.66796875
 10
106.337890625
 20
-653.9677734375
 10
105.5986328125
 20
-652.9501953125
 10
105.5986328125
 20
-652.9501953125
 10
102.8798828125
 20
-649.20703125
 10
102.8798828125
 20
-649.20703125
 10
102.8798828125
 20
-649.20703125
 10
103.5908203125
 20
-645.93359375
 10
103.5908203125
 20
-645.93359375
 10
103.5908203125
 20
-645.93359375
 10
109.1337890625
 20
-654.1630859375
 10
109.1337890625
 20
-654.1630859375
 10
109.1337890625
 20
-654.1630859375
 10
118.0078125
 20
-648.8916015625
 10
118.0078125
 20
-648.8916015625
 10
118.0078125
 20
-648.8916015625
 10
117.2900390625
 20
-652.197265625
 10
117.2900390625
 20
-652.197265625
 97
        0
 97
        1
330
E8
 75
     2
 76
     1
 98
        1
 10
0.0
 20
0.0
450
        0
451
        0
460
0.0
461
0.0
452
        0
462
0.0
453
        0
470

  0
SPLINE
  5
EA
330
70
100
AcDbEntity
  8
Layer 1
 62
    18
420
        0
370
    20
100
AcDbSpline
210
0.0
220
0.0
230
1.0
 70
    11
 71
     3
 72
    26
 73
    22
 74
     0
 42
0.0000000001
 43
0.0000000001
 40
0.0
 40
0.0
 40
0.0
 40
0.0
 40
1.0
 40
1.0
 40
1.0
 40
2.0
 40
2.0
 40
2.0
 40
3.0
 40
3.0
 40
3.0
 40
4.0
 40
4.0
 40
4.0
 40
5.0
 40
5.0
 40
5.0
 40
6.0
 40
6.0
 40
6.0
 40
7.0
 40
7.0
 40
7.0
 40
7.0
 10
23.82040405430235
 20
-785.4146451616397
 30
0.0
 10
23.82040405430235
 20
-785.4146451616397
 30
0.0
 10
57.76678341428123
 20
-780.0717550448134
 30
0.0
 10
80.61784724406697
 20
-785.4976453552863
 30
0.0
 10
82.87206721728944
 20
-786.0329005364674
 30
0.0
 10
90.8306132015141
 20
-745.2498305344797
 30
0.0
 10
90.8306132015141
 20
-745.2498305344797
 30
0.0
 10
90.8306132015141
 20
-745.2498305344797
 30
0.0
 10
73.25042098440372
 20
-762.8300227515901
 30
0.0
 10
73.25042098440372
 20
-762.8300227515901
 30
0.0
 10
73.25042098440372
 20
-762.8300227515901
 30
0.0
 10
53.72423022279054
 20
-734.9869966684509
 30
0.0
 10
53.72423022279054
 20
-734.9869966684509
 30
0.0
 10
53.72423022279054
 20
-734.9869966684509
 30
0.0
 10
40.78806001002431
 20
-759.6447976916006
 30
0.0
 10
40.78806001002431
 20
-759.6447976916006
 30
0.0
 10
40.78806001002431
 20
-759.6447976916006
 30
0.0
 10
20.91675061232945
 20
-743.4946160402596
 30
0.0
 10
20.91675061232945
 20
-743.4946160402596
 30
0.0
 10
20.91675061232945
 20
-743.4946160402596
 30
0.0
 10
23.82040405430235
 20
-785.4146451616397
 30
0.0
 10
23.82040405430235
 20
-785.4146451616397
 30
0.0
  0
LWPOLYLINE
  5
EB
330
70
100
AcDbEntity
  8
Layer 1
 62
   250
420
  2301728
370
    35
100
AcDbPolyline
 90
        4
 70
     0
 43
0.0
 10
867.9325974185758
 20
-473.1753630270905
 10
688.7446808510649
 20
-475.9909772062274
 10
377.7659574468098
 20
-539.727272727273
 10
195.468085106384
 20
-606.4514139285783
  0
SPLINE
  5
EC
330
70
100
AcDbEntity
  8
Layer 1
 62
   250
420
  2301728
370
    35
100
AcDbSpline
210
0.0
220
0.0
230
1.0
 70
     8
 71
     3
 72
    14
 73
    10
 74
     0
 42
0.0000000001
 43
0.0000000001
 40
0.0
 40
0.0
 40
0.0
 40
0.0
 40
1.0
 40
1.0
 40
1.0
 40
2.0
 40
2.0
 40
2.0
 40
3.0
 40
3.0
 40
3.0
 40
3.0
 10
114.1295989487407
 20
-595.9833288221998
 30
0.0
 10
114.1295989487407
 20
-595.9833288221998
 30
0.0
 10
206.1914893617041
 20
-250.2531200896247
 30
0.0
 10
206.1914893617041
 20
-250.2531200896247
 30
0.0
 10
206.1914893617041
 20
-250.2531200896247
 30
0.0
 10
335.1906305024659
 20
-118.8784462701796
 30
0.0
 10
344.9889322725103
 20
-116.5775210074307
 30
0.0
 10
354.7872340425547
 20
-114.2765957446818
 30
0.0
 10
450.09713509442
 20
-64.56493787680028
 30
0.0
 10
450.09713509442
 20
-64.56493787680028
 30
0.0
  0
LWPOLYLINE
  5
ED
330
70
100
AcDbEntity
  8
Layer 1
 62
    18
420
        0
370
   140
100
AcDbPolyline
 90
        4
 70
     0
 43
0.0
 10
213.8510638297885
 20
-351.2939080028555
 10
164.0965997616176
 20
-233.7659574468107
 10
213.8510638297885
 20
-262.8723404255343
 10
221.5106382978729
 20
-137.9419883757573
  0
LWPOLYLINE
  5
EE
330
70
100
AcDbEntity
  8
Layer 1
 62
    18
420
        0
370
   140
100
AcDbPolyline
 90
        4
 70
     0
 43
0.0
 10
639.3619267263002
 20
-590.7802182697778
 10
589.6074626581285
 20
-473.2522677137331
 10
639.3619267263002
 20
-502.3586506924566
 10
647.0215011943837
 20
-377.4282986426797
  0
ENDSEC
  0
SECTION
  2
OBJECTS
  0
DICTIONARY
  5
C
330
0
100
AcDbDictionary
281
     1
  3
ACAD_COLOR
350
63
  3
ACAD_DETAILVIEWSTYLE
350
6A
  3
ACAD_GROUP
350
D
  3
ACAD_LAYOUT
350
62
  3
ACAD_MATERIAL
350
10
  3
ACAD_MLEADERSTYLE
350
66
  3
ACAD_MLINESTYLE
350
5F
  3
ACAD_PLOTSETTINGS
350
61
  3
ACAD_PLOTSTYLENAME
350
E
  3
ACAD_SCALELIST
350
42
  3
ACAD_SECTIONVIEWSTYLE
350
68
  3
ACAD_TABLESTYLE
350
64
  3
ACAD_VISUALSTYLE
350
29
  3
ACDB_RECOMPOSE_DATA
350
F7
  3
AcDbVariableDictionary
350
EF
  0
DICTIONARY
  5
63
102
{ACAD_REACTORS
330
C
102
}
330
C
100
AcDbDictionary
281
     1
  0
DICTIONARY
  5
6A
102
{ACAD_REACTORS
330
C
102
}
330
C
100
AcDbDictionary
281
     1
  3
Imperial24
350
6B
  0
DICTIONARY
  5
D
102
{ACAD_REACTORS
330
C
102
}
330
C
100
AcDbDictionary
281
     1
  0
DICTIONARY
  5
62
102
{ACAD_REACTORS
330
C
102
}
330
C
100
AcDbDictionary
281
     1
  3
Layout1
350
6F
  3
Layout2
350
77
  3
Model
350
73
  0
DICTIONARY
  5
10
102
{ACAD_REACTORS
330
C
102
}
330
C
100
AcDbDictionary
281
     1
  3
ByBlock
350
19
  3
ByLayer
350
11
  3
Global
350
21
  0
DICTIONARY
  5
66
102
{ACAD_REACTORS
330
C
102
}
330
C
100
AcDbDictionary
281
     1
  3
Standard
350
67
  0
DICTIONARY
  5
5F
102
{ACAD_REACTORS
330
C
102
}
330
C
100
AcDbDictionary
281
     1
  3
Standard
350
60
  0
DICTIONARY
  5
61
102
{ACAD_REACTORS
330
C
102
}
330
C
100
AcDbDictionary
281
     1
  0
ACDBDICTIONARYWDFLT
  5
E
102
{ACAD_REACTORS
330
C
102
}
330
C
100
AcDbDictionary
281
     1
  3
Normal
350
F
100
AcDbDictionaryWithDefault
340
F
  0
DICTIONARY
  5
42
102
{ACAD_REACTORS
330
C
102
}
330
C
100
AcDbDictionary
281
     1
  3
A0
350
43
  3
A1
350
44
  3
A2
350
45
  3
A3
350
46
  3
A4
350
47
  3
A5
350
48
  3
A6
350
49
  3
A7
350
4A
  3
A8
350
4B
  3
A9
350
4C
  3
B0
350
4D
  3
B1
350
4E
  3
B2
350
4F
  3
B3
350
50
  3
B4
350
51
  3
B5
350
52
  3
B6
350
53
  0
DICTIONARY
  5
68
102
{ACAD_REACTORS
330
C
102
}
330
C
100
AcDbDictionary
281
     1
  3
Imperial24
350
69
  0
DICTIONARY
  5
64
102
{ACAD_REACTORS
330
C
102
}
330
C
100
AcDbDictionary
281
     1
  3
Standard
350
65
  0
DICTIONARY
  5
29
102
{ACAD_REACTORS
330
C
102
}
330
C
100
AcDbDictionary
281
     1
  3
2dWireframe
350
2F
  3
Basic
350
2E
  3
Brighten
350
35
  3
ColorChange
350
39
  3
Conceptual
350
32
  3
Dim
350
34
  3
EdgeColorOff
350
41
  3
Facepattern
350
38
  3
Flat
350
2A
  3
FlatWithEdges
350
2B
  3
Gouraud
350
2C
  3
GouraudWithEdges
350
2D
  3
Hidden
350
31
  3
JitterOff
350
3F
  3
Linepattern
350
37
  3
OverhangOff
350
40
  3
Realistic
350
33
  3
Shaded
350
3E
  3
Shaded with edges
350
3D
  3
Shades of Gray
350
3A
  3
Sketchy
350
3B
  3
Thicken
350
36
  3
Wireframe
350
30
  3
X-Ray
350
3C
  0
XRECORD
  5
F7
102
{ACAD_REACTORS
330
C
102
}
330
C
100
AcDbXrecord
280
     1
 90
        1
330
65
  0
DICTIONARY
  5
EF
102
{ACAD_REACTORS
330
C
102
}
330
C
100
AcDbDictionary
281
     1
  3
CANNOSCALE
350
F4
  3
CMLEADERSTYLE
350
F1
  3
CTABLESTYLE
350
F0
  3
CVIEWDETAILSTYLE
350
F2
  3
CVIEWSECTIONSTYLE
350
F3
  0
ACDBDETAILVIEWSTYLE
  5
6B
102
{ACAD_REACTORS
330
6A
102
}
330
6A
100
AcDbModelDocViewStyle
 70
     0
  3
Imperial24
290
     1
300
Imperial24
 90
        0
100
AcDbDetailViewStyle
 70
     0
 71
     0
 90
        3
 71
     1
340
55
 62
   256
 40
0.24
340
0
 62
   256
 40
0.24
300

 40
0.36
280
     3
 71
     2
340
5D
 90
       25
 62
   256
 71
     3
340
55
 62
   256
 40
0.24
 90
        1
 40
0.75
 90
        1
300
%<\AcVar ViewType \f "%tc1">% %<\AcVar ViewDetailId>%\PSCALE %<\AcVar ViewScale \f "%sn">%
 71
     4
340
5D
 90
       25
 62
   256
340
5D
 90
       25
 62
   256
280
     0
  0
LAYOUT
  5
6F
102
{ACAD_REACTORS
330
62
102
}
330
62
100
AcDbPlotSettings
  1

  2

  4

  6

 40
0.0
 41
0.0
 42
0.0
 43
0.0
 44
0.0
 45
0.0
 46
0.0
 47
0.0
 48
0.0
 49
0.0
140
0.0
141
0.0
142
1.0
143
1.0
 70
   688
 72
     0
 73
     0
 74
     5
  7

 75
    16
147
1.0
 76
     0
 77
     2
 78
   300
148
0.0
149
0.0
100
AcDbLayout
  1
Layout1
 70
     1
 71
     1
 10
0.0
 20
0.0
 11
12.0
 21
9.0
 12
0.0
 22
0.0
 32
0.0
 14
0.0
 24
0.0
 34
0.0
 15
0.0
 25
0.0
 35
0.0
146
0.0
 13
0.0
 23
0.0
 33
0.0
 16
1.0
 26
0.0
 36
0.0
 17
0.0
 27
1.0
 37
0.0
 76
     0
330
6C
  0
LAYOUT
  5
77
102
{ACAD_REACTORS
330
62
102
}
330
62
100
AcDbPlotSettings
  1

  2

  4

  6

 40
0.0
 41
0.0
 42
0.0
 43
0.0
 44
0.0
 45
0.0
 46
0.0
 47
0.0
 48
0.0
 49
0.0
140
0.0
141
0.0
142
1.0
143
1.0
 70
   688
 72
     0
 73
     0
 74
     5
  7

 75
    16
147
1.0
 76
     0
 77
     2
 78
   300
148
0.0
149
0.0
100
AcDbLayout
  1
Layout2
 70
     1
 71
     2
 10
0.0
 20
0.0
 11
12.0
 21
9.0
 12
0.0
 22
0.0
 32
0.0
 14
0.0
 24
0.0
 34
0.0
 15
0.0
 25
0.0
 35
0.0
146
0.0
 13
0.0
 23
0.0
 33
0.0
 16
1.0
 26
0.0
 36
0.0
 17
0.0
 27
1.0
 37
0.0
 76
     0
330
74
  0
LAYOUT
  5
73
102
{ACAD_REACTORS
330
62
102
}
330
62
100
AcDbPlotSettings
  1

  2

  4

  6

 40
0.0
 41
0.0
 42
0.0
 43
0.0
 44
0.0
 45
0.0
 46
0.0
 47
0.0
 48
0.0
 49
0.0
140
0.0
141
0.0
142
1.0
143
1.0
 70
  1712
 72
     0
 73
     0
 74
     0
  7

 75
     0
147
1.0
 76
     0
 77
     2
 78
   300
148
0.0
149
0.0
100
AcDbLayout
  1
Model
 70
     1
 71
     0
 10
0.0
 20
0.0
 11
12.0
 21
9.0
 12
0.0
 22
0.0
 32
0.0
 14
0.0
 24
0.0
 34
0.0
 15
0.0
 25
0.0
 35
0.0
146
0.0
 13
0.0
 23
0.0
 33
0.0
 16
1.0
 26
0.0
 36
0.0
 17
0.0
 27
1.0
 37
0.0
 76
     0
330
70
  0
MATERIAL
  5
19
102
{ACAD_XDICTIONARY
360
1A
102
}
102
{ACAD_REACTORS
330
10
102
}
330
10
100
AcDbMaterial
  1
ByBlock
 72
     0
 43
0.0208333333333333
 43
0.0
 43
0.0
 43
0.0
 43
0.0
 43
0.0208333333333333
 43
0.0
 43
0.0
 43
0.0
 43
0.0
 43
1.0
 43
0.0
 43
0.0
 43
0.0
 43
0.0
 43
1.0
 77
     0
 47
0.0208333333333333
 47
0.0
 47
0.0
 47
0.0
 47
0.0
 47
0.0208333333333333
 47
0.0
 47
0.0
 47
0.0
 47
0.0
 47
1.0
 47
0.0
 47
0.0
 47
0.0
 47
0.0
 47
1.0
171
     0
 49
0.0208333333333333
 49
0.0
 49
0.0
 49
0.0
 49
0.0
 49
0.0208333333333333
 49
0.0
 49
0.0
 49
0.0
 49
0.0
 49
1.0
 49
0.0
 49
0.0
 49
0.0
 49
0.0
 49
1.0
175
     0
142
0.0208333333333333
142
0.0
142
0.0
142
0.0
142
0.0
142
0.0208333333333333
142
0.0
142
0.0
142
0.0
142
0.0
142
1.0
142
0.0
142
0.0
142
0.0
142
0.0
142
1.0
179
     0
144
0.0208333333333333
144
0.0
144
0.0
144
0.0
144
0.0
144
0.0208333333333333
144
0.0
144
0.0
144
0.0
144
0.0
144
1.0
144
0.0
144
0.0
144
0.0
144
0.0
144
1.0
147
0.0208333333333333
147
0.0
147
0.0
147
0.0
147
0.0
147
0.0208333333333333
147
0.0
147
0.0
147
0.0
147
0.0
147
1.0
147
0.0
147
0.0
147
0.0
147
0.0
147
1.0
  0
MATERIAL
  5
11
102
{ACAD_XDICTIONARY
360
12
102
}
102
{ACAD_REACTORS
330
10
102
}
330
10
100
AcDbMaterial
  1
ByLayer
 72
     0
 43
0.0208333333333333
 43
0.0
 43
0.0
 43
0.0
 43
0.0
 43
0.0208333333333333
 43
0.0
 43
0.0
 43
0.0
 43
0.0
 43
1.0
 43
0.0
 43
0.0
 43
0.0
 43
0.0
 43
1.0
 77
     0
 47
0.0208333333333333
 47
0.0
 47
0.0
 47
0.0
 47
0.0
 47
0.0208333333333333
 47
0.0
 47
0.0
 47
0.0
 47
0.0
 47
1.0
 47
0.0
 47
0.0
 47
0.0
 47
0.0
 47
1.0
171
     0
 49
0.0208333333333333
 49
0.0
 49
0.0
 49
0.0
 49
0.0
 49
0.0208333333333333
 49
0.0
 49
0.0
 49
0.0
 49
0.0
 49
1.0
 49
0.0
 49
0.0
 49
0.0
 49
0.0
 49
1.0
175
     0
142
0.0208333333333333
142
0.0
142
0.0
142
0.0
142
0.0
142
0.0208333333333333
142
0.0
142
0.0
142
0.0
142
0.0
142
1.0
142
0.0
142
0.0
142
0.0
142
0.0
142
1.0
179
     0
144
0.0208333333333333
144
0.0
144
0.0
144
0.0
144
0.0
144
0.0208333333333333
144
0.0
144
0.0
144
0.0
144
0.0
144
1.0
144
0.0
144
0.0
144
0.0
144
0.0
144
1.0
147
0.0208333333333333
147
0.0
147
0.0
147
0.0
147
0.0
147
0.0208333333333333
147
0.0
147
0.0
147
0.0
147
0.0
147
1.0
147
0.0
147
0.0
147
0.0
147
0.0
147
1.0
  0
MATERIAL
  5
21
102
{ACAD_XDICTIONARY
360
22
102
}
102
{ACAD_REACTORS
330
10
102
}
330
10
100
AcDbMaterial
  1
Global
 72
     0
 43
0.0208333333333333
 43
0.0
 43
0.0
 43
0.0
 43
0.0
 43
0.0208333333333333
 43
0.0
 43
0.0
 43
0.0
 43
0.0
 43
1.0
 43
0.0
 43
0.0
 43
0.0
 43
0.0
 43
1.0
 77
     0
 47
0.0208333333333333
 47
0.0
 47
0.0
 47
0.0
 47
0.0
 47
0.0208333333333333
 47
0.0
 47
0.0
 47
0.0
 47
0.0
 47
1.0
 47
0.0
 47
0.0
 47
0.0
 47
0.0
 47
1.0
171
     0
 49
0.0208333333333333
 49
0.0
 49
0.0
 49
0.0
 49
0.0
 49
0.0208333333333333
 49
0.0
 49
0.0
 49
0.0
 49
0.0
 49
1.0
 49
0.0
 49
0.0
 49
0.0
 49
0.0
 49
1.0
175
     0
142
0.0208333333333333
142
0.0
142
0.0
142
0.0
142
0.0
142
0.0208333333333333
142
0.0
142
0.0
142
0.0
142
0.0
142
1.0
142
0.0
142
0.0
142
0.0
142
0.0
142
1.0
179
     0
144
0.0208333333333333
144
0.0
144
0.0
144
0.0
144
0.0
144
0.0208333333333333
144
0.0
144
0.0
144
0.0
144
0.0
144
1.0
144
0.0
144
0.0
144
0.0
144
0.0
144
1.0
147
0.0208333333333333
147
0.0
147
0.0
147
0.0
147
0.0
147
0.0208333333333333
147
0.0
147
0.0
147
0.0
147
0.0
147
1.0
147
0.0
147
0.0
147
0.0
147
0.0
147
1.0
  0
MLEADERSTYLE
  5
67
102
{ACAD_REACTORS
330
66
102
}
330
66
100
AcDbMLeaderStyle
179
     2
170
     2
171
     1
172
     0
 90
        2
 40
0.0
 41
0.0
173
     1
 91
-1056964608
340
5B
 92
       -2
290
     1
 42
0.09
291
     1
 43
0.36
  3
Standard
 44
0.18
300

342
55
174
     1
178
     6
175
     1
176
     0
 93
-1056964608
 45
0.18
292
     0
297
     0
 46
0.18
 94
-1056964608
 47
1.0
 49
1.0
140
1.0
293
     1
141
0.0
294
     1
177
     0
142
1.0
295
     1
296
     0
143
0.125
271
     0
272
     9
273
     9
298
     1
  0
MLINESTYLE
  5
60
102
{ACAD_REACTORS
330
5F
102
}
330
5F
100
AcDbMlineStyle
  2
STANDARD
 70
     0
  3

 62
   256
 51
90.0
 52
90.0
 71
     2
 49
0.5
 62
   256
  6
BYLAYER
 49
-0.5
 62
   256
  6
BYLAYER
  0
ACDBPLACEHOLDER
  5
F
102
{ACAD_REACTORS
330
E
102
}
330
E
  0
SCALE
  5
43
102
{ACAD_REACTORS
330
42
102
}
330
42
100
AcDbScale
 70
     0
300
1:1
140
1.0
141
1.0
290
     1
  0
SCALE
  5
44
102
{ACAD_REACTORS
330
42
102
}
330
42
100
AcDbScale
 70
     0
300
1/128" = 1'-0"
140
0.0078125
141
12.0
290
     0
  0
SCALE
  5
45
102
{ACAD_REACTORS
330
42
102
}
330
42
100
AcDbScale
 70
     0
300
1/64" = 1'-0"
140
0.015625
141
12.0
290
     0
  0
SCALE
  5
46
102
{ACAD_REACTORS
330
42
102
}
330
42
100
AcDbScale
 70
     0
300
1/32" = 1'-0"
140
0.03125
141
12.0
290
     0
  0
SCALE
  5
47
102
{ACAD_REACTORS
330
42
102
}
330
42
100
AcDbScale
 70
     0
300
1/16" = 1'-0"
140
0.0625
141
12.0
290
     0
  0
SCALE
  5
48
102
{ACAD_REACTORS
330
42
102
}
330
42
100
AcDbScale
 70
     0
300
3/32" = 1'-0"
140
0.09375
141
12.0
290
     0
  0
SCALE
  5
49
102
{ACAD_REACTORS
330
42
102
}
330
42
100
AcDbScale
 70
     0
300
1/8" = 1'-0"
140
0.125
141
12.0
290
     0
  0
SCALE
  5
4A
102
{ACAD_REACTORS
330
42
102
}
330
42
100
AcDbScale
 70
     0
300
3/16" = 1'-0"
140
0.1875
141
12.0
290
     0
  0
SCALE
  5
4B
102
{ACAD_REACTORS
330
42
102
}
330
42
100
AcDbScale
 70
     0
300
1/4" = 1'-0"
140
0.25
141
12.0
290
     0
  0
SCALE
  5
4C
102
{ACAD_REACTORS
330
42
102
}
330
42
100
AcDbScale
 70
     0
300
3/8" = 1'-0"
140
0.375
141
12.0
290
     0
  0
SCALE
  5
4D
102
{ACAD_REACTORS
330
42
102
}
330
42
100
AcDbScale
 70
     0
300
1/2" = 1'-0"
140
0.5
141
12.0
290
     0
  0
SCALE
  5
4E
102
{ACAD_REACTORS
330
42
102
}
330
42
100
AcDbScale
 70
     0
300
3/4" = 1'-0"
140
0.75
141
12.0
290
     0
  0
SCALE
  5
4F
102
{ACAD_REACTORS
330
42
102
}
330
42
100
AcDbScale
 70
     0
300
1" = 1'-0"
140
1.0
141
12.0
290
     0
  0
SCALE
  5
50
102
{ACAD_REACTORS
330
42
102
}
330
42
100
AcDbScale
 70
     0
300
1-1/2" = 1'-0"
140
1.5
141
12.0
290
     0
  0
SCALE
  5
51
102
{ACAD_REACTORS
330
42
102
}
330
42
100
AcDbScale
 70
     0
300
3" = 1'-0"
140
3.0
141
12.0
290
     0
  0
SCALE
  5
52
102
{ACAD_REACTORS
330
42
102
}
330
42
100
AcDbScale
 70
     0
300
6" = 1'-0"
140
6.0
141
12.0
290
     0
  0
SCALE
  5
53
102
{ACAD_REACTORS
330
42
102
}
330
42
100
AcDbScale
 70
     0
300
1'-0" = 1'-0"
140
12.0
141
12.0
290
     0
  0
ACDBSECTIONVIEWSTYLE
  5
69
102
{ACAD_REACTORS
330
68
102
}
330
68
100
AcDbModelDocViewStyle
 70
     0
  3
Imperial24
290
     1
300
Imperial24
 90
        0
100
AcDbSectionViewStyle
 70
     0
 71
     0
 90
       78
 71
     1
340
55
 62
   256
 40
0.24
340
0
340
0
 62
   256
 40
0.24
300
I, O, Q, S, X, Z
 40
0.48
 90
        3
 40
0.18
 90
        1
 71
     2
340
5D
 90
       25
 62
   256
340
5D
 90
       50
 62
   256
 40
0.24
 40
0.0
 40
0.24
 71
     3
340
55
 62
   256
 40
0.24
 90
        1
 40
0.75
 90
        1
300
%<\AcVar ViewType \f "%tc1">% %<\AcVar ViewSectionStartId>%-%<\AcVar ViewSectionEndId>%\PSCALE %<\AcVar ViewScale \f "%sn">%
 71
     4
 62
   256
 62
   257
300
ANSI31
 40
1.0
 90
        0
290
     0
290
     0
 90
        6
 40
0.0
 40
1.570796326794896
 40
0.2617993877991494
 40
1.308996938995747
 40
-0.2617993877991494
 40
1.832595714594046
  0
TABLESTYLE
  5
65
102
{ACAD_XDICTIONARY
360
F5
102
}
102
{ACAD_REACTORS
330
64
102
}
330
64
100
AcDbTableStyle
280
     0
  3
Standard
 70
     0
 71
     0
 40
0.06
 41
0.06
280
     0
281
     0
  7
Standard
140
0.18
170
     2
 62
     0
 63
     7
283
     0
 90
      512
 91
        0
  1

274
    -2
284
     1
 64
     0
275
    -2
285
     1
 65
     0
276
    -2
286
     1
 66
     0
277
    -2
287
     1
 67
     0
278
    -2
288
     1
 68
     0
279
    -2
289
     1
 69
     0
  7
Standard
140
0.25
170
     5
 62
     0
 63
     7
283
     0
 90
      512
 91
        0
  1

274
    -2
284
     1
 64
     0
275
    -2
285
     1
 65
     0
276
    -2
286
     1
 66
     0
277
    -2
287
     1
 67
     0
278
    -2
288
     1
 68
     0
279
    -2
289
     1
 69
     0
  7
Standard
140
0.18
170
     5
 62
     0
 63
     7
283
     0
 90
      512
 91
        0
  1

274
    -2
284
     1
 64
     0
275
    -2
285
     1
 65
     0
276
    -2
286
     1
 66
     0
277
    -2
287
     1
 67
     0
278
    -2
288
     1
 68
     0
279
    -2
289
     1
 69
     0
  0
VISUALSTYLE
  5
2F
102
{ACAD_REACTORS
330
29
102
}
330
29
100
AcDbVisualStyle
  2
2dWireframe
 70
     4
177
     3
291
     0
 70
    58
 90
        0
176
     1
 90
        2
176
     1
 90
        0
176
     1
 90
        0
176
     1
 40
0.6
176
     1
 40
30.0
176
     1
 62
     7
420
 16777215
176
     1
 90
        1
176
     1
 90
        4
176
     1
 62
     7
176
     1
 62
   257
176
     1
 90
        1
176
     1
 90
        1
176
     1
 40
1.0
176
     1
 90
        0
176
     1
 62
   257
176
     1
 40
1.0
176
     1
 90
        1
176
     1
 90
        6
176
     1
 90
        2
176
     1
 62
     7
176
     1
 90
        5
176
     1
 90
        0
176
     1
 90
        0
176
     1
290
     0
176
     1
 90
        1
176
     1
 40
0.0
176
     1
 90
        0
176
     1
290
     1
176
     1
290
     1
176
     1
290
     0
176
     1
290
     0
176
     1
290
     0
176
     1
290
     0
176
     1
290
     0
176
     1
290
     0
176
     1
290
     0
176
     1
 90
       50
176
     1
 40
0.0
176
     1
 40
1.0
176
     1
 90
        0
176
     1
 62
    18
420
        0
176
     1
 90
       50
176
     1
 90
        3
176
     1
 62
     5
420
      255
176
     1
290
     0
176
     1
 90
       50
176
     1
 90
       50
176
     1
 90
       50
176
     1
290
     0
176
     1
 90
       50
176
     1
 62
   256
176
     0
 40
1.0
176
     0
 90
        2
176
     1
  1
strokes_ogs.tif
176
     1
290
     0
176
     1
 40
1.0
176
     1
 40
1.0
176
     1
  0
VISUALSTYLE
  5
2E
102
{ACAD_REACTORS
330
29
102
}
330
29
100
AcDbVisualStyle
  2
Basic
 70
     7
177
     3
291
     1
 70
    58
 90
        1
176
     1
 90
        0
176
     1
 90
        1
176
     1
 90
        0
176
     1
 40
0.6
176
     1
 40
30.0
176
     1
 62
     7
420
 16777215
176
     1
 90
        0
176
     1
 90
        4
176
     1
 62
     7
176
     1
 62
   257
176
     1
 90
        1
176
     1
 90
        1
176
     1
 40
1.0
176
     1
 90
        8
176
     1
 62
     7
176
     1
 40
1.0
176
     1
 90
        1
176
     1
 90
        6
176
     1
 90
        2
176
     1
 62
     7
176
     1
 90
        5
176
     1
 90
        0
176
     1
 90
        0
176
     1
290
     0
176
     1
 90
        1
176
     1
 40
0.0
176
     1
 90
        0
176
     1
290
     0
176
     1
290
     1
176
     1
290
     1
176
     1
290
     0
176
     1
290
     0
176
     1
290
     0
176
     1
290
     0
176
     1
290
     0
176
     1
290
     0
176
     1
 90
       50
176
     1
 40
0.0
176
     1
 40
1.0
176
     1
 90
        0
176
     1
 62
    18
420
        0
176
     1
 90
       50
176
     1
 90
        3
176
     1
 62
     5
420
      255
176
     1
290
     0
176
     1
 90
       50
176
     1
 90
       50
176
     1
 90
       50
176
     1
290
     0
176
     1
 90
       50
176
     1
 62
   256
176
     0
 40
1.0
176
     0
 90
        2
176
     1
  1
strokes_ogs.tif
176
     1
290
     0
176
     1
 40
1.0
176
     1
 40
1.0
176
     1
  0
VISUALSTYLE
  5
35
102
{ACAD_REACTORS
330
29
102
}
330
29
100
AcDbVisualStyle
  2
Brighten
 70
    12
177
     3
291
     1
 70
    58
 90
        2
176
     1
 90
        2
176
     1
 90
        0
176
     1
 90
        0
176
     1
 40
0.6
176
     1
 40
30.0
176
     1
 62
     7
420
 16777215
176
     1
 90
        1
176
     1
 90
        4
176
     1
 62
     7
176
     1
 62
   257
176
     1
 90
        1
176
     1
 90
        1
176
     1
 40
1.0
176
     1
 90
        8
176
     1
 62
     7
176
     1
 40
1.0
176
     1
 90
        1
176
     1
 90
        6
176
     1
 90
        2
176
     1
 62
     7
176
     1
 90
        5
176
     1
 90
        0
176
     1
 90
        0
176
     1
290
     0
176
     1
 90
        1
176
     1
 40
50.0
176
     1
 90
        0
176
     1
290
     0
176
     1
290
     1
176
     1
290
     1
176
     1
290
     0
176
     1
290
     0
176
     1
290
     0
176
     1
290
     0
176
     1
290
     0
176
     1
290
     0
176
     1
 90
       50
176
     1
 40
0.0
176
     1
 40
1.0
176
     1
 90
        0
176
     1
 62
    18
420
        0
176
     1
 90
       50
176
     1
 90
        3
176
     1
 62
     5
420
      255
176
     1
290
     0
176
     1
 90
       50
176
     1
 90
       50
176
     1
 90
       50
176
     1
290
     0
176
     1
 90
       50
176
     1
 62
   256
176
     0
 40
1.0
176
     0
 90
        2
176
     1
  1
strokes_ogs.tif
176
     1
290
     0
176
     1
 40
1.0
176
     1
 40
1.0
176
     1
  0
VISUALSTYLE
  5
39
102
{ACAD_REACTORS
330
29
102
}
330
29
100
AcDbVisualStyle
  2
ColorChange
 70
    16
177
     3
291
     1
 70
    58
 90
        2
176
     1
 90
        2
176
     1
 90
        3
176
     1
 90
        0
176
     1
 40
0.6
176
     1
 40
30.0
176
     1
 62
     8
420
  8421504
176
     1
 90
        1
176
     1
 90
        4
176
     1
 62
     7
176
     1
 62
   257
176
     1
 90
        1
176
     1
 90
        1
176
     1
 40
1.0
176
     1
 90
        8
176
     1
 62
     8
420
  8421504
176
     1
 40
1.0
176
     1
 90
        1
176
     1
 90
        6
176
     1
 90
        2
176
     1
 62
     7
176
     1
 90
        5
176
     1
 90
        0
176
     1
 90
        0
176
     1
290
     0
176
     1
 90
        1
176
     1
 40
0.0
176
     1
 90
        0
176
     1
290
     0
176
     1
290
     1
176
     1
290
     1
176
     1
290
     0
176
     1
290
     0
176
     1
290
     0
176
     1
290
     0
176
     1
290
     0
176
     1
290
     0
176
     1
 90
       50
176
     1
 40
0.0
176
     1
 40
1.0
176
     1
 90
        0
176
     1
 62
    18
420
        0
176
     1
 90
       50
176
     1
 90
        3
176
     1
 62
     5
420
      255
176
     1
290
     0
176
     1
 90
       50
176
     1
 90
       50
176
     1
 90
       50
176
     1
290
     0
176
     1
 90
       50
176
     1
 62
   256
176
     0
 40
1.0
176
     0
 90
        2
176
     1
  1
strokes_ogs.tif
176
     1
290
     0
176
     1
 40
1.0
176
     1
 40
1.0
176
     1
  0
VISUALSTYLE
  5
32
102
{ACAD_REACTORS
330
29
102
}
330
29
100
AcDbVisualStyle
  2
Conceptual
 70
     9
177
     3
291
     0
 70
    58
 90
        3
176
     1
 90
        2
176
     1
 90
        0
176
     1
 90
        0
176
     1
 40
0.6
176
     1
 40
30.0
176
     1
 62
     7
420
 16777215
176
     1
 90
        2
176
     1
 90
        2
176
     1
 62
     7
176
     1
 62
   257
176
     1
 90
        1
176
     1
 90
        1
176
     1
 40
179.0
176
     1
 90
        8
176
     1
 62
     7
176
     1
 40
1.0
176
     1
 90
        1
176
     1
 90
        6
176
     1
 90
        2
176
     1
 62
     7
176
     1
 90
        3
176
     1
 90
        0
176
     1
 90
        0
176
     1
290
     0
176
     1
 90
        1
176
     1
 40
0.0
176
     1
 90
        0
176
     1
290
     0
176
     1
290
     1
176
     1
290
     1
176
     1
290
     0
176
     1
290
     0
176
     1
290
     0
176
     1
290
     0
176
     1
290
     0
176
     1
290
     0
176
     1
 90
       50
176
     1
 40
0.0
176
     1
 40
1.0
176
     1
 90
        0
176
     1
 62
    18
420
        0
176
     1
 90
       50
176
     1
 90
        3
176
     1
 62
     5
420
      255
176
     1
290
     0
176
     1
 90
       50
176
     1
 90
       50
176
     1
 90
       50
176
     1
290
     0
176
     1
 90
       50
176
     1
 62
   256
176
     0
 40
1.0
176
     0
 90
        2
176
     1
  1
strokes_ogs.tif
176
     1
290
     0
176
     1
 40
1.0
176
     1
 40
1.0
176
     1
  0
VISUALSTYLE
  5
34
102
{ACAD_REACTORS
330
29
102
}
330
29
100
AcDbVisualStyle
  2
Dim
 70
    11
177
     3
291
     1
 70
    58
 90
        2
176
     1
 90
        2
176
     1
 90
        0
176
     1
 90
        0
176
     1
 40
0.6
176
     1
 40
30.0
176
     1
 62
     7
420
 16777215
176
     1
 90
        1
176
     1
 90
        4
176
     1
 62
     7
176
     1
 62
   257
176
     1
 90
        1
176
     1
 90
        1
176
     1
 40
1.0
176
     1
 90
        8
176
     1
 62
     7
176
     1
 40
1.0
176
     1
 90
        1
176
     1
 90
        6
176
     1
 90
        2
176
     1
 62
     7
176
     1
 90
        5
176
     1
 90
        0
176
     1
 90
        0
176
     1
290
     0
176
     1
 90
        1
176
     1
 40
-50.0
176
     1
 90
        0
176
     1
290
     0
176
     1
290
     1
176
     1
290
     1
176
     1
290
     0
176
     1
290
     0
176
     1
290
     0
176
     1
290
     0
176
     1
290
     0
176
     1
290
     0
176
     1
 90
       50
176
     1
 40
0.0
176
     1
 40
1.0
176
     1
 90
        0
176
     1
 62
    18
420
        0
176
     1
 90
       50
176
     1
 90
        3
176
     1
 62
     5
420
      255
176
     1
290
     0
176
     1
 90
       50
176
     1
 90
       50
176
     1
 90
       50
176
     1
290
     0
176
     1
 90
       50
176
     1
 62
   256
176
     0
 40
1.0
176
     0
 90
        2
176
     1
  1
strokes_ogs.tif
176
     1
290
     0
176
     1
 40
1.0
176
     1
 40
1.0
176
     1
  0
VISUALSTYLE
  5
41
102
{ACAD_REACTORS
330
29
102
}
330
29
100
AcDbVisualStyle
  2
EdgeColorOff
 70
    22
177
     3
291
     1
 70
    58
 90
        2
176
     0
 90
        2
176
     0
 90
        0
176
     0
 90
        0
176
     0
 40
0.6
176
     0
 40
30.0
176
     0
 62
     7
420
 16777215
176
     0
 90
        1
176
     0
 90
        4
176
     0
 62
     7
176
     0
 62
   257
176
     0
 90
        1
176
     0
 90
        1
176
     0
 40
1.0
176
     0
 90
        8
176
     2
 62
     7
176
     0
 40
1.0
176
     0
 90
        1
176
     0
 90
        6
176
     0
 90
        2
176
     0
 62
     7
176
     0
 90
        5
176
     0
 90
        0
176
     0
 90
        0
176
     0
290
     0
176
     0
 90
        1
176
     0
 40
0.0
176
     0
 90
        0
176
     0
290
     0
176
     0
290
     1
176
     0
290
     1
176
     0
290
     0
176
     0
290
     0
176
     0
290
     0
176
     0
290
     0
176
     0
290
     0
176
     0
290
     0
176
     0
 90
       50
176
     0
 40
0.0
176
     0
 40
1.0
176
     0
 90
        0
176
     0
 62
    18
420
        0
176
     0
 90
       50
176
     0
 90
        3
176
     0
 62
     5
420
      255
176
     0
290
     0
176
     0
 90
       50
176
     0
 90
       50
176
     0
 90
       50
176
     0
290
     0
176
     0
 90
       50
176
     0
 62
   256
176
     0
 40
1.0
176
     0
 90
        2
176
     0
  1
strokes_ogs.tif
176
     0
290
     0
176
     0
 40
1.0
176
     0
 40
1.0
176
     0
  0
VISUALSTYLE
  5
38
102
{ACAD_REACTORS
330
29
102
}
330
29
100
AcDbVisualStyle
  2
Facepattern
 70
    15
177
     3
291
     1
 70
    58
 90
        2
176
     1
 90
        2
176
     1
 90
        0
176
     1
 90
        0
176
     1
 40
0.6
176
     1
 40
30.0
176
     1
 62
     7
420
 16777215
176
     1
 90
        1
176
     1
 90
        4
176
     1
 62
     7
176
     1
 62
   257
176
     1
 90
        1
176
     1
 90
        1
176
     1
 40
1.0
176
     1
 90
        8
176
     1
 62
     7
176
     1
 40
1.0
176
     1
 90
        1
176
     1
 90
        6
176
     1
 90
        2
176
     1
 62
     7
176
     1
 90
        5
176
     1
 90
        0
176
     1
 90
        0
176
     1
290
     0
176
     1
 90
        1
176
     1
 40
0.0
176
     1
 90
        0
176
     1
290
     0
176
     1
290
     1
176
     1
290
     1
176
     1
290
     0
176
     1
290
     0
176
     1
290
     0
176
     1
290
     0
176
     1
290
     0
176
     1
290
     0
176
     1
 90
       50
176
     1
 40
0.0
176
     1
 40
1.0
176
     1
 90
        0
176
     1
 62
    18
420
        0
176
     1
 90
       50
176
     1
 90
        3
176
     1
 62
     5
420
      255
176
     1
290
     0
176
     1
 90
       50
176
     1
 90
       50
176
     1
 90
       50
176
     1
290
     0
176
     1
 90
       50
176
     1
 62
   256
176
     0
 40
1.0
176
     0
 90
        2
176
     1
  1
strokes_ogs.tif
176
     1
290
     0
176
     1
 40
1.0
176
     1
 40
1.0
176
     1
  0
VISUALSTYLE
  5
2A
102
{ACAD_REACTORS
330
29
102
}
330
29
100
AcDbVisualStyle
  2
Flat
 70
     0
177
     3
291
     1
 70
    58
 90
        2
176
     1
 90
        1
176
     1
 90
        1
176
     1
 90
        2
176
     1
 40
0.6
176
     1
 40
30.0
176
     1
 62
     7
420
 16777215
176
     1
 90
        0
176
     1
 90
        0
176
     1
 62
     7
176
     1
 62
   257
176
     1
 90
        1
176
     1
 90
        1
176
     1
 40
1.0
176
     1
 90
        8
176
     1
 62
     7
176
     1
 40
1.0
176
     1
 90
        1
176
     1
 90
        6
176
     1
 90
        2
176
     1
 62
     7
176
     1
 90
        5
176
     1
 90
        0
176
     1
 90
        0
176
     1
290
     0
176
     1
 90
       13
176
     1
 40
0.0
176
     1
 90
        0
176
     1
290
     0
176
     1
290
     1
176
     1
290
     1
176
     1
290
     0
176
     1
290
     0
176
     1
290
     0
176
     1
290
     0
176
     1
290
     0
176
     1
290
     0
176
     1
 90
       50
176
     1
 40
0.0
176
     1
 40
1.0
176
     1
 90
        0
176
     1
 62
    18
420
        0
176
     1
 90
       50
176
     1
 90
        3
176
     1
 62
     5
420
      255
176
     1
290
     0
176
     1
 90
       50
176
     1
 90
       50
176
     1
 90
       50
176
     1
290
     0
176
     1
 90
       50
176
     1
 62
   256
176
     0
 40
1.0
176
     0
 90
        2
176
     1
  1
strokes_ogs.tif
176
     1
290
     0
176
     1
 40
1.0
176
     1
 40
1.0
176
     1
  0
VISUALSTYLE
  5
2B
102
{ACAD_REACTORS
330
29
102
}
330
29
100
AcDbVisualStyle
  2
FlatWithEdges
 70
     1
177
     3
291
     1
 70
    58
 90
        2
176
     1
 90
        1
176
     1
 90
        1
176
     1
 90
        2
176
     1
 40
0.6
176
     1
 40
30.0
176
     1
 62
     7
420
 16777215
176
     1
 90
        1
176
     1
 90
        0
176
     1
 62
     7
176
     1
 62
   257
176
     1
 90
        1
176
     1
 90
        1
176
     1
 40
1.0
176
     1
 90
        0
176
     1
 62
   257
176
     1
 40
1.0
176
     1
 90
        1
176
     1
 90
        6
176
     1
 90
        2
176
     1
 62
     7
176
     1
 90
        5
176
     1
 90
        0
176
     1
 90
        0
176
     1
290
     0
176
     1
 90
       13
176
     1
 40
0.0
176
     1
 90
        0
176
     1
290
     0
176
     1
290
     1
176
     1
290
     1
176
     1
290
     0
176
     1
290
     0
176
     1
290
     0
176
     1
290
     0
176
     1
290
     0
176
     1
290
     0
176
     1
 90
       50
176
     1
 40
0.0
176
     1
 40
1.0
176
     1
 90
        0
176
     1
 62
    18
420
        0
176
     1
 90
       50
176
     1
 90
        3
176
     1
 62
     5
420
      255
176
     1
290
     0
176
     1
 90
       50
176
     1
 90
       50
176
     1
 90
       50
176
     1
290
     0
176
     1
 90
       50
176
     1
 62
   256
176
     0
 40
1.0
176
     0
 90
        2
176
     1
  1
strokes_ogs.tif
176
     1
290
     0
176
     1
 40
1.0
176
     1
 40
1.0
176
     1
  0
VISUALSTYLE
  5
2C
102
{ACAD_REACTORS
330
29
102
}
330
29
100
AcDbVisualStyle
  2
Gouraud
 70
     2
177
     3
291
     1
 70
    58
 90
        2
176
     1
 90
        2
176
     1
 90
        1
176
     1
 90
        2
176
     1
 40
0.6
176
     1
 40
30.0
176
     1
 62
     7
420
 16777215
176
     1
 90
        0
176
     1
 90
        0
176
     1
 62
     7
176
     1
 62
   257
176
     1
 90
        1
176
     1
 90
        1
176
     1
 40
1.0
176
     1
 90
        0
176
     1
 62
     7
176
     1
 40
1.0
176
     1
 90
        1
176
     1
 90
        6
176
     1
 90
        2
176
     1
 62
     7
176
     1
 90
        5
176
     1
 90
        0
176
     1
 90
        0
176
     1
290
     0
176
     1
 90
       13
176
     1
 40
0.0
176
     1
 90
        0
176
     1
290
     0
176
     1
290
     1
176
     1
290
     1
176
     1
290
     0
176
     1
290
     0
176
     1
290
     0
176
     1
290
     0
176
     1
290
     0
176
     1
290
     0
176
     1
 90
       50
176
     1
 40
0.0
176
     1
 40
1.0
176
     1
 90
        0
176
     1
 62
    18
420
        0
176
     1
 90
       50
176
     1
 90
        3
176
     1
 62
     5
420
      255
176
     1
290
     0
176
     1
 90
       50
176
     1
 90
       50
176
     1
 90
       50
176
     1
290
     0
176
     1
 90
       50
176
     1
 62
   256
176
     0
 40
1.0
176
     0
 90
        2
176
     1
  1
strokes_ogs.tif
176
     1
290
     0
176
     1
 40
1.0
176
     1
 40
1.0
176
     1
  0
VISUALSTYLE
  5
2D
102
{ACAD_REACTORS
330
29
102
}
330
29
100
AcDbVisualStyle
  2
GouraudWithEdges
 70
     3
177
     3
291
     1
 70
    58
 90
        2
176
     1
 90
        2
176
     1
 90
        1
176
     1
 90
        2
176
     1
 40
0.6
176
     1
 40
30.0
176
     1
 62
     7
420
 16777215
176
     1
 90
        1
176
     1
 90
        0
176
     1
 62
     7
176
     1
 62
   257
176
     1
 90
        1
176
     1
 90
        1
176
     1
 40
1.0
176
     1
 90
        0
176
     1
 62
   257
176
     1
 40
1.0
176
     1
 90
        1
176
     1
 90
        6
176
     1
 90
        2
176
     1
 62
     7
176
     1
 90
        5
176
     1
 90
        0
176
     1
 90
        0
176
     1
290
     0
176
     1
 90
       13
176
     1
 40
0.0
176
     1
 90
        0
176
     1
290
     0
176
     1
290
     1
176
     1
290
     1
176
     1
290
     0
176
     1
290
     0
176
     1
290
     0
176
     1
290
     0
176
     1
290
     0
176
     1
290
     0
176
     1
 90
       50
176
     1
 40
0.0
176
     1
 40
1.0
176
     1
 90
        0
176
     1
 62
    18
420
        0
176
     1
 90
       50
176
     1
 90
        3
176
     1
 62
     5
420
      255
176
     1
290
     0
176
     1
 90
       50
176
     1
 90
       50
176
     1
 90
       50
176
     1
290
     0
176
     1
 90
       50
176
     1
 62
   256
176
     0
 40
1.0
176
     0
 90
        2
176
     1
  1
strokes_ogs.tif
176
     1
290
     0
176
     1
 40
1.0
176
     1
 40
1.0
176
     1
  0
VISUALSTYLE
  5
31
102
{ACAD_REACTORS
330
29
102
}
330
29
100
AcDbVisualStyle
  2
Hidden
 70
     6
177
     3
291
     0
 70
    58
 90
        1
176
     1
 90
        2
176
     1
 90
        2
176
     1
 90
        0
176
     1
 40
0.6
176
     1
 40
30.0
176
     1
 62
     7
420
 16777215
176
     1
 90
        2
176
     1
 90
        2
176
     1
 62
     7
176
     1
 62
   257
176
     1
 90
        2
176
     1
 90
        1
176
     1
 40
40.0
176
     1
 90
        0
176
     1
 62
   257
176
     1
 40
1.0
176
     1
 90
        1
176
     1
 90
        6
176
     1
 90
        2
176
     1
 62
     7
176
     1
 90
        3
176
     1
 90
        0
176
     1
 90
        0
176
     1
290
     0
176
     1
 90
        1
176
     1
 40
0.0
176
     1
 90
        0
176
     1
290
     0
176
     1
290
     1
176
     1
290
     1
176
     1
290
     0
176
     1
290
     0
176
     1
290
     0
176
     1
290
     0
176
     1
290
     0
176
     1
290
     0
176
     1
 90
       50
176
     1
 40
0.0
176
     1
 40
1.0
176
     1
 90
        0
176
     1
 62
    18
420
        0
176
     1
 90
       50
176
     1
 90
        3
176
     1
 62
     5
420
      255
176
     1
290
     0
176
     1
 90
       50
176
     1
 90
       50
176
     1
 90
       50
176
     1
290
     0
176
     1
 90
       50
176
     1
 62
   256
176
     0
 40
1.0
176
     0
 90
        2
176
     1
  1
strokes_ogs.tif
176
     1
290
     0
176
     1
 40
1.0
176
     1
 40
1.0
176
     1
  0
VISUALSTYLE
  5
3F
102
{ACAD_REACTORS
330
29
102
}
330
29
100
AcDbVisualStyle
  2
JitterOff
 70
    20
177
     3
291
     1
 70
    58
 90
        2
176
     0
 90
        2
176
     0
 90
        0
176
     0
 90
        0
176
     0
 40
0.6
176
     0
 40
30.0
176
     0
 62
     7
420
 16777215
176
     0
 90
        1
176
     0
 90
        4
176
     0
 62
     7
176
     0
 62
   257
176
     0
 90
        1
176
     0
 90
        1
176
     0
 40
1.0
176
     0
 90
       10
176
     2
 62
     7
176
     0
 40
1.0
176
     0
 90
        1
176
     0
 90
        6
176
     0
 90
        2
176
     0
 62
     7
176
     0
 90
        5
176
     0
 90
        0
176
     0
 90
        0
176
     0
290
     0
176
     0
 90
        1
176
     0
 40
0.0
176
     0
 90
        0
176
     0
290
     0
176
     0
290
     1
176
     0
290
     1
176
     0
290
     0
176
     0
290
     0
176
     0
290
     0
176
     0
290
     0
176
     0
290
     0
176
     0
290
     0
176
     0
 90
       50
176
     0
 40
0.0
176
     0
 40
1.0
176
     0
 90
        0
176
     0
 62
    18
420
        0
176
     0
 90
       50
176
     0
 90
        3
176
     0
 62
     5
420
      255
176
     0
290
     0
176
     0
 90
       50
176
     0
 90
       50
176
     0
 90
       50
176
     0
290
     0
176
     0
 90
       50
176
     0
 62
   256
176
     0
 40
1.0
176
     0
 90
        2
176
     0
  1
strokes_ogs.tif
176
     0
290
     0
176
     0
 40
1.0
176
     0
 40
1.0
176
     0
  0
VISUALSTYLE
  5
37
102
{ACAD_REACTORS
330
29
102
}
330
29
100
AcDbVisualStyle
  2
Linepattern
 70
    14
177
     3
291
     1
 70
    58
 90
        2
176
     1
 90
        2
176
     1
 90
        0
176
     1
 90
        0
176
     1
 40
0.6
176
     1
 40
30.0
176
     1
 62
     7
420
 16777215
176
     1
 90
        1
176
     1
 90
        4
176
     1
 62
     7
176
     1
 62
   257
176
     1
 90
        7
176
     1
 90
        7
176
     1
 40
1.0
176
     1
 90
        8
176
     1
 62
     7
176
     1
 40
1.0
176
     1
 90
        1
176
     1
 90
        6
176
     1
 90
        2
176
     1
 62
     7
176
     1
 90
        5
176
     1
 90
        0
176
     1
 90
        0
176
     1
290
     0
176
     1
 90
        1
176
     1
 40
0.0
176
     1
 90
        0
176
     1
290
     0
176
     1
290
     1
176
     1
290
     1
176
     1
290
     0
176
     1
290
     0
176
     1
290
     0
176
     1
290
     0
176
     1
290
     0
176
     1
290
     0
176
     1
 90
       50
176
     1
 40
0.0
176
     1
 40
1.0
176
     1
 90
        0
176
     1
 62
    18
420
        0
176
     1
 90
       50
176
     1
 90
        3
176
     1
 62
     5
420
      255
176
     1
290
     0
176
     1
 90
       50
176
     1
 90
       50
176
     1
 90
       50
176
     1
290
     0
176
     1
 90
       50
176
     1
 62
   256
176
     0
 40
1.0
176
     0
 90
        2
176
     1
  1
strokes_ogs.tif
176
     1
290
     0
176
     1
 40
1.0
176
     1
 40
1.0
176
     1
  0
VISUALSTYLE
  5
40
102
{ACAD_REACTORS
330
29
102
}
330
29
100
AcDbVisualStyle
  2
OverhangOff
 70
    21
177
     3
291
     1
 70
    58
 90
        2
176
     0
 90
        2
176
     0
 90
        0
176
     0
 90
        0
176
     0
 40
0.6
176
     0
 40
30.0
176
     0
 62
     7
420
 16777215
176
     0
 90
        1
176
     0
 90
        4
176
     0
 62
     7
176
     0
 62
   257
176
     0
 90
        1
176
     0
 90
        1
176
     0
 40
1.0
176
     0
 90
        9
176
     2
 62
     7
176
     0
 40
1.0
176
     0
 90
        1
176
     0
 90
        6
176
     0
 90
        2
176
     0
 62
     7
176
     0
 90
        5
176
     0
 90
        0
176
     0
 90
        0
176
     0
290
     0
176
     0
 90
        1
176
     0
 40
0.0
176
     0
 90
        0
176
     0
290
     0
176
     0
290
     1
176
     0
290
     1
176
     0
290
     0
176
     0
290
     0
176
     0
290
     0
176
     0
290
     0
176
     0
290
     0
176
     0
290
     0
176
     0
 90
       50
176
     0
 40
0.0
176
     0
 40
1.0
176
     0
 90
        0
176
     0
 62
    18
420
        0
176
     0
 90
       50
176
     0
 90
        3
176
     0
 62
     5
420
      255
176
     0
290
     0
176
     0
 90
       50
176
     0
 90
       50
176
     0
 90
       50
176
     0
290
     0
176
     0
 90
       50
176
     0
 62
   256
176
     0
 40
1.0
176
     0
 90
        2
176
     0
  1
strokes_ogs.tif
176
     0
290
     0
176
     0
 40
1.0
176
     0
 40
1.0
176
     0
  0
VISUALSTYLE
  5
33
102
{ACAD_REACTORS
330
29
102
}
330
29
100
AcDbVisualStyle
  2
Realistic
 70
     8
177
     3
291
     0
 70
    58
 90
        2
176
     1
 90
        3
176
     1
 90
        0
176
     1
 90
        2
176
     1
 40
0.6
176
     1
 40
30.0
176
     1
 62
     7
420
 16777215
176
     1
 90
        0
176
     1
 90
        0
176
     1
 62
     7
176
     1
 62
   257
176
     1
 90
        1
176
     1
 90
        1
176
     1
 40
1.0
176
     1
 90
        8
176
     1
 62
   257
176
     1
 40
1.0
176
     1
 90
        1
176
     1
 90
        6
176
     1
 90
        2
176
     1
 62
     7
176
     1
 90
        3
176
     1
 90
        0
176
     1
 90
        0
176
     1
290
     0
176
     1
 90
       13
176
     1
 40
0.0
176
     1
 90
        0
176
     1
290
     0
176
     1
290
     1
176
     1
290
     1
176
     1
290
     0
176
     1
290
     0
176
     1
290
     0
176
     1
290
     0
176
     1
290
     0
176
     1
290
     0
176
     1
 90
       50
176
     1
 40
0.0
176
     1
 40
1.0
176
     1
 90
        0
176
     1
 62
    18
420
        0
176
     1
 90
       50
176
     1
 90
        3
176
     1
 62
     5
420
      255
176
     1
290
     0
176
     1
 90
       50
176
     1
 90
       50
176
     1
 90
       50
176
     1
290
     0
176
     1
 90
       50
176
     1
 62
   256
176
     0
 40
1.0
176
     0
 90
        2
176
     1
  1
strokes_ogs.tif
176
     1
290
     0
176
     1
 40
1.0
176
     1
 40
1.0
176
     1
  0
VISUALSTYLE
  5
3E
102
{ACAD_REACTORS
330
29
102
}
330
29
100
AcDbVisualStyle
  2
Shaded
 70
    27
177
     3
291
     0
 70
    58
 90
        2
176
     1
 90
        2
176
     1
 90
        1
176
     1
 90
        2
176
     1
 40
0.6
176
     1
 40
30.0
176
     1
 62
     7
420
 16777215
176
     1
 90
        0
176
     1
 90
        4
176
     1
 62
     7
176
     1
 62
   257
176
     1
 90
        1
176
     1
 90
        1
176
     1
 40
1.0
176
     1
 90
        8
176
     1
 62
   257
176
     1
 40
1.0
176
     1
 90
        1
176
     1
 90
        6
176
     1
 90
        2
176
     1
 62
     8
420
  7895160
176
     1
 90
        3
176
     1
 90
        0
176
     1
 90
        0
176
     1
290
     0
176
     1
 90
        5
176
     1
 40
0.0
176
     1
 90
        0
176
     1
290
     0
176
     1
290
     1
176
     1
290
     1
176
     1
290
     0
176
     1
290
     0
176
     1
290
     0
176
     1
290
     0
176
     1
290
     0
176
     1
290
     0
176
     1
 90
       50
176
     1
 40
0.0
176
     1
 40
1.0
176
     1
 90
        0
176
     1
 62
    18
420
        0
176
     1
 90
       50
176
     1
 90
        3
176
     1
 62
     5
420
      255
176
     1
290
     0
176
     1
 90
       50
176
     1
 90
       50
176
     1
 90
       50
176
     1
290
     0
176
     1
 90
       50
176
     1
 62
   256
176
     0
 40
1.0
176
     0
 90
        2
176
     1
  1
strokes_ogs.tif
176
     1
290
     0
176
     1
 40
1.0
176
     1
 40
1.0
176
     1
  0
VISUALSTYLE
  5
3D
102
{ACAD_REACTORS
330
29
102
}
330
29
100
AcDbVisualStyle
  2
Shaded with edges
 70
    26
177
     3
291
     0
 70
    58
 90
        2
176
     1
 90
        2
176
     1
 90
        1
176
     1
 90
        2
176
     1
 40
0.6
176
     1
 40
30.0
176
     1
 62
     7
420
 16777215
176
     1
 90
        1
176
     1
 90
        2
176
     1
 62
     7
176
     1
 62
   257
176
     1
 90
        2
176
     1
 90
        1
176
     1
 40
1.0
176
     1
 90
        8
176
     1
 62
   257
176
     1
 40
1.0
176
     1
 90
        1
176
     1
 90
        6
176
     1
 90
        2
176
     1
 62
     7
176
     1
 90
        3
176
     1
 90
        0
176
     1
 90
        0
176
     1
290
     0
176
     1
 90
        5
176
     1
 40
0.0
176
     1
 90
        0
176
     1
290
     0
176
     1
290
     1
176
     1
290
     1
176
     1
290
     0
176
     1
290
     0
176
     1
290
     0
176
     1
290
     0
176
     1
290
     0
176
     1
290
     0
176
     1
 90
       50
176
     1
 40
0.0
176
     1
 40
1.0
176
     1
 90
        0
176
     1
 62
    18
420
        0
176
     1
 90
       50
176
     1
 90
        3
176
     1
 62
     5
420
      255
176
     1
290
     0
176
     1
 90
       50
176
     1
 90
       50
176
     1
 90
       50
176
     1
290
     0
176
     1
 90
       50
176
     1
 62
   256
176
     0
 40
1.0
176
     0
 90
        2
176
     1
  1
strokes_ogs.tif
176
     1
290
     0
176
     1
 40
1.0
176
     1
 40
1.0
176
     1
  0
VISUALSTYLE
  5
3A
102
{ACAD_REACTORS
330
29
102
}
330
29
100
AcDbVisualStyle
  2
Shades of Gray
 70
    23
177
     3
291
     0
 70
    58
 90
        2
176
     1
 90
        2
176
     1
 90
        3
176
     1
 90
        0
176
     1
 40
0.6
176
     1
 40
30.0
176
     1
 62
     7
420
 16777215
176
     1
 90
        2
176
     1
 90
        2
176
     1
 62
     7
176
     1
 62
     7
176
     1
 90
        1
176
     1
 90
        1
176
     1
 40
40.0
176
     1
 90
        8
176
     1
 62
     7
176
     1
 40
1.0
176
     1
 90
        1
176
     1
 90
        6
176
     1
 90
        2
176
     1
 62
     7
176
     1
 90
        3
176
     1
 90
        0
176
     1
 90
        0
176
     1
290
     0
176
     1
 90
        1
176
     1
 40
0.0
176
     1
 90
        0
176
     1
290
     0
176
     1
290
     1
176
     1
290
     1
176
     1
290
     0
176
     1
290
     0
176
     1
290
     0
176
     1
290
     0
176
     1
290
     0
176
     1
290
     0
176
     1
 90
       50
176
     1
 40
0.0
176
     1
 40
1.0
176
     1
 90
        0
176
     1
 62
    18
420
        0
176
     1
 90
       50
176
     1
 90
        3
176
     1
 62
     5
420
      255
176
     1
290
     0
176
     1
 90
       50
176
     1
 90
       50
176
     1
 90
       50
176
     1
290
     0
176
     1
 90
       50
176
     1
 62
   256
176
     0
 40
1.0
176
     0
 90
        2
176
     1
  1
strokes_ogs.tif
176
     1
290
     0
176
     1
 40
1.0
176
     1
 40
1.0
176
     1
  0
VISUALSTYLE
  5
3B
102
{ACAD_REACTORS
330
29
102
}
330
29
100
AcDbVisualStyle
  2
Sketchy
 70
    24
177
     3
291
     0
 70
    58
 90
        1
176
     1
 90
        2
176
     1
 90
        2
176
     1
 90
        0
176
     1
 40
0.6
176
     1
 40
30.0
176
     1
 62
     7
420
 16777215
176
     1
 90
        2
176
     1
 90
        2
176
     1
 62
     7
176
     1
 62
     7
176
     1
 90
        1
176
     1
 90
        1
176
     1
 40
40.0
176
     1
 90
       11
176
     1
 62
     7
176
     1
 40
1.0
176
     1
 90
        1
176
     1
 90
        6
176
     1
 90
        2
176
     1
 62
     7
176
     1
 90
        6
176
     1
 90
        0
176
     1
 90
        0
176
     1
290
     0
176
     1
 90
        1
176
     1
 40
0.0
176
     1
 90
        0
176
     1
290
     0
176
     1
290
     1
176
     1
290
     1
176
     1
290
     0
176
     1
290
     0
176
     1
290
     0
176
     1
290
     0
176
     1
290
     0
176
     1
290
     0
176
     1
 90
       50
176
     1
 40
0.0
176
     1
 40
1.0
176
     1
 90
        0
176
     1
 62
    18
420
        0
176
     1
 90
       50
176
     1
 90
        3
176
     1
 62
     5
420
      255
176
     1
290
     0
176
     1
 90
       50
176
     1
 90
       50
176
     1
 90
       50
176
     1
290
     0
176
     1
 90
       50
176
     1
 62
   256
176
     0
 40
1.0
176
     0
 90
        2
176
     1
  1
strokes_ogs.tif
176
     1
290
     0
176
     1
 40
1.0
176
     1
 40
1.0
176
     1
  0
VISUALSTYLE
  5
36
102
{ACAD_REACTORS
330
29
102
}
330
29
100
AcDbVisualStyle
  2
Thicken
 70
    13
177
     3
291
     1
 70
    58
 90
        2
176
     1
 90
        2
176
     1
 90
        0
176
     1
 90
        0
176
     1
 40
0.6
176
     1
 40
30.0
176
     1
 62
     7
420
 16777215
176
     1
 90
        1
176
     1
 90
        4
176
     1
 62
     7
176
     1
 62
   257
176
     1
 90
        1
176
     1
 90
        1
176
     1
 40
1.0
176
     1
 90
       12
176
     1
 62
     7
176
     1
 40
1.0
176
     1
 90
        1
176
     1
 90
        6
176
     1
 90
        2
176
     1
 62
     7
176
     1
 90
        5
176
     1
 90
        0
176
     1
 90
        0
176
     1
290
     0
176
     1
 90
        1
176
     1
 40
0.0
176
     1
 90
        0
176
     1
290
     0
176
     1
290
     1
176
     1
290
     1
176
     1
290
     0
176
     1
290
     0
176
     1
290
     0
176
     1
290
     0
176
     1
290
     0
176
     1
290
     0
176
     1
 90
       50
176
     1
 40
0.0
176
     1
 40
1.0
176
     1
 90
        0
176
     1
 62
    18
420
        0
176
     1
 90
       50
176
     1
 90
        3
176
     1
 62
     5
420
      255
176
     1
290
     0
176
     1
 90
       50
176
     1
 90
       50
176
     1
 90
       50
176
     1
290
     0
176
     1
 90
       50
176
     1
 62
   256
176
     0
 40
1.0
176
     0
 90
        2
176
     1
  1
strokes_ogs.tif
176
     1
290
     0
176
     1
 40
1.0
176
     1
 40
1.0
176
     1
  0
VISUALSTYLE
  5
30
102
{ACAD_REACTORS
330
29
102
}
330
29
100
AcDbVisualStyle
  2
Wireframe
 70
     5
177
     3
291
     0
 70
    58
 90
        0
176
     1
 90
        2
176
     1
 90
        0
176
     1
 90
        0
176
     1
 40
0.6
176
     1
 40
30.0
176
     1
 62
     7
420
 16777215
176
     1
 90
        1
176
     1
 90
        4
176
     1
 62
     7
176
     1
 62
   257
176
     1
 90
        1
176
     1
 90
        1
176
     1
 40
1.0
176
     1
 90
        0
176
     1
 62
   257
176
     1
 40
1.0
176
     1
 90
        1
176
     1
 90
        6
176
     1
 90
        2
176
     1
 62
     7
176
     1
 90
        3
176
     1
 90
        0
176
     1
 90
        0
176
     1
290
     0
176
     1
 90
        1
176
     1
 40
0.0
176
     1
 90
        0
176
     1
290
     0
176
     1
290
     1
176
     1
290
     1
176
     1
290
     0
176
     1
290
     0
176
     1
290
     0
176
     1
290
     0
176
     1
290
     0
176
     1
290
     0
176
     1
 90
       50
176
     1
 40
0.0
176
     1
 40
1.0
176
     1
 90
        0
176
     1
 62
    18
420
        0
176
     1
 90
       50
176
     1
 90
        3
176
     1
 62
     5
420
      255
176
     1
290
     0
176
     1
 90
       50
176
     1
 90
       50
176
     1
 90
       50
176
     1
290
     0
176
     1
 90
       50
176
     1
 62
   256
176
     0
 40
1.0
176
     0
 90
        2
176
     1
  1
strokes_ogs.tif
176
     1
290
     0
176
     1
 40
1.0
176
     1
 40
1.0
176
     1
  0
VISUALSTYLE
  5
3C
102
{ACAD_REACTORS
330
29
102
}
330
29
100
AcDbVisualStyle
  2
X-Ray
 70
    25
177
     3
291
     0
 70
    58
 90
        2
176
     1
 90
        2
176
     1
 90
        1
176
     1
 90
        1
176
     1
 40
0.5
176
     1
 40
30.0
176
     1
 62
     7
420
 16777215
176
     1
 90
        1
176
     1
 90
        0
176
     1
 62
     7
176
     1
 62
   257
176
     1
 90
        1
176
     1
 90
        1
176
     1
 40
1.0
176
     1
 90
        8
176
     1
 62
     7
176
     1
 40
1.0
176
     1
 90
        1
176
     1
 90
        6
176
     1
 90
        2
176
     1
 62
     7
176
     1
 90
        3
176
     1
 90
        0
176
     1
 90
        0
176
     1
290
     0
176
     1
 90
       13
176
     1
 40
0.0
176
     1
 90
        0
176
     1
290
     0
176
     1
290
     1
176
     1
290
     1
176
     1
290
     0
176
     1
290
     0
176
     1
290
     0
176
     1
290
     0
176
     1
290
     0
176
     1
290
     0
176
     1
 90
       50
176
     1
 40
0.0
176
     1
 40
1.0
176
     1
 90
        0
176
     1
 62
    18
420
        0
176
     1
 90
       50
176
     1
 90
        3
176
     1
 62
     5
420
      255
176
     1
290
     0
176
     1
 90
       50
176
     1
 90
       50
176
     1
 90
       50
176
     1
290
     0
176
     1
 90
       50
176
     1
 62
   256
176
     0
 40
1.0
176
     0
 90
        2
176
     1
  1
strokes_ogs.tif
176
     1
290
     0
176
     1
 40
1.0
176
     1
 40
1.0
176
     1
  0
DICTIONARYVAR
  5
F4
102
{ACAD_REACTORS
330
EF
102
}
330
EF
100
DictionaryVariables
280
     0
  1
1:1
  0
DICTIONARYVAR
  5
F1
102
{ACAD_REACTORS
330
EF
102
}
330
EF
100
DictionaryVariables
280
     0
  1
STANDARD
  0
DICTIONARYVAR
  5
F0
102
{ACAD_REACTORS
330
EF
102
}
330
EF
100
DictionaryVariables
280
     0
  1
STANDARD
  0
DICTIONARYVAR
  5
F2
102
{ACAD_REACTORS
330
EF
102
}
330
EF
100
DictionaryVariables
280
     0
  1
Imperial24
  0
DICTIONARYVAR
  5
F3
102
{ACAD_REACTORS
330
EF
102
}
330
EF
100
DictionaryVariables
280
     0
  1
Imperial24
  0
DICTIONARY
  5
1A
330
19
100
AcDbDictionary
280
     1
281
     1
  3
BUMPTILE
360
1C
  3
DIFFUSETILE
360
1B
  3
OPACITYTILE
360
1F
  3
REFLECTIONTILE
360
1E
  3
REFRACTIONTILE
360
20
  3
SPECULARTILE
360
1D
  0
DICTIONARY
  5
12
330
11
100
AcDbDictionary
280
     1
281
     1
  3
BUMPTILE
360
14
  3
DIFFUSETILE
360
13
  3
OPACITYTILE
360
17
  3
REFLECTIONTILE
360
16
  3
REFRACTIONTILE
360
18
  3
SPECULARTILE
360
15
  0
DICTIONARY
  5
22
330
21
100
AcDbDictionary
280
     1
281
     1
  3
BUMPTILE
360
24
  3
DIFFUSETILE
360
23
  3
OPACITYTILE
360
27
  3
REFLECTIONTILE
360
26
  3
REFRACTIONTILE
360
28
  3
SPECULARTILE
360
25
  0
DICTIONARY
  5
F5
330
65
100
AcDbDictionary
280
     1
281
     1
  3
ACAD_ROUNDTRIP_2008_TABLESTYLE_CELLSTYLEMAP
360
F6
  0
XRECORD
  5
1C
102
{ACAD_REACTORS
330
1A
102
}
330
1A
100
AcDbXrecord
280
     1
270
     1
271
     1
  0
XRECORD
  5
1B
102
{ACAD_REACTORS
330
1A
102
}
330
1A
100
AcDbXrecord
280
     1
270
     1
271
     1
  0
XRECORD
  5
1F
102
{ACAD_REACTORS
330
1A
102
}
330
1A
100
AcDbXrecord
280
     1
270
     1
271
     1
  0
XRECORD
  5
1E
102
{ACAD_REACTORS
330
1A
102
}
330
1A
100
AcDbXrecord
280
     1
270
     1
271
     1
  0
XRECORD
  5
20
102
{ACAD_REACTORS
330
1A
102
}
330
1A
100
AcDbXrecord
280
     1
270
     1
271
     1
  0
XRECORD
  5
1D
102
{ACAD_REACTORS
330
1A
102
}
330
1A
100
AcDbXrecord
280
     1
270
     1
271
     1
  0
XRECORD
  5
14
102
{ACAD_REACTORS
330
12
102
}
330
12
100
AcDbXrecord
280
     1
270
     1
271
     1
  0
XRECORD
  5
13
102
{ACAD_REACTORS
330
12
102
}
330
12
100
AcDbXrecord
280
     1
270
     1
271
     1
  0
XRECORD
  5
17
102
{ACAD_REACTORS
330
12
102
}
330
12
100
AcDbXrecord
280
     1
270
     1
271
     1
  0
XRECORD
  5
16
102
{ACAD_REACTORS
330
12
102
}
330
12
100
AcDbXrecord
280
     1
270
     1
271
     1
  0
XRECORD
  5
18
102
{ACAD_REACTORS
330
12
102
}
330
12
100
AcDbXrecord
280
     1
270
     1
271
     1
  0
XRECORD
  5
15
102
{ACAD_REACTORS
330
12
102
}
330
12
100
AcDbXrecord
280
     1
270
     1
271
     1
  0
XRECORD
  5
24
102
{ACAD_REACTORS
330
22
102
}
330
22
100
AcDbXrecord
280
     1
270
     1
271
     1
  0
XRECORD
  5
23
102
{ACAD_REACTORS
330
22
102
}
330
22
100
AcDbXrecord
280
     1
270
     1
271
     1
  0
XRECORD
  5
27
102
{ACAD_REACTORS
330
22
102
}
330
22
100
AcDbXrecord
280
     1
270
     1
271
     1
  0
XRECORD
  5
26
102
{ACAD_REACTORS
330
22
102
}
330
22
100
AcDbXrecord
280
     1
270
     1
271
     1
  0
XRECORD
  5
28
102
{ACAD_REACTORS
330
22
102
}
330
22
100
AcDbXrecord
280
     1
270
     1
271
     1
  0
XRECORD
  5
25
102
{ACAD_REACTORS
330
22
102
}
330
22
100
AcDbXrecord
280
     1
270
     1
271
     1
  0
CELLSTYLEMAP
  5
F6
102
{ACAD_REACTORS
330
F5
102
}
330
F5
100
AcDbCellStyleMap
 90
        3
300
CELLSTYLE
  1
TABLEFORMAT_BEGIN
 90
        5
170
     1
 91
        0
 92
    32768
 62
   257
 93
        1
300
CONTENTFORMAT
  1
CONTENTFORMAT_BEGIN
 90
        0
 91
        0
 92
      512
 93
        0
300

 40
0.0
140
1.0
 94
        5
 62
     0
340
55
144
0.25
309
CONTENTFORMAT_END
171
     0
 94
        0
309
TABLEFORMAT_END
  1
CELLSTYLE_BEGIN
 90
        1
 91
        1
300
_TITLE
309
CELLSTYLE_END
300
CELLSTYLE
  1
TABLEFORMAT_BEGIN
 90
        5
170
     1
 91
        0
 92
        0
 62
   257
 93
        1
300
CONTENTFORMAT
  1
CONTENTFORMAT_BEGIN
 90
        0
 91
        0
 92
      512
 93
        0
300

 40
0.0
140
1.0
 94
        5
 62
     0
340
55
144
0.18
309
CONTENTFORMAT_END
171
     0
 94
        0
309
TABLEFORMAT_END
  1
CELLSTYLE_BEGIN
 90
        2
 91
        1
300
_HEADER
309
CELLSTYLE_END
300
CELLSTYLE
  1
TABLEFORMAT_BEGIN
 90
        5
170
     1
 91
        0
 92
        0
 62
   257
 93
        1
300
CONTENTFORMAT
  1
CONTENTFORMAT_BEGIN
 90
        0
 91
        0
 92
      512
 93
        0
300

 40
0.0
140
1.0
 94
        2
 62
     0
340
55
144
0.18
309
CONTENTFORMAT_END
171
     0
 94
        0
309
TABLEFORMAT_END
  1
CELLSTYLE_BEGIN
 90
        3
 91
        2
300
_DATA
309
CELLSTYLE_END
  0
ENDSEC
  0
EOF
